<?xml version="1.0" encoding="utf-8" standalone="no"?>
<!DOCTYPE svg PUBLIC "-//W3C//DTD SVG 1.1//EN"
  "http://www.w3.org/Graphics/SVG/1.1/DTD/svg11.dtd">
<svg xmlns:xlink="http://www.w3.org/1999/xlink" width="454.1475pt" height="372.985125pt" viewBox="0 0 454.1475 372.985125" xmlns="http://www.w3.org/2000/svg" version="1.1">
 <metadata>
  <rdf:RDF xmlns:dc="http://purl.org/dc/elements/1.1/" xmlns:cc="http://creativecommons.org/ns#" xmlns:rdf="http://www.w3.org/1999/02/22-rdf-syntax-ns#">
   <cc:Work>
    <dc:type rdf:resource="http://purl.org/dc/dcmitype/StillImage"/>
    <dc:date>2023-06-07T15:32:03.013178</dc:date>
    <dc:format>image/svg+xml</dc:format>
    <dc:creator>
     <cc:Agent>
      <dc:title>Matplotlib v3.6.1, https://matplotlib.org/</dc:title>
     </cc:Agent>
    </dc:creator>
   </cc:Work>
  </rdf:RDF>
 </metadata>
 <defs>
  <style type="text/css">*{stroke-linejoin: round; stroke-linecap: butt}</style>
 </defs>
 <g id="figure_1">
  <g id="patch_1">
   <path d="M 0 372.985125 
L 454.1475 372.985125 
L 454.1475 0 
L 0 0 
z
" style="fill: #ffffff"/>
  </g>
  <g id="axes_1">
   <g id="patch_2">
    <path d="M 89.8275 300.587625 
L 446.9475 300.587625 
L 446.9475 34.475625 
L 89.8275 34.475625 
z
" style="fill: #ffffff"/>
   </g>
   <g id="PolyCollection_1">
    <defs>
     <path id="m2c320a2263" d="M 106.060227 -84.4935 
L 106.060227 -84.4935 
L 106.694318 -84.4935 
L 107.328409 -84.4935 
L 107.9625 -84.4935 
L 108.596591 -84.4935 
L 109.230682 -84.4935 
L 109.864773 -84.4935 
L 110.498864 -84.4935 
L 111.132955 -84.4935 
L 111.767045 -84.4935 
L 112.401136 -84.4935 
L 113.035227 -84.4935 
L 113.669318 -84.4935 
L 114.303409 -84.4935 
L 114.9375 -84.4935 
L 115.571591 -84.4935 
L 116.205682 -84.4935 
L 116.839773 -84.4935 
L 117.473864 -84.4935 
L 118.107955 -84.4935 
L 118.742045 -84.4935 
L 119.376136 -84.4935 
L 120.010227 -84.4935 
L 120.644318 -84.4935 
L 121.278409 -84.4935 
L 121.9125 -84.4935 
L 122.546591 -84.4935 
L 123.180682 -84.4935 
L 123.814773 -84.4935 
L 124.448864 -84.4935 
L 125.082955 -84.4935 
L 125.717045 -84.4935 
L 126.351136 -84.4935 
L 126.985227 -84.4935 
L 127.619318 -84.4935 
L 128.253409 -84.4935 
L 128.8875 -84.4935 
L 129.521591 -84.4935 
L 130.155682 -84.4935 
L 130.789773 -84.4935 
L 131.423864 -84.4935 
L 132.057955 -84.4935 
L 132.692045 -84.4935 
L 133.326136 -84.4935 
L 133.960227 -84.4935 
L 134.594318 -84.4935 
L 135.228409 -84.4935 
L 135.8625 -84.4935 
L 136.496591 -84.4935 
L 137.130682 -84.4935 
L 137.764773 -84.4935 
L 138.398864 -84.4935 
L 139.032955 -84.4935 
L 139.667045 -84.4935 
L 140.301136 -84.4935 
L 140.935227 -84.4935 
L 141.569318 -84.4935 
L 142.203409 -84.4935 
L 142.8375 -84.4935 
L 143.471591 -84.4935 
L 144.105682 -84.4935 
L 144.739773 -84.4935 
L 145.373864 -84.4935 
L 146.007955 -84.4935 
L 146.642045 -84.4935 
L 147.276136 -84.4935 
L 147.910227 -84.4935 
L 148.544318 -84.4935 
L 149.178409 -84.4935 
L 149.8125 -84.4935 
L 150.446591 -84.4935 
L 151.080682 -84.4935 
L 151.714773 -84.4935 
L 152.348864 -84.4935 
L 152.982955 -84.4935 
L 153.617045 -84.4935 
L 154.251136 -84.4935 
L 154.885227 -84.4935 
L 155.519318 -84.4935 
L 156.153409 -84.4935 
L 156.7875 -84.4935 
L 157.421591 -84.4935 
L 158.055682 -84.4935 
L 158.689773 -84.4935 
L 159.323864 -84.4935 
L 159.957955 -84.4935 
L 160.592045 -84.4935 
L 161.226136 -84.4935 
L 161.860227 -84.4935 
L 162.494318 -84.4935 
L 163.128409 -84.4935 
L 163.7625 -84.4935 
L 164.396591 -84.4935 
L 165.030682 -84.4935 
L 165.664773 -84.4935 
L 166.298864 -84.4935 
L 166.932955 -84.4935 
L 167.567045 -84.4935 
L 168.201136 -84.4935 
L 168.835227 -84.4935 
L 169.469318 -84.4935 
L 170.103409 -84.4935 
L 170.7375 -84.4935 
L 171.371591 -84.4935 
L 172.005682 -84.4935 
L 172.639773 -84.4935 
L 173.273864 -84.4935 
L 173.907955 -84.4935 
L 174.542045 -84.4935 
L 175.176136 -84.4935 
L 175.810227 -84.4935 
L 176.444318 -84.4935 
L 177.078409 -84.4935 
L 177.7125 -84.4935 
L 178.346591 -84.4935 
L 178.980682 -84.4935 
L 179.614773 -84.4935 
L 180.248864 -84.4935 
L 180.882955 -84.4935 
L 181.517045 -84.4935 
L 182.151136 -84.4935 
L 182.785227 -84.4935 
L 183.419318 -84.4935 
L 184.053409 -84.4935 
L 184.6875 -84.4935 
L 185.321591 -84.4935 
L 185.955682 -84.4935 
L 186.589773 -84.4935 
L 187.223864 -84.4935 
L 187.857955 -84.4935 
L 188.492045 -84.4935 
L 189.126136 -84.4935 
L 189.760227 -84.4935 
L 190.394318 -84.4935 
L 191.028409 -84.4935 
L 191.6625 -84.4935 
L 192.296591 -84.4935 
L 192.930682 -84.4935 
L 193.564773 -84.4935 
L 194.198864 -84.4935 
L 194.832955 -84.4935 
L 195.467045 -84.4935 
L 196.101136 -84.4935 
L 196.735227 -84.4935 
L 197.369318 -84.4935 
L 198.003409 -84.4935 
L 198.6375 -84.4935 
L 199.271591 -84.4935 
L 199.905682 -84.4935 
L 200.539773 -84.4935 
L 201.173864 -84.4935 
L 201.807955 -84.4935 
L 202.442045 -84.4935 
L 203.076136 -84.4935 
L 203.710227 -84.4935 
L 204.344318 -84.4935 
L 204.978409 -84.4935 
L 205.6125 -84.4935 
L 206.246591 -84.4935 
L 206.880682 -84.4935 
L 207.514773 -84.4935 
L 208.148864 -84.4935 
L 208.782955 -84.4935 
L 209.417045 -84.4935 
L 210.051136 -84.4935 
L 210.685227 -84.4935 
L 211.319318 -84.4935 
L 211.953409 -84.4935 
L 212.5875 -84.4935 
L 213.221591 -84.4935 
L 213.855682 -84.4935 
L 214.489773 -84.4935 
L 215.123864 -84.4935 
L 215.757955 -84.4935 
L 216.392045 -84.4935 
L 217.026136 -84.4935 
L 217.660227 -84.4935 
L 218.294318 -84.4935 
L 218.928409 -84.4935 
L 219.5625 -84.4935 
L 220.196591 -84.4935 
L 220.830682 -84.4935 
L 221.464773 -84.4935 
L 222.098864 -84.4935 
L 222.732955 -84.4935 
L 223.367045 -84.4935 
L 224.001136 -84.4935 
L 224.635227 -84.4935 
L 225.269318 -84.4935 
L 225.903409 -84.4935 
L 226.5375 -84.4935 
L 227.171591 -84.4935 
L 227.805682 -84.4935 
L 228.439773 -84.4935 
L 229.073864 -84.4935 
L 229.707955 -84.4935 
L 230.342045 -84.4935 
L 230.976136 -84.4935 
L 231.610227 -84.4935 
L 232.244318 -84.4935 
L 232.878409 -84.4935 
L 233.5125 -84.4935 
L 234.146591 -84.4935 
L 234.780682 -84.4935 
L 235.414773 -84.4935 
L 236.048864 -84.4935 
L 236.682955 -84.4935 
L 237.317045 -84.4935 
L 237.951136 -84.4935 
L 238.585227 -84.4935 
L 239.219318 -84.4935 
L 239.853409 -84.4935 
L 240.4875 -84.4935 
L 241.121591 -84.4935 
L 241.755682 -84.4935 
L 242.389773 -84.4935 
L 243.023864 -84.4935 
L 243.657955 -84.4935 
L 244.292045 -84.4935 
L 244.926136 -84.4935 
L 245.560227 -84.4935 
L 246.194318 -84.4935 
L 246.828409 -84.4935 
L 247.4625 -84.4935 
L 248.096591 -84.4935 
L 248.730682 -84.4935 
L 249.364773 -84.4935 
L 249.998864 -84.4935 
L 250.632955 -84.4935 
L 251.267045 -84.4935 
L 251.901136 -84.4935 
L 252.535227 -84.4935 
L 253.169318 -84.4935 
L 253.803409 -84.4935 
L 254.4375 -84.4935 
L 255.071591 -84.4935 
L 255.705682 -84.4935 
L 256.339773 -84.4935 
L 256.973864 -84.4935 
L 257.607955 -84.4935 
L 258.242045 -84.4935 
L 258.876136 -84.4935 
L 259.510227 -84.4935 
L 260.144318 -84.4935 
L 260.778409 -84.4935 
L 261.4125 -84.4935 
L 262.046591 -84.4935 
L 262.680682 -84.4935 
L 263.314773 -84.4935 
L 263.948864 -84.4935 
L 264.582955 -84.4935 
L 265.217045 -84.4935 
L 265.851136 -84.4935 
L 266.485227 -84.4935 
L 267.119318 -84.4935 
L 267.753409 -84.4935 
L 268.3875 -84.4935 
L 269.021591 -84.4935 
L 269.655682 -84.4935 
L 270.289773 -84.4935 
L 270.923864 -84.4935 
L 271.557955 -84.4935 
L 272.192045 -84.4935 
L 272.826136 -84.4935 
L 273.460227 -84.4935 
L 274.094318 -84.4935 
L 274.728409 -84.4935 
L 275.3625 -84.4935 
L 275.996591 -84.4935 
L 276.630682 -84.4935 
L 277.264773 -84.4935 
L 277.898864 -84.4935 
L 278.532955 -84.4935 
L 279.167045 -84.4935 
L 279.801136 -84.4935 
L 280.435227 -84.4935 
L 281.069318 -84.4935 
L 281.703409 -84.4935 
L 282.3375 -84.4935 
L 282.971591 -84.4935 
L 283.605682 -84.4935 
L 284.239773 -84.4935 
L 284.873864 -84.4935 
L 285.507955 -84.4935 
L 286.142045 -84.4935 
L 286.776136 -84.4935 
L 287.410227 -84.4935 
L 288.044318 -84.4935 
L 288.678409 -84.4935 
L 289.3125 -84.4935 
L 289.946591 -84.4935 
L 290.580682 -84.4935 
L 291.214773 -84.4935 
L 291.848864 -84.4935 
L 292.482955 -84.4935 
L 293.117045 -84.4935 
L 293.751136 -84.4935 
L 294.385227 -84.4935 
L 295.019318 -84.4935 
L 295.653409 -84.4935 
L 296.2875 -84.4935 
L 296.921591 -84.4935 
L 297.555682 -84.4935 
L 298.189773 -84.4935 
L 298.823864 -84.4935 
L 299.457955 -84.4935 
L 300.092045 -84.4935 
L 300.726136 -84.4935 
L 301.360227 -84.4935 
L 301.994318 -84.4935 
L 302.628409 -84.4935 
L 303.2625 -84.4935 
L 303.896591 -90.152676 
L 304.530682 -84.4935 
L 305.164773 -84.4935 
L 305.798864 -84.4935 
L 306.432955 -84.4935 
L 307.067045 -84.4935 
L 307.701136 -84.4935 
L 308.335227 -84.4935 
L 308.969318 -84.4935 
L 309.603409 -84.4935 
L 310.2375 -84.4935 
L 310.871591 -84.4935 
L 311.505682 -84.4935 
L 312.139773 -84.4935 
L 312.773864 -84.4935 
L 313.407955 -84.4935 
L 314.042045 -84.4935 
L 314.676136 -84.4935 
L 315.310227 -84.4935 
L 315.944318 -84.915649 
L 316.578409 -84.4935 
L 317.2125 -84.4935 
L 317.846591 -84.4935 
L 318.480682 -84.4935 
L 319.114773 -84.4935 
L 319.748864 -84.4935 
L 320.382955 -84.4935 
L 321.017045 -84.4935 
L 321.651136 -84.4935 
L 322.285227 -84.4935 
L 322.919318 -84.4935 
L 323.553409 -84.4935 
L 324.1875 -84.4935 
L 324.821591 -84.579937 
L 325.455682 -84.4935 
L 326.089773 -84.4935 
L 326.723864 -84.4935 
L 327.357955 -84.4935 
L 327.992045 -84.4935 
L 328.626136 -84.4935 
L 329.260227 -84.4935 
L 329.894318 -84.4935 
L 330.528409 -84.4935 
L 331.1625 -84.4935 
L 331.796591 -84.4935 
L 332.430682 -84.4935 
L 333.064773 -84.4935 
L 333.698864 -84.4935 
L 334.332955 -84.4935 
L 334.967045 -84.4935 
L 335.601136 -84.4935 
L 336.235227 -84.4935 
L 336.869318 -84.4935 
L 337.503409 -84.4935 
L 338.1375 -84.4935 
L 338.771591 -84.4935 
L 339.405682 -84.4935 
L 340.039773 -84.4935 
L 340.673864 -85.889599 
L 341.307955 -84.4935 
L 341.942045 -84.4935 
L 342.576136 -84.4935 
L 343.210227 -84.4935 
L 343.844318 -84.4935 
L 344.478409 -84.4935 
L 345.1125 -84.4935 
L 345.746591 -88.569067 
L 346.380682 -84.4935 
L 347.014773 -84.4935 
L 347.648864 -84.4935 
L 348.282955 -84.4935 
L 348.917045 -84.4935 
L 349.551136 -84.4935 
L 350.185227 -84.4935 
L 350.819318 -84.4935 
L 351.453409 -84.4935 
L 352.0875 -84.4935 
L 352.721591 -84.4935 
L 353.355682 -84.4935 
L 353.989773 -89.892575 
L 354.623864 -84.4935 
L 355.257955 -93.611329 
L 355.892045 -94.620613 
L 356.526136 -88.233857 
L 357.160227 -89.206843 
L 357.794318 -86.302335 
L 358.428409 -91.041403 
L 359.0625 -84.4935 
L 359.696591 -84.4935 
L 360.330682 -84.4935 
L 360.964773 -89.227422 
L 361.598864 -84.4935 
L 362.232955 -84.4935 
L 362.867045 -84.4935 
L 363.501136 -84.4935 
L 364.135227 -84.4935 
L 364.769318 -88.101684 
L 365.403409 -94.637279 
L 366.0375 -84.4935 
L 366.671591 -84.4935 
L 367.305682 -87.154923 
L 367.939773 -84.4935 
L 368.573864 -84.4935 
L 369.207955 -84.4935 
L 369.842045 -84.4935 
L 370.476136 -84.4935 
L 371.110227 -85.935434 
L 371.744318 -101.185519 
L 372.378409 -84.4935 
L 373.0125 -84.4935 
L 373.646591 -84.4935 
L 374.280682 -84.4935 
L 374.914773 -84.4935 
L 375.548864 -93.748555 
L 376.182955 -84.4935 
L 376.817045 -84.4935 
L 377.451136 -84.4935 
L 378.085227 -84.4935 
L 378.719318 -84.4935 
L 379.353409 -84.4935 
L 379.9875 -84.4935 
L 380.621591 -97.746194 
L 381.255682 -84.4935 
L 381.889773 -84.4935 
L 382.523864 -84.4935 
L 383.157955 -84.4935 
L 383.792045 -84.4935 
L 384.426136 -84.4935 
L 385.060227 -84.4935 
L 385.694318 -87.183934 
L 386.328409 -84.4935 
L 386.9625 -84.4935 
L 387.596591 -90.917368 
L 388.230682 -93.18834 
L 388.864773 -84.4935 
L 389.498864 -84.4935 
L 390.132955 -84.4935 
L 390.767045 -84.4935 
L 391.401136 -84.4935 
L 392.035227 -84.4935 
L 392.669318 -84.4935 
L 393.303409 -84.4935 
L 393.9375 -84.4935 
L 394.571591 -84.4935 
L 395.205682 -84.4935 
L 395.839773 -84.4935 
L 396.473864 -84.4935 
L 397.107955 -89.266256 
L 397.742045 -84.4935 
L 398.376136 -84.4935 
L 399.010227 -84.4935 
L 399.644318 -84.4935 
L 400.278409 -87.23946 
L 400.9125 -84.4935 
L 401.546591 -84.4935 
L 402.180682 -84.4935 
L 402.814773 -84.4935 
L 403.448864 -87.95223 
L 404.082955 -84.4935 
L 404.717045 -84.4935 
L 405.351136 -84.4935 
L 405.985227 -87.624181 
L 406.619318 -87.183934 
L 407.253409 -84.4935 
L 407.8875 -84.4935 
L 408.521591 -84.4935 
L 409.155682 -84.4935 
L 409.789773 -84.4935 
L 410.423864 -84.4935 
L 411.057955 -84.4935 
L 411.692045 -84.4935 
L 412.326136 -86.642673 
L 412.960227 -84.4935 
L 413.594318 -84.4935 
L 414.228409 -84.4935 
L 414.8625 -84.4935 
L 415.496591 -84.4935 
L 416.130682 -84.4935 
L 416.764773 -94.612399 
L 417.398864 -84.4935 
L 418.032955 -84.4935 
L 418.667045 -84.4935 
L 419.301136 -84.4935 
L 419.935227 -84.4935 
L 420.569318 -84.4935 
L 421.203409 -84.4935 
L 421.8375 -84.4935 
L 422.471591 -84.4935 
L 423.105682 -84.4935 
L 423.739773 -84.4935 
L 423.739773 -284.374102 
L 423.739773 -284.374102 
L 423.105682 -283.184208 
L 422.471591 -295.374368 
L 421.8375 -298.231934 
L 421.203409 -266.88028 
L 420.569318 -276.086215 
L 419.935227 -255.253875 
L 419.301136 -268.862468 
L 418.667045 -286.383881 
L 418.032955 -300.52023 
L 417.398864 -285.08046 
L 416.764773 -299.360201 
L 416.130682 -308.002551 
L 415.496591 -292.717365 
L 414.8625 -292.890229 
L 414.228409 -288.630492 
L 413.594318 -253.4334 
L 412.960227 -291.889196 
L 412.326136 -292.814727 
L 411.692045 -274.65845 
L 411.057955 -259.562905 
L 410.423864 -267.927584 
L 409.789773 -271.973746 
L 409.155682 -192.266247 
L 408.521591 -280.271527 
L 407.8875 -285.08046 
L 407.253409 -312.769988 
L 406.619318 -283.806266 
L 405.985227 -296.671619 
L 405.351136 -291.187311 
L 404.717045 -304.637395 
L 404.082955 -285.08046 
L 403.448864 -290.29557 
L 402.814773 -293.988267 
L 402.180682 -283.434666 
L 401.546591 -284.968098 
L 400.9125 -285.947355 
L 400.278409 -286.16994 
L 399.644318 -299.825688 
L 399.010227 -285.803662 
L 398.376136 -241.629423 
L 397.742045 -279.308719 
L 397.107955 -301.077544 
L 396.473864 -298.231934 
L 395.839773 -269.983596 
L 395.205682 -277.325101 
L 394.571591 -274.454275 
L 393.9375 -259.711345 
L 393.303409 -299.04704 
L 392.669318 -283.434666 
L 392.035227 -282.197262 
L 391.401136 -284.374102 
L 390.767045 -279.849398 
L 390.132955 -265.326711 
L 389.498864 -276.334097 
L 388.864773 -301.862021 
L 388.230682 -263.28666 
L 387.596591 -281.282432 
L 386.9625 -247.64369 
L 386.328409 -307.90344 
L 385.694318 -283.806266 
L 385.060227 -302.310697 
L 384.426136 -291.190675 
L 383.792045 -282.707463 
L 383.157955 -279.827303 
L 382.523864 -291.889196 
L 381.889773 -273.816951 
L 381.255682 -274.141154 
L 380.621591 -291.388006 
L 379.9875 -325.213017 
L 379.353409 -321.723122 
L 378.719318 -296.248225 
L 378.085227 -288.174039 
L 377.451136 -289.869983 
L 376.817045 -310.347183 
L 376.182955 -309.169845 
L 375.548864 -295.385645 
L 374.914773 -283.297022 
L 374.280682 -293.168616 
L 373.646591 -286.711983 
L 373.0125 -289.073856 
L 372.378409 -268.394013 
L 371.744318 -291.577481 
L 371.110227 -293.521966 
L 370.476136 -269.584424 
L 369.842045 -287.234825 
L 369.207955 -301.862021 
L 368.573864 -279.72036 
L 367.939773 -287.234825 
L 367.305682 -280.206477 
L 366.671591 -257.651902 
L 366.0375 -289.345022 
L 365.403409 -315.060121 
L 364.769318 -301.032516 
L 364.135227 -289.589245 
L 363.501136 -270.298571 
L 362.867045 -255.908782 
L 362.232955 -277.325101 
L 361.598864 -300.249873 
L 360.964773 -285.391578 
L 360.330682 -289.923703 
L 359.696591 -302.51678 
L 359.0625 -284.088496 
L 358.428409 -296.883197 
L 357.794318 -283.478265 
L 357.160227 -299.927357 
L 356.526136 -304.529143 
L 355.892045 -310.238387 
L 355.257955 -293.103671 
L 354.623864 -283.812779 
L 353.989773 -313.756825 
L 353.355682 -296.64437 
L 352.721591 -311.291891 
L 352.0875 -281.871142 
L 351.453409 -283.751355 
L 350.819318 -260.4959 
L 350.185227 -279.688413 
L 349.551136 -255.92994 
L 348.917045 -286.56899 
L 348.282955 -283.751355 
L 347.648864 -285.273807 
L 347.014773 -279.461682 
L 346.380682 -304.107323 
L 345.746591 -299.355533 
L 345.1125 -293.284385 
L 344.478409 -288.965695 
L 343.844318 -305.427777 
L 343.210227 -302.891439 
L 342.576136 -288.395165 
L 341.942045 -309.699993 
L 341.307955 -307.121997 
L 340.673864 -309.292601 
L 340.039773 -288.797654 
L 339.405682 -271.678638 
L 338.771591 -286.772517 
L 338.1375 -283.434666 
L 337.503409 -290.630038 
L 336.869318 -313.500825 
L 336.235227 -280.147696 
L 335.601136 -247.88315 
L 334.967045 -268.061339 
L 334.332955 -306.597991 
L 333.698864 -285.585509 
L 333.064773 -290.770729 
L 332.430682 -308.132849 
L 331.796591 -306.13262 
L 331.1625 -306.655975 
L 330.528409 -274.782906 
L 329.894318 -279.601323 
L 329.260227 -251.875614 
L 328.626136 -262.833407 
L 327.992045 -298.684918 
L 327.357955 -295.80862 
L 326.723864 -284.651512 
L 326.089773 -280.965784 
L 325.455682 -290.630038 
L 324.821591 -287.619863 
L 324.1875 -290.012681 
L 323.553409 -294.771138 
L 322.919318 -310.347183 
L 322.285227 -301.594979 
L 321.651136 -297.259397 
L 321.017045 -285.229484 
L 320.382955 -294.266949 
L 319.748864 -293.914068 
L 319.114773 -286.535598 
L 318.480682 -279.308719 
L 317.846591 -237.580536 
L 317.2125 -263.336718 
L 316.578409 -274.725236 
L 315.944318 -299.380151 
L 315.310227 -266.119102 
L 314.676136 -290.798449 
L 314.042045 -280.271527 
L 313.407955 -295.199994 
L 312.773864 -281.871746 
L 312.139773 -277.588991 
L 311.505682 -298.684918 
L 310.871591 -300.789914 
L 310.2375 -291.518423 
L 309.603409 -293.279021 
L 308.969318 -277.924911 
L 308.335227 -290.770729 
L 307.701136 -282.707463 
L 307.067045 -312.12969 
L 306.432955 -304.107323 
L 305.798864 -286.521748 
L 305.164773 -306.860301 
L 304.530682 -311.291891 
L 303.896591 -321.963924 
L 303.2625 -319.492111 
L 302.628409 -300.311298 
L 301.994318 -290.039065 
L 301.360227 -312.38624 
L 300.726136 -295.293281 
L 300.092045 -297.802563 
L 299.457955 -290.039065 
L 298.823864 -305.427777 
L 298.189773 -262.00584 
L 297.555682 -287.611121 
L 296.921591 -305.342952 
L 296.2875 -267.927584 
L 295.653409 -298.4784 
L 295.019318 -301.594979 
L 294.385227 -276.086215 
L 293.751136 -259.877746 
L 293.117045 -276.37539 
L 292.482955 -276.334097 
L 291.848864 -271.353015 
L 291.214773 -250.155917 
L 290.580682 -250.445026 
L 289.946591 -249.980639 
L 289.3125 -258.921647 
L 288.678409 -261.091198 
L 288.044318 -278.183268 
L 287.410227 -287.234825 
L 286.776136 -294.467908 
L 286.142045 -286.521748 
L 285.507955 -266.019862 
L 284.873864 -299.04704 
L 284.239773 -293.362279 
L 283.605682 -297.149713 
L 282.971591 -268.093154 
L 282.3375 -291.893491 
L 281.703409 -277.109052 
L 281.069318 -271.314698 
L 280.435227 -264.50684 
L 279.801136 -280.04808 
L 279.167045 -284.330841 
L 278.532955 -276.057873 
L 277.898864 -285.619736 
L 277.264773 -284.330841 
L 276.630682 -271.772485 
L 275.996591 -269.796267 
L 275.3625 -237.006717 
L 274.728409 -277.023608 
L 274.094318 -268.605565 
L 273.460227 -259.426261 
L 272.826136 -256.079527 
L 272.192045 -277.369246 
L 271.557955 -276.057873 
L 270.923864 -266.870404 
L 270.289773 -289.595089 
L 269.655682 -290.955307 
L 269.021591 -286.926967 
L 268.3875 -289.595089 
L 267.753409 -256.152111 
L 267.119318 -272.523068 
L 266.485227 -276.463155 
L 265.851136 -285.619736 
L 265.217045 -243.809883 
L 264.582955 -277.023608 
L 263.948864 -270.172344 
L 263.314773 -257.219589 
L 262.680682 -256.599567 
L 262.046591 -257.579864 
L 261.4125 -253.8375 
L 260.778409 -243.241869 
L 260.144318 -248.917124 
L 259.510227 -265.163136 
L 258.876136 -226.788399 
L 258.242045 -273.493072 
L 257.607955 -240.198016 
L 256.973864 -271.007994 
L 256.339773 -237.729244 
L 255.705682 -265.341078 
L 255.071591 -252.778018 
L 254.4375 -271.636332 
L 253.803409 -251.54228 
L 253.169318 -284.200994 
L 252.535227 -257.714586 
L 251.901136 -239.932665 
L 251.267045 -253.133101 
L 250.632955 -256.079527 
L 249.998864 -284.330841 
L 249.364773 -277.905797 
L 248.730682 -254.036341 
L 248.096591 -263.197005 
L 247.4625 -281.414799 
L 246.828409 -275.786838 
L 246.194318 -272.112002 
L 245.560227 -284.330841 
L 244.926136 -270.869179 
L 244.292045 -281.414799 
L 243.657955 -254.970096 
L 243.023864 -289.595089 
L 242.389773 -265.577118 
L 241.755682 -259.44002 
L 241.121591 -256.533216 
L 240.4875 -262.112575 
L 239.853409 -273.493072 
L 239.219318 -267.718007 
L 238.585227 -254.4479 
L 237.951136 -262.034727 
L 237.317045 -237.740689 
L 236.682955 -242.158618 
L 236.048864 -238.873775 
L 235.414773 -250.237495 
L 234.780682 -260.88846 
L 234.146591 -251.894215 
L 233.5125 -263.839444 
L 232.878409 -278.699439 
L 232.244318 -233.801902 
L 231.610227 -251.68799 
L 230.976136 -242.153118 
L 230.342045 -223.410511 
L 229.707955 -269.23667 
L 229.073864 -277.001189 
L 228.439773 -257.191687 
L 227.805682 -253.848911 
L 227.171591 -269.796267 
L 226.5375 -268.394402 
L 225.903409 -292.332516 
L 225.269318 -269.516843 
L 224.635227 -272.240383 
L 224.001136 -256.599567 
L 223.367045 -230.815931 
L 222.732955 -219.389682 
L 222.098864 -240.523727 
L 221.464773 -251.54228 
L 220.830682 -245.718099 
L 220.196591 -225.209287 
L 219.5625 -240.218808 
L 218.928409 -292.332516 
L 218.294318 -270.630109 
L 217.660227 -269.23667 
L 217.026136 -270.630109 
L 216.392045 -269.516843 
L 215.757955 -233.049852 
L 215.123864 -236.596149 
L 214.489773 -241.709663 
L 213.855682 -211.492473 
L 213.221591 -196.587363 
L 212.5875 -225.147932 
L 211.953409 -210.4872 
L 211.319318 -244.973764 
L 210.685227 -243.561948 
L 210.051136 -245.718099 
L 209.417045 -233.475662 
L 208.782955 -264.877668 
L 208.148864 -250.382424 
L 207.514773 -233.475662 
L 206.880682 -221.210611 
L 206.246591 -212.820553 
L 205.6125 -221.475321 
L 204.978409 -274.085441 
L 204.344318 -218.161675 
L 203.710227 -235.723101 
L 203.076136 -283.305676 
L 202.442045 -260.97258 
L 201.807955 -216.156013 
L 201.173864 -222.406507 
L 200.539773 -272.112002 
L 199.905682 -234.015071 
L 199.271591 -190.798576 
L 198.6375 -203.197142 
L 198.003409 -177.037979 
L 197.369318 -220.394515 
L 196.735227 -172.32335 
L 196.101136 -243.766778 
L 195.467045 -252.778018 
L 194.832955 -261.676215 
L 194.198864 -248.85646 
L 193.564773 -281.414799 
L 192.930682 -265.577118 
L 192.296591 -277.369246 
L 191.6625 -205.703317 
L 191.028409 -249.539909 
L 190.394318 -237.192236 
L 189.760227 -245.995759 
L 189.126136 -213.476531 
L 188.492045 -214.049172 
L 187.857955 -241.537057 
L 187.223864 -270.630109 
L 186.589773 -248.407956 
L 185.955682 -273.117659 
L 185.321591 -280.04808 
L 184.6875 -245.476968 
L 184.053409 -272.240383 
L 183.419318 -227.427662 
L 182.785227 -232.368703 
L 182.151136 -190.792973 
L 181.517045 -245.718099 
L 180.882955 -187.740041 
L 180.248864 -251.231734 
L 179.614773 -274.719616 
L 178.980682 -238.698598 
L 178.346591 -238.387931 
L 177.7125 -230.264506 
L 177.078409 -145.591838 
L 176.444318 -200.225178 
L 175.810227 -244.521311 
L 175.176136 -228.077543 
L 174.542045 -228.595354 
L 173.907955 -253.491824 
L 173.273864 -188.145808 
L 172.639773 -174.736744 
L 172.005682 -217.314461 
L 171.371591 -227.188753 
L 170.7375 -214.331653 
L 170.103409 -147.864405 
L 169.469318 -157.095787 
L 168.835227 -142.898155 
L 168.201136 -154.955626 
L 167.567045 -162.351402 
L 166.932955 -164.744227 
L 166.298864 -210.76192 
L 165.664773 -125.176349 
L 165.030682 -168.317578 
L 164.396591 -174.942625 
L 163.7625 -215.007497 
L 163.128409 -182.273065 
L 162.494318 -165.469454 
L 161.860227 -112.734494 
L 161.226136 -180.040268 
L 160.592045 -123.941934 
L 159.957955 -117.996657 
L 159.323864 -197.018611 
L 158.689773 -189.968126 
L 158.055682 -208.651768 
L 157.421591 -138.649445 
L 156.7875 -194.271838 
L 156.153409 -183.63416 
L 155.519318 -117.567756 
L 154.885227 -183.716268 
L 154.251136 -106.998522 
L 153.617045 -150.642012 
L 152.982955 -172.691516 
L 152.348864 -183.716268 
L 151.714773 -183.716268 
L 151.080682 -184.109945 
L 150.446591 -184.109945 
L 149.8125 -108.403839 
L 149.178409 -161.666764 
L 148.544318 -172.691516 
L 147.910227 -106.543004 
L 147.276136 -161.666764 
L 146.642045 -172.691516 
L 146.007955 -194.74102 
L 145.373864 -194.74102 
L 144.739773 -195.132945 
L 144.105682 -139.61726 
L 143.471591 -106.543004 
L 142.8375 -128.592508 
L 142.203409 -84.4935 
L 141.569318 -161.666764 
L 140.935227 -172.691516 
L 140.301136 -128.592508 
L 139.667045 -84.4935 
L 139.032955 -150.642012 
L 138.398864 -84.4935 
L 137.764773 -139.61726 
L 137.130682 -128.592508 
L 136.496591 -194.74102 
L 135.8625 -150.642012 
L 135.228409 -150.642012 
L 134.594318 -84.4935 
L 133.960227 -95.518252 
L 133.326136 -194.74102 
L 132.692045 -161.666764 
L 132.057955 -117.567756 
L 131.423864 -129.00816 
L 130.789773 -117.567756 
L 130.155682 -95.518252 
L 129.521591 -84.4935 
L 128.8875 -194.74102 
L 128.253409 -84.4935 
L 127.619318 -172.691516 
L 126.985227 -172.691516 
L 126.351136 -194.74102 
L 125.717045 -150.642012 
L 125.082955 -128.592508 
L 124.448864 -84.4935 
L 123.814773 -117.567756 
L 123.180682 -101.016943 
L 122.546591 -84.4935 
L 121.9125 -84.4935 
L 121.278409 -95.518252 
L 120.644318 -84.4935 
L 120.010227 -117.567756 
L 119.376136 -84.4935 
L 118.742045 -84.4935 
L 118.107955 -84.4935 
L 117.473864 -84.4935 
L 116.839773 -84.4935 
L 116.205682 -84.4935 
L 115.571591 -84.4935 
L 114.9375 -84.4935 
L 114.303409 -84.4935 
L 113.669318 -84.4935 
L 113.035227 -84.4935 
L 112.401136 -84.4935 
L 111.767045 -84.4935 
L 111.132955 -84.4935 
L 110.498864 -84.4935 
L 109.864773 -84.4935 
L 109.230682 -84.4935 
L 108.596591 -84.4935 
L 107.9625 -84.4935 
L 107.328409 -84.4935 
L 106.694318 -84.4935 
L 106.060227 -84.4935 
z
" style="stroke: #ffa500; stroke-opacity: 0.3"/>
    </defs>
    <g clip-path="url(#p09df87cdb9)">
     <use xlink:href="#m2c320a2263" x="0" y="372.985125" style="fill: #ffa500; fill-opacity: 0.3; stroke: #ffa500; stroke-opacity: 0.3"/>
    </g>
   </g>
   <g id="PolyCollection_2">
    <defs>
     <path id="m7802c01b9b" d="M 106.060227 -257.086807 
L 106.060227 -202.204193 
L 106.694318 -84.4935 
L 107.328409 -84.4935 
L 107.9625 -84.4935 
L 108.596591 -84.4935 
L 109.230682 -84.4935 
L 109.864773 -84.4935 
L 110.498864 -84.4935 
L 111.132955 -84.4935 
L 111.767045 -84.4935 
L 112.401136 -84.4935 
L 113.035227 -84.4935 
L 113.669318 -84.4935 
L 114.303409 -84.4935 
L 114.9375 -84.4935 
L 115.571591 -84.4935 
L 116.205682 -84.4935 
L 116.839773 -84.4935 
L 117.473864 -84.4935 
L 118.107955 -84.4935 
L 118.742045 -84.4935 
L 119.376136 -84.4935 
L 120.010227 -84.4935 
L 120.644318 -84.4935 
L 121.278409 -84.4935 
L 121.9125 -84.4935 
L 122.546591 -84.4935 
L 123.180682 -84.4935 
L 123.814773 -84.4935 
L 124.448864 -84.4935 
L 125.082955 -84.4935 
L 125.717045 -84.4935 
L 126.351136 -84.4935 
L 126.985227 -84.4935 
L 127.619318 -84.4935 
L 128.253409 -84.4935 
L 128.8875 -84.4935 
L 129.521591 -84.4935 
L 130.155682 -84.4935 
L 130.789773 -84.4935 
L 131.423864 -84.4935 
L 132.057955 -84.4935 
L 132.692045 -84.4935 
L 133.326136 -84.4935 
L 133.960227 -84.4935 
L 134.594318 -84.4935 
L 135.228409 -84.4935 
L 135.8625 -84.4935 
L 136.496591 -84.4935 
L 137.130682 -84.4935 
L 137.764773 -84.4935 
L 138.398864 -84.4935 
L 139.032955 -84.4935 
L 139.667045 -84.4935 
L 140.301136 -84.4935 
L 140.935227 -84.4935 
L 141.569318 -84.4935 
L 142.203409 -84.4935 
L 142.8375 -84.4935 
L 143.471591 -84.4935 
L 144.105682 -84.4935 
L 144.739773 -84.4935 
L 145.373864 -84.4935 
L 146.007955 -84.4935 
L 146.642045 -84.4935 
L 147.276136 -84.4935 
L 147.910227 -84.4935 
L 148.544318 -84.4935 
L 149.178409 -84.4935 
L 149.8125 -84.4935 
L 150.446591 -84.4935 
L 151.080682 -84.4935 
L 151.714773 -84.4935 
L 152.348864 -84.4935 
L 152.982955 -84.4935 
L 153.617045 -84.4935 
L 154.251136 -84.4935 
L 154.885227 -84.4935 
L 155.519318 -84.4935 
L 156.153409 -84.4935 
L 156.7875 -84.4935 
L 157.421591 -84.4935 
L 158.055682 -84.4935 
L 158.689773 -84.4935 
L 159.323864 -84.4935 
L 159.957955 -84.4935 
L 160.592045 -84.4935 
L 161.226136 -84.4935 
L 161.860227 -84.4935 
L 162.494318 -84.4935 
L 163.128409 -84.4935 
L 163.7625 -84.4935 
L 164.396591 -84.4935 
L 165.030682 -84.4935 
L 165.664773 -84.4935 
L 166.298864 -84.4935 
L 166.932955 -84.4935 
L 167.567045 -84.4935 
L 168.201136 -84.4935 
L 168.835227 -84.4935 
L 169.469318 -84.4935 
L 170.103409 -84.4935 
L 170.7375 -84.4935 
L 171.371591 -84.4935 
L 172.005682 -84.4935 
L 172.639773 -84.4935 
L 173.273864 -84.4935 
L 173.907955 -84.4935 
L 174.542045 -84.4935 
L 175.176136 -84.4935 
L 175.810227 -84.4935 
L 176.444318 -84.4935 
L 177.078409 -84.4935 
L 177.7125 -84.4935 
L 178.346591 -84.4935 
L 178.980682 -84.4935 
L 179.614773 -84.4935 
L 180.248864 -84.4935 
L 180.882955 -84.4935 
L 181.517045 -84.4935 
L 182.151136 -84.4935 
L 182.785227 -84.4935 
L 183.419318 -84.4935 
L 184.053409 -84.4935 
L 184.6875 -84.4935 
L 185.321591 -84.4935 
L 185.955682 -84.4935 
L 186.589773 -84.4935 
L 187.223864 -84.4935 
L 187.857955 -84.4935 
L 188.492045 -84.4935 
L 189.126136 -84.4935 
L 189.760227 -84.4935 
L 190.394318 -84.4935 
L 191.028409 -92.619623 
L 191.6625 -84.4935 
L 192.296591 -84.4935 
L 192.930682 -84.4935 
L 193.564773 -84.4935 
L 194.198864 -84.4935 
L 194.832955 -84.4935 
L 195.467045 -84.4935 
L 196.101136 -84.4935 
L 196.735227 -84.4935 
L 197.369318 -84.4935 
L 198.003409 -84.4935 
L 198.6375 -84.4935 
L 199.271591 -84.4935 
L 199.905682 -84.4935 
L 200.539773 -84.4935 
L 201.173864 -84.4935 
L 201.807955 -84.4935 
L 202.442045 -84.4935 
L 203.076136 -84.4935 
L 203.710227 -84.4935 
L 204.344318 -84.4935 
L 204.978409 -84.4935 
L 205.6125 -84.4935 
L 206.246591 -84.4935 
L 206.880682 -84.4935 
L 207.514773 -84.4935 
L 208.148864 -84.4935 
L 208.782955 -84.4935 
L 209.417045 -84.4935 
L 210.051136 -84.4935 
L 210.685227 -84.4935 
L 211.319318 -84.4935 
L 211.953409 -84.4935 
L 212.5875 -84.4935 
L 213.221591 -84.4935 
L 213.855682 -84.4935 
L 214.489773 -84.4935 
L 215.123864 -84.4935 
L 215.757955 -84.4935 
L 216.392045 -84.4935 
L 217.026136 -84.4935 
L 217.660227 -84.4935 
L 218.294318 -84.4935 
L 218.928409 -84.4935 
L 219.5625 -84.4935 
L 220.196591 -84.4935 
L 220.830682 -84.4935 
L 221.464773 -92.346019 
L 222.098864 -107.2759 
L 222.732955 -102.144838 
L 223.367045 -96.757105 
L 224.001136 -84.724491 
L 224.635227 -97.733371 
L 225.269318 -99.822708 
L 225.903409 -92.587377 
L 226.5375 -107.025285 
L 227.171591 -105.712518 
L 227.805682 -90.353378 
L 228.439773 -102.872408 
L 229.073864 -102.848756 
L 229.707955 -117.789209 
L 230.342045 -104.170742 
L 230.976136 -117.895037 
L 231.610227 -133.281674 
L 232.244318 -155.850796 
L 232.878409 -130.972067 
L 233.5125 -130.910661 
L 234.146591 -162.816702 
L 234.780682 -198.880258 
L 235.414773 -241.008485 
L 236.048864 -125.100053 
L 236.682955 -151.522622 
L 237.317045 -187.185244 
L 237.951136 -172.537379 
L 238.585227 -125.133045 
L 239.219318 -132.861045 
L 239.853409 -164.972421 
L 240.4875 -177.41787 
L 241.121591 -182.348686 
L 241.755682 -152.217433 
L 242.389773 -199.936423 
L 243.023864 -187.537602 
L 243.657955 -186.345733 
L 244.292045 -143.75814 
L 244.926136 -121.90278 
L 245.560227 -180.582823 
L 246.194318 -200.817095 
L 246.828409 -214.559116 
L 247.4625 -225.555942 
L 248.096591 -226.270822 
L 248.730682 -283.029995 
L 249.364773 -225.621108 
L 249.998864 -267.873604 
L 250.632955 -236.408009 
L 251.267045 -250.579657 
L 251.901136 -286.92681 
L 252.535227 -307.476555 
L 253.169318 -278.850838 
L 253.803409 -275.183193 
L 254.4375 -297.654436 
L 255.071591 -263.015128 
L 255.705682 -301.44201 
L 256.339773 -277.25001 
L 256.973864 -302.638155 
L 257.607955 -259.369718 
L 258.242045 -296.323725 
L 258.876136 -316.7367 
L 259.510227 -305.181933 
L 260.144318 -290.00319 
L 260.778409 -241.834684 
L 261.4125 -212.261091 
L 262.046591 -173.942832 
L 262.680682 -151.851565 
L 263.314773 -136.995693 
L 263.948864 -132.825488 
L 264.582955 -179.106965 
L 265.217045 -222.330342 
L 265.851136 -212.099755 
L 266.485227 -226.270822 
L 267.119318 -236.170085 
L 267.753409 -189.375925 
L 268.3875 -189.302465 
L 269.021591 -231.177761 
L 269.655682 -171.329505 
L 270.289773 -193.691581 
L 270.923864 -196.452635 
L 271.557955 -239.709996 
L 272.192045 -238.957629 
L 272.826136 -249.323289 
L 273.460227 -216.212766 
L 274.094318 -239.709996 
L 274.728409 -255.087465 
L 275.3625 -215.245697 
L 275.996591 -239.864972 
L 276.630682 -215.517996 
L 277.264773 -226.871411 
L 277.898864 -250.477963 
L 278.532955 -195.850085 
L 279.167045 -227.30703 
L 279.801136 -263.629795 
L 280.435227 -244.890916 
L 281.069318 -254.667638 
L 281.703409 -248.223761 
L 282.3375 -260.93007 
L 282.971591 -245.692961 
L 283.605682 -239.811078 
L 284.239773 -210.861408 
L 284.873864 -179.670499 
L 285.507955 -154.618595 
L 286.142045 -153.859713 
L 286.776136 -193.210608 
L 287.410227 -146.479788 
L 288.044318 -171.117437 
L 288.678409 -190.99208 
L 289.3125 -181.176674 
L 289.946591 -184.402274 
L 290.580682 -187.11904 
L 291.214773 -162.607788 
L 291.848864 -227.723685 
L 292.482955 -261.291624 
L 293.117045 -252.548889 
L 293.751136 -252.612396 
L 294.385227 -278.4359 
L 295.019318 -287.977636 
L 295.653409 -250.247229 
L 296.2875 -265.84262 
L 296.921591 -241.008485 
L 297.555682 -229.969142 
L 298.189773 -217.501687 
L 298.823864 -226.493285 
L 299.457955 -234.920387 
L 300.092045 -227.591408 
L 300.726136 -218.05717 
L 301.360227 -160.552147 
L 301.994318 -222.269482 
L 302.628409 -226.59123 
L 303.2625 -218.852613 
L 303.896591 -224.361381 
L 304.530682 -199.936423 
L 305.164773 -237.46488 
L 305.798864 -251.082375 
L 306.432955 -203.400419 
L 307.067045 -185.548446 
L 307.701136 -176.965772 
L 308.335227 -177.244438 
L 308.969318 -175.923928 
L 309.603409 -178.619441 
L 310.2375 -172.038629 
L 310.871591 -181.793931 
L 311.505682 -170.014357 
L 312.139773 -196.862044 
L 312.773864 -154.984381 
L 313.407955 -220.7815 
L 314.042045 -242.238885 
L 314.676136 -189.347299 
L 315.310227 -176.47688 
L 315.944318 -180.952107 
L 316.578409 -168.243984 
L 317.2125 -148.052208 
L 317.846591 -185.298244 
L 318.480682 -234.322888 
L 319.114773 -197.783596 
L 319.748864 -233.466119 
L 320.382955 -279.201008 
L 321.017045 -266.40984 
L 321.651136 -320.907056 
L 322.285227 -287.386903 
L 322.919318 -295.9735 
L 323.553409 -249.114595 
L 324.1875 -206.054402 
L 324.821591 -171.275307 
L 325.455682 -125.308409 
L 326.089773 -133.468877 
L 326.723864 -140.37587 
L 327.357955 -129.134067 
L 327.992045 -125.365399 
L 328.626136 -150.533474 
L 329.260227 -155.055284 
L 329.894318 -159.912182 
L 330.528409 -204.578332 
L 331.1625 -280.989933 
L 331.796591 -260.154763 
L 332.430682 -214.041795 
L 333.064773 -210.145584 
L 333.698864 -270.549041 
L 334.332955 -255.920775 
L 334.967045 -242.356441 
L 335.601136 -229.735192 
L 336.235227 -238.455896 
L 336.869318 -227.168742 
L 337.503409 -199.052725 
L 338.1375 -220.782708 
L 338.771591 -276.478823 
L 339.405682 -212.242171 
L 340.039773 -210.130888 
L 340.673864 -238.077959 
L 341.307955 -244.276097 
L 341.942045 -251.511484 
L 342.576136 -253.50744 
L 343.210227 -259.925865 
L 343.844318 -271.477696 
L 344.478409 -198.588491 
L 345.1125 -234.322888 
L 345.746591 -196.870171 
L 346.380682 -233.509208 
L 347.014773 -226.672518 
L 347.648864 -220.058392 
L 348.282955 -202.480518 
L 348.917045 -237.204693 
L 349.551136 -220.780476 
L 350.185227 -201.631101 
L 350.819318 -271.366819 
L 351.453409 -225.130742 
L 352.0875 -266.639296 
L 352.721591 -200.76187 
L 353.355682 -261.280933 
L 353.989773 -268.453698 
L 354.623864 -281.580952 
L 355.257955 -226.270822 
L 355.892045 -240.343778 
L 356.526136 -266.171065 
L 357.160227 -186.553829 
L 357.794318 -206.265137 
L 358.428409 -255.214141 
L 359.0625 -253.910885 
L 359.696591 -219.339484 
L 360.330682 -221.555494 
L 360.964773 -203.812901 
L 361.598864 -224.520013 
L 362.232955 -268.514521 
L 362.867045 -255.214141 
L 363.501136 -193.691581 
L 364.135227 -257.514611 
L 364.769318 -236.434171 
L 365.403409 -272.685151 
L 366.0375 -282.468815 
L 366.671591 -240.071142 
L 367.305682 -232.722022 
L 367.939773 -211.103537 
L 368.573864 -225.40902 
L 369.207955 -256.349884 
L 369.842045 -222.459115 
L 370.476136 -212.499719 
L 371.110227 -216.113884 
L 371.744318 -154.036173 
L 372.378409 -228.847007 
L 373.0125 -249.323289 
L 373.646591 -238.310402 
L 374.280682 -151.722565 
L 374.914773 -212.667696 
L 375.548864 -191.271359 
L 376.182955 -257.880399 
L 376.817045 -235.0935 
L 377.451136 -241.82223 
L 378.085227 -276.855507 
L 378.719318 -236.144176 
L 379.353409 -182.073276 
L 379.9875 -144.597257 
L 380.621591 -196.685502 
L 381.255682 -137.211528 
L 381.889773 -129.207488 
L 382.523864 -163.002867 
L 383.157955 -215.20366 
L 383.792045 -296.607761 
L 384.426136 -312.314955 
L 385.060227 -285.531489 
L 385.694318 -293.892333 
L 386.328409 -303.166256 
L 386.9625 -266.026684 
L 387.596591 -308.835626 
L 388.230682 -273.306595 
L 388.864773 -279.279465 
L 389.498864 -281.93919 
L 390.132955 -295.9735 
L 390.767045 -268.841478 
L 391.401136 -298.21641 
L 392.035227 -280.724766 
L 392.669318 -281.370595 
L 393.303409 -295.264351 
L 393.9375 -261.280933 
L 394.571591 -251.49903 
L 395.205682 -278.723318 
L 395.839773 -266.40984 
L 396.473864 -218.644824 
L 397.107955 -220.780476 
L 397.742045 -261.262705 
L 398.376136 -250.881775 
L 399.010227 -254.407008 
L 399.644318 -255.258841 
L 400.278409 -225.621108 
L 400.9125 -222.754019 
L 401.546591 -222.504218 
L 402.180682 -227.297515 
L 402.814773 -163.04578 
L 403.448864 -141.845822 
L 404.082955 -142.152145 
L 404.717045 -180.460476 
L 405.351136 -207.66822 
L 405.985227 -226.650891 
L 406.619318 -234.174885 
L 407.253409 -246.519896 
L 407.8875 -217.182571 
L 408.521591 -224.672855 
L 409.155682 -191.640578 
L 409.789773 -219.010508 
L 410.423864 -242.043093 
L 411.057955 -243.707675 
L 411.692045 -221.0224 
L 412.326136 -201.426737 
L 412.960227 -220.019125 
L 413.594318 -173.938896 
L 414.228409 -293.37801 
L 414.8625 -272.399638 
L 415.496591 -247.710489 
L 416.130682 -252.603993 
L 416.764773 -243.707675 
L 417.398864 -264.04115 
L 418.032955 -250.112728 
L 418.667045 -267.561238 
L 419.301136 -236.98383 
L 419.935227 -231.728775 
L 420.569318 -238.161011 
L 421.203409 -281.4583 
L 421.8375 -236.220946 
L 422.471591 -240.570429 
L 423.105682 -253.227624 
L 423.739773 -224.896792 
L 423.739773 -311.808608 
L 423.739773 -311.808608 
L 423.105682 -309.282576 
L 422.471591 -312.262971 
L 421.8375 -319.838054 
L 421.203409 -306.8567 
L 420.569318 -295.318789 
L 419.935227 -292.074225 
L 419.301136 -309.39837 
L 418.667045 -311.076962 
L 418.032955 -302.720672 
L 417.398864 -317.82265 
L 416.764773 -318.802525 
L 416.130682 -300.229407 
L 415.496591 -311.574111 
L 414.8625 -315.915362 
L 414.228409 -317.51619 
L 413.594318 -324.059304 
L 412.960227 -323.137475 
L 412.326136 -325.601863 
L 411.692045 -326.4135 
L 411.057955 -318.802525 
L 410.423864 -326.4135 
L 409.789773 -317.694892 
L 409.155682 -326.4135 
L 408.521591 -326.4135 
L 407.8875 -326.4135 
L 407.253409 -322.441504 
L 406.619318 -318.658515 
L 405.985227 -316.505709 
L 405.351136 -306.45798 
L 404.717045 -301.409724 
L 404.082955 -297.785255 
L 403.448864 -307.768378 
L 402.814773 -305.92202 
L 402.180682 -309.407885 
L 401.546591 -317.426782 
L 400.9125 -323.628181 
L 400.278409 -311.084292 
L 399.644318 -323.379359 
L 399.010227 -317.779992 
L 398.376136 -318.079625 
L 397.742045 -326.4135 
L 397.107955 -326.4135 
L 396.473864 -308.383776 
L 395.839773 -321.90516 
L 395.205682 -319.268482 
L 394.571591 -323.91357 
L 393.9375 -320.582867 
L 393.303409 -326.4135 
L 392.669318 -326.298005 
L 392.035227 -320.492634 
L 391.401136 -322.35459 
L 390.767045 -316.247922 
L 390.132955 -321.3719 
L 389.498864 -319.27821 
L 388.864773 -315.486735 
L 388.230682 -318.234005 
L 387.596591 -324.637774 
L 386.9625 -326.4135 
L 386.328409 -307.727944 
L 385.694318 -313.776267 
L 385.060227 -309.234711 
L 384.426136 -324.384045 
L 383.792045 -317.512039 
L 383.157955 -321.50174 
L 382.523864 -309.190533 
L 381.889773 -326.4135 
L 381.255682 -326.4135 
L 380.621591 -304.538298 
L 379.9875 -295.340143 
L 379.353409 -303.022524 
L 378.719318 -290.884424 
L 378.085227 -317.910693 
L 377.451136 -314.23677 
L 376.817045 -311.2887 
L 376.182955 -317.532201 
L 375.548864 -300.275641 
L 374.914773 -317.586504 
L 374.280682 -310.794035 
L 373.646591 -311.297398 
L 373.0125 -313.186911 
L 372.378409 -311.083993 
L 371.744318 -289.126827 
L 371.110227 -307.689116 
L 370.476136 -308.077681 
L 369.842045 -304.569485 
L 369.207955 -319.062716 
L 368.573864 -324.19878 
L 367.939773 -326.4135 
L 367.305682 -320.111378 
L 366.671591 -319.213458 
L 366.0375 -321.974185 
L 365.403409 -309.178649 
L 364.769318 -313.173629 
L 364.135227 -314.672389 
L 363.501136 -304.306619 
L 362.867045 -310.521659 
L 362.232955 -316.574879 
L 361.598864 -315.410987 
L 360.964773 -297.410899 
L 360.330682 -321.601106 
L 359.696591 -310.914716 
L 359.0625 -324.727315 
L 358.428409 -310.521659 
L 357.794318 -326.4135 
L 357.160227 -317.895571 
L 356.526136 -312.467135 
L 355.892045 -315.715222 
L 355.257955 -313.660178 
L 354.623864 -313.185248 
L 353.989773 -319.861302 
L 353.355682 -320.582867 
L 352.721591 -326.4135 
L 352.0875 -318.450104 
L 351.453409 -321.251458 
L 350.819318 -326.4135 
L 350.185227 -326.4135 
L 349.551136 -326.4135 
L 348.917045 -325.305507 
L 348.282955 -305.194482 
L 347.648864 -306.970208 
L 347.014773 -326.4135 
L 346.380682 -322.549792 
L 345.746591 -307.579229 
L 345.1125 -326.4135 
L 344.478409 -305.860909 
L 343.844318 -323.288504 
L 343.210227 -296.133135 
L 342.576136 -309.00276 
L 341.942045 -314.224316 
L 341.307955 -311.782903 
L 340.673864 -308.304241 
L 340.039773 -307.220912 
L 339.405682 -288.981629 
L 338.771591 -318.287377 
L 338.1375 -306.245892 
L 337.503409 -302.171075 
L 336.869318 -306.311058 
L 336.235227 -314.377504 
L 335.601136 -316.647008 
L 334.967045 -310.476959 
L 334.332955 -316.266225 
L 333.698864 -314.540359 
L 333.064773 -281.401416 
L 332.430682 -322.663605 
L 331.796591 -299.129837 
L 331.1625 -300.873867 
L 330.528409 -270.840668 
L 329.894318 -296.153218 
L 329.260227 -246.174916 
L 328.626136 -273.275926 
L 327.992045 -326.4135 
L 327.357955 -275.321733 
L 326.723864 -315.68953 
L 326.089773 -300.017323 
L 325.455682 -240.440191 
L 324.821591 -297.692493 
L 324.1875 -279.041398 
L 323.553409 -294.042005 
L 322.919318 -321.3719 
L 322.285227 -320.281697 
L 321.651136 -325.468744 
L 321.017045 -321.90516 
L 320.382955 -309.113992 
L 319.748864 -326.4135 
L 319.114773 -322.793804 
L 318.480682 -326.4135 
L 317.846591 -322.376756 
L 317.2125 -285.433992 
L 316.578409 -326.4135 
L 315.944318 -307.369293 
L 315.310227 -321.52132 
L 314.676136 -308.650901 
L 314.042045 -326.4135 
L 313.407955 -322.3751 
L 312.773864 -265.599419 
L 312.139773 -310.812956 
L 311.505682 -292.502243 
L 310.871591 -293.625069 
L 310.2375 -303.380371 
L 309.603409 -222.610759 
L 308.969318 -228.531872 
L 308.335227 -220.760162 
L 307.701136 -233.941228 
L 307.067045 -289.870554 
L 306.432955 -304.274581 
L 305.798864 -311.427825 
L 305.164773 -312.14292 
L 304.530682 -326.4135 
L 303.896591 -312.344019 
L 303.2625 -317.852787 
L 302.628409 -326.4135 
L 301.994318 -304.759118 
L 301.360227 -301.964453 
L 300.726136 -326.4135 
L 300.092045 -257.504392 
L 299.457955 -317.913013 
L 298.823864 -297.309715 
L 298.189773 -312.752513 
L 297.555682 -326.089858 
L 296.921591 -311.824915 
L 296.2875 -316.02118 
L 295.653409 -321.939771 
L 295.019318 -316.465364 
L 294.385227 -326.4135 
L 293.751136 -326.025804 
L 293.117045 -316.412511 
L 292.482955 -317.346576 
L 291.848864 -312.207315 
L 291.214773 -303.134412 
L 290.580682 -326.4135 
L 289.946591 -307.144726 
L 289.3125 -303.919126 
L 288.678409 -326.4135 
L 288.044318 -310.752763 
L 287.410227 -287.006412 
L 286.776136 -326.4135 
L 286.142045 -318.333687 
L 285.507955 -298.221205 
L 284.873864 -298.974101 
L 284.239773 -274.234392 
L 283.605682 -287.217522 
L 282.971591 -310.366039 
L 282.3375 -288.67773 
L 281.703409 -269.128039 
L 281.069318 -282.037762 
L 280.435227 -304.716884 
L 279.801136 -308.557205 
L 279.167045 -299.72157 
L 278.532955 -266.666515 
L 277.898864 -289.453037 
L 277.264773 -284.029189 
L 276.630682 -288.931404 
L 275.996591 -296.840428 
L 275.3625 -282.752503 
L 274.728409 -291.294735 
L 274.094318 -313.123404 
L 273.460227 -255.980634 
L 272.826136 -313.186911 
L 272.192045 -310.650171 
L 271.557955 -313.123404 
L 270.923864 -311.222365 
L 270.289773 -304.306619 
L 269.655682 -304.089495 
L 269.021591 -295.850839 
L 268.3875 -302.244535 
L 267.753409 -292.494275 
L 267.119318 -306.986515 
L 266.485227 -313.660178 
L 265.851136 -305.252045 
L 265.217045 -301.472658 
L 264.582955 -318.891235 
L 263.948864 -326.4135 
L 263.314773 -325.520907 
L 262.680682 -323.567435 
L 262.046591 -326.4135 
L 261.4125 -292.188309 
L 260.778409 -304.547516 
L 260.144318 -326.4135 
L 259.510227 -325.065867 
L 258.876136 -316.7367 
L 258.242045 -314.570475 
L 257.607955 -299.914882 
L 256.973864 -314.707245 
L 256.339773 -301.38819 
L 255.705682 -325.58019 
L 255.071591 -315.623072 
L 254.4375 -326.142164 
L 253.803409 -322.808607 
L 253.169318 -322.366562 
L 252.535227 -319.545645 
L 251.901136 -311.06499 
L 251.267045 -326.4135 
L 250.632955 -319.650991 
L 249.998864 -317.215796 
L 249.364773 -311.084292 
L 248.730682 -314.961805 
L 248.096591 -313.660178 
L 247.4625 -304.698258 
L 246.828409 -283.439084 
L 246.194318 -303.632305 
L 245.560227 -307.738577 
L 244.926136 -311.58342 
L 244.292045 -326.4135 
L 243.657955 -326.4135 
L 243.023864 -326.4135 
L 242.389773 -326.4135 
L 241.755682 -326.4135 
L 241.121591 -326.4135 
L 240.4875 -326.4135 
L 239.853409 -294.318579 
L 239.219318 -290.948355 
L 238.585227 -263.194755 
L 237.951136 -283.528021 
L 237.317045 -301.136156 
L 236.682955 -317.445178 
L 236.048864 -324.514147 
L 235.414773 -311.824915 
L 234.780682 -305.569142 
L 234.146591 -270.669498 
L 233.5125 -292.898739 
L 232.878409 -273.483733 
L 232.244318 -280.861004 
L 231.610227 -300.204526 
L 230.976136 -257.530363 
L 230.342045 -200.291458 
L 229.707955 -231.831391 
L 229.073864 -208.064644 
L 228.439773 -191.912992 
L 227.805682 -165.724822 
L 227.171591 -208.426482 
L 226.5375 -216.790515 
L 225.903409 -179.618823 
L 225.269318 -185.285892 
L 224.635227 -174.472829 
L 224.001136 -174.579309 
L 223.367045 -162.546695 
L 222.732955 -160.384562 
L 222.098864 -132.6743 
L 221.464773 -154.055381 
L 220.830682 -202.989485 
L 220.196591 -279.175682 
L 219.5625 -285.782886 
L 218.928409 -275.282038 
L 218.294318 -279.175682 
L 217.660227 -275.282038 
L 217.026136 -267.494751 
L 216.392045 -255.81382 
L 215.757955 -263.601107 
L 215.123864 -228.558314 
L 214.489773 -220.771027 
L 213.855682 -216.877384 
L 213.221591 -224.664671 
L 212.5875 -240.239245 
L 211.953409 -181.834591 
L 211.319318 -166.260016 
L 210.685227 -131.217224 
L 210.051136 -135.110867 
L 209.417045 -111.749005 
L 208.782955 -115.642649 
L 208.148864 -92.280787 
L 207.514773 -92.280787 
L 206.880682 -103.961718 
L 206.246591 -111.749005 
L 205.6125 -119.536293 
L 204.978409 -111.749005 
L 204.344318 -181.834591 
L 203.710227 -150.685442 
L 203.076136 -189.621878 
L 202.442045 -181.834591 
L 201.807955 -142.898155 
L 201.173864 -150.685442 
L 200.539773 -84.4935 
L 199.905682 -84.4935 
L 199.271591 -146.791798 
L 198.6375 -103.961718 
L 198.003409 -84.4935 
L 197.369318 -107.855362 
L 196.735227 -131.217224 
L 196.101136 -84.4935 
L 195.467045 -88.387144 
L 194.832955 -100.068075 
L 194.198864 -88.387144 
L 193.564773 -96.174431 
L 192.930682 -115.642649 
L 192.296591 -153.475441 
L 191.6625 -123.429936 
L 191.028409 -134.428177 
L 190.394318 -92.280787 
L 189.760227 -92.280787 
L 189.126136 -84.4935 
L 188.492045 -84.4935 
L 187.857955 -84.4935 
L 187.223864 -84.4935 
L 186.589773 -84.4935 
L 185.955682 -84.4935 
L 185.321591 -84.4935 
L 184.6875 -84.4935 
L 184.053409 -84.4935 
L 183.419318 -84.4935 
L 182.785227 -84.4935 
L 182.151136 -84.4935 
L 181.517045 -84.4935 
L 180.882955 -84.4935 
L 180.248864 -84.4935 
L 179.614773 -84.4935 
L 178.980682 -84.4935 
L 178.346591 -84.4935 
L 177.7125 -84.4935 
L 177.078409 -84.4935 
L 176.444318 -84.4935 
L 175.810227 -84.4935 
L 175.176136 -84.4935 
L 174.542045 -84.4935 
L 173.907955 -84.4935 
L 173.273864 -84.4935 
L 172.639773 -84.4935 
L 172.005682 -84.4935 
L 171.371591 -84.4935 
L 170.7375 -84.4935 
L 170.103409 -84.4935 
L 169.469318 -84.4935 
L 168.835227 -84.4935 
L 168.201136 -84.4935 
L 167.567045 -84.4935 
L 166.932955 -84.4935 
L 166.298864 -84.4935 
L 165.664773 -84.4935 
L 165.030682 -84.4935 
L 164.396591 -84.4935 
L 163.7625 -84.4935 
L 163.128409 -84.4935 
L 162.494318 -84.4935 
L 161.860227 -84.4935 
L 161.226136 -84.4935 
L 160.592045 -84.4935 
L 159.957955 -84.4935 
L 159.323864 -84.4935 
L 158.689773 -84.4935 
L 158.055682 -84.4935 
L 157.421591 -84.4935 
L 156.7875 -84.4935 
L 156.153409 -84.4935 
L 155.519318 -84.4935 
L 154.885227 -84.4935 
L 154.251136 -84.4935 
L 153.617045 -84.4935 
L 152.982955 -84.4935 
L 152.348864 -84.4935 
L 151.714773 -84.4935 
L 151.080682 -84.4935 
L 150.446591 -84.4935 
L 149.8125 -84.4935 
L 149.178409 -84.4935 
L 148.544318 -84.4935 
L 147.910227 -84.4935 
L 147.276136 -84.4935 
L 146.642045 -84.4935 
L 146.007955 -84.4935 
L 145.373864 -84.4935 
L 144.739773 -84.4935 
L 144.105682 -84.4935 
L 143.471591 -84.4935 
L 142.8375 -84.4935 
L 142.203409 -84.4935 
L 141.569318 -84.4935 
L 140.935227 -84.4935 
L 140.301136 -84.4935 
L 139.667045 -84.4935 
L 139.032955 -84.4935 
L 138.398864 -84.4935 
L 137.764773 -84.4935 
L 137.130682 -84.4935 
L 136.496591 -84.4935 
L 135.8625 -84.4935 
L 135.228409 -84.4935 
L 134.594318 -84.4935 
L 133.960227 -84.4935 
L 133.326136 -84.4935 
L 132.692045 -84.4935 
L 132.057955 -84.4935 
L 131.423864 -84.4935 
L 130.789773 -84.4935 
L 130.155682 -84.4935 
L 129.521591 -84.4935 
L 128.8875 -84.4935 
L 128.253409 -84.4935 
L 127.619318 -84.4935 
L 126.985227 -84.4935 
L 126.351136 -84.4935 
L 125.717045 -84.4935 
L 125.082955 -84.4935 
L 124.448864 -84.4935 
L 123.814773 -84.4935 
L 123.180682 -84.4935 
L 122.546591 -84.4935 
L 121.9125 -84.4935 
L 121.278409 -84.4935 
L 120.644318 -84.4935 
L 120.010227 -84.4935 
L 119.376136 -84.4935 
L 118.742045 -84.4935 
L 118.107955 -84.4935 
L 117.473864 -84.4935 
L 116.839773 -84.4935 
L 116.205682 -84.4935 
L 115.571591 -84.4935 
L 114.9375 -84.4935 
L 114.303409 -84.4935 
L 113.669318 -84.4935 
L 113.035227 -84.4935 
L 112.401136 -84.4935 
L 111.767045 -84.4935 
L 111.132955 -84.4935 
L 110.498864 -84.4935 
L 109.864773 -84.4935 
L 109.230682 -84.4935 
L 108.596591 -84.4935 
L 107.9625 -84.4935 
L 107.328409 -84.4935 
L 106.694318 -84.4935 
L 106.060227 -257.086807 
z
" style="stroke: #008000; stroke-opacity: 0.3"/>
    </defs>
    <g clip-path="url(#p09df87cdb9)">
     <use xlink:href="#m7802c01b9b" x="0" y="372.985125" style="fill: #008000; fill-opacity: 0.3; stroke: #008000; stroke-opacity: 0.3"/>
    </g>
   </g>
   <g id="PolyCollection_3">
    <defs>
     <path id="mb9b49b233c" d="M 106.060227 -244.298235 
L 106.060227 -111.773565 
L 116.205682 -84.4935 
L 126.351136 -86.269226 
L 136.496591 -89.748555 
L 146.642045 -90.276656 
L 156.7875 -90.679533 
L 166.932955 -92.834213 
L 177.078409 -84.4935 
L 187.223864 -87.327769 
L 197.369318 -93.771215 
L 207.514773 -86.268395 
L 217.660227 -84.4935 
L 227.805682 -86.269226 
L 237.951136 -89.172201 
L 248.096591 -91.58607 
L 258.242045 -86.522955 
L 268.3875 -84.4935 
L 278.532955 -84.4935 
L 288.678409 -91.106795 
L 298.823864 -88.556561 
L 308.969318 -85.381363 
L 319.114773 -84.4935 
L 329.260227 -86.268395 
L 339.405682 -84.4935 
L 349.551136 -108.847595 
L 359.696591 -103.06761 
L 369.842045 -84.4935 
L 379.9875 -95.517933 
L 390.132955 -85.438256 
L 400.278409 -89.3319 
L 410.423864 -84.4935 
L 420.569318 -84.4935 
L 430.714773 -85.381363 
L 430.714773 -93.282437 
L 430.714773 -93.282437 
L 420.569318 -84.4935 
L 410.423864 -96.174431 
L 400.278409 -89.3319 
L 390.132955 -89.999944 
L 379.9875 -115.401867 
L 369.842045 -128.607935 
L 359.696591 -127.20579 
L 349.551136 -140.779405 
L 339.405682 -123.429936 
L 329.260227 -118.200205 
L 319.114773 -104.622439 
L 308.969318 -93.282437 
L 298.823864 -109.460839 
L 288.678409 -123.038605 
L 278.532955 -128.607935 
L 268.3875 -112.352392 
L 258.242045 -98.592045 
L 248.096591 -119.33373 
L 237.951136 -105.619599 
L 227.805682 -102.071374 
L 217.660227 -107.855362 
L 207.514773 -118.200205 
L 197.369318 -133.276585 
L 187.223864 -101.012831 
L 177.078409 -144.086359 
L 166.932955 -101.957587 
L 156.7875 -110.563467 
L 146.642045 -94.838344 
L 136.496591 -101.817645 
L 126.351136 -102.071374 
L 116.205682 -84.4935 
L 106.060227 -244.298235 
z
" style="stroke: #ff0000; stroke-opacity: 0.3"/>
    </defs>
    <g clip-path="url(#p09df87cdb9)">
     <use xlink:href="#mb9b49b233c" x="0" y="372.985125" style="fill: #ff0000; fill-opacity: 0.3; stroke: #ff0000; stroke-opacity: 0.3"/>
    </g>
   </g>
   <g id="PolyCollection_4">
    <defs>
     <path id="me680a03bed" d="M 106.060227 -224.8071 
L 106.060227 -171.5847 
L 107.328409 -186.0999 
L 108.596591 -205.4535 
L 109.928182 -200.6151 
L 111.196364 -200.6151 
L 112.527955 -190.9383 
L 113.796136 -181.2615 
L 115.127727 -190.9383 
L 116.395909 -161.9079 
L 117.7275 -190.9383 
L 118.995682 -200.6151 
L 120.327273 -157.0695 
L 121.595455 -186.0999 
L 122.927045 -195.7767 
L 124.195227 -157.0695 
L 125.526818 -166.7463 
L 126.795 -181.2615 
L 128.126591 -190.9383 
L 129.394773 -190.9383 
L 130.726364 -186.0999 
L 131.994545 -186.0999 
L 133.326136 -186.0999 
L 134.594318 -186.0999 
L 135.925909 -181.2615 
L 137.194091 -195.7767 
L 138.525682 -171.5847 
L 139.793864 -157.0695 
L 141.062045 -152.2311 
L 142.393636 -171.5847 
L 143.661818 -171.5847 
L 144.993409 -186.0999 
L 146.261591 -181.2615 
L 147.593182 -181.2615 
L 148.861364 -186.0999 
L 150.192955 -176.4231 
L 151.461136 -161.9079 
L 152.792727 -195.7767 
L 154.060909 -181.2615 
L 155.3925 -186.0999 
L 156.660682 -190.9383 
L 157.992273 -186.0999 
L 159.260455 -166.7463 
L 160.592045 -186.0999 
L 161.860227 -205.4535 
L 163.191818 -215.1303 
L 164.46 -186.0999 
L 165.791591 -190.9383 
L 167.059773 -181.2615 
L 168.391364 -161.9079 
L 169.659545 -200.6151 
L 170.991136 -190.9383 
L 172.259318 -190.9383 
L 173.5275 -195.7767 
L 174.859091 -210.2919 
L 176.127273 -181.2615 
L 177.458864 -171.5847 
L 178.727045 -186.0999 
L 180.058636 -210.2919 
L 181.326818 -157.0695 
L 182.658409 -186.0999 
L 183.926591 -195.7767 
L 185.258182 -176.4231 
L 186.526364 -181.2615 
L 187.857955 -195.7767 
L 189.126136 -186.0999 
L 190.457727 -190.9383 
L 191.725909 -195.7767 
L 193.0575 -186.0999 
L 194.325682 -166.7463 
L 195.657273 -186.0999 
L 196.925455 -181.2615 
L 198.257045 -195.7767 
L 199.525227 -166.7463 
L 200.856818 -181.2615 
L 202.125 -161.9079 
L 203.456591 -195.7767 
L 204.724773 -166.7463 
L 205.992955 -186.0999 
L 207.324545 -190.9383 
L 208.592727 -152.2311 
L 209.924318 -171.5847 
L 211.1925 -171.5847 
L 212.524091 -186.0999 
L 213.792273 -195.7767 
L 215.123864 -200.6151 
L 216.392045 -152.2311 
L 217.723636 -186.0999 
L 218.991818 -210.2919 
L 220.323409 -181.2615 
L 221.591591 -205.4535 
L 222.923182 -176.4231 
L 224.191364 -152.2311 
L 225.522955 -190.9383 
L 226.791136 -176.4231 
L 228.122727 -215.1303 
L 229.390909 -186.0999 
L 230.7225 -190.9383 
L 231.990682 -176.4231 
L 233.322273 -181.2615 
L 234.590455 -190.9383 
L 235.922045 -195.7767 
L 237.190227 -181.2615 
L 238.458409 -166.7463 
L 239.79 -161.9079 
L 241.058182 -181.2615 
L 242.389773 -186.0999 
L 243.657955 -176.4231 
L 244.989545 -181.2615 
L 246.257727 -224.8071 
L 247.589318 -176.4231 
L 248.8575 -142.5543 
L 250.189091 -186.0999 
L 251.457273 -200.6151 
L 252.788864 -195.7767 
L 254.057045 -186.0999 
L 255.388636 -181.2615 
L 256.656818 -186.0999 
L 257.988409 -181.2615 
L 259.256591 -186.0999 
L 260.588182 -186.0999 
L 261.856364 -171.5847 
L 263.187955 -176.4231 
L 264.456136 -219.9687 
L 265.787727 -190.9383 
L 267.055909 -166.7463 
L 268.3875 -181.2615 
L 269.655682 -161.9079 
L 270.923864 -171.5847 
L 272.255455 -181.2615 
L 273.523636 -166.7463 
L 274.855227 -200.6151 
L 276.123409 -181.2615 
L 277.455 -166.7463 
L 278.723182 -195.7767 
L 280.054773 -219.9687 
L 281.322955 -176.4231 
L 282.654545 -176.4231 
L 283.922727 -186.0999 
L 285.254318 -190.9383 
L 286.5225 -186.0999 
L 287.854091 -190.9383 
L 289.122273 -176.4231 
L 290.453864 -157.0695 
L 291.722045 -190.9383 
L 293.053636 -176.4231 
L 294.321818 -171.5847 
L 295.653409 -195.7767 
L 296.921591 -205.4535 
L 298.253182 -166.7463 
L 299.521364 -195.7767 
L 300.852955 -181.2615 
L 302.121136 -176.4231 
L 303.389318 -195.7767 
L 304.720909 -205.4535 
L 305.989091 -215.1303 
L 307.320682 -181.2615 
L 308.588864 -181.2615 
L 309.920455 -176.4231 
L 311.188636 -195.7767 
L 312.520227 -190.9383 
L 313.788409 -171.5847 
L 315.12 -186.0999 
L 316.388182 -181.2615 
L 317.719773 -190.9383 
L 318.987955 -142.5543 
L 320.319545 -190.9383 
L 321.587727 -171.5847 
L 322.919318 -190.9383 
L 324.1875 -157.0695 
L 325.519091 -171.5847 
L 326.787273 -161.9079 
L 328.118864 -200.6151 
L 329.387045 -186.0999 
L 330.718636 -195.7767 
L 331.986818 -186.0999 
L 333.318409 -200.6151 
L 334.586591 -195.7767 
L 335.854773 -152.2311 
L 337.186364 -195.7767 
L 338.454545 -195.7767 
L 339.786136 -176.4231 
L 341.054318 -190.9383 
L 342.385909 -171.5847 
L 343.654091 -195.7767 
L 344.985682 -205.4535 
L 346.253864 -195.7767 
L 347.585455 -181.2615 
L 348.853636 -171.5847 
L 350.185227 -166.7463 
L 351.453409 -200.6151 
L 352.785 -215.1303 
L 354.053182 -186.0999 
L 355.384773 -176.4231 
L 356.652955 -171.5847 
L 357.984545 -190.9383 
L 359.252727 -190.9383 
L 360.584318 -200.6151 
L 361.8525 -200.6151 
L 363.184091 -195.7767 
L 364.452273 -190.9383 
L 365.783864 -200.6151 
L 367.052045 -176.4231 
L 368.320227 -190.9383 
L 369.651818 -186.0999 
L 370.92 -186.0999 
L 372.251591 -181.2615 
L 373.519773 -181.2615 
L 374.851364 -171.5847 
L 376.119545 -200.6151 
L 377.451136 -176.4231 
L 378.719318 -219.9687 
L 380.050909 -181.2615 
L 381.319091 -176.4231 
L 382.650682 -195.7767 
L 383.918864 -200.6151 
L 385.250455 -195.7767 
L 386.518636 -176.4231 
L 387.850227 -190.9383 
L 389.118409 -219.9687 
L 390.45 -181.2615 
L 391.718182 -181.2615 
L 393.049773 -181.2615 
L 394.317955 -190.9383 
L 395.649545 -205.4535 
L 396.917727 -200.6151 
L 398.249318 -190.9383 
L 399.5175 -195.7767 
L 400.785682 -200.6151 
L 402.117273 -176.4231 
L 403.385455 -181.2615 
L 404.717045 -190.9383 
L 405.985227 -176.4231 
L 407.316818 -181.2615 
L 408.585 -205.4535 
L 409.916591 -195.7767 
L 411.184773 -190.9383 
L 412.516364 -186.0999 
L 413.784545 -181.2615 
L 415.116136 -176.4231 
L 416.384318 -205.4535 
L 417.715909 -176.4231 
L 418.984091 -181.2615 
L 420.315682 -166.7463 
L 421.583864 -181.2615 
L 422.915455 -210.2919 
L 424.183636 -166.7463 
L 424.183636 -205.4535 
L 424.183636 -205.4535 
L 422.915455 -215.1303 
L 421.583864 -215.1303 
L 420.315682 -210.2919 
L 418.984091 -215.1303 
L 417.715909 -219.9687 
L 416.384318 -268.3527 
L 415.116136 -229.6455 
L 413.784545 -234.4839 
L 412.516364 -210.2919 
L 411.184773 -239.3223 
L 409.916591 -239.3223 
L 408.585 -224.8071 
L 407.316818 -205.4535 
L 405.985227 -195.7767 
L 404.717045 -210.2919 
L 403.385455 -234.4839 
L 402.117273 -205.4535 
L 400.785682 -234.4839 
L 399.5175 -215.1303 
L 398.249318 -219.9687 
L 396.917727 -210.2919 
L 395.649545 -215.1303 
L 394.317955 -239.3223 
L 393.049773 -205.4535 
L 391.718182 -224.8071 
L 390.45 -186.0999 
L 389.118409 -229.6455 
L 387.850227 -200.6151 
L 386.518636 -205.4535 
L 385.250455 -200.6151 
L 383.918864 -210.2919 
L 382.650682 -229.6455 
L 381.319091 -200.6151 
L 380.050909 -205.4535 
L 378.719318 -234.4839 
L 377.451136 -190.9383 
L 376.119545 -224.8071 
L 374.851364 -181.2615 
L 373.519773 -210.2919 
L 372.251591 -219.9687 
L 370.92 -215.1303 
L 369.651818 -186.0999 
L 368.320227 -224.8071 
L 367.052045 -219.9687 
L 365.783864 -205.4535 
L 364.452273 -215.1303 
L 363.184091 -195.7767 
L 361.8525 -244.1607 
L 360.584318 -210.2919 
L 359.252727 -215.1303 
L 357.984545 -205.4535 
L 356.652955 -234.4839 
L 355.384773 -190.9383 
L 354.053182 -195.7767 
L 352.785 -244.1607 
L 351.453409 -215.1303 
L 350.185227 -215.1303 
L 348.853636 -200.6151 
L 347.585455 -210.2919 
L 346.253864 -200.6151 
L 344.985682 -219.9687 
L 343.654091 -205.4535 
L 342.385909 -229.6455 
L 341.054318 -195.7767 
L 339.786136 -229.6455 
L 338.454545 -205.4535 
L 337.186364 -244.1607 
L 335.854773 -234.4839 
L 334.586591 -200.6151 
L 333.318409 -210.2919 
L 331.986818 -215.1303 
L 330.718636 -205.4535 
L 329.387045 -224.8071 
L 328.118864 -210.2919 
L 326.787273 -200.6151 
L 325.519091 -215.1303 
L 324.1875 -215.1303 
L 322.919318 -195.7767 
L 321.587727 -224.8071 
L 320.319545 -205.4535 
L 318.987955 -234.4839 
L 317.719773 -219.9687 
L 316.388182 -210.2919 
L 315.12 -200.6151 
L 313.788409 -205.4535 
L 312.520227 -200.6151 
L 311.188636 -195.7767 
L 309.920455 -215.1303 
L 308.588864 -205.4535 
L 307.320682 -200.6151 
L 305.989091 -219.9687 
L 304.720909 -248.9991 
L 303.389318 -219.9687 
L 302.121136 -195.7767 
L 300.852955 -205.4535 
L 299.521364 -195.7767 
L 298.253182 -210.2919 
L 296.921591 -205.4535 
L 295.653409 -224.8071 
L 294.321818 -234.4839 
L 293.053636 -229.6455 
L 291.722045 -215.1303 
L 290.453864 -200.6151 
L 289.122273 -200.6151 
L 287.854091 -215.1303 
L 286.5225 -215.1303 
L 285.254318 -229.6455 
L 283.922727 -195.7767 
L 282.654545 -219.9687 
L 281.322955 -215.1303 
L 280.054773 -219.9687 
L 278.723182 -239.3223 
L 277.455 -219.9687 
L 276.123409 -229.6455 
L 274.855227 -215.1303 
L 273.523636 -210.2919 
L 272.255455 -190.9383 
L 270.923864 -229.6455 
L 269.655682 -200.6151 
L 268.3875 -219.9687 
L 267.055909 -224.8071 
L 265.787727 -219.9687 
L 264.456136 -219.9687 
L 263.187955 -190.9383 
L 261.856364 -210.2919 
L 260.588182 -195.7767 
L 259.256591 -205.4535 
L 257.988409 -195.7767 
L 256.656818 -215.1303 
L 255.388636 -195.7767 
L 254.057045 -200.6151 
L 252.788864 -205.4535 
L 251.457273 -200.6151 
L 250.189091 -215.1303 
L 248.8575 -205.4535 
L 247.589318 -205.4535 
L 246.257727 -239.3223 
L 244.989545 -186.0999 
L 243.657955 -186.0999 
L 242.389773 -190.9383 
L 241.058182 -190.9383 
L 239.79 -224.8071 
L 238.458409 -239.3223 
L 237.190227 -210.2919 
L 235.922045 -200.6151 
L 234.590455 -195.7767 
L 233.322273 -181.2615 
L 231.990682 -195.7767 
L 230.7225 -210.2919 
L 229.390909 -205.4535 
L 228.122727 -219.9687 
L 226.791136 -190.9383 
L 225.522955 -229.6455 
L 224.191364 -186.0999 
L 222.923182 -210.2919 
L 221.591591 -215.1303 
L 220.323409 -205.4535 
L 218.991818 -239.3223 
L 217.723636 -205.4535 
L 216.392045 -215.1303 
L 215.123864 -219.9687 
L 213.792273 -210.2919 
L 212.524091 -190.9383 
L 211.1925 -200.6151 
L 209.924318 -190.9383 
L 208.592727 -195.7767 
L 207.324545 -205.4535 
L 205.992955 -224.8071 
L 204.724773 -205.4535 
L 203.456591 -215.1303 
L 202.125 -200.6151 
L 200.856818 -181.2615 
L 199.525227 -200.6151 
L 198.257045 -215.1303 
L 196.925455 -200.6151 
L 195.657273 -229.6455 
L 194.325682 -186.0999 
L 193.0575 -224.8071 
L 191.725909 -210.2919 
L 190.457727 -200.6151 
L 189.126136 -186.0999 
L 187.857955 -210.2919 
L 186.526364 -229.6455 
L 185.258182 -210.2919 
L 183.926591 -200.6151 
L 182.658409 -190.9383 
L 181.326818 -176.4231 
L 180.058636 -215.1303 
L 178.727045 -215.1303 
L 177.458864 -200.6151 
L 176.127273 -195.7767 
L 174.859091 -215.1303 
L 173.5275 -200.6151 
L 172.259318 -205.4535 
L 170.991136 -200.6151 
L 169.659545 -210.2919 
L 168.391364 -190.9383 
L 167.059773 -195.7767 
L 165.791591 -195.7767 
L 164.46 -219.9687 
L 163.191818 -224.8071 
L 161.860227 -229.6455 
L 160.592045 -186.0999 
L 159.260455 -215.1303 
L 157.992273 -190.9383 
L 156.660682 -205.4535 
L 155.3925 -190.9383 
L 154.060909 -205.4535 
L 152.792727 -224.8071 
L 151.461136 -200.6151 
L 150.192955 -186.0999 
L 148.861364 -195.7767 
L 147.593182 -215.1303 
L 146.261591 -195.7767 
L 144.993409 -200.6151 
L 143.661818 -219.9687 
L 142.393636 -215.1303 
L 141.062045 -181.2615 
L 139.793864 -195.7767 
L 138.525682 -176.4231 
L 137.194091 -210.2919 
L 135.925909 -181.2615 
L 134.594318 -224.8071 
L 133.326136 -200.6151 
L 131.994545 -215.1303 
L 130.726364 -200.6151 
L 129.394773 -205.4535 
L 128.126591 -229.6455 
L 126.795 -205.4535 
L 125.526818 -176.4231 
L 124.195227 -234.4839 
L 122.927045 -210.2919 
L 121.595455 -229.6455 
L 120.327273 -181.2615 
L 118.995682 -219.9687 
L 117.7275 -195.7767 
L 116.395909 -200.6151 
L 115.127727 -200.6151 
L 113.796136 -229.6455 
L 112.527955 -200.6151 
L 111.196364 -205.4535 
L 109.928182 -215.1303 
L 108.596591 -219.9687 
L 107.328409 -190.9383 
L 106.060227 -224.8071 
z
" style="stroke: #800080; stroke-opacity: 0.3"/>
    </defs>
    <g clip-path="url(#p09df87cdb9)">
     <use xlink:href="#me680a03bed" x="0" y="372.985125" style="fill: #800080; fill-opacity: 0.3; stroke: #800080; stroke-opacity: 0.3"/>
    </g>
   </g>
   <g id="matplotlib.axis_1">
    <g id="xtick_1">
     <g id="line2d_1">
      <defs>
       <path id="mf0dbbbddd6" d="M 0 0 
L 0 3.5 
" style="stroke: #000000; stroke-width: 0.8"/>
      </defs>
      <g>
       <use xlink:href="#mf0dbbbddd6" x="106.060227" y="300.587625" style="stroke: #000000; stroke-width: 0.8"/>
      </g>
     </g>
     <g id="text_1">
      <!-- 0 -->
      <g transform="translate(97.152727 328.86325) scale(0.28 -0.28)">
       <defs>
        <path id="DejaVuSans-30" d="M 2034 4250 
Q 1547 4250 1301 3770 
Q 1056 3291 1056 2328 
Q 1056 1369 1301 889 
Q 1547 409 2034 409 
Q 2525 409 2770 889 
Q 3016 1369 3016 2328 
Q 3016 3291 2770 3770 
Q 2525 4250 2034 4250 
z
M 2034 4750 
Q 2819 4750 3233 4129 
Q 3647 3509 3647 2328 
Q 3647 1150 3233 529 
Q 2819 -91 2034 -91 
Q 1250 -91 836 529 
Q 422 1150 422 2328 
Q 422 3509 836 4129 
Q 1250 4750 2034 4750 
z
" transform="scale(0.015625)"/>
       </defs>
       <use xlink:href="#DejaVuSans-30"/>
      </g>
     </g>
    </g>
    <g id="xtick_2">
     <g id="line2d_2">
      <g>
       <use xlink:href="#mf0dbbbddd6" x="232.878409" y="300.587625" style="stroke: #000000; stroke-width: 0.8"/>
      </g>
     </g>
     <g id="text_2">
      <!-- 2000 -->
      <g transform="translate(197.248409 328.86325) scale(0.28 -0.28)">
       <defs>
        <path id="DejaVuSans-32" d="M 1228 531 
L 3431 531 
L 3431 0 
L 469 0 
L 469 531 
Q 828 903 1448 1529 
Q 2069 2156 2228 2338 
Q 2531 2678 2651 2914 
Q 2772 3150 2772 3378 
Q 2772 3750 2511 3984 
Q 2250 4219 1831 4219 
Q 1534 4219 1204 4116 
Q 875 4013 500 3803 
L 500 4441 
Q 881 4594 1212 4672 
Q 1544 4750 1819 4750 
Q 2544 4750 2975 4387 
Q 3406 4025 3406 3419 
Q 3406 3131 3298 2873 
Q 3191 2616 2906 2266 
Q 2828 2175 2409 1742 
Q 1991 1309 1228 531 
z
" transform="scale(0.015625)"/>
       </defs>
       <use xlink:href="#DejaVuSans-32"/>
       <use xlink:href="#DejaVuSans-30" x="63.623047"/>
       <use xlink:href="#DejaVuSans-30" x="127.246094"/>
       <use xlink:href="#DejaVuSans-30" x="190.869141"/>
      </g>
     </g>
    </g>
    <g id="xtick_3">
     <g id="line2d_3">
      <g>
       <use xlink:href="#mf0dbbbddd6" x="359.696591" y="300.587625" style="stroke: #000000; stroke-width: 0.8"/>
      </g>
     </g>
     <g id="text_3">
      <!-- 4000 -->
      <g transform="translate(324.066591 328.86325) scale(0.28 -0.28)">
       <defs>
        <path id="DejaVuSans-34" d="M 2419 4116 
L 825 1625 
L 2419 1625 
L 2419 4116 
z
M 2253 4666 
L 3047 4666 
L 3047 1625 
L 3713 1625 
L 3713 1100 
L 3047 1100 
L 3047 0 
L 2419 0 
L 2419 1100 
L 313 1100 
L 313 1709 
L 2253 4666 
z
" transform="scale(0.015625)"/>
       </defs>
       <use xlink:href="#DejaVuSans-34"/>
       <use xlink:href="#DejaVuSans-30" x="63.623047"/>
       <use xlink:href="#DejaVuSans-30" x="127.246094"/>
       <use xlink:href="#DejaVuSans-30" x="190.869141"/>
      </g>
     </g>
    </g>
    <g id="text_4">
     <!-- Sampled Trajectories -->
     <g transform="translate(121.925625 359.962) scale(0.28 -0.28)">
      <defs>
       <path id="DejaVuSans-53" d="M 3425 4513 
L 3425 3897 
Q 3066 4069 2747 4153 
Q 2428 4238 2131 4238 
Q 1616 4238 1336 4038 
Q 1056 3838 1056 3469 
Q 1056 3159 1242 3001 
Q 1428 2844 1947 2747 
L 2328 2669 
Q 3034 2534 3370 2195 
Q 3706 1856 3706 1288 
Q 3706 609 3251 259 
Q 2797 -91 1919 -91 
Q 1588 -91 1214 -16 
Q 841 59 441 206 
L 441 856 
Q 825 641 1194 531 
Q 1563 422 1919 422 
Q 2459 422 2753 634 
Q 3047 847 3047 1241 
Q 3047 1584 2836 1778 
Q 2625 1972 2144 2069 
L 1759 2144 
Q 1053 2284 737 2584 
Q 422 2884 422 3419 
Q 422 4038 858 4394 
Q 1294 4750 2059 4750 
Q 2388 4750 2728 4690 
Q 3069 4631 3425 4513 
z
" transform="scale(0.015625)"/>
       <path id="DejaVuSans-61" d="M 2194 1759 
Q 1497 1759 1228 1600 
Q 959 1441 959 1056 
Q 959 750 1161 570 
Q 1363 391 1709 391 
Q 2188 391 2477 730 
Q 2766 1069 2766 1631 
L 2766 1759 
L 2194 1759 
z
M 3341 1997 
L 3341 0 
L 2766 0 
L 2766 531 
Q 2569 213 2275 61 
Q 1981 -91 1556 -91 
Q 1019 -91 701 211 
Q 384 513 384 1019 
Q 384 1609 779 1909 
Q 1175 2209 1959 2209 
L 2766 2209 
L 2766 2266 
Q 2766 2663 2505 2880 
Q 2244 3097 1772 3097 
Q 1472 3097 1187 3025 
Q 903 2953 641 2809 
L 641 3341 
Q 956 3463 1253 3523 
Q 1550 3584 1831 3584 
Q 2591 3584 2966 3190 
Q 3341 2797 3341 1997 
z
" transform="scale(0.015625)"/>
       <path id="DejaVuSans-6d" d="M 3328 2828 
Q 3544 3216 3844 3400 
Q 4144 3584 4550 3584 
Q 5097 3584 5394 3201 
Q 5691 2819 5691 2113 
L 5691 0 
L 5113 0 
L 5113 2094 
Q 5113 2597 4934 2840 
Q 4756 3084 4391 3084 
Q 3944 3084 3684 2787 
Q 3425 2491 3425 1978 
L 3425 0 
L 2847 0 
L 2847 2094 
Q 2847 2600 2669 2842 
Q 2491 3084 2119 3084 
Q 1678 3084 1418 2786 
Q 1159 2488 1159 1978 
L 1159 0 
L 581 0 
L 581 3500 
L 1159 3500 
L 1159 2956 
Q 1356 3278 1631 3431 
Q 1906 3584 2284 3584 
Q 2666 3584 2933 3390 
Q 3200 3197 3328 2828 
z
" transform="scale(0.015625)"/>
       <path id="DejaVuSans-70" d="M 1159 525 
L 1159 -1331 
L 581 -1331 
L 581 3500 
L 1159 3500 
L 1159 2969 
Q 1341 3281 1617 3432 
Q 1894 3584 2278 3584 
Q 2916 3584 3314 3078 
Q 3713 2572 3713 1747 
Q 3713 922 3314 415 
Q 2916 -91 2278 -91 
Q 1894 -91 1617 61 
Q 1341 213 1159 525 
z
M 3116 1747 
Q 3116 2381 2855 2742 
Q 2594 3103 2138 3103 
Q 1681 3103 1420 2742 
Q 1159 2381 1159 1747 
Q 1159 1113 1420 752 
Q 1681 391 2138 391 
Q 2594 391 2855 752 
Q 3116 1113 3116 1747 
z
" transform="scale(0.015625)"/>
       <path id="DejaVuSans-6c" d="M 603 4863 
L 1178 4863 
L 1178 0 
L 603 0 
L 603 4863 
z
" transform="scale(0.015625)"/>
       <path id="DejaVuSans-65" d="M 3597 1894 
L 3597 1613 
L 953 1613 
Q 991 1019 1311 708 
Q 1631 397 2203 397 
Q 2534 397 2845 478 
Q 3156 559 3463 722 
L 3463 178 
Q 3153 47 2828 -22 
Q 2503 -91 2169 -91 
Q 1331 -91 842 396 
Q 353 884 353 1716 
Q 353 2575 817 3079 
Q 1281 3584 2069 3584 
Q 2775 3584 3186 3129 
Q 3597 2675 3597 1894 
z
M 3022 2063 
Q 3016 2534 2758 2815 
Q 2500 3097 2075 3097 
Q 1594 3097 1305 2825 
Q 1016 2553 972 2059 
L 3022 2063 
z
" transform="scale(0.015625)"/>
       <path id="DejaVuSans-64" d="M 2906 2969 
L 2906 4863 
L 3481 4863 
L 3481 0 
L 2906 0 
L 2906 525 
Q 2725 213 2448 61 
Q 2172 -91 1784 -91 
Q 1150 -91 751 415 
Q 353 922 353 1747 
Q 353 2572 751 3078 
Q 1150 3584 1784 3584 
Q 2172 3584 2448 3432 
Q 2725 3281 2906 2969 
z
M 947 1747 
Q 947 1113 1208 752 
Q 1469 391 1925 391 
Q 2381 391 2643 752 
Q 2906 1113 2906 1747 
Q 2906 2381 2643 2742 
Q 2381 3103 1925 3103 
Q 1469 3103 1208 2742 
Q 947 2381 947 1747 
z
" transform="scale(0.015625)"/>
       <path id="DejaVuSans-20" transform="scale(0.015625)"/>
       <path id="DejaVuSans-54" d="M -19 4666 
L 3928 4666 
L 3928 4134 
L 2272 4134 
L 2272 0 
L 1638 0 
L 1638 4134 
L -19 4134 
L -19 4666 
z
" transform="scale(0.015625)"/>
       <path id="DejaVuSans-72" d="M 2631 2963 
Q 2534 3019 2420 3045 
Q 2306 3072 2169 3072 
Q 1681 3072 1420 2755 
Q 1159 2438 1159 1844 
L 1159 0 
L 581 0 
L 581 3500 
L 1159 3500 
L 1159 2956 
Q 1341 3275 1631 3429 
Q 1922 3584 2338 3584 
Q 2397 3584 2469 3576 
Q 2541 3569 2628 3553 
L 2631 2963 
z
" transform="scale(0.015625)"/>
       <path id="DejaVuSans-6a" d="M 603 3500 
L 1178 3500 
L 1178 -63 
Q 1178 -731 923 -1031 
Q 669 -1331 103 -1331 
L -116 -1331 
L -116 -844 
L 38 -844 
Q 366 -844 484 -692 
Q 603 -541 603 -63 
L 603 3500 
z
M 603 4863 
L 1178 4863 
L 1178 4134 
L 603 4134 
L 603 4863 
z
" transform="scale(0.015625)"/>
       <path id="DejaVuSans-63" d="M 3122 3366 
L 3122 2828 
Q 2878 2963 2633 3030 
Q 2388 3097 2138 3097 
Q 1578 3097 1268 2742 
Q 959 2388 959 1747 
Q 959 1106 1268 751 
Q 1578 397 2138 397 
Q 2388 397 2633 464 
Q 2878 531 3122 666 
L 3122 134 
Q 2881 22 2623 -34 
Q 2366 -91 2075 -91 
Q 1284 -91 818 406 
Q 353 903 353 1747 
Q 353 2603 823 3093 
Q 1294 3584 2113 3584 
Q 2378 3584 2631 3529 
Q 2884 3475 3122 3366 
z
" transform="scale(0.015625)"/>
       <path id="DejaVuSans-74" d="M 1172 4494 
L 1172 3500 
L 2356 3500 
L 2356 3053 
L 1172 3053 
L 1172 1153 
Q 1172 725 1289 603 
Q 1406 481 1766 481 
L 2356 481 
L 2356 0 
L 1766 0 
Q 1100 0 847 248 
Q 594 497 594 1153 
L 594 3053 
L 172 3053 
L 172 3500 
L 594 3500 
L 594 4494 
L 1172 4494 
z
" transform="scale(0.015625)"/>
       <path id="DejaVuSans-6f" d="M 1959 3097 
Q 1497 3097 1228 2736 
Q 959 2375 959 1747 
Q 959 1119 1226 758 
Q 1494 397 1959 397 
Q 2419 397 2687 759 
Q 2956 1122 2956 1747 
Q 2956 2369 2687 2733 
Q 2419 3097 1959 3097 
z
M 1959 3584 
Q 2709 3584 3137 3096 
Q 3566 2609 3566 1747 
Q 3566 888 3137 398 
Q 2709 -91 1959 -91 
Q 1206 -91 779 398 
Q 353 888 353 1747 
Q 353 2609 779 3096 
Q 1206 3584 1959 3584 
z
" transform="scale(0.015625)"/>
       <path id="DejaVuSans-69" d="M 603 3500 
L 1178 3500 
L 1178 0 
L 603 0 
L 603 3500 
z
M 603 4863 
L 1178 4863 
L 1178 4134 
L 603 4134 
L 603 4863 
z
" transform="scale(0.015625)"/>
       <path id="DejaVuSans-73" d="M 2834 3397 
L 2834 2853 
Q 2591 2978 2328 3040 
Q 2066 3103 1784 3103 
Q 1356 3103 1142 2972 
Q 928 2841 928 2578 
Q 928 2378 1081 2264 
Q 1234 2150 1697 2047 
L 1894 2003 
Q 2506 1872 2764 1633 
Q 3022 1394 3022 966 
Q 3022 478 2636 193 
Q 2250 -91 1575 -91 
Q 1294 -91 989 -36 
Q 684 19 347 128 
L 347 722 
Q 666 556 975 473 
Q 1284 391 1588 391 
Q 1994 391 2212 530 
Q 2431 669 2431 922 
Q 2431 1156 2273 1281 
Q 2116 1406 1581 1522 
L 1381 1569 
Q 847 1681 609 1914 
Q 372 2147 372 2553 
Q 372 3047 722 3315 
Q 1072 3584 1716 3584 
Q 2034 3584 2315 3537 
Q 2597 3491 2834 3397 
z
" transform="scale(0.015625)"/>
      </defs>
      <use xlink:href="#DejaVuSans-53"/>
      <use xlink:href="#DejaVuSans-61" x="63.476562"/>
      <use xlink:href="#DejaVuSans-6d" x="124.755859"/>
      <use xlink:href="#DejaVuSans-70" x="222.167969"/>
      <use xlink:href="#DejaVuSans-6c" x="285.644531"/>
      <use xlink:href="#DejaVuSans-65" x="313.427734"/>
      <use xlink:href="#DejaVuSans-64" x="374.951172"/>
      <use xlink:href="#DejaVuSans-20" x="438.427734"/>
      <use xlink:href="#DejaVuSans-54" x="470.214844"/>
      <use xlink:href="#DejaVuSans-72" x="516.548828"/>
      <use xlink:href="#DejaVuSans-61" x="557.662109"/>
      <use xlink:href="#DejaVuSans-6a" x="618.941406"/>
      <use xlink:href="#DejaVuSans-65" x="646.724609"/>
      <use xlink:href="#DejaVuSans-63" x="708.248047"/>
      <use xlink:href="#DejaVuSans-74" x="763.228516"/>
      <use xlink:href="#DejaVuSans-6f" x="802.4375"/>
      <use xlink:href="#DejaVuSans-72" x="863.619141"/>
      <use xlink:href="#DejaVuSans-69" x="904.732422"/>
      <use xlink:href="#DejaVuSans-65" x="932.515625"/>
      <use xlink:href="#DejaVuSans-73" x="994.039062"/>
     </g>
    </g>
   </g>
   <g id="matplotlib.axis_2">
    <g id="ytick_1">
     <g id="line2d_4">
      <defs>
       <path id="mfa427c0b2b" d="M 0 0 
L -3.5 0 
" style="stroke: #000000; stroke-width: 0.8"/>
      </defs>
      <g>
       <use xlink:href="#mfa427c0b2b" x="89.8275" y="288.491625" style="stroke: #000000; stroke-width: 0.8"/>
      </g>
     </g>
     <g id="text_5">
      <!-- 0.0 -->
      <g transform="translate(38.29875 299.129437) scale(0.28 -0.28)">
       <defs>
        <path id="DejaVuSans-2e" d="M 684 794 
L 1344 794 
L 1344 0 
L 684 0 
L 684 794 
z
" transform="scale(0.015625)"/>
       </defs>
       <use xlink:href="#DejaVuSans-30"/>
       <use xlink:href="#DejaVuSans-2e" x="63.623047"/>
       <use xlink:href="#DejaVuSans-30" x="95.410156"/>
      </g>
     </g>
    </g>
    <g id="ytick_2">
     <g id="line2d_5">
      <g>
       <use xlink:href="#mfa427c0b2b" x="89.8275" y="167.531625" style="stroke: #000000; stroke-width: 0.8"/>
      </g>
     </g>
     <g id="text_6">
      <!-- 0.5 -->
      <g transform="translate(38.29875 178.169437) scale(0.28 -0.28)">
       <defs>
        <path id="DejaVuSans-35" d="M 691 4666 
L 3169 4666 
L 3169 4134 
L 1269 4134 
L 1269 2991 
Q 1406 3038 1543 3061 
Q 1681 3084 1819 3084 
Q 2600 3084 3056 2656 
Q 3513 2228 3513 1497 
Q 3513 744 3044 326 
Q 2575 -91 1722 -91 
Q 1428 -91 1123 -41 
Q 819 9 494 109 
L 494 744 
Q 775 591 1075 516 
Q 1375 441 1709 441 
Q 2250 441 2565 725 
Q 2881 1009 2881 1497 
Q 2881 1984 2565 2268 
Q 2250 2553 1709 2553 
Q 1456 2553 1204 2497 
Q 953 2441 691 2322 
L 691 4666 
z
" transform="scale(0.015625)"/>
       </defs>
       <use xlink:href="#DejaVuSans-30"/>
       <use xlink:href="#DejaVuSans-2e" x="63.623047"/>
       <use xlink:href="#DejaVuSans-35" x="95.410156"/>
      </g>
     </g>
    </g>
    <g id="ytick_3">
     <g id="line2d_6">
      <g>
       <use xlink:href="#mfa427c0b2b" x="89.8275" y="46.571625" style="stroke: #000000; stroke-width: 0.8"/>
      </g>
     </g>
     <g id="text_7">
      <!-- 1.0 -->
      <g transform="translate(38.29875 57.209437) scale(0.28 -0.28)">
       <defs>
        <path id="DejaVuSans-31" d="M 794 531 
L 1825 531 
L 1825 4091 
L 703 3866 
L 703 4441 
L 1819 4666 
L 2450 4666 
L 2450 531 
L 3481 531 
L 3481 0 
L 794 0 
L 794 531 
z
" transform="scale(0.015625)"/>
       </defs>
       <use xlink:href="#DejaVuSans-31"/>
       <use xlink:href="#DejaVuSans-2e" x="63.623047"/>
       <use xlink:href="#DejaVuSans-30" x="95.410156"/>
      </g>
     </g>
    </g>
    <g id="text_8">
     <!-- Success Rate -->
     <g transform="translate(28.475625 260.432562) rotate(-90) scale(0.28 -0.28)">
      <defs>
       <path id="DejaVuSans-75" d="M 544 1381 
L 544 3500 
L 1119 3500 
L 1119 1403 
Q 1119 906 1312 657 
Q 1506 409 1894 409 
Q 2359 409 2629 706 
Q 2900 1003 2900 1516 
L 2900 3500 
L 3475 3500 
L 3475 0 
L 2900 0 
L 2900 538 
Q 2691 219 2414 64 
Q 2138 -91 1772 -91 
Q 1169 -91 856 284 
Q 544 659 544 1381 
z
M 1991 3584 
L 1991 3584 
z
" transform="scale(0.015625)"/>
       <path id="DejaVuSans-52" d="M 2841 2188 
Q 3044 2119 3236 1894 
Q 3428 1669 3622 1275 
L 4263 0 
L 3584 0 
L 2988 1197 
Q 2756 1666 2539 1819 
Q 2322 1972 1947 1972 
L 1259 1972 
L 1259 0 
L 628 0 
L 628 4666 
L 2053 4666 
Q 2853 4666 3247 4331 
Q 3641 3997 3641 3322 
Q 3641 2881 3436 2590 
Q 3231 2300 2841 2188 
z
M 1259 4147 
L 1259 2491 
L 2053 2491 
Q 2509 2491 2742 2702 
Q 2975 2913 2975 3322 
Q 2975 3731 2742 3939 
Q 2509 4147 2053 4147 
L 1259 4147 
z
" transform="scale(0.015625)"/>
      </defs>
      <use xlink:href="#DejaVuSans-53"/>
      <use xlink:href="#DejaVuSans-75" x="63.476562"/>
      <use xlink:href="#DejaVuSans-63" x="126.855469"/>
      <use xlink:href="#DejaVuSans-63" x="181.835938"/>
      <use xlink:href="#DejaVuSans-65" x="236.816406"/>
      <use xlink:href="#DejaVuSans-73" x="298.339844"/>
      <use xlink:href="#DejaVuSans-73" x="350.439453"/>
      <use xlink:href="#DejaVuSans-20" x="402.539062"/>
      <use xlink:href="#DejaVuSans-52" x="434.326172"/>
      <use xlink:href="#DejaVuSans-61" x="501.558594"/>
      <use xlink:href="#DejaVuSans-74" x="562.837891"/>
      <use xlink:href="#DejaVuSans-65" x="602.046875"/>
     </g>
    </g>
   </g>
   <g id="line2d_7">
    <path d="M 106.060227 288.491625 
L 111.767045 288.491625 
L 117.473864 288.491625 
L 123.180682 282.443625 
L 128.8875 258.251625 
L 134.594318 288.491625 
L 140.301136 276.395625 
L 146.007955 258.251625 
L 151.714773 261.275625 
L 157.421591 267.323625 
L 163.128409 253.413225 
L 168.835227 264.299625 
L 174.542045 231.640425 
L 180.248864 217.730025 
L 185.955682 204.424425 
L 191.6625 237.688425 
L 197.369318 235.269225 
L 203.076136 200.190825 
L 208.782955 210.472425 
L 214.489773 223.173225 
L 220.196591 228.011625 
L 225.903409 197.771625 
L 231.610227 217.730025 
L 237.317045 222.568425 
L 243.023864 198.981225 
L 248.730682 214.706025 
L 254.4375 205.029225 
L 260.144318 217.730025 
L 265.851136 200.795625 
L 271.557955 205.029225 
L 277.264773 201.400425 
L 282.971591 202.005225 
L 288.678409 205.634025 
L 294.385227 194.747625 
L 300.092045 182.651625 
L 305.798864 188.699625 
L 311.505682 181.442025 
L 317.2125 200.190825 
L 322.919318 175.998825 
L 328.626136 208.658025 
L 334.332955 177.813225 
L 340.039773 189.304425 
L 345.746591 179.022825 
L 351.453409 198.981225 
L 357.160227 178.418025 
L 362.867045 210.472425 
L 368.573864 195.352425 
L 374.280682 185.070825 
L 379.9875 168.136425 
L 385.694318 187.490025 
L 391.401136 191.118825 
L 397.107955 177.813225 
L 402.814773 183.861225 
L 408.521591 191.723625 
L 414.228409 189.304425 
L 419.935227 208.053225 
" clip-path="url(#p09df87cdb9)" style="fill: none; stroke: #ffa500; stroke-width: 1.5; stroke-linecap: square"/>
   </g>
   <g id="line2d_8">
    <path d="M 106.060227 143.339625 
L 111.767045 288.491625 
L 117.473864 288.491625 
L 123.180682 288.491625 
L 128.8875 288.491625 
L 134.594318 288.491625 
L 140.301136 288.491625 
L 146.007955 288.491625 
L 151.714773 288.491625 
L 157.421591 288.491625 
L 163.128409 288.491625 
L 168.835227 288.491625 
L 174.542045 288.491625 
L 180.248864 288.491625 
L 185.955682 288.491625 
L 191.6625 272.363625 
L 197.369318 278.814825 
L 203.076136 244.946025 
L 208.782955 275.589225 
L 214.489773 232.043625 
L 220.196591 207.851625 
L 225.903409 236.882025 
L 231.610227 156.242025 
L 237.317045 128.824425 
L 243.023864 111.083625 
L 248.730682 73.989225 
L 254.4375 61.086825 
L 260.144318 64.312425 
L 265.851136 114.309225 
L 271.557955 96.568425 
L 277.264773 117.534825 
L 282.971591 94.955625 
L 288.678409 109.470825 
L 294.385227 69.150825 
L 300.092045 130.437225 
L 305.798864 91.730025 
L 311.505682 141.726825 
L 317.2125 156.242025 
L 322.919318 64.312425 
L 328.626136 161.080425 
L 334.332955 86.891625 
L 340.039773 114.309225 
L 345.746591 120.760425 
L 351.453409 99.794025 
L 357.160227 120.760425 
L 362.867045 90.117225 
L 368.573864 98.181225 
L 374.280682 141.726825 
L 379.9875 153.016425 
L 385.694318 69.150825 
L 391.401136 62.699625 
L 397.107955 91.730025 
L 402.814773 138.501225 
L 408.521591 90.117225 
L 414.228409 67.538025 
L 419.935227 111.083625 
" clip-path="url(#p09df87cdb9)" style="fill: none; stroke: #008000; stroke-width: 1.5; stroke-linecap: square"/>
   </g>
   <g id="line2d_9">
    <path d="M 106.060227 194.949225 
L 116.205682 288.491625 
L 126.351136 278.814825 
L 136.496591 277.202025 
L 146.642045 280.427625 
L 156.7875 272.363625 
L 166.932955 275.589225 
L 177.078409 261.074025 
L 187.223864 278.814825 
L 197.369318 259.461225 
L 207.514773 270.750825 
L 217.660227 278.814825 
L 227.805682 278.814825 
L 237.951136 275.589225 
L 248.096591 267.525225 
L 258.242045 280.427625 
L 268.3875 275.589225 
L 278.532955 267.525225 
L 288.678409 265.912425 
L 298.823864 273.976425 
L 308.969318 283.653225 
L 319.114773 278.814825 
L 329.260227 270.750825 
L 339.405682 272.363625 
L 349.551136 248.171625 
L 359.696591 257.848425 
L 369.842045 267.525225 
L 379.9875 267.525225 
L 390.132955 285.266025 
L 400.278409 283.653225 
L 410.423864 283.653225 
L 420.569318 288.491625 
L 430.714773 283.653225 
" clip-path="url(#p09df87cdb9)" style="fill: none; stroke: #ff0000; stroke-width: 1.5; stroke-linecap: square"/>
   </g>
   <g id="line2d_10">
    <path d="M 106.060227 174.789225 
L 112.527955 177.208425 
L 118.995682 162.693225 
L 125.526818 201.400425 
L 131.994545 172.370025 
L 138.525682 198.981225 
L 144.993409 179.627625 
L 151.461136 191.723625 
L 157.992273 184.466025 
L 164.46 169.950825 
L 170.991136 177.208425 
L 177.458864 186.885225 
L 183.926591 174.789225 
L 190.457727 177.208425 
L 196.925455 182.046825 
L 203.456591 167.531625 
L 209.924318 191.723625 
L 216.392045 189.304425 
L 222.923182 179.627625 
L 229.390909 177.208425 
L 235.922045 174.789225 
L 242.389773 184.466025 
L 248.8575 198.981225 
L 255.388636 184.466025 
L 261.856364 182.046825 
L 268.3875 172.370025 
L 274.855227 165.112425 
L 281.322955 177.208425 
L 287.854091 169.950825 
L 294.321818 169.950825 
L 300.852955 179.627625 
L 307.320682 182.046825 
L 313.788409 184.466025 
L 320.319545 174.789225 
L 326.787273 191.723625 
L 333.318409 167.531625 
L 339.786136 169.950825 
L 346.253864 174.789225 
L 352.785 143.339625 
L 359.252727 169.950825 
L 365.783864 169.950825 
L 372.251591 172.370025 
L 378.719318 145.758825 
L 385.250455 174.789225 
L 391.718182 169.950825 
L 398.249318 167.531625 
L 404.717045 172.370025 
L 411.184773 157.854825 
L 417.715909 174.789225 
L 424.183636 186.885225 
" clip-path="url(#p09df87cdb9)" style="fill: none; stroke: #800080; stroke-width: 1.5; stroke-linecap: square"/>
   </g>
   <g id="patch_3">
    <path d="M 89.8275 300.587625 
L 89.8275 34.475625 
" style="fill: none; stroke: #000000; stroke-width: 0.8; stroke-linejoin: miter; stroke-linecap: square"/>
   </g>
   <g id="patch_4">
    <path d="M 446.9475 300.587625 
L 446.9475 34.475625 
" style="fill: none; stroke: #000000; stroke-width: 0.8; stroke-linejoin: miter; stroke-linecap: square"/>
   </g>
   <g id="patch_5">
    <path d="M 89.8275 300.587625 
L 446.9475 300.587625 
" style="fill: none; stroke: #000000; stroke-width: 0.8; stroke-linejoin: miter; stroke-linecap: square"/>
   </g>
   <g id="patch_6">
    <path d="M 89.8275 34.475625 
L 446.9475 34.475625 
" style="fill: none; stroke: #000000; stroke-width: 0.8; stroke-linejoin: miter; stroke-linecap: square"/>
   </g>
   <g id="text_9">
    <!-- Window Open -->
    <g transform="translate(171.35 28.475625) scale(0.28 -0.28)">
     <defs>
      <path id="DejaVuSans-57" d="M 213 4666 
L 850 4666 
L 1831 722 
L 2809 4666 
L 3519 4666 
L 4500 722 
L 5478 4666 
L 6119 4666 
L 4947 0 
L 4153 0 
L 3169 4050 
L 2175 0 
L 1381 0 
L 213 4666 
z
" transform="scale(0.015625)"/>
      <path id="DejaVuSans-6e" d="M 3513 2113 
L 3513 0 
L 2938 0 
L 2938 2094 
Q 2938 2591 2744 2837 
Q 2550 3084 2163 3084 
Q 1697 3084 1428 2787 
Q 1159 2491 1159 1978 
L 1159 0 
L 581 0 
L 581 3500 
L 1159 3500 
L 1159 2956 
Q 1366 3272 1645 3428 
Q 1925 3584 2291 3584 
Q 2894 3584 3203 3211 
Q 3513 2838 3513 2113 
z
" transform="scale(0.015625)"/>
      <path id="DejaVuSans-77" d="M 269 3500 
L 844 3500 
L 1563 769 
L 2278 3500 
L 2956 3500 
L 3675 769 
L 4391 3500 
L 4966 3500 
L 4050 0 
L 3372 0 
L 2619 2869 
L 1863 0 
L 1184 0 
L 269 3500 
z
" transform="scale(0.015625)"/>
      <path id="DejaVuSans-4f" d="M 2522 4238 
Q 1834 4238 1429 3725 
Q 1025 3213 1025 2328 
Q 1025 1447 1429 934 
Q 1834 422 2522 422 
Q 3209 422 3611 934 
Q 4013 1447 4013 2328 
Q 4013 3213 3611 3725 
Q 3209 4238 2522 4238 
z
M 2522 4750 
Q 3503 4750 4090 4092 
Q 4678 3434 4678 2328 
Q 4678 1225 4090 567 
Q 3503 -91 2522 -91 
Q 1538 -91 948 565 
Q 359 1222 359 2328 
Q 359 3434 948 4092 
Q 1538 4750 2522 4750 
z
" transform="scale(0.015625)"/>
     </defs>
     <use xlink:href="#DejaVuSans-57"/>
     <use xlink:href="#DejaVuSans-69" x="96.626953"/>
     <use xlink:href="#DejaVuSans-6e" x="124.410156"/>
     <use xlink:href="#DejaVuSans-64" x="187.789062"/>
     <use xlink:href="#DejaVuSans-6f" x="251.265625"/>
     <use xlink:href="#DejaVuSans-77" x="312.447266"/>
     <use xlink:href="#DejaVuSans-20" x="394.234375"/>
     <use xlink:href="#DejaVuSans-4f" x="426.021484"/>
     <use xlink:href="#DejaVuSans-70" x="504.732422"/>
     <use xlink:href="#DejaVuSans-65" x="568.208984"/>
     <use xlink:href="#DejaVuSans-6e" x="629.732422"/>
    </g>
   </g>
   <g id="legend_1">
    <g id="patch_7">
     <path d="M 102.4275 154.558125 
L 311.292188 154.558125 
Q 314.892188 154.558125 314.892188 150.958125 
L 314.892188 47.075625 
Q 314.892188 43.475625 311.292188 43.475625 
L 102.4275 43.475625 
Q 98.8275 43.475625 98.8275 47.075625 
L 98.8275 150.958125 
Q 98.8275 154.558125 102.4275 154.558125 
z
" style="fill: #ffffff; opacity: 0.8; stroke: #cccccc; stroke-linejoin: miter"/>
    </g>
    <g id="line2d_11">
     <path d="M 106.0275 58.052812 
L 124.0275 58.052812 
L 142.0275 58.052812 
" style="fill: none; stroke: #ffa500; stroke-width: 1.5; stroke-linecap: square"/>
    </g>
    <g id="text_10">
     <!-- TQC -->
     <g transform="translate(156.4275 64.352812) scale(0.18 -0.18)">
      <defs>
       <path id="DejaVuSans-51" d="M 2522 4238 
Q 1834 4238 1429 3725 
Q 1025 3213 1025 2328 
Q 1025 1447 1429 934 
Q 1834 422 2522 422 
Q 3209 422 3611 934 
Q 4013 1447 4013 2328 
Q 4013 3213 3611 3725 
Q 3209 4238 2522 4238 
z
M 3406 84 
L 4238 -825 
L 3475 -825 
L 2784 -78 
Q 2681 -84 2626 -87 
Q 2572 -91 2522 -91 
Q 1538 -91 948 567 
Q 359 1225 359 2328 
Q 359 3434 948 4092 
Q 1538 4750 2522 4750 
Q 3503 4750 4090 4092 
Q 4678 3434 4678 2328 
Q 4678 1516 4351 937 
Q 4025 359 3406 84 
z
" transform="scale(0.015625)"/>
       <path id="DejaVuSans-43" d="M 4122 4306 
L 4122 3641 
Q 3803 3938 3442 4084 
Q 3081 4231 2675 4231 
Q 1875 4231 1450 3742 
Q 1025 3253 1025 2328 
Q 1025 1406 1450 917 
Q 1875 428 2675 428 
Q 3081 428 3442 575 
Q 3803 722 4122 1019 
L 4122 359 
Q 3791 134 3420 21 
Q 3050 -91 2638 -91 
Q 1578 -91 968 557 
Q 359 1206 359 2328 
Q 359 3453 968 4101 
Q 1578 4750 2638 4750 
Q 3056 4750 3426 4639 
Q 3797 4528 4122 4306 
z
" transform="scale(0.015625)"/>
      </defs>
      <use xlink:href="#DejaVuSans-54"/>
      <use xlink:href="#DejaVuSans-51" x="61.083984"/>
      <use xlink:href="#DejaVuSans-43" x="139.794922"/>
     </g>
    </g>
    <g id="line2d_12">
     <path d="M 106.0275 84.473437 
L 124.0275 84.473437 
L 142.0275 84.473437 
" style="fill: none; stroke: #008000; stroke-width: 1.5; stroke-linecap: square"/>
    </g>
    <g id="text_11">
     <!-- TQC + BC -->
     <g transform="translate(156.4275 90.773437) scale(0.18 -0.18)">
      <defs>
       <path id="DejaVuSans-2b" d="M 2944 4013 
L 2944 2272 
L 4684 2272 
L 4684 1741 
L 2944 1741 
L 2944 0 
L 2419 0 
L 2419 1741 
L 678 1741 
L 678 2272 
L 2419 2272 
L 2419 4013 
L 2944 4013 
z
" transform="scale(0.015625)"/>
       <path id="DejaVuSans-42" d="M 1259 2228 
L 1259 519 
L 2272 519 
Q 2781 519 3026 730 
Q 3272 941 3272 1375 
Q 3272 1813 3026 2020 
Q 2781 2228 2272 2228 
L 1259 2228 
z
M 1259 4147 
L 1259 2741 
L 2194 2741 
Q 2656 2741 2882 2914 
Q 3109 3088 3109 3444 
Q 3109 3797 2882 3972 
Q 2656 4147 2194 4147 
L 1259 4147 
z
M 628 4666 
L 2241 4666 
Q 2963 4666 3353 4366 
Q 3744 4066 3744 3513 
Q 3744 3084 3544 2831 
Q 3344 2578 2956 2516 
Q 3422 2416 3680 2098 
Q 3938 1781 3938 1306 
Q 3938 681 3513 340 
Q 3088 0 2303 0 
L 628 0 
L 628 4666 
z
" transform="scale(0.015625)"/>
      </defs>
      <use xlink:href="#DejaVuSans-54"/>
      <use xlink:href="#DejaVuSans-51" x="61.083984"/>
      <use xlink:href="#DejaVuSans-43" x="139.794922"/>
      <use xlink:href="#DejaVuSans-20" x="209.619141"/>
      <use xlink:href="#DejaVuSans-2b" x="241.40625"/>
      <use xlink:href="#DejaVuSans-20" x="325.195312"/>
      <use xlink:href="#DejaVuSans-42" x="356.982422"/>
      <use xlink:href="#DejaVuSans-43" x="423.835938"/>
     </g>
    </g>
    <g id="line2d_13">
     <path d="M 106.0275 110.894062 
L 124.0275 110.894062 
L 142.0275 110.894062 
" style="fill: none; stroke: #ff0000; stroke-width: 1.5; stroke-linecap: square"/>
    </g>
    <g id="text_12">
     <!-- TQC + BC +GAIL -->
     <g transform="translate(156.4275 117.194062) scale(0.18 -0.18)">
      <defs>
       <path id="DejaVuSans-47" d="M 3809 666 
L 3809 1919 
L 2778 1919 
L 2778 2438 
L 4434 2438 
L 4434 434 
Q 4069 175 3628 42 
Q 3188 -91 2688 -91 
Q 1594 -91 976 548 
Q 359 1188 359 2328 
Q 359 3472 976 4111 
Q 1594 4750 2688 4750 
Q 3144 4750 3555 4637 
Q 3966 4525 4313 4306 
L 4313 3634 
Q 3963 3931 3569 4081 
Q 3175 4231 2741 4231 
Q 1884 4231 1454 3753 
Q 1025 3275 1025 2328 
Q 1025 1384 1454 906 
Q 1884 428 2741 428 
Q 3075 428 3337 486 
Q 3600 544 3809 666 
z
" transform="scale(0.015625)"/>
       <path id="DejaVuSans-41" d="M 2188 4044 
L 1331 1722 
L 3047 1722 
L 2188 4044 
z
M 1831 4666 
L 2547 4666 
L 4325 0 
L 3669 0 
L 3244 1197 
L 1141 1197 
L 716 0 
L 50 0 
L 1831 4666 
z
" transform="scale(0.015625)"/>
       <path id="DejaVuSans-49" d="M 628 4666 
L 1259 4666 
L 1259 0 
L 628 0 
L 628 4666 
z
" transform="scale(0.015625)"/>
       <path id="DejaVuSans-4c" d="M 628 4666 
L 1259 4666 
L 1259 531 
L 3531 531 
L 3531 0 
L 628 0 
L 628 4666 
z
" transform="scale(0.015625)"/>
      </defs>
      <use xlink:href="#DejaVuSans-54"/>
      <use xlink:href="#DejaVuSans-51" x="61.083984"/>
      <use xlink:href="#DejaVuSans-43" x="139.794922"/>
      <use xlink:href="#DejaVuSans-20" x="209.619141"/>
      <use xlink:href="#DejaVuSans-2b" x="241.40625"/>
      <use xlink:href="#DejaVuSans-20" x="325.195312"/>
      <use xlink:href="#DejaVuSans-42" x="356.982422"/>
      <use xlink:href="#DejaVuSans-43" x="423.835938"/>
      <use xlink:href="#DejaVuSans-20" x="493.660156"/>
      <use xlink:href="#DejaVuSans-2b" x="525.447266"/>
      <use xlink:href="#DejaVuSans-47" x="609.236328"/>
      <use xlink:href="#DejaVuSans-41" x="686.726562"/>
      <use xlink:href="#DejaVuSans-49" x="755.134766"/>
      <use xlink:href="#DejaVuSans-4c" x="784.626953"/>
     </g>
    </g>
    <g id="line2d_14">
     <path d="M 106.0275 137.314687 
L 124.0275 137.314687 
L 142.0275 137.314687 
" style="fill: none; stroke: #800080; stroke-width: 1.5; stroke-linecap: square"/>
    </g>
    <g id="text_13">
     <!-- PPO + BC +GAIL -->
     <g transform="translate(156.4275 143.614687) scale(0.18 -0.18)">
      <defs>
       <path id="DejaVuSans-50" d="M 1259 4147 
L 1259 2394 
L 2053 2394 
Q 2494 2394 2734 2622 
Q 2975 2850 2975 3272 
Q 2975 3691 2734 3919 
Q 2494 4147 2053 4147 
L 1259 4147 
z
M 628 4666 
L 2053 4666 
Q 2838 4666 3239 4311 
Q 3641 3956 3641 3272 
Q 3641 2581 3239 2228 
Q 2838 1875 2053 1875 
L 1259 1875 
L 1259 0 
L 628 0 
L 628 4666 
z
" transform="scale(0.015625)"/>
      </defs>
      <use xlink:href="#DejaVuSans-50"/>
      <use xlink:href="#DejaVuSans-50" x="60.302734"/>
      <use xlink:href="#DejaVuSans-4f" x="120.605469"/>
      <use xlink:href="#DejaVuSans-20" x="199.316406"/>
      <use xlink:href="#DejaVuSans-2b" x="231.103516"/>
      <use xlink:href="#DejaVuSans-20" x="314.892578"/>
      <use xlink:href="#DejaVuSans-42" x="346.679688"/>
      <use xlink:href="#DejaVuSans-43" x="413.533203"/>
      <use xlink:href="#DejaVuSans-20" x="483.357422"/>
      <use xlink:href="#DejaVuSans-2b" x="515.144531"/>
      <use xlink:href="#DejaVuSans-47" x="598.933594"/>
      <use xlink:href="#DejaVuSans-41" x="676.423828"/>
      <use xlink:href="#DejaVuSans-49" x="744.832031"/>
      <use xlink:href="#DejaVuSans-4c" x="774.324219"/>
     </g>
    </g>
   </g>
  </g>
 </g>
 <defs>
  <clipPath id="p09df87cdb9">
   <rect x="89.8275" y="34.475625" width="357.12" height="266.112"/>
  </clipPath>
 </defs>
</svg>
