<?xml version="1.0" encoding="utf-8" standalone="no"?>
<!DOCTYPE svg PUBLIC "-//W3C//DTD SVG 1.1//EN"
  "http://www.w3.org/Graphics/SVG/1.1/DTD/svg11.dtd">
<svg xmlns:xlink="http://www.w3.org/1999/xlink" width="428.56625pt" height="346.030437pt" viewBox="0 0 428.56625 346.030437" xmlns="http://www.w3.org/2000/svg" version="1.1">
 <metadata>
  <rdf:RDF xmlns:dc="http://purl.org/dc/elements/1.1/" xmlns:cc="http://creativecommons.org/ns#" xmlns:rdf="http://www.w3.org/1999/02/22-rdf-syntax-ns#">
   <cc:Work>
    <dc:type rdf:resource="http://purl.org/dc/dcmitype/StillImage"/>
    <dc:date>2023-06-08T13:35:43.407876</dc:date>
    <dc:format>image/svg+xml</dc:format>
    <dc:creator>
     <cc:Agent>
      <dc:title>Matplotlib v3.6.1, https://matplotlib.org/</dc:title>
     </cc:Agent>
    </dc:creator>
   </cc:Work>
  </rdf:RDF>
 </metadata>
 <defs>
  <style type="text/css">*{stroke-linejoin: round; stroke-linecap: butt}</style>
 </defs>
 <g id="figure_1">
  <g id="patch_1">
   <path d="M 0 346.030437 
L 428.56625 346.030437 
L 428.56625 0 
L 0 0 
z
" style="fill: #ffffff"/>
  </g>
  <g id="axes_1">
   <g id="patch_2">
    <path d="M 64.24625 292.989187 
L 421.36625 292.989187 
L 421.36625 26.877187 
L 64.24625 26.877187 
z
" style="fill: #ffffff"/>
   </g>
   <g id="PolyCollection_1">
    <path d="M 80.478977 280.893187 
L 80.478977 280.893187 
L 88.208847 245.396463 
L 95.938718 276.681991 
L 103.668588 177.099006 
L 111.398458 124.421203 
L 119.128328 157.79426 
L 126.858198 112.439548 
L 134.588068 125.012683 
L 142.317938 119.536826 
L 150.047808 132.397017 
L 157.777679 111.351013 
L 165.507549 103.606156 
L 173.237419 121.13098 
L 180.967289 129.911561 
L 188.697159 116.600618 
L 196.427029 123.066588 
L 204.156899 101.87316 
L 211.886769 89.646553 
L 219.61664 103.764758 
L 227.34651 120.204539 
L 235.07638 102.409267 
L 242.80625 120.449441 
L 250.53612 105.257624 
L 258.26599 105.410291 
L 265.99586 84.791735 
L 273.725731 82.485201 
L 281.455601 120.107836 
L 289.185471 66.41048 
L 296.915341 98.327397 
L 304.645211 87.668522 
L 312.375081 98.927612 
L 320.104951 116.024819 
L 327.834821 110.489035 
L 335.564692 110.106979 
L 343.294562 86.3968 
L 351.024432 90.653173 
L 358.754302 106.6204 
L 366.484172 82.754013 
L 374.214042 118.555802 
L 381.943912 82.266806 
L 389.673782 101.850818 
L 389.673782 67.025601 
L 389.673782 67.025601 
L 381.943912 48.890258 
L 374.214042 69.180277 
L 366.484172 38.973187 
L 358.754302 68.542562 
L 351.024432 56.220264 
L 343.294562 60.476637 
L 335.564692 58.769407 
L 327.834821 58.387351 
L 320.104951 71.71126 
L 312.375081 57.375655 
L 304.645211 59.204915 
L 296.915341 76.835531 
L 289.185471 39.600314 
L 281.455601 67.628244 
L 273.725731 42.385287 
L 265.99586 65.224989 
L 258.26599 72.895958 
L 250.53612 73.048592 
L 242.80625 79.859724 
L 235.07638 66.467119 
L 227.34651 80.104625 
L 219.61664 55.68183 
L 211.886769 60.370138 
L 204.156899 51.286852 
L 196.427029 67.81278 
L 188.697159 61.705597 
L 180.967289 76.684213 
L 173.237419 85.464794 
L 165.507549 87.273212 
L 157.777679 85.814897 
L 150.047808 80.485299 
L 142.317938 68.199254 
L 134.588068 91.012921 
L 126.858198 78.439786 
L 119.128328 99.093988 
L 111.398458 91.604402 
L 103.668588 167.801053 
L 95.938718 222.238788 
L 88.208847 240.951194 
L 80.478977 280.893187 
z
" clip-path="url(#p43636f95fd)" style="fill: #1f77b4; fill-opacity: 0.3"/>
   </g>
   <g id="PolyCollection_2">
    <path d="M 80.478977 193.481464 
L 80.478977 221.199418 
L 95.938718 214.486149 
L 111.398458 221.253305 
L 127.631185 192.75434 
L 143.090925 193.948144 
L 159.323653 196.931295 
L 174.783393 190.523487 
L 191.01612 222.005126 
L 206.47586 216.532663 
L 222.708588 197.423376 
L 238.168328 209.036859 
L 254.401055 207.987579 
L 269.860795 210.007602 
L 286.093523 209.01488 
L 301.553263 233.930739 
L 317.78599 186.673173 
L 333.245731 210.40769 
L 349.478458 203.505429 
L 364.938198 218.310167 
L 381.170925 209.400146 
L 396.630666 227.189262 
L 396.630666 195.035492 
L 396.630666 195.035492 
L 381.170925 175.10525 
L 364.938198 215.230394 
L 349.478458 184.771903 
L 333.245731 174.097706 
L 317.78599 156.34093 
L 301.553263 214.697565 
L 286.093523 186.806324 
L 269.860795 204.67328 
L 254.401055 165.20201 
L 238.168328 171.696601 
L 222.708588 183.310085 
L 206.47586 186.832412 
L 191.01612 177.588013 
L 174.783393 129.859002 
L 159.323653 172.486358 
L 143.090925 175.469509 
L 127.631185 180.435249 
L 111.398458 197.199512 
L 95.938718 185.10699 
L 80.478977 193.481464 
z
" clip-path="url(#p43636f95fd)" style="fill: #ff7f0e; fill-opacity: 0.3"/>
   </g>
   <g id="PolyCollection_3">
    <path d="M 80.478977 90.347672 
L 80.478977 128.192552 
L 95.938718 139.122017 
L 111.398458 129.159643 
L 126.858198 118.594187 
L 142.317938 127.783709 
L 157.777679 139.747818 
L 173.237419 147.529866 
L 188.697159 143.821975 
L 204.156899 150.363241 
L 219.61664 126.208862 
L 235.07638 152.949593 
L 250.53612 162.387292 
L 265.99586 149.09808 
L 281.455601 158.439308 
L 296.915341 152.584296 
L 312.375081 174.299681 
L 327.834821 159.216793 
L 343.294562 168.251152 
L 358.754302 176.848586 
L 374.214042 158.199512 
L 389.673782 169.084481 
L 405.133523 177.059191 
L 405.133523 165.954913 
L 405.133523 165.954913 
L 389.673782 147.526072 
L 374.214042 147.095234 
L 358.754302 128.44616 
L 343.294562 133.271659 
L 327.834821 130.99021 
L 312.375081 149.854744 
L 296.915341 133.850771 
L 281.455601 131.767695 
L 265.99586 122.249245 
L 250.53612 139.135518 
L 235.07638 144.801281 
L 219.61664 92.331363 
L 204.156899 120.984083 
L 188.697159 127.52535 
L 173.237419 116.273587 
L 157.777679 131.599506 
L 142.317938 124.703937 
L 126.858198 107.489909 
L 111.398458 112.012195 
L 95.938718 128.453372 
L 80.478977 90.347672 
z
" clip-path="url(#p43636f95fd)" style="fill: #2ca02c; fill-opacity: 0.3"/>
   </g>
   <g id="PolyCollection_4">
    <path d="M 80.478977 127.910399 
L 80.478977 203.787897 
L 95.938718 192.482274 
L 111.398458 172.688333 
L 126.858198 190.125454 
L 142.317938 221.399772 
L 157.777679 203.49586 
L 173.237419 185.331067 
L 188.697159 176.204503 
L 204.156899 199.661512 
L 219.61664 207.326772 
L 235.07638 256.714856 
L 250.53612 255.359721 
L 265.99586 246.810824 
L 281.455601 261.65441 
L 296.915341 252.115012 
L 312.375081 258.728253 
L 327.834821 258.171612 
L 343.294562 235.31359 
L 358.754302 268.077377 
L 374.214042 267.62149 
L 389.673782 265.891082 
L 405.133523 270.303056 
L 405.133523 200.956862 
L 405.133523 200.956862 
L 389.673782 182.737221 
L 374.214042 199.866492 
L 358.754302 203.182541 
L 343.294562 186.911164 
L 327.834821 205.544434 
L 312.375081 212.531664 
L 296.915341 170.109741 
L 281.455601 186.973893 
L 265.99586 167.870058 
L 250.53612 178.18084 
L 235.07638 165.509897 
L 219.61664 120.599588 
L 204.156899 147.124527 
L 188.697159 125.318308 
L 173.237419 123.735615 
L 157.777679 154.605986 
L 142.317938 155.561753 
L 126.858198 126.485099 
L 111.398458 136.378349 
L 95.938718 135.444087 
L 80.478977 127.910399 
z
" clip-path="url(#p43636f95fd)" style="fill: #d62728; fill-opacity: 0.3"/>
   </g>
   <g id="matplotlib.axis_1">
    <g id="xtick_1">
     <g id="line2d_1">
      <defs>
       <path id="m4e3ae7e18c" d="M 0 0 
L 0 3.5 
" style="stroke: #000000; stroke-width: 0.8"/>
      </defs>
      <g>
       <use xlink:href="#m4e3ae7e18c" x="80.478977" y="292.989187" style="stroke: #000000; stroke-width: 0.8"/>
      </g>
     </g>
     <g id="text_1">
      <!-- 0 -->
      <g transform="translate(74.752727 313.666375) scale(0.18 -0.18)">
       <defs>
        <path id="DejaVuSans-30" d="M 2034 4250 
Q 1547 4250 1301 3770 
Q 1056 3291 1056 2328 
Q 1056 1369 1301 889 
Q 1547 409 2034 409 
Q 2525 409 2770 889 
Q 3016 1369 3016 2328 
Q 3016 3291 2770 3770 
Q 2525 4250 2034 4250 
z
M 2034 4750 
Q 2819 4750 3233 4129 
Q 3647 3509 3647 2328 
Q 3647 1150 3233 529 
Q 2819 -91 2034 -91 
Q 1250 -91 836 529 
Q 422 1150 422 2328 
Q 422 3509 836 4129 
Q 1250 4750 2034 4750 
z
" transform="scale(0.015625)"/>
       </defs>
       <use xlink:href="#DejaVuSans-30"/>
      </g>
     </g>
    </g>
    <g id="xtick_2">
     <g id="line2d_2">
      <g>
       <use xlink:href="#m4e3ae7e18c" x="157.777679" y="292.989187" style="stroke: #000000; stroke-width: 0.8"/>
      </g>
     </g>
     <g id="text_2">
      <!-- 100 -->
      <g transform="translate(140.598929 313.666375) scale(0.18 -0.18)">
       <defs>
        <path id="DejaVuSans-31" d="M 794 531 
L 1825 531 
L 1825 4091 
L 703 3866 
L 703 4441 
L 1819 4666 
L 2450 4666 
L 2450 531 
L 3481 531 
L 3481 0 
L 794 0 
L 794 531 
z
" transform="scale(0.015625)"/>
       </defs>
       <use xlink:href="#DejaVuSans-31"/>
       <use xlink:href="#DejaVuSans-30" x="63.623047"/>
       <use xlink:href="#DejaVuSans-30" x="127.246094"/>
      </g>
     </g>
    </g>
    <g id="xtick_3">
     <g id="line2d_3">
      <g>
       <use xlink:href="#m4e3ae7e18c" x="235.07638" y="292.989187" style="stroke: #000000; stroke-width: 0.8"/>
      </g>
     </g>
     <g id="text_3">
      <!-- 200 -->
      <g transform="translate(217.89763 313.666375) scale(0.18 -0.18)">
       <defs>
        <path id="DejaVuSans-32" d="M 1228 531 
L 3431 531 
L 3431 0 
L 469 0 
L 469 531 
Q 828 903 1448 1529 
Q 2069 2156 2228 2338 
Q 2531 2678 2651 2914 
Q 2772 3150 2772 3378 
Q 2772 3750 2511 3984 
Q 2250 4219 1831 4219 
Q 1534 4219 1204 4116 
Q 875 4013 500 3803 
L 500 4441 
Q 881 4594 1212 4672 
Q 1544 4750 1819 4750 
Q 2544 4750 2975 4387 
Q 3406 4025 3406 3419 
Q 3406 3131 3298 2873 
Q 3191 2616 2906 2266 
Q 2828 2175 2409 1742 
Q 1991 1309 1228 531 
z
" transform="scale(0.015625)"/>
       </defs>
       <use xlink:href="#DejaVuSans-32"/>
       <use xlink:href="#DejaVuSans-30" x="63.623047"/>
       <use xlink:href="#DejaVuSans-30" x="127.246094"/>
      </g>
     </g>
    </g>
    <g id="xtick_4">
     <g id="line2d_4">
      <g>
       <use xlink:href="#m4e3ae7e18c" x="312.375081" y="292.989187" style="stroke: #000000; stroke-width: 0.8"/>
      </g>
     </g>
     <g id="text_4">
      <!-- 300 -->
      <g transform="translate(295.196331 313.666375) scale(0.18 -0.18)">
       <defs>
        <path id="DejaVuSans-33" d="M 2597 2516 
Q 3050 2419 3304 2112 
Q 3559 1806 3559 1356 
Q 3559 666 3084 287 
Q 2609 -91 1734 -91 
Q 1441 -91 1130 -33 
Q 819 25 488 141 
L 488 750 
Q 750 597 1062 519 
Q 1375 441 1716 441 
Q 2309 441 2620 675 
Q 2931 909 2931 1356 
Q 2931 1769 2642 2001 
Q 2353 2234 1838 2234 
L 1294 2234 
L 1294 2753 
L 1863 2753 
Q 2328 2753 2575 2939 
Q 2822 3125 2822 3475 
Q 2822 3834 2567 4026 
Q 2313 4219 1838 4219 
Q 1578 4219 1281 4162 
Q 984 4106 628 3988 
L 628 4550 
Q 988 4650 1302 4700 
Q 1616 4750 1894 4750 
Q 2613 4750 3031 4423 
Q 3450 4097 3450 3541 
Q 3450 3153 3228 2886 
Q 3006 2619 2597 2516 
z
" transform="scale(0.015625)"/>
       </defs>
       <use xlink:href="#DejaVuSans-33"/>
       <use xlink:href="#DejaVuSans-30" x="63.623047"/>
       <use xlink:href="#DejaVuSans-30" x="127.246094"/>
      </g>
     </g>
    </g>
    <g id="xtick_5">
     <g id="line2d_5">
      <g>
       <use xlink:href="#m4e3ae7e18c" x="389.673782" y="292.989187" style="stroke: #000000; stroke-width: 0.8"/>
      </g>
     </g>
     <g id="text_5">
      <!-- 400 -->
      <g transform="translate(372.495032 313.666375) scale(0.18 -0.18)">
       <defs>
        <path id="DejaVuSans-34" d="M 2419 4116 
L 825 1625 
L 2419 1625 
L 2419 4116 
z
M 2253 4666 
L 3047 4666 
L 3047 1625 
L 3713 1625 
L 3713 1100 
L 3047 1100 
L 3047 0 
L 2419 0 
L 2419 1100 
L 313 1100 
L 313 1709 
L 2253 4666 
z
" transform="scale(0.015625)"/>
       </defs>
       <use xlink:href="#DejaVuSans-34"/>
       <use xlink:href="#DejaVuSans-30" x="63.623047"/>
       <use xlink:href="#DejaVuSans-30" x="127.246094"/>
      </g>
     </g>
    </g>
    <g id="text_6">
     <!-- Sampled Trajectories -->
     <g transform="translate(148.652188 335.087) scale(0.18 -0.18)">
      <defs>
       <path id="DejaVuSans-53" d="M 3425 4513 
L 3425 3897 
Q 3066 4069 2747 4153 
Q 2428 4238 2131 4238 
Q 1616 4238 1336 4038 
Q 1056 3838 1056 3469 
Q 1056 3159 1242 3001 
Q 1428 2844 1947 2747 
L 2328 2669 
Q 3034 2534 3370 2195 
Q 3706 1856 3706 1288 
Q 3706 609 3251 259 
Q 2797 -91 1919 -91 
Q 1588 -91 1214 -16 
Q 841 59 441 206 
L 441 856 
Q 825 641 1194 531 
Q 1563 422 1919 422 
Q 2459 422 2753 634 
Q 3047 847 3047 1241 
Q 3047 1584 2836 1778 
Q 2625 1972 2144 2069 
L 1759 2144 
Q 1053 2284 737 2584 
Q 422 2884 422 3419 
Q 422 4038 858 4394 
Q 1294 4750 2059 4750 
Q 2388 4750 2728 4690 
Q 3069 4631 3425 4513 
z
" transform="scale(0.015625)"/>
       <path id="DejaVuSans-61" d="M 2194 1759 
Q 1497 1759 1228 1600 
Q 959 1441 959 1056 
Q 959 750 1161 570 
Q 1363 391 1709 391 
Q 2188 391 2477 730 
Q 2766 1069 2766 1631 
L 2766 1759 
L 2194 1759 
z
M 3341 1997 
L 3341 0 
L 2766 0 
L 2766 531 
Q 2569 213 2275 61 
Q 1981 -91 1556 -91 
Q 1019 -91 701 211 
Q 384 513 384 1019 
Q 384 1609 779 1909 
Q 1175 2209 1959 2209 
L 2766 2209 
L 2766 2266 
Q 2766 2663 2505 2880 
Q 2244 3097 1772 3097 
Q 1472 3097 1187 3025 
Q 903 2953 641 2809 
L 641 3341 
Q 956 3463 1253 3523 
Q 1550 3584 1831 3584 
Q 2591 3584 2966 3190 
Q 3341 2797 3341 1997 
z
" transform="scale(0.015625)"/>
       <path id="DejaVuSans-6d" d="M 3328 2828 
Q 3544 3216 3844 3400 
Q 4144 3584 4550 3584 
Q 5097 3584 5394 3201 
Q 5691 2819 5691 2113 
L 5691 0 
L 5113 0 
L 5113 2094 
Q 5113 2597 4934 2840 
Q 4756 3084 4391 3084 
Q 3944 3084 3684 2787 
Q 3425 2491 3425 1978 
L 3425 0 
L 2847 0 
L 2847 2094 
Q 2847 2600 2669 2842 
Q 2491 3084 2119 3084 
Q 1678 3084 1418 2786 
Q 1159 2488 1159 1978 
L 1159 0 
L 581 0 
L 581 3500 
L 1159 3500 
L 1159 2956 
Q 1356 3278 1631 3431 
Q 1906 3584 2284 3584 
Q 2666 3584 2933 3390 
Q 3200 3197 3328 2828 
z
" transform="scale(0.015625)"/>
       <path id="DejaVuSans-70" d="M 1159 525 
L 1159 -1331 
L 581 -1331 
L 581 3500 
L 1159 3500 
L 1159 2969 
Q 1341 3281 1617 3432 
Q 1894 3584 2278 3584 
Q 2916 3584 3314 3078 
Q 3713 2572 3713 1747 
Q 3713 922 3314 415 
Q 2916 -91 2278 -91 
Q 1894 -91 1617 61 
Q 1341 213 1159 525 
z
M 3116 1747 
Q 3116 2381 2855 2742 
Q 2594 3103 2138 3103 
Q 1681 3103 1420 2742 
Q 1159 2381 1159 1747 
Q 1159 1113 1420 752 
Q 1681 391 2138 391 
Q 2594 391 2855 752 
Q 3116 1113 3116 1747 
z
" transform="scale(0.015625)"/>
       <path id="DejaVuSans-6c" d="M 603 4863 
L 1178 4863 
L 1178 0 
L 603 0 
L 603 4863 
z
" transform="scale(0.015625)"/>
       <path id="DejaVuSans-65" d="M 3597 1894 
L 3597 1613 
L 953 1613 
Q 991 1019 1311 708 
Q 1631 397 2203 397 
Q 2534 397 2845 478 
Q 3156 559 3463 722 
L 3463 178 
Q 3153 47 2828 -22 
Q 2503 -91 2169 -91 
Q 1331 -91 842 396 
Q 353 884 353 1716 
Q 353 2575 817 3079 
Q 1281 3584 2069 3584 
Q 2775 3584 3186 3129 
Q 3597 2675 3597 1894 
z
M 3022 2063 
Q 3016 2534 2758 2815 
Q 2500 3097 2075 3097 
Q 1594 3097 1305 2825 
Q 1016 2553 972 2059 
L 3022 2063 
z
" transform="scale(0.015625)"/>
       <path id="DejaVuSans-64" d="M 2906 2969 
L 2906 4863 
L 3481 4863 
L 3481 0 
L 2906 0 
L 2906 525 
Q 2725 213 2448 61 
Q 2172 -91 1784 -91 
Q 1150 -91 751 415 
Q 353 922 353 1747 
Q 353 2572 751 3078 
Q 1150 3584 1784 3584 
Q 2172 3584 2448 3432 
Q 2725 3281 2906 2969 
z
M 947 1747 
Q 947 1113 1208 752 
Q 1469 391 1925 391 
Q 2381 391 2643 752 
Q 2906 1113 2906 1747 
Q 2906 2381 2643 2742 
Q 2381 3103 1925 3103 
Q 1469 3103 1208 2742 
Q 947 2381 947 1747 
z
" transform="scale(0.015625)"/>
       <path id="DejaVuSans-20" transform="scale(0.015625)"/>
       <path id="DejaVuSans-54" d="M -19 4666 
L 3928 4666 
L 3928 4134 
L 2272 4134 
L 2272 0 
L 1638 0 
L 1638 4134 
L -19 4134 
L -19 4666 
z
" transform="scale(0.015625)"/>
       <path id="DejaVuSans-72" d="M 2631 2963 
Q 2534 3019 2420 3045 
Q 2306 3072 2169 3072 
Q 1681 3072 1420 2755 
Q 1159 2438 1159 1844 
L 1159 0 
L 581 0 
L 581 3500 
L 1159 3500 
L 1159 2956 
Q 1341 3275 1631 3429 
Q 1922 3584 2338 3584 
Q 2397 3584 2469 3576 
Q 2541 3569 2628 3553 
L 2631 2963 
z
" transform="scale(0.015625)"/>
       <path id="DejaVuSans-6a" d="M 603 3500 
L 1178 3500 
L 1178 -63 
Q 1178 -731 923 -1031 
Q 669 -1331 103 -1331 
L -116 -1331 
L -116 -844 
L 38 -844 
Q 366 -844 484 -692 
Q 603 -541 603 -63 
L 603 3500 
z
M 603 4863 
L 1178 4863 
L 1178 4134 
L 603 4134 
L 603 4863 
z
" transform="scale(0.015625)"/>
       <path id="DejaVuSans-63" d="M 3122 3366 
L 3122 2828 
Q 2878 2963 2633 3030 
Q 2388 3097 2138 3097 
Q 1578 3097 1268 2742 
Q 959 2388 959 1747 
Q 959 1106 1268 751 
Q 1578 397 2138 397 
Q 2388 397 2633 464 
Q 2878 531 3122 666 
L 3122 134 
Q 2881 22 2623 -34 
Q 2366 -91 2075 -91 
Q 1284 -91 818 406 
Q 353 903 353 1747 
Q 353 2603 823 3093 
Q 1294 3584 2113 3584 
Q 2378 3584 2631 3529 
Q 2884 3475 3122 3366 
z
" transform="scale(0.015625)"/>
       <path id="DejaVuSans-74" d="M 1172 4494 
L 1172 3500 
L 2356 3500 
L 2356 3053 
L 1172 3053 
L 1172 1153 
Q 1172 725 1289 603 
Q 1406 481 1766 481 
L 2356 481 
L 2356 0 
L 1766 0 
Q 1100 0 847 248 
Q 594 497 594 1153 
L 594 3053 
L 172 3053 
L 172 3500 
L 594 3500 
L 594 4494 
L 1172 4494 
z
" transform="scale(0.015625)"/>
       <path id="DejaVuSans-6f" d="M 1959 3097 
Q 1497 3097 1228 2736 
Q 959 2375 959 1747 
Q 959 1119 1226 758 
Q 1494 397 1959 397 
Q 2419 397 2687 759 
Q 2956 1122 2956 1747 
Q 2956 2369 2687 2733 
Q 2419 3097 1959 3097 
z
M 1959 3584 
Q 2709 3584 3137 3096 
Q 3566 2609 3566 1747 
Q 3566 888 3137 398 
Q 2709 -91 1959 -91 
Q 1206 -91 779 398 
Q 353 888 353 1747 
Q 353 2609 779 3096 
Q 1206 3584 1959 3584 
z
" transform="scale(0.015625)"/>
       <path id="DejaVuSans-69" d="M 603 3500 
L 1178 3500 
L 1178 0 
L 603 0 
L 603 3500 
z
M 603 4863 
L 1178 4863 
L 1178 4134 
L 603 4134 
L 603 4863 
z
" transform="scale(0.015625)"/>
       <path id="DejaVuSans-73" d="M 2834 3397 
L 2834 2853 
Q 2591 2978 2328 3040 
Q 2066 3103 1784 3103 
Q 1356 3103 1142 2972 
Q 928 2841 928 2578 
Q 928 2378 1081 2264 
Q 1234 2150 1697 2047 
L 1894 2003 
Q 2506 1872 2764 1633 
Q 3022 1394 3022 966 
Q 3022 478 2636 193 
Q 2250 -91 1575 -91 
Q 1294 -91 989 -36 
Q 684 19 347 128 
L 347 722 
Q 666 556 975 473 
Q 1284 391 1588 391 
Q 1994 391 2212 530 
Q 2431 669 2431 922 
Q 2431 1156 2273 1281 
Q 2116 1406 1581 1522 
L 1381 1569 
Q 847 1681 609 1914 
Q 372 2147 372 2553 
Q 372 3047 722 3315 
Q 1072 3584 1716 3584 
Q 2034 3584 2315 3537 
Q 2597 3491 2834 3397 
z
" transform="scale(0.015625)"/>
      </defs>
      <use xlink:href="#DejaVuSans-53"/>
      <use xlink:href="#DejaVuSans-61" x="63.476562"/>
      <use xlink:href="#DejaVuSans-6d" x="124.755859"/>
      <use xlink:href="#DejaVuSans-70" x="222.167969"/>
      <use xlink:href="#DejaVuSans-6c" x="285.644531"/>
      <use xlink:href="#DejaVuSans-65" x="313.427734"/>
      <use xlink:href="#DejaVuSans-64" x="374.951172"/>
      <use xlink:href="#DejaVuSans-20" x="438.427734"/>
      <use xlink:href="#DejaVuSans-54" x="470.214844"/>
      <use xlink:href="#DejaVuSans-72" x="516.548828"/>
      <use xlink:href="#DejaVuSans-61" x="557.662109"/>
      <use xlink:href="#DejaVuSans-6a" x="618.941406"/>
      <use xlink:href="#DejaVuSans-65" x="646.724609"/>
      <use xlink:href="#DejaVuSans-63" x="708.248047"/>
      <use xlink:href="#DejaVuSans-74" x="763.228516"/>
      <use xlink:href="#DejaVuSans-6f" x="802.4375"/>
      <use xlink:href="#DejaVuSans-72" x="863.619141"/>
      <use xlink:href="#DejaVuSans-69" x="904.732422"/>
      <use xlink:href="#DejaVuSans-65" x="932.515625"/>
      <use xlink:href="#DejaVuSans-73" x="994.039062"/>
     </g>
    </g>
   </g>
   <g id="matplotlib.axis_2">
    <g id="ytick_1">
     <g id="line2d_6">
      <defs>
       <path id="m14af4f2545" d="M 0 0 
L -3.5 0 
" style="stroke: #000000; stroke-width: 0.8"/>
      </defs>
      <g>
       <use xlink:href="#m14af4f2545" x="64.24625" y="280.893187" style="stroke: #000000; stroke-width: 0.8"/>
      </g>
     </g>
     <g id="text_7">
      <!-- 0.0 -->
      <g transform="translate(28.620625 287.731781) scale(0.18 -0.18)">
       <defs>
        <path id="DejaVuSans-2e" d="M 684 794 
L 1344 794 
L 1344 0 
L 684 0 
L 684 794 
z
" transform="scale(0.015625)"/>
       </defs>
       <use xlink:href="#DejaVuSans-30"/>
       <use xlink:href="#DejaVuSans-2e" x="63.623047"/>
       <use xlink:href="#DejaVuSans-30" x="95.410156"/>
      </g>
     </g>
    </g>
    <g id="ytick_2">
     <g id="line2d_7">
      <g>
       <use xlink:href="#m14af4f2545" x="64.24625" y="224.314152" style="stroke: #000000; stroke-width: 0.8"/>
      </g>
     </g>
     <g id="text_8">
      <!-- 0.2 -->
      <g transform="translate(28.620625 231.152745) scale(0.18 -0.18)">
       <use xlink:href="#DejaVuSans-30"/>
       <use xlink:href="#DejaVuSans-2e" x="63.623047"/>
       <use xlink:href="#DejaVuSans-32" x="95.410156"/>
      </g>
     </g>
    </g>
    <g id="ytick_3">
     <g id="line2d_8">
      <g>
       <use xlink:href="#m14af4f2545" x="64.24625" y="167.735116" style="stroke: #000000; stroke-width: 0.8"/>
      </g>
     </g>
     <g id="text_9">
      <!-- 0.4 -->
      <g transform="translate(28.620625 174.57371) scale(0.18 -0.18)">
       <use xlink:href="#DejaVuSans-30"/>
       <use xlink:href="#DejaVuSans-2e" x="63.623047"/>
       <use xlink:href="#DejaVuSans-34" x="95.410156"/>
      </g>
     </g>
    </g>
    <g id="ytick_4">
     <g id="line2d_9">
      <g>
       <use xlink:href="#m14af4f2545" x="64.24625" y="111.15608" style="stroke: #000000; stroke-width: 0.8"/>
      </g>
     </g>
     <g id="text_10">
      <!-- 0.6 -->
      <g transform="translate(28.620625 117.994674) scale(0.18 -0.18)">
       <defs>
        <path id="DejaVuSans-36" d="M 2113 2584 
Q 1688 2584 1439 2293 
Q 1191 2003 1191 1497 
Q 1191 994 1439 701 
Q 1688 409 2113 409 
Q 2538 409 2786 701 
Q 3034 994 3034 1497 
Q 3034 2003 2786 2293 
Q 2538 2584 2113 2584 
z
M 3366 4563 
L 3366 3988 
Q 3128 4100 2886 4159 
Q 2644 4219 2406 4219 
Q 1781 4219 1451 3797 
Q 1122 3375 1075 2522 
Q 1259 2794 1537 2939 
Q 1816 3084 2150 3084 
Q 2853 3084 3261 2657 
Q 3669 2231 3669 1497 
Q 3669 778 3244 343 
Q 2819 -91 2113 -91 
Q 1303 -91 875 529 
Q 447 1150 447 2328 
Q 447 3434 972 4092 
Q 1497 4750 2381 4750 
Q 2619 4750 2861 4703 
Q 3103 4656 3366 4563 
z
" transform="scale(0.015625)"/>
       </defs>
       <use xlink:href="#DejaVuSans-30"/>
       <use xlink:href="#DejaVuSans-2e" x="63.623047"/>
       <use xlink:href="#DejaVuSans-36" x="95.410156"/>
      </g>
     </g>
    </g>
    <g id="ytick_5">
     <g id="line2d_10">
      <g>
       <use xlink:href="#m14af4f2545" x="64.24625" y="54.577044" style="stroke: #000000; stroke-width: 0.8"/>
      </g>
     </g>
     <g id="text_11">
      <!-- 0.8 -->
      <g transform="translate(28.620625 61.415638) scale(0.18 -0.18)">
       <defs>
        <path id="DejaVuSans-38" d="M 2034 2216 
Q 1584 2216 1326 1975 
Q 1069 1734 1069 1313 
Q 1069 891 1326 650 
Q 1584 409 2034 409 
Q 2484 409 2743 651 
Q 3003 894 3003 1313 
Q 3003 1734 2745 1975 
Q 2488 2216 2034 2216 
z
M 1403 2484 
Q 997 2584 770 2862 
Q 544 3141 544 3541 
Q 544 4100 942 4425 
Q 1341 4750 2034 4750 
Q 2731 4750 3128 4425 
Q 3525 4100 3525 3541 
Q 3525 3141 3298 2862 
Q 3072 2584 2669 2484 
Q 3125 2378 3379 2068 
Q 3634 1759 3634 1313 
Q 3634 634 3220 271 
Q 2806 -91 2034 -91 
Q 1263 -91 848 271 
Q 434 634 434 1313 
Q 434 1759 690 2068 
Q 947 2378 1403 2484 
z
M 1172 3481 
Q 1172 3119 1398 2916 
Q 1625 2713 2034 2713 
Q 2441 2713 2670 2916 
Q 2900 3119 2900 3481 
Q 2900 3844 2670 4047 
Q 2441 4250 2034 4250 
Q 1625 4250 1398 4047 
Q 1172 3844 1172 3481 
z
" transform="scale(0.015625)"/>
       </defs>
       <use xlink:href="#DejaVuSans-30"/>
       <use xlink:href="#DejaVuSans-2e" x="63.623047"/>
       <use xlink:href="#DejaVuSans-38" x="95.410156"/>
      </g>
     </g>
    </g>
    <g id="text_12">
     <!-- Success Rate -->
     <g transform="translate(20.877188 219.655219) rotate(-90) scale(0.18 -0.18)">
      <defs>
       <path id="DejaVuSans-75" d="M 544 1381 
L 544 3500 
L 1119 3500 
L 1119 1403 
Q 1119 906 1312 657 
Q 1506 409 1894 409 
Q 2359 409 2629 706 
Q 2900 1003 2900 1516 
L 2900 3500 
L 3475 3500 
L 3475 0 
L 2900 0 
L 2900 538 
Q 2691 219 2414 64 
Q 2138 -91 1772 -91 
Q 1169 -91 856 284 
Q 544 659 544 1381 
z
M 1991 3584 
L 1991 3584 
z
" transform="scale(0.015625)"/>
       <path id="DejaVuSans-52" d="M 2841 2188 
Q 3044 2119 3236 1894 
Q 3428 1669 3622 1275 
L 4263 0 
L 3584 0 
L 2988 1197 
Q 2756 1666 2539 1819 
Q 2322 1972 1947 1972 
L 1259 1972 
L 1259 0 
L 628 0 
L 628 4666 
L 2053 4666 
Q 2853 4666 3247 4331 
Q 3641 3997 3641 3322 
Q 3641 2881 3436 2590 
Q 3231 2300 2841 2188 
z
M 1259 4147 
L 1259 2491 
L 2053 2491 
Q 2509 2491 2742 2702 
Q 2975 2913 2975 3322 
Q 2975 3731 2742 3939 
Q 2509 4147 2053 4147 
L 1259 4147 
z
" transform="scale(0.015625)"/>
      </defs>
      <use xlink:href="#DejaVuSans-53"/>
      <use xlink:href="#DejaVuSans-75" x="63.476562"/>
      <use xlink:href="#DejaVuSans-63" x="126.855469"/>
      <use xlink:href="#DejaVuSans-63" x="181.835938"/>
      <use xlink:href="#DejaVuSans-65" x="236.816406"/>
      <use xlink:href="#DejaVuSans-73" x="298.339844"/>
      <use xlink:href="#DejaVuSans-73" x="350.439453"/>
      <use xlink:href="#DejaVuSans-20" x="402.539062"/>
      <use xlink:href="#DejaVuSans-52" x="434.326172"/>
      <use xlink:href="#DejaVuSans-61" x="501.558594"/>
      <use xlink:href="#DejaVuSans-74" x="562.837891"/>
      <use xlink:href="#DejaVuSans-65" x="602.046875"/>
     </g>
    </g>
   </g>
   <g id="line2d_11">
    <path d="M 80.478977 280.893187 
L 88.208847 243.173828 
L 95.938718 249.46039 
L 103.668588 172.450029 
L 111.398458 108.012802 
L 119.128328 128.444124 
L 126.858198 95.439667 
L 134.588068 108.012802 
L 142.317938 93.86804 
L 150.047808 106.441158 
L 157.777679 98.582955 
L 165.507549 95.439684 
L 173.237419 103.297887 
L 180.967289 103.297887 
L 188.697159 89.153108 
L 196.427029 95.439684 
L 204.156899 76.580006 
L 211.886769 75.008345 
L 219.61664 79.723294 
L 227.34651 100.154582 
L 235.07638 84.438193 
L 242.80625 100.154582 
L 250.53612 89.153108 
L 258.26599 89.153125 
L 265.99586 75.008362 
L 273.725731 62.435244 
L 281.455601 93.86804 
L 289.185471 53.005397 
L 296.915341 87.581464 
L 304.645211 73.436718 
L 312.375081 78.151634 
L 320.104951 93.86804 
L 327.834821 84.438193 
L 335.564692 84.438193 
L 343.294562 73.436718 
L 351.024432 73.436718 
L 358.754302 87.581481 
L 366.484172 60.8636 
L 374.214042 93.86804 
L 381.943912 65.578532 
L 389.673782 84.43821 
" clip-path="url(#p43636f95fd)" style="fill: none; stroke: #1f77b4; stroke-width: 1.5; stroke-linecap: square"/>
   </g>
   <g id="line2d_12">
    <path d="M 80.478977 207.340441 
L 95.938718 199.796569 
L 111.398458 209.226409 
L 127.631185 186.594794 
L 143.090925 184.708827 
L 159.323653 184.708827 
L 174.783393 160.191244 
L 191.01612 199.796569 
L 206.47586 201.682537 
L 222.708588 190.36673 
L 238.168328 190.36673 
L 254.401055 186.594794 
L 269.860795 207.340441 
L 286.093523 197.910602 
L 301.553263 224.314152 
L 317.78599 171.507052 
L 333.245731 192.252698 
L 349.478458 194.138666 
L 364.938198 216.77028 
L 381.170925 192.252698 
L 396.630666 211.112377 
" clip-path="url(#p43636f95fd)" style="fill: none; stroke: #ff7f0e; stroke-width: 1.5; stroke-linecap: square"/>
   </g>
   <g id="line2d_13">
    <path d="M 80.478977 109.270112 
L 95.938718 133.787694 
L 111.398458 120.585919 
L 126.858198 113.042048 
L 142.317938 126.243823 
L 157.777679 135.673662 
L 173.237419 131.901727 
L 188.697159 135.673662 
L 204.156899 135.673662 
L 219.61664 109.270112 
L 235.07638 148.875437 
L 250.53612 150.761405 
L 265.99586 135.673662 
L 281.455601 145.103502 
L 296.915341 143.217534 
L 312.375081 162.077212 
L 327.834821 145.103502 
L 343.294562 150.761405 
L 358.754302 152.647373 
L 374.214042 152.647373 
L 389.673782 158.305277 
L 405.133523 171.507052 
" clip-path="url(#p43636f95fd)" style="fill: none; stroke: #2ca02c; stroke-width: 1.5; stroke-linecap: square"/>
   </g>
   <g id="line2d_14">
    <path d="M 80.478977 165.849148 
L 95.938718 163.96318 
L 111.398458 154.533341 
L 126.858198 158.305277 
L 142.317938 188.480762 
L 157.777679 179.050923 
L 173.237419 154.533341 
L 188.697159 150.761405 
L 204.156899 173.393019 
L 219.61664 163.96318 
L 235.07638 211.112377 
L 250.53612 216.77028 
L 265.99586 207.340441 
L 281.455601 224.314152 
L 296.915341 211.112377 
L 312.375081 235.629959 
L 327.834821 231.858023 
L 343.294562 211.112377 
L 358.754302 235.629959 
L 374.214042 233.743991 
L 389.673782 224.314152 
L 405.133523 235.629959 
" clip-path="url(#p43636f95fd)" style="fill: none; stroke: #d62728; stroke-width: 1.5; stroke-linecap: square"/>
   </g>
   <g id="patch_3">
    <path d="M 64.24625 292.989187 
L 64.24625 26.877187 
" style="fill: none; stroke: #000000; stroke-width: 0.8; stroke-linejoin: miter; stroke-linecap: square"/>
   </g>
   <g id="patch_4">
    <path d="M 421.36625 292.989187 
L 421.36625 26.877187 
" style="fill: none; stroke: #000000; stroke-width: 0.8; stroke-linejoin: miter; stroke-linecap: square"/>
   </g>
   <g id="patch_5">
    <path d="M 64.24625 292.989187 
L 421.36625 292.989187 
" style="fill: none; stroke: #000000; stroke-width: 0.8; stroke-linejoin: miter; stroke-linecap: square"/>
   </g>
   <g id="patch_6">
    <path d="M 64.24625 26.877187 
L 421.36625 26.877187 
" style="fill: none; stroke: #000000; stroke-width: 0.8; stroke-linejoin: miter; stroke-linecap: square"/>
   </g>
   <g id="text_13">
    <!-- Push -->
    <g transform="translate(221.441094 20.877187) scale(0.18 -0.18)">
     <defs>
      <path id="DejaVuSans-50" d="M 1259 4147 
L 1259 2394 
L 2053 2394 
Q 2494 2394 2734 2622 
Q 2975 2850 2975 3272 
Q 2975 3691 2734 3919 
Q 2494 4147 2053 4147 
L 1259 4147 
z
M 628 4666 
L 2053 4666 
Q 2838 4666 3239 4311 
Q 3641 3956 3641 3272 
Q 3641 2581 3239 2228 
Q 2838 1875 2053 1875 
L 1259 1875 
L 1259 0 
L 628 0 
L 628 4666 
z
" transform="scale(0.015625)"/>
      <path id="DejaVuSans-68" d="M 3513 2113 
L 3513 0 
L 2938 0 
L 2938 2094 
Q 2938 2591 2744 2837 
Q 2550 3084 2163 3084 
Q 1697 3084 1428 2787 
Q 1159 2491 1159 1978 
L 1159 0 
L 581 0 
L 581 4863 
L 1159 4863 
L 1159 2956 
Q 1366 3272 1645 3428 
Q 1925 3584 2291 3584 
Q 2894 3584 3203 3211 
Q 3513 2838 3513 2113 
z
" transform="scale(0.015625)"/>
     </defs>
     <use xlink:href="#DejaVuSans-50"/>
     <use xlink:href="#DejaVuSans-75" x="58.552734"/>
     <use xlink:href="#DejaVuSans-73" x="121.931641"/>
     <use xlink:href="#DejaVuSans-68" x="174.03125"/>
    </g>
   </g>
  </g>
 </g>
 <defs>
  <clipPath id="p43636f95fd">
   <rect x="64.24625" y="26.877187" width="357.12" height="266.112"/>
  </clipPath>
 </defs>
</svg>
