<?xml version="1.0" encoding="utf-8" standalone="no"?>
<!DOCTYPE svg PUBLIC "-//W3C//DTD SVG 1.1//EN"
  "http://www.w3.org/Graphics/SVG/1.1/DTD/svg11.dtd">
<svg xmlns:xlink="http://www.w3.org/1999/xlink" width="454.1475pt" height="372.985125pt" viewBox="0 0 454.1475 372.985125" xmlns="http://www.w3.org/2000/svg" version="1.1">
 <metadata>
  <rdf:RDF xmlns:dc="http://purl.org/dc/elements/1.1/" xmlns:cc="http://creativecommons.org/ns#" xmlns:rdf="http://www.w3.org/1999/02/22-rdf-syntax-ns#">
   <cc:Work>
    <dc:type rdf:resource="http://purl.org/dc/dcmitype/StillImage"/>
    <dc:date>2023-06-07T15:31:23.811498</dc:date>
    <dc:format>image/svg+xml</dc:format>
    <dc:creator>
     <cc:Agent>
      <dc:title>Matplotlib v3.6.1, https://matplotlib.org/</dc:title>
     </cc:Agent>
    </dc:creator>
   </cc:Work>
  </rdf:RDF>
 </metadata>
 <defs>
  <style type="text/css">*{stroke-linejoin: round; stroke-linecap: butt}</style>
 </defs>
 <g id="figure_1">
  <g id="patch_1">
   <path d="M 0 372.985125 
L 454.1475 372.985125 
L 454.1475 0 
L 0 0 
z
" style="fill: #ffffff"/>
  </g>
  <g id="axes_1">
   <g id="patch_2">
    <path d="M 89.8275 300.587625 
L 446.9475 300.587625 
L 446.9475 34.475625 
L 89.8275 34.475625 
z
" style="fill: #ffffff"/>
   </g>
   <g id="PolyCollection_1">
    <path d="M 106.060227 288.491625 
L 106.060227 288.491625 
L 106.70824 288.491625 
L 107.356253 275.990393 
L 108.004266 284.746171 
L 108.65228 286.271968 
L 109.300293 288.491625 
L 109.948306 274.175968 
L 110.596319 274.033734 
L 111.244332 287.449988 
L 111.892345 280.826871 
L 112.540358 284.052311 
L 113.188371 274.32028 
L 113.836384 256.634876 
L 114.484397 228.810126 
L 115.13241 283.417988 
L 115.780423 242.4294 
L 116.428436 227.333286 
L 117.076449 278.333971 
L 117.724462 222.937989 
L 118.372476 209.25665 
L 119.020489 180.026869 
L 119.668502 233.369463 
L 120.316515 204.002531 
L 120.964528 188.354538 
L 121.612541 146.679823 
L 122.260554 205.757968 
L 122.908567 190.681991 
L 123.55658 158.084047 
L 124.204593 194.940994 
L 124.852606 154.393968 
L 125.500619 142.297979 
L 126.148632 130.201976 
L 126.796645 120.81773 
L 127.444658 136.253936 
L 128.092671 154.393968 
L 128.740685 183.504311 
L 129.388698 194.658616 
L 130.036711 165.448345 
L 130.684724 114.074006 
L 131.332737 145.988059 
L 131.98075 137.924052 
L 132.628763 116.927968 
L 133.276776 114.708308 
L 133.924789 147.770864 
L 134.572802 142.831618 
L 135.220815 125.828078 
L 135.868828 84.529721 
L 136.516841 169.960188 
L 137.164854 154.757283 
L 137.812867 137.924052 
L 138.460881 121.796053 
L 139.108894 145.288336 
L 139.756907 143.738868 
L 140.40492 124.157962 
L 141.052933 149.800186 
L 141.700946 120.81773 
L 142.348959 129.023956 
L 142.996972 115.778542 
L 143.644985 98.295855 
L 144.292998 126.804311 
L 144.941011 137.924052 
L 145.589024 99.386853 
L 146.237037 133.181965 
L 146.88505 130.201976 
L 147.533063 99.386881 
L 148.181076 80.639959 
L 148.82909 99.650529 
L 149.477103 96.625738 
L 150.125116 68.543956 
L 150.773129 111.746546 
L 151.421142 121.085977 
L 152.069155 104.831965 
L 152.717168 108.989988 
L 153.365181 123.842534 
L 154.013194 80.639959 
L 154.661207 104.831965 
L 155.30922 84.52975 
L 155.957233 121.085977 
L 156.605246 80.497725 
L 157.253259 127.87453 
L 157.901272 130.838384 
L 158.549286 68.543956 
L 159.197299 90.231833 
L 159.845312 92.735948 
L 160.493325 87.869939 
L 161.141338 86.199823 
L 161.789351 66.039828 
L 162.437364 99.650529 
L 163.085377 72.433718 
L 163.73339 99.386881 
L 164.381403 72.433718 
L 165.029416 92.735977 
L 165.677429 68.543956 
L 166.325442 78.13583 
L 166.973455 115.778542 
L 167.621468 87.290864 
L 168.269481 84.52975 
L 168.917495 101.977989 
L 169.565508 99.650529 
L 170.213521 119.434173 
L 170.861534 72.433718 
L 170.861534 61.029522 
L 170.861534 61.029522 
L 170.213521 62.413079 
L 169.565508 49.940697 
L 168.917495 71.805271 
L 168.269481 73.125525 
L 167.621468 46.571625 
L 166.973455 66.06871 
L 166.325442 55.32741 
L 165.677429 48.79127 
L 165.029416 72.983291 
L 164.381403 61.029522 
L 163.73339 58.268394 
L 163.085377 61.029522 
L 162.437364 49.940697 
L 161.789351 46.571625 
L 161.141338 63.391402 
L 160.493325 53.657294 
L 159.845312 72.983262 
L 159.197299 67.423384 
L 158.549286 48.79127 
L 157.901272 51.008868 
L 157.253259 78.164698 
L 156.605246 69.0935 
L 155.957233 68.825268 
L 155.30922 73.125525 
L 154.661207 85.079279 
L 154.013194 60.887273 
L 153.365181 74.132702 
L 152.717168 56.729279 
L 152.069155 85.079279 
L 151.421142 68.825268 
L 150.773129 62.036714 
L 150.125116 48.79127 
L 149.477103 85.221514 
L 148.82909 49.940697 
L 148.181076 60.887273 
L 147.533063 58.268394 
L 146.88505 100.029258 
L 146.237037 80.921285 
L 145.589024 58.268365 
L 144.941011 92.307182 
L 144.292998 87.298939 
L 143.644985 75.487405 
L 142.996972 66.06871 
L 142.348959 109.27127 
L 141.700946 109.413505 
L 141.052933 80.431049 
L 140.40492 89.945288 
L 139.756907 102.62038 
L 139.108894 84.942899 
L 138.460881 76.179183 
L 137.812867 92.307182 
L 137.164854 83.537973 
L 136.516841 100.59103 
L 135.868828 73.125496 
L 135.220815 80.211179 
L 134.572802 79.335624 
L 133.924789 106.652376 
L 133.276776 75.202936 
L 132.628763 97.175282 
L 131.98075 92.307182 
L 131.332737 100.371189 
L 130.684724 83.901259 
L 130.036711 105.10288 
L 129.388698 92.020651 
L 128.740685 78.982922 
L 128.092671 124.221249 
L 127.444658 102.041291 
L 126.796645 109.413505 
L 126.148632 100.029258 
L 125.500619 112.125261 
L 124.852606 124.221249 
L 124.204593 115.93025 
L 123.55658 112.467178 
L 122.908567 160.509258 
L 122.260554 153.497273 
L 121.612541 123.871402 
L 120.964528 138.644698 
L 120.316515 114.932734 
L 119.668502 133.949806 
L 119.020489 138.908374 
L 118.372476 149.998599 
L 117.724462 192.765256 
L 117.076449 226.073276 
L 116.428436 156.113961 
L 115.780423 149.081832 
L 115.13241 253.24526 
L 114.484397 146.573132 
L 113.836384 215.516381 
L 113.188371 205.894968 
L 112.540358 244.54694 
L 111.892345 239.708376 
L 111.244332 257.27726 
L 110.596319 262.629514 
L 109.948306 254.423283 
L 109.300293 247.772379 
L 108.65228 266.519283 
L 108.004266 227.72508 
L 107.356253 196.16086 
L 106.70824 269.023406 
L 106.060227 288.491625 
z
" clip-path="url(#peda0366979)" style="fill: #1f77b4; fill-opacity: 0.3"/>
   </g>
   <g id="PolyCollection_2">
    <path d="M 106.060227 260.544338 
L 106.060227 269.667712 
L 106.70824 284.05231 
L 107.356253 288.491625 
L 108.004266 288.491625 
L 108.65228 288.491625 
L 109.300293 288.491625 
L 109.948306 288.491625 
L 110.596319 288.491625 
L 111.244332 288.491625 
L 111.892345 288.491625 
L 112.540358 288.491625 
L 113.188371 288.491625 
L 113.836384 288.491625 
L 114.484397 288.491625 
L 115.13241 288.491625 
L 115.780423 288.491625 
L 116.428436 288.491625 
L 117.076449 288.491625 
L 117.724462 288.491625 
L 118.372476 288.491625 
L 119.020489 288.491625 
L 119.668502 288.491625 
L 120.316515 288.491625 
L 120.964528 288.491625 
L 121.612541 288.491625 
L 122.260554 288.491625 
L 122.908567 288.491625 
L 123.55658 288.491625 
L 124.204593 288.491625 
L 124.852606 288.491625 
L 125.500619 288.491625 
L 126.148632 288.491625 
L 126.796645 288.491625 
L 127.444658 288.491625 
L 128.092671 288.491625 
L 128.740685 284.428564 
L 129.388698 288.491625 
L 130.036711 288.491625 
L 130.684724 288.491625 
L 131.332737 288.491625 
L 131.98075 288.491625 
L 132.628763 285.875901 
L 133.276776 281.519617 
L 133.924789 288.491625 
L 134.572802 288.491625 
L 135.220815 286.46217 
L 135.868828 288.491625 
L 136.516841 288.491625 
L 137.164854 288.491625 
L 137.812867 288.491625 
L 138.460881 288.491625 
L 139.108894 288.491625 
L 139.756907 288.491625 
L 140.40492 288.491625 
L 141.052933 288.491625 
L 141.700946 288.491625 
L 142.348959 288.491625 
L 142.996972 288.491625 
L 143.644985 288.491625 
L 144.292998 288.491625 
L 144.941011 288.491625 
L 145.589024 288.491625 
L 146.237037 288.491625 
L 146.88505 288.491625 
L 147.533063 288.491625 
L 148.181076 288.491625 
L 148.82909 288.491625 
L 149.477103 288.491625 
L 150.125116 288.491625 
L 150.773129 288.491625 
L 151.421142 288.491625 
L 152.069155 285.657356 
L 152.717168 288.491625 
L 153.365181 284.624655 
L 154.013194 288.491625 
L 154.661207 288.491625 
L 155.30922 288.491625 
L 155.957233 288.491625 
L 156.605246 285.425724 
L 157.253259 288.491625 
L 157.901272 288.491625 
L 158.549286 287.658315 
L 159.197299 287.546869 
L 159.845312 288.491625 
L 160.493325 288.491625 
L 161.141338 288.491625 
L 161.789351 288.491625 
L 162.437364 288.491625 
L 163.085377 288.491625 
L 163.73339 288.491625 
L 164.381403 288.491625 
L 165.029416 288.491625 
L 165.677429 288.491625 
L 166.325442 288.491625 
L 166.973455 288.491625 
L 167.621468 288.491625 
L 168.269481 288.491625 
L 168.917495 288.491625 
L 169.565508 288.491625 
L 170.213521 288.491625 
L 170.861534 288.491625 
L 171.509547 288.491625 
L 172.15756 288.491625 
L 172.805573 288.491625 
L 173.453586 288.491625 
L 174.101599 288.491625 
L 174.749612 288.491625 
L 175.397625 288.491625 
L 176.045638 288.491625 
L 176.693651 288.491625 
L 177.341664 288.491625 
L 177.989677 288.491625 
L 178.637691 288.491625 
L 179.285704 288.491625 
L 179.933717 288.491625 
L 180.58173 288.491625 
L 181.229743 288.491625 
L 181.877756 288.491625 
L 182.525769 288.491625 
L 183.173782 288.491625 
L 183.821795 288.491625 
L 184.469808 288.491625 
L 185.117821 288.491625 
L 185.765834 288.491625 
L 186.413847 288.491625 
L 187.06186 288.491625 
L 187.709873 288.491625 
L 188.357886 288.491625 
L 189.0059 288.491625 
L 189.653913 288.491625 
L 190.301926 288.491625 
L 190.949939 288.491625 
L 191.597952 288.491625 
L 192.245965 288.491625 
L 192.893978 288.491625 
L 193.541991 288.491625 
L 194.190004 288.491625 
L 194.838017 288.491625 
L 195.48603 288.491625 
L 196.134043 288.491625 
L 196.782056 288.491625 
L 197.430069 288.491625 
L 198.078082 288.491625 
L 198.726096 288.491625 
L 199.374109 288.491625 
L 200.022122 288.491625 
L 200.670135 288.491625 
L 201.318148 288.491625 
L 201.966161 288.491625 
L 202.614174 288.491625 
L 203.262187 288.491625 
L 203.9102 288.491625 
L 204.558213 288.491625 
L 205.206226 288.491625 
L 205.854239 288.491625 
L 206.502252 288.491625 
L 207.150265 288.491625 
L 207.798278 288.491625 
L 208.446292 288.491625 
L 209.094305 288.491625 
L 209.742318 288.491625 
L 210.390331 288.491625 
L 211.038344 288.491625 
L 211.686357 288.491625 
L 212.33437 288.491625 
L 212.982383 288.491625 
L 213.630396 288.491625 
L 214.278409 288.491625 
L 214.926422 288.491625 
L 215.574435 288.491625 
L 216.222448 288.491625 
L 216.870461 288.491625 
L 217.518474 288.491625 
L 218.166487 288.491625 
L 218.814501 288.491625 
L 219.462514 288.491625 
L 220.110527 288.491625 
L 220.75854 288.491625 
L 221.406553 288.491625 
L 222.054566 288.491625 
L 222.702579 288.491625 
L 223.350592 288.491625 
L 223.998605 288.491625 
L 224.646618 288.491625 
L 225.294631 288.491625 
L 225.942644 288.491625 
L 226.590657 288.491625 
L 227.23867 288.491625 
L 227.886683 288.491625 
L 228.534697 288.491625 
L 229.18271 288.491625 
L 229.830723 288.491625 
L 230.478736 288.491625 
L 231.126749 288.491625 
L 231.774762 288.491625 
L 232.422775 288.491625 
L 233.070788 288.491625 
L 233.718801 288.491625 
L 234.366814 288.491625 
L 235.014827 288.491625 
L 235.66284 288.491625 
L 236.310853 288.491625 
L 236.958866 288.491625 
L 237.606879 288.491625 
L 238.254892 288.491625 
L 238.902906 288.491625 
L 239.550919 288.491625 
L 240.198932 288.491625 
L 240.846945 288.491625 
L 241.494958 288.491625 
L 242.142971 288.491625 
L 242.790984 288.491625 
L 243.438997 288.491625 
L 244.08701 288.491625 
L 244.735023 288.491625 
L 245.383036 288.491625 
L 246.031049 288.491625 
L 246.679062 288.491625 
L 247.327075 288.491625 
L 247.975088 288.491625 
L 248.623102 288.491625 
L 249.271115 288.491625 
L 249.919128 288.491625 
L 250.567141 288.491625 
L 251.215154 288.491625 
L 251.863167 288.491625 
L 252.51118 288.491625 
L 253.159193 288.491625 
L 253.807206 288.491625 
L 254.455219 288.491625 
L 255.103232 288.491625 
L 255.751245 288.491625 
L 256.399258 288.491625 
L 257.047271 288.491625 
L 257.695284 288.491625 
L 258.343297 288.491625 
L 258.991311 288.491625 
L 259.639324 288.491625 
L 260.287337 288.491625 
L 260.93535 288.491625 
L 261.583363 288.491625 
L 262.231376 288.491625 
L 262.879389 288.491625 
L 263.527402 288.491625 
L 264.175415 288.491625 
L 264.823428 288.491625 
L 265.471441 288.491625 
L 266.119454 288.491625 
L 266.767467 288.491625 
L 267.41548 288.491625 
L 268.063493 288.491625 
L 268.711507 288.491625 
L 269.35952 288.491625 
L 270.007533 288.491625 
L 270.655546 288.491625 
L 271.303559 288.491625 
L 271.951572 288.491625 
L 272.599585 288.491625 
L 273.247598 288.491625 
L 273.895611 288.491625 
L 274.543624 288.491625 
L 275.191637 288.491625 
L 275.83965 288.491625 
L 276.487663 288.491625 
L 277.135676 288.491625 
L 277.783689 288.491625 
L 278.431703 288.491625 
L 279.079716 288.491625 
L 279.727729 288.491625 
L 280.375742 288.491625 
L 281.023755 288.491625 
L 281.671768 288.491625 
L 282.319781 288.491625 
L 282.967794 288.491625 
L 283.615807 288.491625 
L 284.26382 288.491625 
L 284.911833 288.491625 
L 285.559846 288.491625 
L 286.207859 288.491625 
L 286.855872 288.491625 
L 287.503885 288.491625 
L 288.151898 288.491625 
L 288.799912 288.491625 
L 289.447925 288.491625 
L 290.095938 288.491625 
L 290.743951 288.491625 
L 291.391964 288.491625 
L 292.039977 288.491625 
L 292.68799 288.491625 
L 293.336003 288.491625 
L 293.984016 288.491625 
L 294.632029 288.491625 
L 295.280042 288.491625 
L 295.928055 288.491625 
L 296.576068 288.491625 
L 297.224081 288.491625 
L 297.872094 288.491625 
L 298.520108 288.491625 
L 299.168121 288.491625 
L 299.816134 288.491625 
L 300.464147 288.491625 
L 301.11216 288.491625 
L 301.760173 288.491625 
L 302.408186 288.491625 
L 303.056199 288.491625 
L 303.704212 288.491625 
L 304.352225 288.491625 
L 305.000238 288.491625 
L 305.648251 288.491625 
L 306.296264 288.491625 
L 306.944277 288.491625 
L 307.59229 288.491625 
L 308.240303 288.491625 
L 308.888317 288.491625 
L 309.53633 288.491625 
L 310.184343 288.491625 
L 310.832356 288.491625 
L 311.480369 288.491625 
L 312.128382 288.491625 
L 312.776395 288.491625 
L 313.424408 288.491625 
L 314.072421 288.491625 
L 314.720434 288.491625 
L 315.368447 288.491625 
L 316.01646 288.491625 
L 316.664473 288.491625 
L 317.312486 288.491625 
L 317.960499 288.491625 
L 318.608513 288.491625 
L 319.256526 288.491625 
L 319.904539 288.491625 
L 320.552552 288.491625 
L 321.200565 288.491625 
L 321.848578 288.491625 
L 322.496591 288.491625 
L 323.144604 288.491625 
L 323.792617 288.491625 
L 324.44063 288.491625 
L 325.088643 288.491625 
L 325.736656 288.491625 
L 326.384669 288.491625 
L 327.032682 288.491625 
L 327.680695 288.491625 
L 328.328708 288.491625 
L 328.976722 288.491625 
L 329.624735 288.491625 
L 330.272748 288.491625 
L 330.920761 288.491625 
L 331.568774 288.491625 
L 332.216787 288.491625 
L 332.8648 288.491625 
L 333.512813 288.491625 
L 334.160826 288.491625 
L 334.808839 288.491625 
L 335.456852 288.491625 
L 336.104865 288.491625 
L 336.752878 288.491625 
L 337.400891 288.491625 
L 338.048904 288.491625 
L 338.696918 288.491625 
L 339.344931 288.491625 
L 339.992944 288.491625 
L 340.640957 288.491625 
L 341.28897 288.491625 
L 341.936983 288.491625 
L 342.584996 288.491625 
L 343.233009 288.491625 
L 343.881022 288.491625 
L 344.529035 288.491625 
L 345.177048 288.491625 
L 345.825061 288.491625 
L 346.473074 288.491625 
L 347.121087 288.491625 
L 347.7691 288.491625 
L 348.417114 288.491625 
L 349.065127 288.491625 
L 349.71314 288.491625 
L 350.361153 288.491625 
L 351.009166 288.491625 
L 351.657179 288.491625 
L 352.305192 288.491625 
L 352.953205 288.491625 
L 353.601218 288.491625 
L 354.249231 288.491625 
L 354.897244 288.491625 
L 355.545257 288.491625 
L 356.19327 288.491625 
L 356.841283 288.491625 
L 357.489296 288.491625 
L 358.137309 288.491625 
L 358.785323 288.491625 
L 359.433336 288.491625 
L 360.081349 288.491625 
L 360.729362 288.491625 
L 361.377375 288.491625 
L 362.025388 288.491625 
L 362.673401 288.491625 
L 363.321414 288.491625 
L 363.969427 288.491625 
L 364.61744 288.491625 
L 365.265453 288.491625 
L 365.913466 288.491625 
L 366.561479 288.491625 
L 367.209492 288.491625 
L 367.857505 288.491625 
L 368.505519 288.491625 
L 369.153532 288.491625 
L 369.801545 288.491625 
L 370.449558 288.491625 
L 371.097571 288.491625 
L 371.745584 288.491625 
L 372.393597 288.491625 
L 373.04161 288.491625 
L 373.689623 288.491625 
L 374.337636 288.491625 
L 374.985649 288.491625 
L 375.633662 288.491625 
L 376.281675 288.491625 
L 376.929688 288.491625 
L 377.577701 288.491625 
L 378.225714 288.491625 
L 378.873728 288.491625 
L 379.521741 288.491625 
L 380.169754 288.491625 
L 380.817767 288.491625 
L 381.46578 288.491625 
L 382.113793 288.491625 
L 382.761806 288.491625 
L 383.409819 288.491625 
L 384.057832 288.491625 
L 384.705845 288.491625 
L 385.353858 288.491625 
L 386.001871 288.491625 
L 386.649884 288.491625 
L 387.297897 288.491625 
L 387.94591 288.491625 
L 388.593924 288.491625 
L 389.241937 288.491625 
L 389.88995 288.491625 
L 390.537963 288.491625 
L 391.185976 288.491625 
L 391.833989 288.491625 
L 392.482002 288.491625 
L 393.130015 288.491625 
L 393.778028 288.491625 
L 394.426041 288.491625 
L 395.074054 288.491625 
L 395.722067 288.491625 
L 396.37008 288.491625 
L 397.018093 288.491625 
L 397.666106 288.491625 
L 398.314119 288.491625 
L 398.962133 288.491625 
L 399.610146 288.491625 
L 400.258159 288.491625 
L 400.906172 288.491625 
L 401.554185 288.491625 
L 402.202198 288.491625 
L 402.850211 288.491625 
L 403.498224 288.491625 
L 404.146237 288.491625 
L 404.79425 288.491625 
L 405.442263 288.491625 
L 406.090276 288.491625 
L 406.738289 288.491625 
L 407.386302 288.491625 
L 408.034315 288.491625 
L 408.682329 288.491625 
L 409.330342 288.491625 
L 409.978355 288.491625 
L 410.626368 288.491625 
L 411.274381 288.491625 
L 411.922394 288.491625 
L 412.570407 288.491625 
L 413.21842 288.491625 
L 413.866433 288.491625 
L 414.514446 288.491625 
L 415.162459 288.491625 
L 415.810472 288.491625 
L 416.458485 288.491625 
L 417.106498 288.491625 
L 417.754511 288.491625 
L 418.402524 288.491625 
L 419.050538 288.491625 
L 419.698551 288.491625 
L 420.346564 288.491625 
L 420.994577 288.491625 
L 421.64259 288.491625 
L 422.290603 288.491625 
L 422.938616 288.491625 
L 423.586629 288.491625 
L 424.234642 288.491625 
L 424.882655 288.491625 
L 425.530668 288.491625 
L 426.178681 288.491625 
L 426.826694 288.491625 
L 427.474707 288.491625 
L 428.12272 288.491625 
L 428.770734 288.491625 
L 429.418747 288.491625 
L 430.06676 288.491625 
L 430.714773 288.491625 
L 430.714773 288.491625 
L 430.714773 288.491625 
L 430.06676 288.491625 
L 429.418747 288.491625 
L 428.770734 288.491625 
L 428.12272 288.491625 
L 427.474707 288.491625 
L 426.826694 288.491625 
L 426.178681 288.491625 
L 425.530668 288.491625 
L 424.882655 288.491625 
L 424.234642 288.491625 
L 423.586629 288.491625 
L 422.938616 288.491625 
L 422.290603 288.491625 
L 421.64259 288.491625 
L 420.994577 288.491625 
L 420.346564 288.491625 
L 419.698551 288.491625 
L 419.050538 288.491625 
L 418.402524 288.491625 
L 417.754511 288.491625 
L 417.106498 288.491625 
L 416.458485 288.491625 
L 415.810472 288.491625 
L 415.162459 288.491625 
L 414.514446 288.491625 
L 413.866433 288.491625 
L 413.21842 288.491625 
L 412.570407 288.491625 
L 411.922394 288.491625 
L 411.274381 288.491625 
L 410.626368 288.491625 
L 409.978355 288.491625 
L 409.330342 288.491625 
L 408.682329 288.491625 
L 408.034315 288.491625 
L 407.386302 288.491625 
L 406.738289 288.491625 
L 406.090276 288.491625 
L 405.442263 288.491625 
L 404.79425 288.491625 
L 404.146237 288.491625 
L 403.498224 288.491625 
L 402.850211 288.491625 
L 402.202198 288.491625 
L 401.554185 288.491625 
L 400.906172 288.491625 
L 400.258159 288.491625 
L 399.610146 288.491625 
L 398.962133 288.491625 
L 398.314119 288.491625 
L 397.666106 288.491625 
L 397.018093 288.491625 
L 396.37008 288.491625 
L 395.722067 288.491625 
L 395.074054 288.491625 
L 394.426041 288.491625 
L 393.778028 288.491625 
L 393.130015 288.491625 
L 392.482002 288.491625 
L 391.833989 288.491625 
L 391.185976 288.491625 
L 390.537963 288.491625 
L 389.88995 288.491625 
L 389.241937 288.491625 
L 388.593924 288.491625 
L 387.94591 288.491625 
L 387.297897 288.491625 
L 386.649884 288.491625 
L 386.001871 288.491625 
L 385.353858 288.491625 
L 384.705845 288.491625 
L 384.057832 288.491625 
L 383.409819 288.491625 
L 382.761806 288.491625 
L 382.113793 288.491625 
L 381.46578 288.491625 
L 380.817767 288.491625 
L 380.169754 288.491625 
L 379.521741 288.491625 
L 378.873728 288.491625 
L 378.225714 288.491625 
L 377.577701 288.491625 
L 376.929688 288.491625 
L 376.281675 288.491625 
L 375.633662 288.491625 
L 374.985649 288.491625 
L 374.337636 288.491625 
L 373.689623 288.491625 
L 373.04161 288.491625 
L 372.393597 288.491625 
L 371.745584 288.491625 
L 371.097571 288.491625 
L 370.449558 288.491625 
L 369.801545 288.491625 
L 369.153532 288.491625 
L 368.505519 288.491625 
L 367.857505 288.491625 
L 367.209492 288.491625 
L 366.561479 288.491625 
L 365.913466 288.491625 
L 365.265453 288.491625 
L 364.61744 288.491625 
L 363.969427 288.491625 
L 363.321414 288.491625 
L 362.673401 288.491625 
L 362.025388 288.491625 
L 361.377375 288.491625 
L 360.729362 288.491625 
L 360.081349 288.491625 
L 359.433336 288.491625 
L 358.785323 288.491625 
L 358.137309 288.491625 
L 357.489296 288.491625 
L 356.841283 288.491625 
L 356.19327 288.491625 
L 355.545257 288.491625 
L 354.897244 288.491625 
L 354.249231 288.491625 
L 353.601218 288.491625 
L 352.953205 288.491625 
L 352.305192 288.491625 
L 351.657179 288.491625 
L 351.009166 288.491625 
L 350.361153 288.491625 
L 349.71314 288.491625 
L 349.065127 288.491625 
L 348.417114 288.491625 
L 347.7691 288.491625 
L 347.121087 288.491625 
L 346.473074 288.491625 
L 345.825061 288.491625 
L 345.177048 288.491625 
L 344.529035 288.491625 
L 343.881022 288.491625 
L 343.233009 288.491625 
L 342.584996 288.491625 
L 341.936983 288.491625 
L 341.28897 288.491625 
L 340.640957 288.491625 
L 339.992944 288.491625 
L 339.344931 288.491625 
L 338.696918 288.491625 
L 338.048904 288.491625 
L 337.400891 288.491625 
L 336.752878 288.491625 
L 336.104865 288.491625 
L 335.456852 288.491625 
L 334.808839 288.491625 
L 334.160826 288.491625 
L 333.512813 288.491625 
L 332.8648 288.491625 
L 332.216787 288.491625 
L 331.568774 288.491625 
L 330.920761 288.491625 
L 330.272748 288.491625 
L 329.624735 288.491625 
L 328.976722 288.491625 
L 328.328708 288.491625 
L 327.680695 288.491625 
L 327.032682 288.491625 
L 326.384669 288.491625 
L 325.736656 280.704338 
L 325.088643 288.491625 
L 324.44063 288.491625 
L 323.792617 288.491625 
L 323.144604 288.491625 
L 322.496591 288.491625 
L 321.848578 288.491625 
L 321.200565 288.491625 
L 320.552552 288.491625 
L 319.904539 288.491625 
L 319.256526 288.491625 
L 318.608513 288.491625 
L 317.960499 288.491625 
L 317.312486 288.491625 
L 316.664473 284.597981 
L 316.01646 288.491625 
L 315.368447 288.491625 
L 314.720434 288.491625 
L 314.072421 288.491625 
L 313.424408 284.597981 
L 312.776395 288.491625 
L 312.128382 288.491625 
L 311.480369 280.704338 
L 310.832356 288.491625 
L 310.184343 280.704338 
L 309.53633 288.491625 
L 308.888317 276.810694 
L 308.240303 269.023407 
L 307.59229 265.129763 
L 306.944277 249.555189 
L 306.296264 284.597981 
L 305.648251 265.129763 
L 305.000238 257.342476 
L 304.352225 288.491625 
L 303.704212 288.491625 
L 303.056199 280.704338 
L 302.408186 272.91705 
L 301.760173 269.023407 
L 301.11216 288.491625 
L 300.464147 288.491625 
L 299.816134 288.491625 
L 299.168121 288.491625 
L 298.520108 288.491625 
L 297.872094 288.491625 
L 297.224081 288.491625 
L 296.576068 288.491625 
L 295.928055 288.491625 
L 295.280042 288.491625 
L 294.632029 288.491625 
L 293.984016 288.491625 
L 293.336003 288.491625 
L 292.68799 288.491625 
L 292.039977 288.491625 
L 291.391964 288.491625 
L 290.743951 288.491625 
L 290.095938 288.491625 
L 289.447925 288.491625 
L 288.799912 288.491625 
L 288.151898 284.597981 
L 287.503885 269.023407 
L 286.855872 288.491625 
L 286.207859 284.597981 
L 285.559846 288.491625 
L 284.911833 288.491625 
L 284.26382 288.491625 
L 283.615807 288.491625 
L 282.967794 288.491625 
L 282.319781 288.491625 
L 281.671768 288.491625 
L 281.023755 288.491625 
L 280.375742 288.491625 
L 279.727729 288.491625 
L 279.079716 288.491625 
L 278.431703 288.491625 
L 277.783689 288.491625 
L 277.135676 288.491625 
L 276.487663 288.491625 
L 275.83965 288.491625 
L 275.191637 288.491625 
L 274.543624 288.491625 
L 273.895611 288.491625 
L 273.247598 288.491625 
L 272.599585 288.491625 
L 271.951572 288.491625 
L 271.303559 288.491625 
L 270.655546 288.491625 
L 270.007533 288.491625 
L 269.35952 288.491625 
L 268.711507 288.491625 
L 268.063493 288.491625 
L 267.41548 288.491625 
L 266.767467 288.491625 
L 266.119454 288.491625 
L 265.471441 288.491625 
L 264.823428 288.491625 
L 264.175415 288.491625 
L 263.527402 288.491625 
L 262.879389 288.491625 
L 262.231376 288.491625 
L 261.583363 288.491625 
L 260.93535 288.491625 
L 260.287337 288.491625 
L 259.639324 288.491625 
L 258.991311 288.491625 
L 258.343297 288.491625 
L 257.695284 288.491625 
L 257.047271 288.491625 
L 256.399258 288.491625 
L 255.751245 288.491625 
L 255.103232 288.491625 
L 254.455219 288.491625 
L 253.807206 288.491625 
L 253.159193 288.491625 
L 252.51118 288.491625 
L 251.863167 272.91705 
L 251.215154 288.491625 
L 250.567141 288.491625 
L 249.919128 288.491625 
L 249.271115 288.491625 
L 248.623102 288.491625 
L 247.975088 276.810694 
L 247.327075 288.491625 
L 246.679062 288.491625 
L 246.031049 288.491625 
L 245.383036 288.491625 
L 244.735023 288.491625 
L 244.08701 288.491625 
L 243.438997 272.91705 
L 242.790984 265.129763 
L 242.142971 276.810694 
L 241.494958 288.491625 
L 240.846945 288.491625 
L 240.198932 288.491625 
L 239.550919 288.491625 
L 238.902906 288.491625 
L 238.254892 288.491625 
L 237.606879 249.555189 
L 236.958866 257.342476 
L 236.310853 265.129763 
L 235.66284 288.491625 
L 235.014827 288.491625 
L 234.366814 288.491625 
L 233.718801 288.491625 
L 233.070788 288.491625 
L 232.422775 288.491625 
L 231.774762 288.491625 
L 231.126749 288.491625 
L 230.478736 288.491625 
L 229.830723 288.491625 
L 229.18271 288.491625 
L 228.534697 288.491625 
L 227.886683 288.491625 
L 227.23867 288.491625 
L 226.590657 288.491625 
L 225.942644 288.491625 
L 225.294631 288.491625 
L 224.646618 288.491625 
L 223.998605 288.491625 
L 223.350592 288.491625 
L 222.702579 288.491625 
L 222.054566 288.491625 
L 221.406553 288.491625 
L 220.75854 288.491625 
L 220.110527 288.491625 
L 219.462514 288.491625 
L 218.814501 288.491625 
L 218.166487 288.491625 
L 217.518474 288.491625 
L 216.870461 288.491625 
L 216.222448 288.491625 
L 215.574435 288.491625 
L 214.926422 288.491625 
L 214.278409 288.491625 
L 213.630396 288.491625 
L 212.982383 288.491625 
L 212.33437 288.491625 
L 211.686357 288.491625 
L 211.038344 288.491625 
L 210.390331 288.491625 
L 209.742318 288.491625 
L 209.094305 288.491625 
L 208.446292 288.491625 
L 207.798278 288.491625 
L 207.150265 288.491625 
L 206.502252 288.491625 
L 205.854239 288.491625 
L 205.206226 288.491625 
L 204.558213 288.491625 
L 203.9102 288.491625 
L 203.262187 288.491625 
L 202.614174 288.491625 
L 201.966161 288.491625 
L 201.318148 288.491625 
L 200.670135 288.491625 
L 200.022122 288.491625 
L 199.374109 288.491625 
L 198.726096 288.491625 
L 198.078082 269.023407 
L 197.430069 288.491625 
L 196.782056 269.023407 
L 196.134043 284.597981 
L 195.48603 280.704338 
L 194.838017 288.491625 
L 194.190004 276.810694 
L 193.541991 284.597981 
L 192.893978 276.810694 
L 192.245965 288.491625 
L 191.597952 280.704338 
L 190.949939 284.597981 
L 190.301926 288.491625 
L 189.653913 276.810694 
L 189.0059 276.810694 
L 188.357886 288.491625 
L 187.709873 288.491625 
L 187.06186 288.491625 
L 186.413847 284.597981 
L 185.765834 288.491625 
L 185.117821 288.491625 
L 184.469808 288.491625 
L 183.821795 288.491625 
L 183.173782 280.704338 
L 182.525769 288.491625 
L 181.877756 288.491625 
L 181.229743 288.491625 
L 180.58173 288.491625 
L 179.933717 288.491625 
L 179.285704 288.491625 
L 178.637691 276.810694 
L 177.989677 288.491625 
L 177.341664 288.491625 
L 176.693651 288.491625 
L 176.045638 288.491625 
L 175.397625 288.491625 
L 174.749612 288.491625 
L 174.101599 265.129763 
L 173.453586 265.129763 
L 172.805573 261.23612 
L 172.15756 257.342476 
L 171.509547 269.023407 
L 170.861534 288.491625 
L 170.213521 284.597981 
L 169.565508 280.704338 
L 168.917495 269.023407 
L 168.269481 261.23612 
L 167.621468 272.91705 
L 166.973455 261.23612 
L 166.325442 284.597981 
L 165.677429 241.767901 
L 165.029416 249.555189 
L 164.381403 272.91705 
L 163.73339 272.91705 
L 163.085377 288.491625 
L 162.437364 288.491625 
L 161.789351 288.491625 
L 161.141338 288.491625 
L 160.493325 288.491625 
L 159.845312 288.491625 
L 159.197299 282.985181 
L 158.549286 263.520135 
L 157.901272 261.23612 
L 157.253259 284.597981 
L 156.605246 268.978326 
L 155.957233 284.597981 
L 155.30922 276.810694 
L 154.661207 288.491625 
L 154.013194 256.756433 
L 153.365181 256.876995 
L 152.717168 272.203926 
L 152.069155 271.972294 
L 151.421142 269.023407 
L 150.773129 245.661545 
L 150.125116 265.129763 
L 149.477103 269.023407 
L 148.82909 261.23612 
L 148.181076 249.555189 
L 147.533063 257.342476 
L 146.88505 253.448832 
L 146.237037 261.23612 
L 145.589024 276.810694 
L 144.941011 276.810694 
L 144.292998 284.597981 
L 143.644985 288.491625 
L 142.996972 288.491625 
L 142.348959 288.491625 
L 141.700946 288.491625 
L 141.052933 288.491625 
L 140.40492 288.491625 
L 139.756907 288.491625 
L 139.108894 288.491625 
L 138.460881 288.491625 
L 137.812867 288.491625 
L 137.164854 288.491625 
L 136.516841 288.491625 
L 135.868828 276.810694 
L 135.220815 274.39308 
L 134.572802 261.23612 
L 133.924789 248.992963 
L 133.276776 247.079633 
L 132.628763 229.820949 
L 131.98075 249.555189 
L 131.332737 288.491625 
L 130.684724 288.491625 
L 130.036711 272.91705 
L 129.388698 257.342476 
L 128.740685 263.524286 
L 128.092671 276.810694 
L 127.444658 288.491625 
L 126.796645 288.491625 
L 126.148632 288.491625 
L 125.500619 288.491625 
L 124.852606 288.491625 
L 124.204593 288.491625 
L 123.55658 288.491625 
L 122.908567 288.491625 
L 122.260554 288.491625 
L 121.612541 288.491625 
L 120.964528 284.597981 
L 120.316515 288.491625 
L 119.668502 288.491625 
L 119.020489 288.491625 
L 118.372476 288.491625 
L 117.724462 284.597981 
L 117.076449 288.491625 
L 116.428436 288.491625 
L 115.780423 288.491625 
L 115.13241 288.491625 
L 114.484397 288.491625 
L 113.836384 280.704338 
L 113.188371 288.491625 
L 112.540358 288.491625 
L 111.892345 276.810694 
L 111.244332 288.491625 
L 110.596319 288.491625 
L 109.948306 288.491625 
L 109.300293 288.491625 
L 108.65228 288.491625 
L 108.004266 288.491625 
L 107.356253 265.129763 
L 106.70824 244.54694 
L 106.060227 260.544338 
z
" clip-path="url(#peda0366979)" style="fill: #ff7f0e; fill-opacity: 0.3"/>
   </g>
   <g id="PolyCollection_3">
    <path d="M 106.060227 246.338179 
L 106.060227 261.294671 
L 106.70824 288.491625 
L 107.356253 288.491625 
L 108.004266 288.491625 
L 108.65228 288.491625 
L 109.300293 288.491625 
L 109.948306 288.491625 
L 110.596319 288.491625 
L 111.244332 288.491625 
L 111.892345 288.491625 
L 112.540358 288.491625 
L 113.188371 288.491625 
L 113.836384 288.491625 
L 114.484397 288.491625 
L 115.13241 288.491625 
L 115.780423 288.491625 
L 116.428436 288.491625 
L 117.076449 288.491625 
L 117.724462 288.491625 
L 118.372476 288.491625 
L 119.020489 288.491625 
L 119.668502 288.491625 
L 120.316515 288.491625 
L 120.964528 288.491625 
L 121.612541 288.491625 
L 122.260554 288.491625 
L 122.908567 288.491625 
L 123.55658 288.491625 
L 124.204593 288.491625 
L 124.852606 288.491625 
L 125.500619 288.491625 
L 126.148632 288.491625 
L 126.796645 288.491625 
L 127.444658 287.546869 
L 128.092671 288.491625 
L 128.740685 288.491625 
L 129.388698 288.491625 
L 130.036711 288.491625 
L 130.684724 287.603762 
L 131.332737 288.491625 
L 131.98075 287.603762 
L 132.628763 282.765362 
L 133.276776 287.603762 
L 133.924789 288.491625 
L 134.572802 287.546869 
L 135.220815 286.602112 
L 135.868828 288.491625 
L 136.516841 288.491625 
L 137.164854 288.491625 
L 137.812867 284.989312 
L 138.460881 283.23657 
L 139.108894 288.491625 
L 139.756907 288.491625 
L 140.40492 283.23657 
L 141.052933 288.491625 
L 141.700946 288.491625 
L 142.348959 287.603762 
L 142.996972 288.491625 
L 143.644985 288.491625 
L 144.292998 287.546869 
L 144.941011 288.491625 
L 145.589024 288.220289 
L 146.237037 288.491625 
L 146.88505 288.491625 
L 147.533063 284.989312 
L 148.181076 282.765362 
L 148.82909 287.546869 
L 149.477103 288.491625 
L 150.125116 288.491625 
L 150.773129 288.491625 
L 151.421142 285.425724 
L 152.069155 288.491625 
L 152.717168 288.491625 
L 153.365181 288.491625 
L 154.013194 288.220289 
L 154.661207 286.46217 
L 155.30922 286.46217 
L 155.957233 284.7126 
L 156.605246 287.603762 
L 157.253259 288.491625 
L 157.901272 287.603762 
L 158.549286 287.546869 
L 159.197299 288.491625 
L 159.845312 287.546869 
L 160.493325 286.993443 
L 161.141338 282.708469 
L 161.789351 287.603762 
L 162.437364 287.603762 
L 163.085377 288.491625 
L 163.73339 287.546869 
L 164.381403 287.546869 
L 165.029416 288.491625 
L 165.677429 288.491625 
L 166.325442 287.546869 
L 166.973455 282.708469 
L 167.621468 287.546869 
L 168.269481 282.708469 
L 168.917495 286.602112 
L 169.565508 288.07497 
L 170.213521 283.812924 
L 170.861534 282.708469 
L 171.509547 287.546869 
L 172.15756 288.491625 
L 172.805573 278.814825 
L 173.453586 284.989312 
L 174.101599 273.088562 
L 174.749612 288.07497 
L 175.397625 286.46217 
L 176.045638 286.71673 
L 176.693651 284.321269 
L 177.341664 283.23657 
L 177.989677 281.487 
L 178.637691 282.765362 
L 179.285704 278.39817 
L 179.933717 284.321269 
L 180.58173 278.814825 
L 181.229743 288.491625 
L 181.877756 286.602112 
L 182.525769 282.305592 
L 183.173782 280.587324 
L 183.821795 280.587324 
L 184.469808 281.877499 
L 185.117821 276.151236 
L 185.765834 285.707317 
L 186.413847 284.428564 
L 187.06186 282.765362 
L 187.709873 285.657356 
L 188.357886 284.624655 
L 189.0059 278.929443 
L 189.653913 287.143992 
L 190.301926 280.150912 
L 190.949939 279.590164 
L 191.597952 277.467192 
L 192.245965 277.926962 
L 192.893978 275.312512 
L 193.541991 280.692792 
L 194.190004 282.823087 
L 194.838017 288.491625 
L 195.48603 287.143992 
L 196.134043 280.957959 
L 196.782056 285.657356 
L 197.430069 285.657356 
L 198.078082 286.358017 
L 198.726096 287.797807 
L 199.374109 282.359822 
L 200.022122 286.46217 
L 200.670135 285.657356 
L 201.318148 287.603762 
L 201.966161 281.877499 
L 202.614174 288.491625 
L 203.262187 288.491625 
L 203.9102 284.432715 
L 204.558213 276.151236 
L 205.206226 288.491625 
L 205.854239 283.726383 
L 206.502252 280.692792 
L 207.150265 283.23657 
L 207.798278 288.491625 
L 208.446292 282.765362 
L 209.094305 288.220289 
L 209.742318 282.959407 
L 210.390331 286.993443 
L 211.038344 284.432715 
L 211.686357 283.812924 
L 212.33437 287.143992 
L 212.982383 278.814825 
L 213.630396 286.46217 
L 214.278409 283.812924 
L 214.926422 279.8742 
L 215.574435 286.715899 
L 216.222448 279.590164 
L 216.870461 284.7126 
L 217.518474 288.220289 
L 218.166487 278.974524 
L 218.814501 279.786255 
L 219.462514 280.587324 
L 220.110527 284.428564 
L 220.75854 281.487 
L 221.406553 284.432715 
L 222.054566 282.305592 
L 222.702579 280.818956 
L 223.350592 282.708469 
L 223.998605 278.65273 
L 224.646618 282.708469 
L 225.294631 288.491625 
L 225.942644 286.602112 
L 226.590657 286.993443 
L 227.23867 283.23657 
L 227.886683 288.491625 
L 228.534697 288.491625 
L 229.18271 280.818956 
L 229.830723 285.828036 
L 230.478736 288.491625 
L 231.126749 280.150912 
L 231.774762 288.491625 
L 232.422775 287.603762 
L 233.070788 285.657356 
L 233.718801 281.62377 
L 234.366814 277.039099 
L 235.014827 282.765362 
L 235.66284 278.974524 
L 236.310853 288.491625 
L 236.958866 288.220289 
L 237.606879 277.039099 
L 238.254892 287.658315 
L 238.902906 286.46217 
L 239.550919 277.467192 
L 240.198932 283.726383 
L 240.846945 285.425724 
L 241.494958 286.71673 
L 242.142971 272.628792 
L 242.790984 281.62377 
L 243.438997 286.46217 
L 244.08701 288.491625 
L 244.735023 281.763712 
L 245.383036 287.658315 
L 246.031049 273.81433 
L 246.679062 280.692792 
L 247.327075 283.49113 
L 247.975088 267.10857 
L 248.623102 274.136124 
L 249.271115 280.868917 
L 249.919128 267.10857 
L 250.567141 282.305592 
L 251.215154 253.734962 
L 251.863167 265.359 
L 252.51118 278.543489 
L 253.159193 276.151236 
L 253.807206 277.467192 
L 254.455219 270.910524 
L 255.103232 255.958912 
L 255.751245 275.662383 
L 256.399258 272.20153 
L 257.047271 281.456884 
L 257.695284 280.868917 
L 258.343297 264.028289 
L 258.991311 281.487 
L 259.639324 268.866689 
L 260.287337 253.734962 
L 260.93535 262.410112 
L 261.583363 271.015992 
L 262.231376 264.967669 
L 262.879389 267.966517 
L 263.527402 268.250162 
L 264.175415 268.72137 
L 264.823428 266.046362 
L 265.471441 262.27017 
L 266.119454 258.113592 
L 266.767467 266.303756 
L 267.41548 258.167822 
L 268.063493 268.976204 
L 268.711507 265.473618 
L 269.35952 247.530255 
L 270.007533 263.88297 
L 270.655546 263.411762 
L 271.303559 255.958912 
L 271.951572 258.21126 
L 272.599585 255.796818 
L 273.247598 252.847099 
L 273.895611 269.643974 
L 274.543624 253.143962 
L 275.191637 258.113592 
L 275.83965 252.59337 
L 276.487663 249.513089 
L 277.135676 266.001887 
L 277.783689 270.312018 
L 278.431703 267.790392 
L 279.079716 247.75497 
L 279.727729 242.91657 
L 280.375742 269.367261 
L 281.023755 275.137714 
L 281.671768 268.866689 
L 282.319781 263.88297 
L 282.967794 257.327617 
L 283.615807 262.307532 
L 284.26382 259.620924 
L 284.911833 242.91657 
L 285.559846 252.59337 
L 286.207859 264.967669 
L 286.855872 270.066735 
L 287.503885 251.120512 
L 288.151898 251.470383 
L 288.799912 265.079115 
L 289.447925 268.976204 
L 290.095938 278.611625 
L 290.743951 271.984332 
L 291.391964 253.275192 
L 292.039977 248.954287 
L 292.68799 265.709225 
L 293.336003 254.782524 
L 293.984016 265.074964 
L 294.632029 267.362299 
L 295.280042 269.917515 
L 295.928055 255.398164 
L 296.576068 258.627915 
L 297.224081 270.547625 
L 297.872094 259.620924 
L 298.520108 245.721364 
L 299.168121 277.984687 
L 299.816134 271.842817 
L 300.464147 254.782524 
L 301.11216 262.166017 
L 301.760173 270.382366 
L 302.408186 273.406917 
L 303.056199 272.309805 
L 303.704212 252.59337 
L 304.352225 272.20153 
L 305.000238 262.820762 
L 305.648251 269.913364 
L 306.296264 255.551535 
L 306.944277 258.516469 
L 307.59229 263.88297 
L 308.240303 263.88297 
L 308.888317 257.164335 
L 309.53633 266.474436 
L 310.184343 248.00953 
L 310.832356 267.004417 
L 311.480369 272.628792 
L 312.128382 255.398164 
L 312.776395 254.419625 
L 313.424408 269.211183 
L 314.072421 255.398164 
L 314.720434 271.94697 
L 315.368447 260.797312 
L 316.01646 262.951992 
L 316.664473 250.559764 
L 317.312486 272.804917 
L 317.960499 257.43177 
L 318.608513 272.683022 
L 319.256526 254.782524 
L 319.904539 265.385575 
L 320.552552 270.547625 
L 321.200565 255.290869 
L 321.848578 266.941684 
L 322.496591 274.455521 
L 323.144604 259.04457 
L 323.792617 256.395324 
L 324.44063 237.273356 
L 325.088643 265.359 
L 325.736656 248.951115 
L 326.384669 259.258025 
L 327.032682 265.271055 
L 327.680695 251.959236 
L 328.328708 259.620924 
L 328.976722 262.52473 
L 329.624735 266.841135 
L 330.272748 262.820762 
L 330.920761 268.304715 
L 331.568774 277.467192 
L 332.216787 266.941684 
L 332.8648 244.674689 
L 333.512813 263.128117 
L 334.160826 256.464861 
L 334.808839 268.316687 
L 335.456852 262.801443 
L 336.104865 274.136124 
L 336.752878 263.466315 
L 337.400891 258.113592 
L 338.048904 272.309805 
L 338.696918 257.43177 
L 339.344931 266.418374 
L 339.992944 251.662392 
L 340.640957 265.635712 
L 341.28897 262.1334 
L 341.936983 259.258025 
L 342.584996 271.8102 
L 343.233009 269.917515 
L 343.881022 256.395324 
L 344.529035 266.48126 
L 345.177048 266.841135 
L 345.825061 273.705089 
L 346.473074 270.474112 
L 347.121087 248.839669 
L 347.7691 255.398164 
L 348.417114 251.788556 
L 349.065127 254.351489 
L 349.71314 253.275192 
L 350.361153 270.1974 
L 351.009166 257.43177 
L 351.657179 278.974524 
L 352.305192 264.414243 
L 352.953205 286.141193 
L 353.601218 260.129269 
L 354.249231 262.166017 
L 354.897244 249.36777 
L 355.545257 251.194025 
L 356.19327 249.62233 
L 356.841283 259.29913 
L 357.489296 263.354869 
L 358.137309 268.866689 
L 358.785323 266.831407 
L 359.433336 262.166017 
L 360.081349 240.775669 
L 360.729362 271.8102 
L 361.377375 269.53711 
L 362.025388 255.594255 
L 362.673401 262.523899 
L 363.321414 269.297724 
L 363.969427 259.29913 
L 364.61744 269.367261 
L 365.265453 255.402315 
L 365.913466 251.662392 
L 366.561479 269.913364 
L 367.209492 276.925312 
L 367.857505 256.395324 
L 368.505519 244.001269 
L 369.153532 263.04966 
L 369.801545 253.734962 
L 370.449558 251.071373 
L 371.097571 261.787241 
L 371.745584 265.074964 
L 372.393597 276.822732 
L 373.04161 273.81433 
L 373.689623 260.240715 
L 374.337636 247.530255 
L 374.985649 260.797312 
L 375.633662 262.820762 
L 376.281675 271.142156 
L 376.929688 249.581225 
L 377.577701 264.028289 
L 378.225714 273.81433 
L 378.873728 275.47373 
L 379.521741 251.788556 
L 380.169754 257.327617 
L 380.817767 261.636036 
L 381.46578 269.297724 
L 382.113793 242.282436 
L 382.761806 260.252687 
L 383.409819 242.282436 
L 384.057832 254.419625 
L 384.705845 253.734962 
L 385.353858 262.523899 
L 386.001871 247.064774 
L 386.649884 258.573362 
L 387.297897 260.870825 
L 387.94591 267.10857 
L 388.593924 261.465356 
L 389.241937 256.626956 
L 389.88995 254.20617 
L 390.537963 261.339192 
L 391.185976 244.946025 
L 391.833989 251.120512 
L 392.482002 259.461225 
L 393.130015 261.465356 
L 393.778028 254.46073 
L 394.426041 274.136124 
L 395.074054 255.398164 
L 395.722067 256.797636 
L 396.37008 265.635712 
L 397.018093 265.709225 
L 397.666106 270.823983 
L 398.314119 271.312836 
L 398.962133 261.233724 
L 399.610146 275.854392 
L 400.258159 264.028289 
L 400.906172 267.36313 
L 401.554185 269.617121 
L 402.202198 261.636036 
L 402.850211 273.146287 
L 403.498224 266.841135 
L 404.146237 258.113592 
L 404.79425 269.53711 
L 405.442263 247.6182 
L 406.090276 255.398164 
L 406.738289 273.146287 
L 407.386302 278.543489 
L 408.034315 272.20153 
L 408.682329 270.884762 
L 409.330342 282.831887 
L 409.978355 256.676917 
L 410.626368 252.847099 
L 411.274381 249.581225 
L 411.922394 276.119559 
L 412.570407 240.775669 
L 413.21842 248.896562 
L 413.866433 239.219762 
L 414.514446 234.381362 
L 415.162459 257.327617 
L 415.810472 258.631087 
L 416.458485 242.282436 
L 417.106498 249.62233 
L 417.754511 251.927559 
L 418.402524 234.324469 
L 419.050538 267.004417 
L 419.698551 257.164335 
L 420.346564 250.103822 
L 420.994577 262.523899 
L 421.64259 218.058759 
L 422.290603 254.46073 
L 422.938616 256.626956 
L 423.586629 249.899043 
L 424.234642 251.96606 
L 424.882655 251.556924 
L 425.530668 258.767407 
L 426.178681 253.329422 
L 426.826694 276.199101 
L 427.474707 249.899043 
L 428.12272 253.734962 
L 428.770734 252.733312 
L 429.418747 250.559764 
L 430.06676 232.605636 
L 430.714773 255.402315 
L 430.714773 231.264135 
L 430.714773 231.264135 
L 430.06676 208.902414 
L 429.418747 229.655486 
L 428.770734 243.609938 
L 428.12272 245.833888 
L 427.474707 227.090607 
L 426.826694 220.144149 
L 426.178681 220.434628 
L 425.530668 218.222243 
L 424.882655 235.109526 
L 424.234642 205.66999 
L 423.586629 227.090607 
L 422.938616 242.941894 
L 422.290603 222.52892 
L 421.64259 178.290891 
L 420.994577 246.721751 
L 420.346564 217.209028 
L 419.698551 219.825315 
L 419.050538 232.564433 
L 418.402524 229.762781 
L 417.754511 212.159691 
L 417.106498 217.69052 
L 416.458485 218.579214 
L 415.810472 231.260963 
L 415.162459 222.887633 
L 414.514446 226.480288 
L 413.866433 231.318688 
L 413.21842 240.995488 
L 412.570407 236.213981 
L 411.922394 236.351691 
L 411.274381 224.182825 
L 410.626368 237.044951 
L 409.978355 226.763933 
L 409.330342 239.316163 
L 408.682329 231.909688 
L 408.034315 240.26972 
L 407.386302 250.055761 
L 406.738289 245.776163 
L 406.090276 234.493886 
L 405.442263 229.37145 
L 404.79425 230.03174 
L 404.146237 238.229658 
L 403.498224 229.502115 
L 402.850211 245.776163 
L 402.202198 237.932814 
L 401.554185 220.274929 
L 400.906172 235.43132 
L 400.258159 235.540561 
L 399.610146 255.970458 
L 398.962133 244.786326 
L 398.314119 247.609614 
L 397.666106 235.196067 
L 397.018093 240.310825 
L 396.37008 256.512338 
L 395.722067 233.094414 
L 395.074054 234.493886 
L 394.426041 257.688726 
L 393.778028 222.52892 
L 393.130015 247.780294 
L 392.482002 259.461225 
L 391.833989 241.997138 
L 391.185976 244.946025 
L 390.537963 241.455258 
L 389.88995 242.13708 
L 389.241937 242.941894 
L 388.593924 247.780294 
L 387.94591 255.03948 
L 387.297897 235.472425 
L 386.649884 250.672288 
L 386.001871 210.571276 
L 385.353858 246.721751 
L 384.705845 245.833888 
L 384.057832 229.021225 
L 383.409819 218.579214 
L 382.761806 216.736963 
L 382.113793 218.579214 
L 381.46578 252.850326 
L 380.817767 237.932814 
L 380.169754 222.887633 
L 379.521741 238.103494 
L 378.873728 230.54632 
L 378.225714 241.88252 
L 377.577701 235.540561 
L 376.929688 224.182825 
L 376.281675 257.457094 
L 375.633662 223.845688 
L 374.985649 251.673938 
L 374.337636 219.782595 
L 373.689623 236.102535 
L 373.04161 241.88252 
L 372.393597 229.197318 
L 371.745584 244.170686 
L 371.097571 199.074409 
L 370.449558 219.467077 
L 369.801545 245.833888 
L 369.153532 226.84239 
L 368.505519 239.439581 
L 367.857505 239.947926 
L 367.209492 267.801938 
L 366.561479 249.009086 
L 365.913466 231.778458 
L 365.265453 231.264135 
L 364.61744 223.750389 
L 363.969427 227.36732 
L 363.321414 252.850326 
L 362.673401 246.721751 
L 362.025388 227.846595 
L 361.377375 230.03174 
L 360.729362 253.56345 
L 360.081349 236.213981 
L 359.433336 227.726033 
L 358.785323 226.286243 
L 358.137309 240.378961 
L 357.489296 258.793181 
L 356.841283 227.36732 
L 356.19327 217.69052 
L 355.545257 225.795625 
L 354.897244 237.29868 
L 354.249231 227.726033 
L 353.601218 255.567581 
L 352.953205 219.878857 
L 352.305192 241.605807 
L 351.657179 262.527126 
L 351.009166 245.36268 
L 350.361153 251.95065 
L 349.71314 233.391258 
L 349.065127 225.863761 
L 348.417114 238.103494 
L 347.7691 234.493886 
L 347.121087 244.277981 
L 346.473074 261.350738 
L 345.825061 245.217361 
L 345.177048 229.502115 
L 344.529035 220.18519 
L 343.881022 239.947926 
L 343.233009 245.779335 
L 342.584996 253.56345 
L 341.936983 233.859625 
L 341.28897 243.88665 
L 340.640957 256.512338 
L 339.992944 231.778458 
L 339.344931 229.924876 
L 338.696918 245.36268 
L 338.048904 224.033445 
L 337.400891 238.229658 
L 336.752878 239.328135 
L 336.104865 257.688726 
L 335.456852 239.993007 
L 334.808839 224.800963 
L 334.160826 210.847989 
L 333.512813 233.215133 
L 332.8648 216.186961 
L 332.216787 222.950366 
L 331.568774 257.583258 
L 330.920761 244.166535 
L 330.272748 223.845688 
L 329.624735 229.502115 
L 328.976722 230.59292 
L 328.328708 243.173526 
L 327.680695 228.256014 
L 327.032682 237.523395 
L 326.384669 233.859625 
L 325.736656 224.812935 
L 325.088643 247.11225 
L 324.44063 223.588294 
L 323.792617 239.947926 
L 323.144604 246.97548 
L 322.496591 225.113329 
L 321.848578 222.950366 
L 321.200565 250.729181 
L 320.552552 245.149225 
L 319.904539 211.604075 
L 319.256526 238.335126 
L 318.608513 239.788228 
L 317.960499 245.36268 
L 317.312486 242.891933 
L 316.664473 229.655486 
L 316.01646 243.068058 
L 315.368447 251.673938 
L 314.720434 259.87788 
L 314.072421 234.493886 
L 313.424408 233.583267 
L 312.776395 229.021225 
L 312.128382 234.493886 
L 311.480369 252.744858 
L 310.832356 232.564433 
L 310.184343 216.07772 
L 309.53633 242.771214 
L 308.888317 219.825315 
L 308.240303 251.81388 
L 307.59229 251.81388 
L 306.944277 253.954781 
L 306.296264 218.212515 
L 305.648251 249.009086 
L 305.000238 223.845688 
L 304.352225 240.26972 
L 303.704212 240.52428 
L 303.056199 224.033445 
L 302.408186 210.033933 
L 301.760173 200.156084 
L 301.11216 227.726033 
L 300.464147 238.335126 
L 299.816134 237.402833 
L 299.168121 250.614563 
L 298.520108 224.817086 
L 297.872094 243.173526 
L 297.224081 245.149225 
L 296.576068 234.489735 
L 295.928055 234.493886 
L 295.280042 245.779335 
L 294.632029 251.560151 
L 293.984016 244.170686 
L 293.336003 238.335126 
L 292.68799 240.310825 
L 292.039977 221.584163 
L 291.391964 233.391258 
L 290.743951 224.358918 
L 290.095938 253.213225 
L 289.447925 220.915846 
L 288.799912 240.940935 
L 288.151898 215.842467 
L 287.503885 241.997138 
L 286.855872 232.727715 
L 286.207859 260.405981 
L 285.559846 240.52428 
L 284.911833 230.84748 
L 284.26382 243.173526 
L 283.615807 214.682118 
L 282.967794 222.887633 
L 282.319781 251.81388 
L 281.671768 240.378961 
L 281.023755 217.979936 
L 280.375742 223.750389 
L 279.727729 230.84748 
L 279.079716 235.68588 
L 278.431703 247.906458 
L 277.783689 229.256832 
L 277.135676 207.762163 
L 276.487663 221.025361 
L 275.83965 240.52428 
L 275.191637 238.229658 
L 274.543624 214.168888 
L 273.895611 233.150476 
L 273.247598 237.044951 
L 272.599585 214.741632 
L 271.951572 222.00399 
L 271.303559 246.835538 
L 270.655546 255.510688 
L 270.007533 251.81388 
L 269.35952 219.782595 
L 268.711507 224.418432 
L 268.063493 220.915846 
L 267.41548 225.273028 
L 266.767467 252.618694 
L 266.119454 238.229658 
L 265.471441 250.20108 
L 264.823428 227.071288 
L 264.175415 256.65228 
L 263.527402 260.349088 
L 262.879389 238.053533 
L 262.231376 260.405981 
L 261.583363 251.132058 
L 260.93535 253.286738 
L 260.287337 245.833888 
L 259.639324 240.378961 
L 258.991311 263.24025 
L 258.343297 235.540561 
L 257.695284 250.955933 
L 257.047271 237.465566 
L 256.399258 240.26972 
L 255.751245 240.034467 
L 255.103232 246.835538 
L 254.455219 254.463126 
L 253.807206 257.583258 
L 253.159193 252.448014 
L 252.51118 250.055761 
L 251.863167 247.11225 
L 251.215154 245.833888 
L 250.567141 262.421658 
L 249.919128 255.03948 
L 249.271115 250.955933 
L 248.623102 257.688726 
L 247.975088 255.03948 
L 247.327075 251.55932 
L 246.679062 260.808858 
L 246.031049 241.88252 
L 245.383036 263.520135 
L 244.735023 272.640338 
L 244.08701 236.645866 
L 243.438997 274.39308 
L 242.790984 269.55468 
L 242.142971 252.744858 
L 241.494958 254.78492 
L 240.846945 268.978326 
L 240.198932 248.098467 
L 239.550919 257.583258 
L 238.902906 274.39308 
L 238.254892 263.520135 
L 237.606879 261.236951 
L 236.958866 259.732561 
L 236.310853 244.716789 
L 235.66284 262.527126 
L 235.014827 274.864288 
L 234.366814 261.236951 
L 233.718801 269.55468 
L 233.070788 271.972294 
L 232.422775 279.702688 
L 231.774762 264.502825 
L 231.126749 271.027538 
L 230.478736 268.362686 
L 229.830723 262.124814 
L 229.18271 267.133894 
L 228.534697 264.502825 
L 227.886683 265.129763 
L 227.23867 271.16748 
L 226.590657 264.185007 
L 225.942644 277.478738 
L 225.294631 252.504076 
L 224.646618 278.146781 
L 223.998605 246.72092 
L 223.350592 278.146781 
L 222.702579 267.133894 
L 222.054566 262.421658 
L 221.406553 260.294535 
L 220.75854 263.24025 
L 220.110527 263.524286 
L 219.462514 264.139926 
L 218.814501 252.038595 
L 218.166487 262.527126 
L 217.518474 259.732561 
L 216.870461 266.46585 
L 216.222448 258.685886 
L 215.574435 270.913751 
L 214.926422 261.62745 
L 214.278409 267.365526 
L 213.630396 274.39308 
L 212.982383 278.814825 
L 212.33437 267.260058 
L 211.686357 267.365526 
L 211.038344 260.294535 
L 210.390331 264.185007 
L 209.742318 242.414243 
L 209.094305 259.732561 
L 208.446292 274.864288 
L 207.798278 248.610432 
L 207.150265 271.16748 
L 206.502252 260.808858 
L 205.854239 248.098467 
L 205.206226 272.203926 
L 204.558213 252.448014 
L 203.9102 260.294535 
L 203.262187 272.203926 
L 202.614174 265.129763 
L 201.966161 266.075351 
L 201.318148 279.702688 
L 200.670135 271.972294 
L 200.022122 274.39308 
L 199.374109 249.465028 
L 198.726096 247.252643 
L 198.078082 251.918033 
L 197.430069 271.972294 
L 196.782056 271.972294 
L 196.134043 241.190091 
L 195.48603 267.260058 
L 194.838017 280.704338 
L 194.190004 255.452963 
L 193.541991 260.808858 
L 192.893978 266.189138 
L 192.245965 270.025888 
L 191.597952 257.583258 
L 190.949939 258.685886 
L 190.301926 271.027538 
L 189.653913 267.260058 
L 189.0059 256.121007 
L 188.357886 256.876995 
L 187.709873 271.972294 
L 187.06186 274.864288 
L 186.413847 263.524286 
L 185.765834 255.794333 
L 185.117821 252.448014 
L 184.469808 266.075351 
L 183.821795 264.139926 
L 183.173782 264.139926 
L 182.525769 262.421658 
L 181.877756 277.478738 
L 181.229743 280.704338 
L 180.58173 278.814825 
L 179.933717 279.759581 
L 179.285704 266.32908 
L 178.637691 274.864288 
L 177.989677 263.24025 
L 177.341664 271.16748 
L 176.693651 279.759581 
L 176.045638 254.78492 
L 175.397625 274.39308 
L 174.749612 276.00588 
L 174.101599 265.187488 
L 173.453586 275.865938 
L 172.805573 278.814825 
L 172.15756 268.362686 
L 171.509547 282.985181 
L 170.861534 278.146781 
L 170.213521 267.365526 
L 169.565508 276.00588 
L 168.917495 277.478738 
L 168.269481 278.146781 
L 167.621468 282.985181 
L 166.973455 278.146781 
L 166.325442 282.985181 
L 165.677429 284.597981 
L 165.029416 280.704338 
L 164.381403 282.985181 
L 163.73339 282.985181 
L 163.085377 280.704338 
L 162.437364 279.702688 
L 161.789351 279.702688 
L 161.141338 278.146781 
L 160.493325 264.185007 
L 159.845312 282.985181 
L 159.197299 284.597981 
L 158.549286 282.985181 
L 157.901272 279.702688 
L 157.253259 284.597981 
L 156.605246 279.702688 
L 155.957233 266.46585 
L 155.30922 274.39308 
L 154.661207 274.39308 
L 154.013194 259.732561 
L 153.365181 261.23612 
L 152.717168 272.91705 
L 152.069155 265.129763 
L 151.421142 268.978326 
L 150.773129 284.597981 
L 150.125116 284.597981 
L 149.477103 288.491625 
L 148.82909 282.985181 
L 148.181076 274.864288 
L 147.533063 275.865938 
L 146.88505 280.704338 
L 146.237037 276.810694 
L 145.589024 259.732561 
L 144.941011 280.704338 
L 144.292998 282.985181 
L 143.644985 276.810694 
L 142.996972 280.704338 
L 142.348959 279.702688 
L 141.700946 272.91705 
L 141.052933 276.810694 
L 140.40492 271.16748 
L 139.756907 276.810694 
L 139.108894 269.023407 
L 138.460881 271.16748 
L 137.812867 275.865938 
L 137.164854 288.491625 
L 136.516841 284.597981 
L 135.868828 284.597981 
L 135.220815 277.478738 
L 134.572802 282.985181 
L 133.924789 276.810694 
L 133.276776 279.702688 
L 132.628763 274.864288 
L 131.98075 279.702688 
L 131.332737 276.810694 
L 130.684724 279.702688 
L 130.036711 280.704338 
L 129.388698 284.597981 
L 128.740685 280.704338 
L 128.092671 276.810694 
L 127.444658 282.985181 
L 126.796645 280.704338 
L 126.148632 284.597981 
L 125.500619 280.704338 
L 124.852606 288.491625 
L 124.204593 284.597981 
L 123.55658 288.491625 
L 122.908567 284.597981 
L 122.260554 288.491625 
L 121.612541 288.491625 
L 120.964528 288.491625 
L 120.316515 288.491625 
L 119.668502 284.597981 
L 119.020489 288.491625 
L 118.372476 288.491625 
L 117.724462 288.491625 
L 117.076449 288.491625 
L 116.428436 288.491625 
L 115.780423 288.491625 
L 115.13241 288.491625 
L 114.484397 288.491625 
L 113.836384 288.491625 
L 113.188371 288.491625 
L 112.540358 288.491625 
L 111.892345 288.491625 
L 111.244332 288.491625 
L 110.596319 288.491625 
L 109.948306 288.491625 
L 109.300293 288.491625 
L 108.65228 288.491625 
L 108.004266 288.491625 
L 107.356253 288.491625 
L 106.70824 288.491625 
L 106.060227 246.338179 
z
" clip-path="url(#peda0366979)" style="fill: #2ca02c; fill-opacity: 0.3"/>
   </g>
   <g id="matplotlib.axis_1">
    <g id="xtick_1">
     <g id="line2d_1">
      <defs>
       <path id="m7f1864f1f6" d="M 0 0 
L 0 3.5 
" style="stroke: #000000; stroke-width: 0.8"/>
      </defs>
      <g>
       <use xlink:href="#m7f1864f1f6" x="106.060227" y="300.587625" style="stroke: #000000; stroke-width: 0.8"/>
      </g>
     </g>
     <g id="text_1">
      <!-- 0 -->
      <g transform="translate(97.152727 328.86325) scale(0.28 -0.28)">
       <defs>
        <path id="DejaVuSans-30" d="M 2034 4250 
Q 1547 4250 1301 3770 
Q 1056 3291 1056 2328 
Q 1056 1369 1301 889 
Q 1547 409 2034 409 
Q 2525 409 2770 889 
Q 3016 1369 3016 2328 
Q 3016 3291 2770 3770 
Q 2525 4250 2034 4250 
z
M 2034 4750 
Q 2819 4750 3233 4129 
Q 3647 3509 3647 2328 
Q 3647 1150 3233 529 
Q 2819 -91 2034 -91 
Q 1250 -91 836 529 
Q 422 1150 422 2328 
Q 422 3509 836 4129 
Q 1250 4750 2034 4750 
z
" transform="scale(0.015625)"/>
       </defs>
       <use xlink:href="#DejaVuSans-30"/>
      </g>
     </g>
    </g>
    <g id="xtick_2">
     <g id="line2d_2">
      <g>
       <use xlink:href="#m7f1864f1f6" x="235.66284" y="300.587625" style="stroke: #000000; stroke-width: 0.8"/>
      </g>
     </g>
     <g id="text_2">
      <!-- 2000 -->
      <g transform="translate(200.03284 328.86325) scale(0.28 -0.28)">
       <defs>
        <path id="DejaVuSans-32" d="M 1228 531 
L 3431 531 
L 3431 0 
L 469 0 
L 469 531 
Q 828 903 1448 1529 
Q 2069 2156 2228 2338 
Q 2531 2678 2651 2914 
Q 2772 3150 2772 3378 
Q 2772 3750 2511 3984 
Q 2250 4219 1831 4219 
Q 1534 4219 1204 4116 
Q 875 4013 500 3803 
L 500 4441 
Q 881 4594 1212 4672 
Q 1544 4750 1819 4750 
Q 2544 4750 2975 4387 
Q 3406 4025 3406 3419 
Q 3406 3131 3298 2873 
Q 3191 2616 2906 2266 
Q 2828 2175 2409 1742 
Q 1991 1309 1228 531 
z
" transform="scale(0.015625)"/>
       </defs>
       <use xlink:href="#DejaVuSans-32"/>
       <use xlink:href="#DejaVuSans-30" x="63.623047"/>
       <use xlink:href="#DejaVuSans-30" x="127.246094"/>
       <use xlink:href="#DejaVuSans-30" x="190.869141"/>
      </g>
     </g>
    </g>
    <g id="xtick_3">
     <g id="line2d_3">
      <g>
       <use xlink:href="#m7f1864f1f6" x="365.265453" y="300.587625" style="stroke: #000000; stroke-width: 0.8"/>
      </g>
     </g>
     <g id="text_3">
      <!-- 4000 -->
      <g transform="translate(329.635453 328.86325) scale(0.28 -0.28)">
       <defs>
        <path id="DejaVuSans-34" d="M 2419 4116 
L 825 1625 
L 2419 1625 
L 2419 4116 
z
M 2253 4666 
L 3047 4666 
L 3047 1625 
L 3713 1625 
L 3713 1100 
L 3047 1100 
L 3047 0 
L 2419 0 
L 2419 1100 
L 313 1100 
L 313 1709 
L 2253 4666 
z
" transform="scale(0.015625)"/>
       </defs>
       <use xlink:href="#DejaVuSans-34"/>
       <use xlink:href="#DejaVuSans-30" x="63.623047"/>
       <use xlink:href="#DejaVuSans-30" x="127.246094"/>
       <use xlink:href="#DejaVuSans-30" x="190.869141"/>
      </g>
     </g>
    </g>
    <g id="text_4">
     <!-- Sampled Trajectories -->
     <g transform="translate(121.925625 359.962) scale(0.28 -0.28)">
      <defs>
       <path id="DejaVuSans-53" d="M 3425 4513 
L 3425 3897 
Q 3066 4069 2747 4153 
Q 2428 4238 2131 4238 
Q 1616 4238 1336 4038 
Q 1056 3838 1056 3469 
Q 1056 3159 1242 3001 
Q 1428 2844 1947 2747 
L 2328 2669 
Q 3034 2534 3370 2195 
Q 3706 1856 3706 1288 
Q 3706 609 3251 259 
Q 2797 -91 1919 -91 
Q 1588 -91 1214 -16 
Q 841 59 441 206 
L 441 856 
Q 825 641 1194 531 
Q 1563 422 1919 422 
Q 2459 422 2753 634 
Q 3047 847 3047 1241 
Q 3047 1584 2836 1778 
Q 2625 1972 2144 2069 
L 1759 2144 
Q 1053 2284 737 2584 
Q 422 2884 422 3419 
Q 422 4038 858 4394 
Q 1294 4750 2059 4750 
Q 2388 4750 2728 4690 
Q 3069 4631 3425 4513 
z
" transform="scale(0.015625)"/>
       <path id="DejaVuSans-61" d="M 2194 1759 
Q 1497 1759 1228 1600 
Q 959 1441 959 1056 
Q 959 750 1161 570 
Q 1363 391 1709 391 
Q 2188 391 2477 730 
Q 2766 1069 2766 1631 
L 2766 1759 
L 2194 1759 
z
M 3341 1997 
L 3341 0 
L 2766 0 
L 2766 531 
Q 2569 213 2275 61 
Q 1981 -91 1556 -91 
Q 1019 -91 701 211 
Q 384 513 384 1019 
Q 384 1609 779 1909 
Q 1175 2209 1959 2209 
L 2766 2209 
L 2766 2266 
Q 2766 2663 2505 2880 
Q 2244 3097 1772 3097 
Q 1472 3097 1187 3025 
Q 903 2953 641 2809 
L 641 3341 
Q 956 3463 1253 3523 
Q 1550 3584 1831 3584 
Q 2591 3584 2966 3190 
Q 3341 2797 3341 1997 
z
" transform="scale(0.015625)"/>
       <path id="DejaVuSans-6d" d="M 3328 2828 
Q 3544 3216 3844 3400 
Q 4144 3584 4550 3584 
Q 5097 3584 5394 3201 
Q 5691 2819 5691 2113 
L 5691 0 
L 5113 0 
L 5113 2094 
Q 5113 2597 4934 2840 
Q 4756 3084 4391 3084 
Q 3944 3084 3684 2787 
Q 3425 2491 3425 1978 
L 3425 0 
L 2847 0 
L 2847 2094 
Q 2847 2600 2669 2842 
Q 2491 3084 2119 3084 
Q 1678 3084 1418 2786 
Q 1159 2488 1159 1978 
L 1159 0 
L 581 0 
L 581 3500 
L 1159 3500 
L 1159 2956 
Q 1356 3278 1631 3431 
Q 1906 3584 2284 3584 
Q 2666 3584 2933 3390 
Q 3200 3197 3328 2828 
z
" transform="scale(0.015625)"/>
       <path id="DejaVuSans-70" d="M 1159 525 
L 1159 -1331 
L 581 -1331 
L 581 3500 
L 1159 3500 
L 1159 2969 
Q 1341 3281 1617 3432 
Q 1894 3584 2278 3584 
Q 2916 3584 3314 3078 
Q 3713 2572 3713 1747 
Q 3713 922 3314 415 
Q 2916 -91 2278 -91 
Q 1894 -91 1617 61 
Q 1341 213 1159 525 
z
M 3116 1747 
Q 3116 2381 2855 2742 
Q 2594 3103 2138 3103 
Q 1681 3103 1420 2742 
Q 1159 2381 1159 1747 
Q 1159 1113 1420 752 
Q 1681 391 2138 391 
Q 2594 391 2855 752 
Q 3116 1113 3116 1747 
z
" transform="scale(0.015625)"/>
       <path id="DejaVuSans-6c" d="M 603 4863 
L 1178 4863 
L 1178 0 
L 603 0 
L 603 4863 
z
" transform="scale(0.015625)"/>
       <path id="DejaVuSans-65" d="M 3597 1894 
L 3597 1613 
L 953 1613 
Q 991 1019 1311 708 
Q 1631 397 2203 397 
Q 2534 397 2845 478 
Q 3156 559 3463 722 
L 3463 178 
Q 3153 47 2828 -22 
Q 2503 -91 2169 -91 
Q 1331 -91 842 396 
Q 353 884 353 1716 
Q 353 2575 817 3079 
Q 1281 3584 2069 3584 
Q 2775 3584 3186 3129 
Q 3597 2675 3597 1894 
z
M 3022 2063 
Q 3016 2534 2758 2815 
Q 2500 3097 2075 3097 
Q 1594 3097 1305 2825 
Q 1016 2553 972 2059 
L 3022 2063 
z
" transform="scale(0.015625)"/>
       <path id="DejaVuSans-64" d="M 2906 2969 
L 2906 4863 
L 3481 4863 
L 3481 0 
L 2906 0 
L 2906 525 
Q 2725 213 2448 61 
Q 2172 -91 1784 -91 
Q 1150 -91 751 415 
Q 353 922 353 1747 
Q 353 2572 751 3078 
Q 1150 3584 1784 3584 
Q 2172 3584 2448 3432 
Q 2725 3281 2906 2969 
z
M 947 1747 
Q 947 1113 1208 752 
Q 1469 391 1925 391 
Q 2381 391 2643 752 
Q 2906 1113 2906 1747 
Q 2906 2381 2643 2742 
Q 2381 3103 1925 3103 
Q 1469 3103 1208 2742 
Q 947 2381 947 1747 
z
" transform="scale(0.015625)"/>
       <path id="DejaVuSans-20" transform="scale(0.015625)"/>
       <path id="DejaVuSans-54" d="M -19 4666 
L 3928 4666 
L 3928 4134 
L 2272 4134 
L 2272 0 
L 1638 0 
L 1638 4134 
L -19 4134 
L -19 4666 
z
" transform="scale(0.015625)"/>
       <path id="DejaVuSans-72" d="M 2631 2963 
Q 2534 3019 2420 3045 
Q 2306 3072 2169 3072 
Q 1681 3072 1420 2755 
Q 1159 2438 1159 1844 
L 1159 0 
L 581 0 
L 581 3500 
L 1159 3500 
L 1159 2956 
Q 1341 3275 1631 3429 
Q 1922 3584 2338 3584 
Q 2397 3584 2469 3576 
Q 2541 3569 2628 3553 
L 2631 2963 
z
" transform="scale(0.015625)"/>
       <path id="DejaVuSans-6a" d="M 603 3500 
L 1178 3500 
L 1178 -63 
Q 1178 -731 923 -1031 
Q 669 -1331 103 -1331 
L -116 -1331 
L -116 -844 
L 38 -844 
Q 366 -844 484 -692 
Q 603 -541 603 -63 
L 603 3500 
z
M 603 4863 
L 1178 4863 
L 1178 4134 
L 603 4134 
L 603 4863 
z
" transform="scale(0.015625)"/>
       <path id="DejaVuSans-63" d="M 3122 3366 
L 3122 2828 
Q 2878 2963 2633 3030 
Q 2388 3097 2138 3097 
Q 1578 3097 1268 2742 
Q 959 2388 959 1747 
Q 959 1106 1268 751 
Q 1578 397 2138 397 
Q 2388 397 2633 464 
Q 2878 531 3122 666 
L 3122 134 
Q 2881 22 2623 -34 
Q 2366 -91 2075 -91 
Q 1284 -91 818 406 
Q 353 903 353 1747 
Q 353 2603 823 3093 
Q 1294 3584 2113 3584 
Q 2378 3584 2631 3529 
Q 2884 3475 3122 3366 
z
" transform="scale(0.015625)"/>
       <path id="DejaVuSans-74" d="M 1172 4494 
L 1172 3500 
L 2356 3500 
L 2356 3053 
L 1172 3053 
L 1172 1153 
Q 1172 725 1289 603 
Q 1406 481 1766 481 
L 2356 481 
L 2356 0 
L 1766 0 
Q 1100 0 847 248 
Q 594 497 594 1153 
L 594 3053 
L 172 3053 
L 172 3500 
L 594 3500 
L 594 4494 
L 1172 4494 
z
" transform="scale(0.015625)"/>
       <path id="DejaVuSans-6f" d="M 1959 3097 
Q 1497 3097 1228 2736 
Q 959 2375 959 1747 
Q 959 1119 1226 758 
Q 1494 397 1959 397 
Q 2419 397 2687 759 
Q 2956 1122 2956 1747 
Q 2956 2369 2687 2733 
Q 2419 3097 1959 3097 
z
M 1959 3584 
Q 2709 3584 3137 3096 
Q 3566 2609 3566 1747 
Q 3566 888 3137 398 
Q 2709 -91 1959 -91 
Q 1206 -91 779 398 
Q 353 888 353 1747 
Q 353 2609 779 3096 
Q 1206 3584 1959 3584 
z
" transform="scale(0.015625)"/>
       <path id="DejaVuSans-69" d="M 603 3500 
L 1178 3500 
L 1178 0 
L 603 0 
L 603 3500 
z
M 603 4863 
L 1178 4863 
L 1178 4134 
L 603 4134 
L 603 4863 
z
" transform="scale(0.015625)"/>
       <path id="DejaVuSans-73" d="M 2834 3397 
L 2834 2853 
Q 2591 2978 2328 3040 
Q 2066 3103 1784 3103 
Q 1356 3103 1142 2972 
Q 928 2841 928 2578 
Q 928 2378 1081 2264 
Q 1234 2150 1697 2047 
L 1894 2003 
Q 2506 1872 2764 1633 
Q 3022 1394 3022 966 
Q 3022 478 2636 193 
Q 2250 -91 1575 -91 
Q 1294 -91 989 -36 
Q 684 19 347 128 
L 347 722 
Q 666 556 975 473 
Q 1284 391 1588 391 
Q 1994 391 2212 530 
Q 2431 669 2431 922 
Q 2431 1156 2273 1281 
Q 2116 1406 1581 1522 
L 1381 1569 
Q 847 1681 609 1914 
Q 372 2147 372 2553 
Q 372 3047 722 3315 
Q 1072 3584 1716 3584 
Q 2034 3584 2315 3537 
Q 2597 3491 2834 3397 
z
" transform="scale(0.015625)"/>
      </defs>
      <use xlink:href="#DejaVuSans-53"/>
      <use xlink:href="#DejaVuSans-61" x="63.476562"/>
      <use xlink:href="#DejaVuSans-6d" x="124.755859"/>
      <use xlink:href="#DejaVuSans-70" x="222.167969"/>
      <use xlink:href="#DejaVuSans-6c" x="285.644531"/>
      <use xlink:href="#DejaVuSans-65" x="313.427734"/>
      <use xlink:href="#DejaVuSans-64" x="374.951172"/>
      <use xlink:href="#DejaVuSans-20" x="438.427734"/>
      <use xlink:href="#DejaVuSans-54" x="470.214844"/>
      <use xlink:href="#DejaVuSans-72" x="516.548828"/>
      <use xlink:href="#DejaVuSans-61" x="557.662109"/>
      <use xlink:href="#DejaVuSans-6a" x="618.941406"/>
      <use xlink:href="#DejaVuSans-65" x="646.724609"/>
      <use xlink:href="#DejaVuSans-63" x="708.248047"/>
      <use xlink:href="#DejaVuSans-74" x="763.228516"/>
      <use xlink:href="#DejaVuSans-6f" x="802.4375"/>
      <use xlink:href="#DejaVuSans-72" x="863.619141"/>
      <use xlink:href="#DejaVuSans-69" x="904.732422"/>
      <use xlink:href="#DejaVuSans-65" x="932.515625"/>
      <use xlink:href="#DejaVuSans-73" x="994.039062"/>
     </g>
    </g>
   </g>
   <g id="matplotlib.axis_2">
    <g id="ytick_1">
     <g id="line2d_4">
      <defs>
       <path id="m206ca7ef15" d="M 0 0 
L -3.5 0 
" style="stroke: #000000; stroke-width: 0.8"/>
      </defs>
      <g>
       <use xlink:href="#m206ca7ef15" x="89.8275" y="288.491625" style="stroke: #000000; stroke-width: 0.8"/>
      </g>
     </g>
     <g id="text_5">
      <!-- 0.0 -->
      <g transform="translate(38.29875 299.129437) scale(0.28 -0.28)">
       <defs>
        <path id="DejaVuSans-2e" d="M 684 794 
L 1344 794 
L 1344 0 
L 684 0 
L 684 794 
z
" transform="scale(0.015625)"/>
       </defs>
       <use xlink:href="#DejaVuSans-30"/>
       <use xlink:href="#DejaVuSans-2e" x="63.623047"/>
       <use xlink:href="#DejaVuSans-30" x="95.410156"/>
      </g>
     </g>
    </g>
    <g id="ytick_2">
     <g id="line2d_5">
      <g>
       <use xlink:href="#m206ca7ef15" x="89.8275" y="167.531625" style="stroke: #000000; stroke-width: 0.8"/>
      </g>
     </g>
     <g id="text_6">
      <!-- 0.5 -->
      <g transform="translate(38.29875 178.169437) scale(0.28 -0.28)">
       <defs>
        <path id="DejaVuSans-35" d="M 691 4666 
L 3169 4666 
L 3169 4134 
L 1269 4134 
L 1269 2991 
Q 1406 3038 1543 3061 
Q 1681 3084 1819 3084 
Q 2600 3084 3056 2656 
Q 3513 2228 3513 1497 
Q 3513 744 3044 326 
Q 2575 -91 1722 -91 
Q 1428 -91 1123 -41 
Q 819 9 494 109 
L 494 744 
Q 775 591 1075 516 
Q 1375 441 1709 441 
Q 2250 441 2565 725 
Q 2881 1009 2881 1497 
Q 2881 1984 2565 2268 
Q 2250 2553 1709 2553 
Q 1456 2553 1204 2497 
Q 953 2441 691 2322 
L 691 4666 
z
" transform="scale(0.015625)"/>
       </defs>
       <use xlink:href="#DejaVuSans-30"/>
       <use xlink:href="#DejaVuSans-2e" x="63.623047"/>
       <use xlink:href="#DejaVuSans-35" x="95.410156"/>
      </g>
     </g>
    </g>
    <g id="ytick_3">
     <g id="line2d_6">
      <g>
       <use xlink:href="#m206ca7ef15" x="89.8275" y="46.571625" style="stroke: #000000; stroke-width: 0.8"/>
      </g>
     </g>
     <g id="text_7">
      <!-- 1.0 -->
      <g transform="translate(38.29875 57.209437) scale(0.28 -0.28)">
       <defs>
        <path id="DejaVuSans-31" d="M 794 531 
L 1825 531 
L 1825 4091 
L 703 3866 
L 703 4441 
L 1819 4666 
L 2450 4666 
L 2450 531 
L 3481 531 
L 3481 0 
L 794 0 
L 794 531 
z
" transform="scale(0.015625)"/>
       </defs>
       <use xlink:href="#DejaVuSans-31"/>
       <use xlink:href="#DejaVuSans-2e" x="63.623047"/>
       <use xlink:href="#DejaVuSans-30" x="95.410156"/>
      </g>
     </g>
    </g>
    <g id="text_8">
     <!-- Success Rate -->
     <g transform="translate(28.475625 260.432562) rotate(-90) scale(0.28 -0.28)">
      <defs>
       <path id="DejaVuSans-75" d="M 544 1381 
L 544 3500 
L 1119 3500 
L 1119 1403 
Q 1119 906 1312 657 
Q 1506 409 1894 409 
Q 2359 409 2629 706 
Q 2900 1003 2900 1516 
L 2900 3500 
L 3475 3500 
L 3475 0 
L 2900 0 
L 2900 538 
Q 2691 219 2414 64 
Q 2138 -91 1772 -91 
Q 1169 -91 856 284 
Q 544 659 544 1381 
z
M 1991 3584 
L 1991 3584 
z
" transform="scale(0.015625)"/>
       <path id="DejaVuSans-52" d="M 2841 2188 
Q 3044 2119 3236 1894 
Q 3428 1669 3622 1275 
L 4263 0 
L 3584 0 
L 2988 1197 
Q 2756 1666 2539 1819 
Q 2322 1972 1947 1972 
L 1259 1972 
L 1259 0 
L 628 0 
L 628 4666 
L 2053 4666 
Q 2853 4666 3247 4331 
Q 3641 3997 3641 3322 
Q 3641 2881 3436 2590 
Q 3231 2300 2841 2188 
z
M 1259 4147 
L 1259 2491 
L 2053 2491 
Q 2509 2491 2742 2702 
Q 2975 2913 2975 3322 
Q 2975 3731 2742 3939 
Q 2509 4147 2053 4147 
L 1259 4147 
z
" transform="scale(0.015625)"/>
      </defs>
      <use xlink:href="#DejaVuSans-53"/>
      <use xlink:href="#DejaVuSans-75" x="63.476562"/>
      <use xlink:href="#DejaVuSans-63" x="126.855469"/>
      <use xlink:href="#DejaVuSans-63" x="181.835938"/>
      <use xlink:href="#DejaVuSans-65" x="236.816406"/>
      <use xlink:href="#DejaVuSans-73" x="298.339844"/>
      <use xlink:href="#DejaVuSans-73" x="350.439453"/>
      <use xlink:href="#DejaVuSans-20" x="402.539062"/>
      <use xlink:href="#DejaVuSans-52" x="434.326172"/>
      <use xlink:href="#DejaVuSans-61" x="501.558594"/>
      <use xlink:href="#DejaVuSans-74" x="562.837891"/>
      <use xlink:href="#DejaVuSans-65" x="602.046875"/>
     </g>
    </g>
   </g>
   <g id="line2d_7">
    <path d="M 106.060227 288.491625 
L 112.540358 264.299625 
L 119.020489 159.467618 
L 125.500619 127.21162 
L 131.98075 115.115617 
L 138.460881 98.987618 
L 144.941011 115.115617 
L 151.421142 94.955622 
L 157.901272 90.923626 
L 164.381403 66.73162 
L 170.861534 66.73162 
" clip-path="url(#peda0366979)" style="fill: none; stroke: #1f77b4; stroke-width: 1.5; stroke-linecap: square"/>
   </g>
   <g id="line2d_8">
    <path d="M 106.060227 265.106025 
L 112.540358 288.491625 
L 119.020489 288.491625 
L 125.500619 288.491625 
L 131.98075 272.363625 
L 138.460881 288.491625 
L 144.941011 283.653225 
L 151.421142 280.427625 
L 157.901272 277.202025 
L 164.381403 282.040425 
L 170.861534 288.491625 
L 177.341664 288.491625 
L 183.821795 288.491625 
L 190.301926 288.491625 
L 196.782056 280.427625 
L 203.262187 288.491625 
L 209.742318 288.491625 
L 216.222448 288.491625 
L 222.702579 288.491625 
L 229.18271 288.491625 
L 235.66284 288.491625 
L 242.142971 283.653225 
L 248.623102 288.491625 
L 255.103232 288.491625 
L 261.583363 288.491625 
L 268.063493 288.491625 
L 274.543624 288.491625 
L 281.023755 288.491625 
L 287.503885 280.427625 
L 293.984016 288.491625 
L 300.464147 288.491625 
L 306.944277 272.363625 
L 313.424408 286.878825 
L 319.904539 288.491625 
L 326.384669 288.491625 
L 332.8648 288.491625 
L 339.344931 288.491625 
L 345.825061 288.491625 
L 352.305192 288.491625 
L 358.785323 288.491625 
L 365.265453 288.491625 
L 371.745584 288.491625 
L 378.225714 288.491625 
L 384.705845 288.491625 
L 391.185976 288.491625 
L 397.666106 288.491625 
L 404.146237 288.491625 
L 410.626368 288.491625 
L 417.106498 288.491625 
L 423.586629 288.491625 
L 430.06676 288.491625 
" clip-path="url(#peda0366979)" style="fill: none; stroke: #ff7f0e; stroke-width: 1.5; stroke-linecap: square"/>
   </g>
   <g id="line2d_9">
    <path d="M 106.060227 253.816425 
L 112.540358 288.491625 
L 119.020489 288.491625 
L 125.500619 285.266025 
L 131.98075 283.653225 
L 138.460881 277.202025 
L 144.941011 285.266025 
L 151.421142 277.202025 
L 157.901272 283.653225 
L 164.381403 285.266025 
L 170.861534 280.427625 
L 177.341664 277.202025 
L 183.821795 272.363625 
L 190.301926 275.589225 
L 196.782056 278.814825 
L 203.262187 280.427625 
L 209.742318 262.686825 
L 216.222448 269.138025 
L 222.702579 273.976425 
L 229.18271 273.976425 
L 235.66284 270.750825 
L 242.142971 262.686825 
L 248.623102 265.912425 
L 255.103232 251.397225 
L 261.583363 261.074025 
L 268.063493 244.946025 
L 274.543624 233.656425 
L 281.023755 246.558825 
L 287.503885 246.558825 
L 293.984016 254.622825 
L 300.464147 246.558825 
L 306.944277 256.235625 
L 313.424408 251.397225 
L 319.904539 238.494825 
L 326.384669 246.558825 
L 332.8648 230.430825 
L 339.344931 248.171625 
L 345.825061 259.461225 
L 352.305192 253.010025 
L 358.785323 246.558825 
L 365.265453 243.333225 
L 371.745584 254.622825 
L 378.225714 257.848425 
L 384.705845 249.784425 
L 391.185976 244.946025 
L 397.666106 253.010025 
L 404.146237 248.171625 
L 410.626368 244.946025 
L 417.106498 233.656425 
L 423.586629 238.494825 
L 430.06676 220.754025 
" clip-path="url(#peda0366979)" style="fill: none; stroke: #2ca02c; stroke-width: 1.5; stroke-linecap: square"/>
   </g>
   <g id="patch_3">
    <path d="M 89.8275 300.587625 
L 89.8275 34.475625 
" style="fill: none; stroke: #000000; stroke-width: 0.8; stroke-linejoin: miter; stroke-linecap: square"/>
   </g>
   <g id="patch_4">
    <path d="M 446.9475 300.587625 
L 446.9475 34.475625 
" style="fill: none; stroke: #000000; stroke-width: 0.8; stroke-linejoin: miter; stroke-linecap: square"/>
   </g>
   <g id="patch_5">
    <path d="M 89.8275 300.587625 
L 446.9475 300.587625 
" style="fill: none; stroke: #000000; stroke-width: 0.8; stroke-linejoin: miter; stroke-linecap: square"/>
   </g>
   <g id="patch_6">
    <path d="M 89.8275 34.475625 
L 446.9475 34.475625 
" style="fill: none; stroke: #000000; stroke-width: 0.8; stroke-linejoin: miter; stroke-linecap: square"/>
   </g>
   <g id="text_9">
    <!-- Reach -->
    <g transform="translate(225.525625 28.475625) scale(0.28 -0.28)">
     <defs>
      <path id="DejaVuSans-68" d="M 3513 2113 
L 3513 0 
L 2938 0 
L 2938 2094 
Q 2938 2591 2744 2837 
Q 2550 3084 2163 3084 
Q 1697 3084 1428 2787 
Q 1159 2491 1159 1978 
L 1159 0 
L 581 0 
L 581 4863 
L 1159 4863 
L 1159 2956 
Q 1366 3272 1645 3428 
Q 1925 3584 2291 3584 
Q 2894 3584 3203 3211 
Q 3513 2838 3513 2113 
z
" transform="scale(0.015625)"/>
     </defs>
     <use xlink:href="#DejaVuSans-52"/>
     <use xlink:href="#DejaVuSans-65" x="64.982422"/>
     <use xlink:href="#DejaVuSans-61" x="126.505859"/>
     <use xlink:href="#DejaVuSans-63" x="187.785156"/>
     <use xlink:href="#DejaVuSans-68" x="242.765625"/>
    </g>
   </g>
   <g id="legend_1">
    <g id="patch_7">
     <path d="M 255.312188 128.1375 
L 434.3475 128.1375 
Q 437.9475 128.1375 437.9475 124.5375 
L 437.9475 47.075625 
Q 437.9475 43.475625 434.3475 43.475625 
L 255.312188 43.475625 
Q 251.712188 43.475625 251.712188 47.075625 
L 251.712188 124.5375 
Q 251.712188 128.1375 255.312188 128.1375 
z
" style="fill: #ffffff; opacity: 0.8; stroke: #cccccc; stroke-linejoin: miter"/>
    </g>
    <g id="line2d_10">
     <path d="M 258.912188 58.052812 
L 276.912188 58.052812 
L 294.912188 58.052812 
" style="fill: none; stroke: #1f77b4; stroke-width: 1.5; stroke-linecap: square"/>
    </g>
    <g id="text_10">
     <!-- COAVC (ours) -->
     <g transform="translate(309.312187 64.352812) scale(0.18 -0.18)">
      <defs>
       <path id="DejaVuSans-43" d="M 4122 4306 
L 4122 3641 
Q 3803 3938 3442 4084 
Q 3081 4231 2675 4231 
Q 1875 4231 1450 3742 
Q 1025 3253 1025 2328 
Q 1025 1406 1450 917 
Q 1875 428 2675 428 
Q 3081 428 3442 575 
Q 3803 722 4122 1019 
L 4122 359 
Q 3791 134 3420 21 
Q 3050 -91 2638 -91 
Q 1578 -91 968 557 
Q 359 1206 359 2328 
Q 359 3453 968 4101 
Q 1578 4750 2638 4750 
Q 3056 4750 3426 4639 
Q 3797 4528 4122 4306 
z
" transform="scale(0.015625)"/>
       <path id="DejaVuSans-4f" d="M 2522 4238 
Q 1834 4238 1429 3725 
Q 1025 3213 1025 2328 
Q 1025 1447 1429 934 
Q 1834 422 2522 422 
Q 3209 422 3611 934 
Q 4013 1447 4013 2328 
Q 4013 3213 3611 3725 
Q 3209 4238 2522 4238 
z
M 2522 4750 
Q 3503 4750 4090 4092 
Q 4678 3434 4678 2328 
Q 4678 1225 4090 567 
Q 3503 -91 2522 -91 
Q 1538 -91 948 565 
Q 359 1222 359 2328 
Q 359 3434 948 4092 
Q 1538 4750 2522 4750 
z
" transform="scale(0.015625)"/>
       <path id="DejaVuSans-41" d="M 2188 4044 
L 1331 1722 
L 3047 1722 
L 2188 4044 
z
M 1831 4666 
L 2547 4666 
L 4325 0 
L 3669 0 
L 3244 1197 
L 1141 1197 
L 716 0 
L 50 0 
L 1831 4666 
z
" transform="scale(0.015625)"/>
       <path id="DejaVuSans-56" d="M 1831 0 
L 50 4666 
L 709 4666 
L 2188 738 
L 3669 4666 
L 4325 4666 
L 2547 0 
L 1831 0 
z
" transform="scale(0.015625)"/>
       <path id="DejaVuSans-28" d="M 1984 4856 
Q 1566 4138 1362 3434 
Q 1159 2731 1159 2009 
Q 1159 1288 1364 580 
Q 1569 -128 1984 -844 
L 1484 -844 
Q 1016 -109 783 600 
Q 550 1309 550 2009 
Q 550 2706 781 3412 
Q 1013 4119 1484 4856 
L 1984 4856 
z
" transform="scale(0.015625)"/>
       <path id="DejaVuSans-29" d="M 513 4856 
L 1013 4856 
Q 1481 4119 1714 3412 
Q 1947 2706 1947 2009 
Q 1947 1309 1714 600 
Q 1481 -109 1013 -844 
L 513 -844 
Q 928 -128 1133 580 
Q 1338 1288 1338 2009 
Q 1338 2731 1133 3434 
Q 928 4138 513 4856 
z
" transform="scale(0.015625)"/>
      </defs>
      <use xlink:href="#DejaVuSans-43"/>
      <use xlink:href="#DejaVuSans-4f" x="69.824219"/>
      <use xlink:href="#DejaVuSans-41" x="146.785156"/>
      <use xlink:href="#DejaVuSans-56" x="208.818359"/>
      <use xlink:href="#DejaVuSans-43" x="277.226562"/>
      <use xlink:href="#DejaVuSans-20" x="347.050781"/>
      <use xlink:href="#DejaVuSans-28" x="378.837891"/>
      <use xlink:href="#DejaVuSans-6f" x="417.851562"/>
      <use xlink:href="#DejaVuSans-75" x="479.033203"/>
      <use xlink:href="#DejaVuSans-72" x="542.412109"/>
      <use xlink:href="#DejaVuSans-73" x="583.525391"/>
      <use xlink:href="#DejaVuSans-29" x="635.625"/>
     </g>
    </g>
    <g id="line2d_11">
     <path d="M 258.912188 84.473437 
L 276.912188 84.473437 
L 294.912188 84.473437 
" style="fill: none; stroke: #ff7f0e; stroke-width: 1.5; stroke-linecap: square"/>
    </g>
    <g id="text_11">
     <!-- PPO -->
     <g transform="translate(309.312187 90.773437) scale(0.18 -0.18)">
      <defs>
       <path id="DejaVuSans-50" d="M 1259 4147 
L 1259 2394 
L 2053 2394 
Q 2494 2394 2734 2622 
Q 2975 2850 2975 3272 
Q 2975 3691 2734 3919 
Q 2494 4147 2053 4147 
L 1259 4147 
z
M 628 4666 
L 2053 4666 
Q 2838 4666 3239 4311 
Q 3641 3956 3641 3272 
Q 3641 2581 3239 2228 
Q 2838 1875 2053 1875 
L 1259 1875 
L 1259 0 
L 628 0 
L 628 4666 
z
" transform="scale(0.015625)"/>
      </defs>
      <use xlink:href="#DejaVuSans-50"/>
      <use xlink:href="#DejaVuSans-50" x="60.302734"/>
      <use xlink:href="#DejaVuSans-4f" x="120.605469"/>
     </g>
    </g>
    <g id="line2d_12">
     <path d="M 258.912188 110.894062 
L 276.912188 110.894062 
L 294.912188 110.894062 
" style="fill: none; stroke: #2ca02c; stroke-width: 1.5; stroke-linecap: square"/>
    </g>
    <g id="text_12">
     <!-- TQC -->
     <g transform="translate(309.312187 117.194062) scale(0.18 -0.18)">
      <defs>
       <path id="DejaVuSans-51" d="M 2522 4238 
Q 1834 4238 1429 3725 
Q 1025 3213 1025 2328 
Q 1025 1447 1429 934 
Q 1834 422 2522 422 
Q 3209 422 3611 934 
Q 4013 1447 4013 2328 
Q 4013 3213 3611 3725 
Q 3209 4238 2522 4238 
z
M 3406 84 
L 4238 -825 
L 3475 -825 
L 2784 -78 
Q 2681 -84 2626 -87 
Q 2572 -91 2522 -91 
Q 1538 -91 948 567 
Q 359 1225 359 2328 
Q 359 3434 948 4092 
Q 1538 4750 2522 4750 
Q 3503 4750 4090 4092 
Q 4678 3434 4678 2328 
Q 4678 1516 4351 937 
Q 4025 359 3406 84 
z
" transform="scale(0.015625)"/>
      </defs>
      <use xlink:href="#DejaVuSans-54"/>
      <use xlink:href="#DejaVuSans-51" x="61.083984"/>
      <use xlink:href="#DejaVuSans-43" x="139.794922"/>
     </g>
    </g>
   </g>
  </g>
 </g>
 <defs>
  <clipPath id="peda0366979">
   <rect x="89.8275" y="34.475625" width="357.12" height="266.112"/>
  </clipPath>
 </defs>
</svg>
