<?xml version="1.0" encoding="utf-8" standalone="no"?>
<!DOCTYPE svg PUBLIC "-//W3C//DTD SVG 1.1//EN"
  "http://www.w3.org/Graphics/SVG/1.1/DTD/svg11.dtd">
<svg xmlns:xlink="http://www.w3.org/1999/xlink" width="454.1475pt" height="372.985125pt" viewBox="0 0 454.1475 372.985125" xmlns="http://www.w3.org/2000/svg" version="1.1">
 <metadata>
  <rdf:RDF xmlns:dc="http://purl.org/dc/elements/1.1/" xmlns:cc="http://creativecommons.org/ns#" xmlns:rdf="http://www.w3.org/1999/02/22-rdf-syntax-ns#">
   <cc:Work>
    <dc:type rdf:resource="http://purl.org/dc/dcmitype/StillImage"/>
    <dc:date>2023-06-07T15:31:36.263417</dc:date>
    <dc:format>image/svg+xml</dc:format>
    <dc:creator>
     <cc:Agent>
      <dc:title>Matplotlib v3.6.1, https://matplotlib.org/</dc:title>
     </cc:Agent>
    </dc:creator>
   </cc:Work>
  </rdf:RDF>
 </metadata>
 <defs>
  <style type="text/css">*{stroke-linejoin: round; stroke-linecap: butt}</style>
 </defs>
 <g id="figure_1">
  <g id="patch_1">
   <path d="M 0 372.985125 
L 454.1475 372.985125 
L 454.1475 0 
L 0 0 
z
" style="fill: #ffffff"/>
  </g>
  <g id="axes_1">
   <g id="patch_2">
    <path d="M 89.8275 300.587625 
L 446.9475 300.587625 
L 446.9475 34.475625 
L 89.8275 34.475625 
z
" style="fill: #ffffff"/>
   </g>
   <g id="PolyCollection_1">
    <path d="M 106.060227 288.491625 
L 106.060227 288.491625 
L 106.70824 288.491625 
L 107.356253 288.491625 
L 108.004266 288.491625 
L 108.65228 288.491625 
L 109.300293 288.491625 
L 109.948306 288.491625 
L 110.596319 288.491625 
L 111.244332 288.491625 
L 111.892345 288.491625 
L 112.540358 288.491625 
L 113.188371 288.491625 
L 113.836384 288.491625 
L 114.484397 288.491625 
L 115.13241 288.491625 
L 115.780423 288.491625 
L 116.428436 288.491625 
L 117.076449 288.491625 
L 117.724462 288.491625 
L 118.372476 288.491625 
L 119.020489 288.491625 
L 119.668502 288.491625 
L 120.316515 288.491625 
L 120.964528 288.491625 
L 121.612541 288.491625 
L 122.260554 288.491625 
L 122.908567 288.491625 
L 123.55658 288.491625 
L 124.204593 288.491625 
L 124.852606 288.491625 
L 125.500619 288.491625 
L 126.148632 288.491625 
L 126.796645 288.491625 
L 127.444658 288.491625 
L 128.092671 288.491625 
L 128.740685 288.491625 
L 129.388698 288.491625 
L 130.036711 288.491625 
L 130.684724 288.491625 
L 131.332737 288.491625 
L 131.98075 288.491625 
L 132.628763 288.491625 
L 133.276776 288.491625 
L 133.924789 276.395622 
L 134.572802 264.299619 
L 135.220815 264.299626 
L 135.868828 203.819619 
L 136.516841 288.491625 
L 137.164854 288.491625 
L 137.812867 288.491625 
L 138.460881 288.491625 
L 139.108894 288.491625 
L 139.756907 288.491625 
L 140.40492 203.819626 
L 141.052933 276.395629 
L 141.700946 58.667613 
L 142.348959 94.955608 
L 142.996972 70.763616 
L 143.644985 179.627613 
L 144.292998 46.571625 
L 144.941011 46.571625 
L 145.589024 46.571625 
L 146.237037 70.763616 
L 146.88505 46.571625 
L 147.533063 58.667613 
L 148.181076 70.763602 
L 148.82909 46.571625 
L 149.477103 58.667628 
L 150.125116 58.667613 
L 150.773129 70.763616 
L 151.421142 82.859619 
L 152.069155 46.571625 
L 152.717168 58.667613 
L 153.365181 119.147628 
L 154.013194 46.571625 
L 154.661207 46.571625 
L 155.30922 70.763616 
L 155.957233 46.571625 
L 156.605246 46.571625 
L 157.253259 58.667613 
L 157.901272 94.955637 
L 158.549286 82.859619 
L 159.197299 46.571625 
L 159.845312 58.667613 
L 160.493325 82.859619 
L 161.141338 58.667613 
L 161.789351 58.667613 
L 162.437364 94.955637 
L 163.085377 58.667613 
L 163.73339 46.571625 
L 164.381403 58.667613 
L 165.029416 58.667613 
L 165.677429 82.859619 
L 166.325442 58.667613 
L 166.973455 46.571625 
L 167.621468 143.339619 
L 168.269481 46.571625 
L 168.917495 46.571625 
L 169.565508 107.051625 
L 170.213521 46.571625 
L 170.861534 58.667613 
L 171.509547 70.763602 
L 172.15756 46.571625 
L 172.805573 58.667628 
L 173.453586 94.955622 
L 174.101599 46.571625 
L 174.749612 155.435637 
L 175.397625 46.571625 
L 176.045638 46.571625 
L 176.693651 46.571625 
L 177.341664 82.859619 
L 177.989677 288.491625 
L 178.637691 167.531625 
L 179.285704 288.491625 
L 179.933717 143.339619 
L 180.58173 46.571625 
L 181.229743 70.763616 
L 181.877756 191.723616 
L 182.525769 94.955637 
L 183.173782 82.859619 
L 183.821795 46.571625 
L 184.469808 46.571625 
L 185.117821 46.571625 
L 185.765834 58.667613 
L 186.413847 46.571625 
L 187.06186 46.571625 
L 187.709873 58.667613 
L 188.357886 46.571625 
L 189.0059 46.571625 
L 189.653913 46.571625 
L 190.301926 58.667613 
L 190.949939 58.667613 
L 191.597952 46.571625 
L 192.245965 46.571625 
L 192.893978 46.571625 
L 193.541991 46.571625 
L 194.190004 46.571625 
L 194.838017 46.571625 
L 195.48603 58.667613 
L 196.134043 46.571625 
L 196.782056 46.571625 
L 197.430069 46.571625 
L 198.078082 46.571625 
L 198.726096 46.571625 
L 199.374109 46.571625 
L 200.022122 46.571625 
L 200.670135 46.571625 
L 201.318148 46.571625 
L 201.966161 46.571625 
L 202.614174 46.571625 
L 203.262187 46.571625 
L 203.9102 58.667613 
L 204.558213 46.571625 
L 205.206226 46.571625 
L 205.854239 46.571625 
L 206.502252 58.667613 
L 207.150265 46.571625 
L 207.798278 46.571625 
L 208.446292 46.571625 
L 209.094305 46.571625 
L 209.742318 46.571625 
L 210.390331 46.571625 
L 211.038344 46.571625 
L 211.686357 46.571625 
L 212.33437 46.571625 
L 212.982383 46.571625 
L 213.630396 58.667613 
L 214.278409 46.571625 
L 214.926422 46.571625 
L 215.574435 46.571625 
L 216.222448 46.571625 
L 216.870461 46.571625 
L 217.518474 46.571625 
L 218.166487 46.571625 
L 218.814501 46.571625 
L 219.462514 46.571625 
L 220.110527 70.763602 
L 220.75854 58.667613 
L 221.406553 46.571625 
L 222.054566 46.571625 
L 222.702579 46.571625 
L 223.350592 46.571625 
L 223.998605 46.571625 
L 224.646618 46.571625 
L 225.294631 46.571625 
L 225.942644 46.571625 
L 226.590657 46.571625 
L 227.23867 46.571625 
L 227.886683 46.571625 
L 228.534697 46.571625 
L 229.18271 46.571625 
L 229.830723 46.571625 
L 230.478736 46.571625 
L 231.126749 46.571625 
L 231.774762 46.571625 
L 232.422775 46.571625 
L 233.070788 46.571625 
L 233.718801 46.571625 
L 234.366814 46.571625 
L 235.014827 70.763602 
L 235.66284 46.571625 
L 236.310853 46.571625 
L 236.958866 46.571625 
L 237.606879 46.571625 
L 238.254892 82.859619 
L 238.902906 58.667613 
L 239.550919 58.667613 
L 240.198932 70.763602 
L 240.846945 46.571625 
L 241.494958 46.571625 
L 242.142971 46.571625 
L 242.790984 58.667613 
L 243.438997 119.147613 
L 244.08701 46.571625 
L 244.735023 46.571625 
L 245.383036 46.571625 
L 246.031049 46.571625 
L 246.679062 46.571625 
L 247.327075 46.571625 
L 247.975088 46.571625 
L 248.623102 46.571625 
L 249.271115 58.667613 
L 249.919128 46.571625 
L 250.567141 46.571625 
L 251.215154 46.571625 
L 251.863167 46.571625 
L 252.51118 46.571625 
L 253.159193 46.571625 
L 253.807206 46.571625 
L 254.455219 46.571625 
L 255.103232 46.571625 
L 255.751245 58.667613 
L 256.399258 58.667613 
L 257.047271 46.571625 
L 257.695284 46.571625 
L 258.343297 46.571625 
L 258.991311 70.763602 
L 259.639324 46.571625 
L 260.287337 46.571625 
L 260.93535 46.571625 
L 261.583363 46.571625 
L 262.231376 58.667613 
L 262.879389 46.571625 
L 263.527402 46.571625 
L 264.175415 46.571625 
L 264.823428 58.667613 
L 265.471441 46.571625 
L 266.119454 46.571625 
L 266.767467 58.667613 
L 267.41548 46.571625 
L 268.063493 46.571625 
L 268.711507 46.571625 
L 269.35952 58.667613 
L 270.007533 46.571625 
L 270.655546 46.571625 
L 271.303559 46.571625 
L 271.951572 46.571625 
L 272.599585 46.571625 
L 273.247598 46.571625 
L 273.895611 46.571625 
L 274.543624 46.571625 
L 275.191637 46.571625 
L 275.83965 46.571625 
L 276.487663 46.571625 
L 277.135676 46.571625 
L 277.783689 46.571625 
L 278.431703 46.571625 
L 279.079716 46.571625 
L 279.727729 46.571625 
L 280.375742 58.667613 
L 281.023755 46.571625 
L 281.671768 58.667613 
L 282.319781 46.571625 
L 282.967794 46.571625 
L 283.615807 46.571625 
L 284.26382 46.571625 
L 284.911833 46.571625 
L 285.559846 46.571625 
L 286.207859 58.667613 
L 286.855872 46.571625 
L 287.503885 46.571625 
L 288.151898 58.667613 
L 288.799912 46.571625 
L 289.447925 94.955637 
L 290.095938 46.571625 
L 290.743951 46.571625 
L 291.391964 46.571625 
L 292.039977 46.571625 
L 292.68799 46.571625 
L 293.336003 46.571625 
L 293.984016 58.667613 
L 294.632029 46.571625 
L 295.280042 46.571625 
L 295.928055 46.571625 
L 296.576068 46.571625 
L 297.224081 46.571625 
L 297.872094 46.571625 
L 298.520108 58.667613 
L 299.168121 46.571625 
L 299.816134 46.571625 
L 300.464147 58.667613 
L 301.11216 46.571625 
L 301.760173 58.667613 
L 302.408186 46.571625 
L 303.056199 46.571625 
L 303.704212 46.571625 
L 304.352225 46.571625 
L 305.000238 46.571625 
L 305.648251 58.667613 
L 306.296264 46.571625 
L 306.944277 82.859619 
L 307.59229 46.571625 
L 308.240303 46.571625 
L 308.888317 46.571625 
L 309.53633 46.571625 
L 310.184343 46.571625 
L 310.832356 46.571625 
L 311.480369 46.571625 
L 312.128382 46.571625 
L 312.776395 46.571625 
L 313.424408 46.571625 
L 314.072421 46.571625 
L 314.720434 46.571625 
L 315.368447 46.571625 
L 316.01646 46.571625 
L 316.664473 46.571625 
L 317.312486 46.571625 
L 317.960499 46.571625 
L 318.608513 46.571625 
L 319.256526 46.571625 
L 319.904539 46.571625 
L 320.552552 46.571625 
L 321.200565 46.571625 
L 321.848578 46.571625 
L 322.496591 46.571625 
L 323.144604 46.571625 
L 323.792617 46.571625 
L 324.44063 58.667613 
L 325.088643 46.571625 
L 325.736656 46.571625 
L 326.384669 46.571625 
L 327.032682 46.571625 
L 327.680695 46.571625 
L 328.328708 58.667613 
L 328.976722 46.571625 
L 329.624735 46.571625 
L 330.272748 58.667613 
L 330.920761 46.571625 
L 331.568774 46.571625 
L 332.216787 46.571625 
L 332.8648 46.571625 
L 333.512813 46.571625 
L 334.160826 46.571625 
L 334.808839 46.571625 
L 335.456852 46.571625 
L 336.104865 46.571625 
L 336.752878 46.571625 
L 337.400891 58.667613 
L 338.048904 46.571625 
L 338.696918 46.571625 
L 339.344931 46.571625 
L 339.992944 46.571625 
L 340.640957 58.667613 
L 341.28897 46.571625 
L 341.936983 58.667613 
L 342.584996 46.571625 
L 343.233009 46.571625 
L 343.881022 46.571625 
L 344.529035 46.571625 
L 345.177048 46.571625 
L 345.825061 58.667613 
L 346.473074 46.571625 
L 347.121087 46.571625 
L 347.7691 46.571625 
L 348.417114 46.571625 
L 349.065127 46.571625 
L 349.71314 46.571625 
L 350.361153 46.571625 
L 351.009166 46.571625 
L 351.657179 46.571625 
L 352.305192 46.571625 
L 352.953205 46.571625 
L 353.601218 46.571625 
L 354.249231 46.571625 
L 354.897244 46.571625 
L 355.545257 46.571625 
L 356.19327 46.571625 
L 356.841283 46.571625 
L 357.489296 46.571625 
L 358.137309 46.571625 
L 358.785323 46.571625 
L 359.433336 58.667613 
L 360.081349 46.571625 
L 360.729362 46.571625 
L 361.377375 46.571625 
L 362.025388 58.667613 
L 362.673401 46.571625 
L 363.321414 46.571625 
L 363.969427 46.571625 
L 364.61744 46.571625 
L 365.265453 46.571625 
L 365.913466 46.571625 
L 366.561479 46.571625 
L 367.209492 58.667613 
L 367.857505 46.571625 
L 368.505519 46.571625 
L 369.153532 58.667613 
L 369.801545 46.571625 
L 370.449558 46.571625 
L 371.097571 46.571625 
L 371.745584 46.571625 
L 372.393597 46.571625 
L 373.04161 46.571625 
L 373.689623 46.571625 
L 374.337636 46.571625 
L 374.985649 46.571625 
L 375.633662 58.667613 
L 376.281675 46.571625 
L 376.929688 46.571625 
L 377.577701 46.571625 
L 378.225714 46.571625 
L 378.873728 46.571625 
L 379.521741 46.571625 
L 380.169754 46.571625 
L 380.169754 46.571625 
L 380.169754 46.571625 
L 379.521741 46.571625 
L 378.873728 46.571625 
L 378.225714 46.571625 
L 377.577701 46.571625 
L 376.929688 46.571625 
L 376.281675 46.571625 
L 375.633662 46.571625 
L 374.985649 46.571625 
L 374.337636 46.571625 
L 373.689623 46.571625 
L 373.04161 46.571625 
L 372.393597 46.571625 
L 371.745584 46.571625 
L 371.097571 46.571625 
L 370.449558 46.571625 
L 369.801545 46.571625 
L 369.153532 46.571625 
L 368.505519 46.571625 
L 367.857505 46.571625 
L 367.209492 46.571625 
L 366.561479 46.571625 
L 365.913466 46.571625 
L 365.265453 46.571625 
L 364.61744 46.571625 
L 363.969427 46.571625 
L 363.321414 46.571625 
L 362.673401 46.571625 
L 362.025388 46.571625 
L 361.377375 46.571625 
L 360.729362 46.571625 
L 360.081349 46.571625 
L 359.433336 46.571625 
L 358.785323 46.571625 
L 358.137309 46.571625 
L 357.489296 46.571625 
L 356.841283 46.571625 
L 356.19327 46.571625 
L 355.545257 46.571625 
L 354.897244 46.571625 
L 354.249231 46.571625 
L 353.601218 46.571625 
L 352.953205 46.571625 
L 352.305192 46.571625 
L 351.657179 46.571625 
L 351.009166 46.571625 
L 350.361153 46.571625 
L 349.71314 46.571625 
L 349.065127 46.571625 
L 348.417114 46.571625 
L 347.7691 46.571625 
L 347.121087 46.571625 
L 346.473074 46.571625 
L 345.825061 46.571625 
L 345.177048 46.571625 
L 344.529035 46.571625 
L 343.881022 46.571625 
L 343.233009 46.571625 
L 342.584996 46.571625 
L 341.936983 46.571625 
L 341.28897 46.571625 
L 340.640957 46.571625 
L 339.992944 46.571625 
L 339.344931 46.571625 
L 338.696918 46.571625 
L 338.048904 46.571625 
L 337.400891 46.571625 
L 336.752878 46.571625 
L 336.104865 46.571625 
L 335.456852 46.571625 
L 334.808839 46.571625 
L 334.160826 46.571625 
L 333.512813 46.571625 
L 332.8648 46.571625 
L 332.216787 46.571625 
L 331.568774 46.571625 
L 330.920761 46.571625 
L 330.272748 46.571625 
L 329.624735 46.571625 
L 328.976722 46.571625 
L 328.328708 46.571625 
L 327.680695 46.571625 
L 327.032682 46.571625 
L 326.384669 46.571625 
L 325.736656 46.571625 
L 325.088643 46.571625 
L 324.44063 46.571625 
L 323.792617 46.571625 
L 323.144604 46.571625 
L 322.496591 46.571625 
L 321.848578 46.571625 
L 321.200565 46.571625 
L 320.552552 46.571625 
L 319.904539 46.571625 
L 319.256526 46.571625 
L 318.608513 46.571625 
L 317.960499 46.571625 
L 317.312486 46.571625 
L 316.664473 46.571625 
L 316.01646 46.571625 
L 315.368447 46.571625 
L 314.720434 46.571625 
L 314.072421 46.571625 
L 313.424408 46.571625 
L 312.776395 46.571625 
L 312.128382 46.571625 
L 311.480369 46.571625 
L 310.832356 46.571625 
L 310.184343 46.571625 
L 309.53633 46.571625 
L 308.888317 46.571625 
L 308.240303 46.571625 
L 307.59229 46.571625 
L 306.944277 46.571625 
L 306.296264 46.571625 
L 305.648251 46.571625 
L 305.000238 46.571625 
L 304.352225 46.571625 
L 303.704212 46.571625 
L 303.056199 46.571625 
L 302.408186 46.571625 
L 301.760173 46.571625 
L 301.11216 46.571625 
L 300.464147 46.571625 
L 299.816134 46.571625 
L 299.168121 46.571625 
L 298.520108 46.571625 
L 297.872094 46.571625 
L 297.224081 46.571625 
L 296.576068 46.571625 
L 295.928055 46.571625 
L 295.280042 46.571625 
L 294.632029 46.571625 
L 293.984016 46.571625 
L 293.336003 46.571625 
L 292.68799 46.571625 
L 292.039977 46.571625 
L 291.391964 46.571625 
L 290.743951 46.571625 
L 290.095938 46.571625 
L 289.447925 46.571625 
L 288.799912 46.571625 
L 288.151898 46.571625 
L 287.503885 46.571625 
L 286.855872 46.571625 
L 286.207859 46.571625 
L 285.559846 46.571625 
L 284.911833 46.571625 
L 284.26382 46.571625 
L 283.615807 46.571625 
L 282.967794 46.571625 
L 282.319781 46.571625 
L 281.671768 46.571625 
L 281.023755 46.571625 
L 280.375742 46.571625 
L 279.727729 46.571625 
L 279.079716 46.571625 
L 278.431703 46.571625 
L 277.783689 46.571625 
L 277.135676 46.571625 
L 276.487663 46.571625 
L 275.83965 46.571625 
L 275.191637 46.571625 
L 274.543624 46.571625 
L 273.895611 46.571625 
L 273.247598 46.571625 
L 272.599585 46.571625 
L 271.951572 46.571625 
L 271.303559 46.571625 
L 270.655546 46.571625 
L 270.007533 46.571625 
L 269.35952 46.571625 
L 268.711507 46.571625 
L 268.063493 46.571625 
L 267.41548 46.571625 
L 266.767467 46.571625 
L 266.119454 46.571625 
L 265.471441 46.571625 
L 264.823428 46.571625 
L 264.175415 46.571625 
L 263.527402 46.571625 
L 262.879389 46.571625 
L 262.231376 46.571625 
L 261.583363 46.571625 
L 260.93535 46.571625 
L 260.287337 46.571625 
L 259.639324 46.571625 
L 258.991311 46.571625 
L 258.343297 46.571625 
L 257.695284 46.571625 
L 257.047271 46.571625 
L 256.399258 46.571625 
L 255.751245 46.571625 
L 255.103232 46.571625 
L 254.455219 46.571625 
L 253.807206 46.571625 
L 253.159193 46.571625 
L 252.51118 46.571625 
L 251.863167 46.571625 
L 251.215154 46.571625 
L 250.567141 46.571625 
L 249.919128 46.571625 
L 249.271115 46.571625 
L 248.623102 46.571625 
L 247.975088 46.571625 
L 247.327075 46.571625 
L 246.679062 46.571625 
L 246.031049 46.571625 
L 245.383036 46.571625 
L 244.735023 46.571625 
L 244.08701 46.571625 
L 243.438997 46.571625 
L 242.790984 46.571625 
L 242.142971 46.571625 
L 241.494958 46.571625 
L 240.846945 46.571625 
L 240.198932 46.571625 
L 239.550919 46.571625 
L 238.902906 46.571625 
L 238.254892 46.571625 
L 237.606879 46.571625 
L 236.958866 46.571625 
L 236.310853 46.571625 
L 235.66284 46.571625 
L 235.014827 46.571625 
L 234.366814 46.571625 
L 233.718801 46.571625 
L 233.070788 46.571625 
L 232.422775 46.571625 
L 231.774762 46.571625 
L 231.126749 46.571625 
L 230.478736 46.571625 
L 229.830723 46.571625 
L 229.18271 46.571625 
L 228.534697 46.571625 
L 227.886683 46.571625 
L 227.23867 46.571625 
L 226.590657 46.571625 
L 225.942644 46.571625 
L 225.294631 46.571625 
L 224.646618 46.571625 
L 223.998605 46.571625 
L 223.350592 46.571625 
L 222.702579 46.571625 
L 222.054566 46.571625 
L 221.406553 46.571625 
L 220.75854 46.571625 
L 220.110527 46.571625 
L 219.462514 46.571625 
L 218.814501 46.571625 
L 218.166487 46.571625 
L 217.518474 46.571625 
L 216.870461 46.571625 
L 216.222448 46.571625 
L 215.574435 46.571625 
L 214.926422 46.571625 
L 214.278409 46.571625 
L 213.630396 46.571625 
L 212.982383 46.571625 
L 212.33437 46.571625 
L 211.686357 46.571625 
L 211.038344 46.571625 
L 210.390331 46.571625 
L 209.742318 46.571625 
L 209.094305 46.571625 
L 208.446292 46.571625 
L 207.798278 46.571625 
L 207.150265 46.571625 
L 206.502252 46.571625 
L 205.854239 46.571625 
L 205.206226 46.571625 
L 204.558213 46.571625 
L 203.9102 46.571625 
L 203.262187 46.571625 
L 202.614174 46.571625 
L 201.966161 46.571625 
L 201.318148 46.571625 
L 200.670135 46.571625 
L 200.022122 46.571625 
L 199.374109 46.571625 
L 198.726096 46.571625 
L 198.078082 46.571625 
L 197.430069 46.571625 
L 196.782056 46.571625 
L 196.134043 46.571625 
L 195.48603 46.571625 
L 194.838017 46.571625 
L 194.190004 46.571625 
L 193.541991 46.571625 
L 192.893978 46.571625 
L 192.245965 46.571625 
L 191.597952 46.571625 
L 190.949939 46.571625 
L 190.301926 46.571625 
L 189.653913 46.571625 
L 189.0059 46.571625 
L 188.357886 46.571625 
L 187.709873 46.571625 
L 187.06186 46.571625 
L 186.413847 46.571625 
L 185.765834 46.571625 
L 185.117821 46.571625 
L 184.469808 46.571625 
L 183.821795 46.571625 
L 183.173782 46.571625 
L 182.525769 46.571625 
L 181.877756 131.243616 
L 181.229743 58.667628 
L 180.58173 46.571625 
L 179.933717 82.859619 
L 179.285704 46.571625 
L 178.637691 70.763602 
L 177.989677 58.667628 
L 177.341664 46.571625 
L 176.693651 46.571625 
L 176.045638 46.571625 
L 175.397625 46.571625 
L 174.749612 46.571625 
L 174.101599 46.571625 
L 173.453586 70.763616 
L 172.805573 58.667628 
L 172.15756 46.571625 
L 171.509547 46.571625 
L 170.861534 46.571625 
L 170.213521 46.571625 
L 169.565508 94.955637 
L 168.917495 46.571625 
L 168.269481 46.571625 
L 167.621468 46.571625 
L 166.973455 46.571625 
L 166.325442 46.571625 
L 165.677429 46.571625 
L 165.029416 46.571625 
L 164.381403 46.571625 
L 163.73339 46.571625 
L 163.085377 46.571625 
L 162.437364 46.571625 
L 161.789351 46.571625 
L 161.141338 46.571625 
L 160.493325 46.571625 
L 159.845312 46.571625 
L 159.197299 46.571625 
L 158.549286 46.571625 
L 157.901272 46.571625 
L 157.253259 46.571625 
L 156.605246 46.571625 
L 155.957233 46.571625 
L 155.30922 58.667628 
L 154.661207 46.571625 
L 154.013194 46.571625 
L 153.365181 58.667628 
L 152.717168 46.571625 
L 152.069155 46.571625 
L 151.421142 46.571625 
L 150.773129 58.667628 
L 150.125116 46.571625 
L 149.477103 58.667628 
L 148.82909 46.571625 
L 148.181076 46.571625 
L 147.533063 46.571625 
L 146.88505 46.571625 
L 146.237037 58.667628 
L 145.589024 46.571625 
L 144.941011 46.571625 
L 144.292998 46.571625 
L 143.644985 46.571625 
L 142.996972 58.667628 
L 142.348959 82.859619 
L 141.700946 46.571625 
L 141.052933 46.571625 
L 140.40492 46.571625 
L 139.756907 46.571625 
L 139.108894 46.571625 
L 138.460881 46.571625 
L 137.812867 107.051625 
L 137.164854 107.051625 
L 136.516841 107.051625 
L 135.868828 143.339619 
L 135.220815 82.859619 
L 134.572802 143.339619 
L 133.924789 119.147628 
L 133.276776 70.763616 
L 132.628763 82.859619 
L 131.98075 107.051625 
L 131.332737 70.763616 
L 130.684724 70.763616 
L 130.036711 107.051625 
L 129.388698 143.339619 
L 128.740685 119.147628 
L 128.092671 167.531625 
L 127.444658 228.011625 
L 126.796645 276.395625 
L 126.148632 131.243616 
L 125.500619 107.051625 
L 124.852606 288.491625 
L 124.204593 228.011625 
L 123.55658 228.011625 
L 122.908567 131.243616 
L 122.260554 288.491625 
L 121.612541 203.819626 
L 120.964528 276.395625 
L 120.316515 288.491625 
L 119.668502 276.395625 
L 119.020489 288.491625 
L 118.372476 288.491625 
L 117.724462 288.491625 
L 117.076449 288.491625 
L 116.428436 288.491625 
L 115.780423 288.491625 
L 115.13241 288.491625 
L 114.484397 288.491625 
L 113.836384 288.491625 
L 113.188371 288.491625 
L 112.540358 288.491625 
L 111.892345 288.491625 
L 111.244332 288.491625 
L 110.596319 288.491625 
L 109.948306 288.491625 
L 109.300293 215.915622 
L 108.65228 264.299625 
L 108.004266 288.491625 
L 107.356253 240.107624 
L 106.70824 288.491625 
L 106.060227 288.491625 
z
" clip-path="url(#p57f8328204)" style="fill: #1f77b4; fill-opacity: 0.3"/>
   </g>
   <g id="PolyCollection_2">
    <path d="M 106.060227 106.74261 
L 106.060227 191.22624 
L 106.70824 288.491625 
L 107.356253 288.491625 
L 108.004266 288.491625 
L 108.65228 288.491625 
L 109.300293 288.491625 
L 109.948306 288.491625 
L 110.596319 288.491625 
L 111.244332 288.491625 
L 111.892345 288.491625 
L 112.540358 288.491625 
L 113.188371 288.491625 
L 113.836384 288.491625 
L 114.484397 288.491625 
L 115.13241 288.491625 
L 115.780423 288.491625 
L 116.428436 288.491625 
L 117.076449 288.491625 
L 117.724462 288.491625 
L 118.372476 288.491625 
L 119.020489 288.491625 
L 119.668502 288.491625 
L 120.316515 288.491625 
L 120.964528 288.491625 
L 121.612541 288.491625 
L 122.260554 288.491625 
L 122.908567 288.491625 
L 123.55658 288.491625 
L 124.204593 288.491625 
L 124.852606 288.491625 
L 125.500619 288.491625 
L 126.148632 288.491625 
L 126.796645 288.491625 
L 127.444658 288.491625 
L 128.092671 288.491625 
L 128.740685 288.491625 
L 129.388698 288.491625 
L 130.036711 288.491625 
L 130.684724 288.491625 
L 131.332737 288.491625 
L 131.98075 288.491625 
L 132.628763 288.491625 
L 133.276776 288.491625 
L 133.924789 288.491625 
L 134.572802 288.491625 
L 135.220815 288.491625 
L 135.868828 288.491625 
L 136.516841 288.491625 
L 137.164854 288.491625 
L 137.812867 288.491625 
L 138.460881 288.491625 
L 139.108894 288.491625 
L 139.756907 288.491625 
L 140.40492 288.491625 
L 141.052933 288.491625 
L 141.700946 288.491625 
L 142.348959 288.491625 
L 142.996972 288.491625 
L 143.644985 288.491625 
L 144.292998 288.491625 
L 144.941011 288.491625 
L 145.589024 288.491625 
L 146.237037 288.491625 
L 146.88505 288.491625 
L 147.533063 288.491625 
L 148.181076 288.491625 
L 148.82909 287.546869 
L 149.477103 288.491625 
L 150.125116 288.491625 
L 150.773129 288.491625 
L 151.421142 288.491625 
L 152.069155 288.491625 
L 152.717168 288.491625 
L 153.365181 288.491625 
L 154.013194 288.491625 
L 154.661207 288.491625 
L 155.30922 288.491625 
L 155.957233 288.491625 
L 156.605246 288.491625 
L 157.253259 288.491625 
L 157.901272 288.491625 
L 158.549286 288.491625 
L 159.197299 288.491625 
L 159.845312 288.491625 
L 160.493325 288.491625 
L 161.141338 288.491625 
L 161.789351 288.491625 
L 162.437364 288.491625 
L 163.085377 288.491625 
L 163.73339 288.491625 
L 164.381403 288.491625 
L 165.029416 288.491625 
L 165.677429 288.491625 
L 166.325442 288.491625 
L 166.973455 288.491625 
L 167.621468 288.491625 
L 168.269481 288.491625 
L 168.917495 288.491625 
L 169.565508 288.491625 
L 170.213521 288.491625 
L 170.861534 288.491625 
L 171.509547 288.491625 
L 172.15756 288.491625 
L 172.805573 288.491625 
L 173.453586 288.491625 
L 174.101599 288.491625 
L 174.749612 288.491625 
L 175.397625 288.491625 
L 176.045638 288.491625 
L 176.693651 288.491625 
L 177.341664 288.491625 
L 177.989677 288.491625 
L 178.637691 288.491625 
L 179.285704 288.491625 
L 179.933717 288.491625 
L 180.58173 288.491625 
L 181.229743 288.491625 
L 181.877756 288.491625 
L 182.525769 288.491625 
L 183.173782 288.491625 
L 183.821795 288.491625 
L 184.469808 288.491625 
L 185.117821 288.491625 
L 185.765834 288.491625 
L 186.413847 288.491625 
L 187.06186 288.491625 
L 187.709873 288.491625 
L 188.357886 288.491625 
L 189.0059 288.491625 
L 189.653913 288.491625 
L 190.301926 288.491625 
L 190.949939 288.491625 
L 191.597952 288.491625 
L 192.245965 288.491625 
L 192.893978 288.491625 
L 193.541991 288.491625 
L 194.190004 288.491625 
L 194.838017 288.491625 
L 195.48603 288.491625 
L 196.134043 288.491625 
L 196.782056 288.491625 
L 197.430069 288.491625 
L 198.078082 288.491625 
L 198.726096 288.491625 
L 199.374109 288.491625 
L 200.022122 288.491625 
L 200.670135 288.491625 
L 201.318148 288.491625 
L 201.966161 288.491625 
L 202.614174 288.491625 
L 203.262187 288.491625 
L 203.9102 288.491625 
L 204.558213 288.491625 
L 205.206226 288.491625 
L 205.854239 288.491625 
L 206.502252 288.491625 
L 207.150265 288.491625 
L 207.798278 288.491625 
L 208.446292 288.491625 
L 209.094305 288.491625 
L 209.742318 288.491625 
L 210.390331 288.491625 
L 211.038344 288.491625 
L 211.686357 288.491625 
L 212.33437 288.491625 
L 212.982383 288.491625 
L 213.630396 288.491625 
L 214.278409 288.491625 
L 214.926422 288.491625 
L 215.574435 288.491625 
L 216.222448 288.491625 
L 216.870461 288.491625 
L 217.518474 288.491625 
L 218.166487 288.491625 
L 218.814501 288.491625 
L 219.462514 288.491625 
L 220.110527 288.491625 
L 220.75854 288.491625 
L 221.406553 288.491625 
L 222.054566 288.491625 
L 222.702579 288.491625 
L 223.350592 288.491625 
L 223.998605 288.491625 
L 224.646618 288.491625 
L 225.294631 288.491625 
L 225.942644 288.491625 
L 226.590657 288.491625 
L 227.23867 288.491625 
L 227.886683 288.491625 
L 228.534697 288.491625 
L 229.18271 288.491625 
L 229.830723 288.491625 
L 230.478736 288.491625 
L 231.126749 288.491625 
L 231.774762 288.491625 
L 232.422775 288.491625 
L 233.070788 288.491625 
L 233.718801 288.491625 
L 234.366814 288.491625 
L 235.014827 288.491625 
L 235.66284 288.491625 
L 236.310853 288.491625 
L 236.958866 288.491625 
L 237.606879 288.491625 
L 238.254892 288.491625 
L 238.902906 288.491625 
L 239.550919 288.491625 
L 240.198932 288.491625 
L 240.846945 288.491625 
L 241.494958 288.491625 
L 242.142971 288.491625 
L 242.790984 288.491625 
L 243.438997 288.491625 
L 244.08701 288.491625 
L 244.735023 288.491625 
L 245.383036 288.491625 
L 246.031049 288.491625 
L 246.679062 288.491625 
L 247.327075 288.491625 
L 247.975088 288.491625 
L 248.623102 288.491625 
L 249.271115 288.491625 
L 249.919128 288.491625 
L 250.567141 288.491625 
L 251.215154 288.491625 
L 251.863167 288.491625 
L 252.51118 288.491625 
L 253.159193 288.491625 
L 253.807206 288.491625 
L 254.455219 288.491625 
L 255.103232 288.491625 
L 255.751245 288.491625 
L 256.399258 288.491625 
L 257.047271 288.491625 
L 257.695284 288.491625 
L 258.343297 288.491625 
L 258.991311 288.491625 
L 259.639324 288.491625 
L 260.287337 288.491625 
L 260.93535 288.491625 
L 261.583363 288.491625 
L 262.231376 288.491625 
L 262.879389 288.491625 
L 263.527402 288.491625 
L 264.175415 288.491625 
L 264.823428 288.491625 
L 265.471441 288.491625 
L 266.119454 288.491625 
L 266.767467 288.491625 
L 267.41548 288.491625 
L 268.063493 288.491625 
L 268.711507 288.491625 
L 269.35952 288.491625 
L 270.007533 288.491625 
L 270.655546 288.491625 
L 271.303559 288.491625 
L 271.951572 288.491625 
L 272.599585 288.491625 
L 273.247598 288.491625 
L 273.895611 288.491625 
L 274.543624 288.491625 
L 275.191637 288.491625 
L 275.83965 288.491625 
L 276.487663 288.491625 
L 277.135676 288.491625 
L 277.783689 288.491625 
L 278.431703 288.491625 
L 279.079716 288.491625 
L 279.727729 288.491625 
L 280.375742 288.491625 
L 281.023755 288.491625 
L 281.671768 288.491625 
L 282.319781 288.491625 
L 282.967794 288.491625 
L 283.615807 288.491625 
L 284.26382 288.491625 
L 284.911833 288.491625 
L 285.559846 288.491625 
L 286.207859 288.491625 
L 286.855872 288.491625 
L 287.503885 288.491625 
L 288.151898 288.491625 
L 288.799912 288.491625 
L 289.447925 288.491625 
L 290.095938 288.491625 
L 290.743951 288.491625 
L 291.391964 288.491625 
L 292.039977 288.491625 
L 292.68799 288.491625 
L 293.336003 288.491625 
L 293.984016 288.491625 
L 294.632029 288.491625 
L 295.280042 288.491625 
L 295.928055 288.491625 
L 296.576068 288.491625 
L 297.224081 288.491625 
L 297.872094 288.491625 
L 298.520108 288.491625 
L 299.168121 288.491625 
L 299.816134 288.491625 
L 300.464147 288.491625 
L 301.11216 288.491625 
L 301.760173 288.491625 
L 302.408186 288.491625 
L 303.056199 288.491625 
L 303.704212 288.491625 
L 304.352225 288.491625 
L 305.000238 288.491625 
L 305.648251 288.491625 
L 306.296264 288.491625 
L 306.944277 288.491625 
L 307.59229 288.491625 
L 308.240303 288.491625 
L 308.888317 288.491625 
L 309.53633 288.491625 
L 310.184343 288.491625 
L 310.832356 288.491625 
L 311.480369 288.491625 
L 312.128382 288.491625 
L 312.776395 288.491625 
L 313.424408 288.491625 
L 314.072421 288.491625 
L 314.720434 288.491625 
L 315.368447 288.491625 
L 316.01646 288.491625 
L 316.664473 288.491625 
L 317.312486 288.491625 
L 317.960499 288.491625 
L 318.608513 288.491625 
L 319.256526 288.491625 
L 319.904539 288.491625 
L 320.552552 288.491625 
L 321.200565 288.491625 
L 321.848578 288.491625 
L 322.496591 288.491625 
L 323.144604 288.491625 
L 323.792617 288.491625 
L 324.44063 288.491625 
L 325.088643 288.491625 
L 325.736656 288.491625 
L 326.384669 288.491625 
L 327.032682 288.491625 
L 327.680695 288.491625 
L 328.328708 288.491625 
L 328.976722 288.491625 
L 329.624735 288.491625 
L 330.272748 288.491625 
L 330.920761 288.491625 
L 331.568774 288.491625 
L 332.216787 288.491625 
L 332.8648 288.491625 
L 333.512813 288.491625 
L 334.160826 288.491625 
L 334.808839 288.491625 
L 335.456852 288.491625 
L 336.104865 288.491625 
L 336.752878 288.491625 
L 337.400891 288.491625 
L 338.048904 288.491625 
L 338.696918 288.491625 
L 339.344931 288.491625 
L 339.992944 288.491625 
L 340.640957 288.491625 
L 341.28897 288.491625 
L 341.936983 288.491625 
L 342.584996 288.491625 
L 343.233009 288.491625 
L 343.881022 288.491625 
L 344.529035 288.491625 
L 345.177048 288.491625 
L 345.825061 288.491625 
L 346.473074 288.491625 
L 347.121087 288.491625 
L 347.7691 288.491625 
L 348.417114 288.491625 
L 349.065127 288.491625 
L 349.71314 288.491625 
L 350.361153 288.491625 
L 351.009166 288.491625 
L 351.657179 288.491625 
L 352.305192 288.491625 
L 352.953205 288.491625 
L 353.601218 288.491625 
L 354.249231 288.491625 
L 354.897244 288.491625 
L 355.545257 288.491625 
L 356.19327 288.491625 
L 356.841283 288.491625 
L 357.489296 288.491625 
L 358.137309 288.491625 
L 358.785323 288.491625 
L 359.433336 288.491625 
L 360.081349 288.491625 
L 360.729362 288.491625 
L 361.377375 288.491625 
L 362.025388 288.491625 
L 362.673401 288.491625 
L 363.321414 288.491625 
L 363.969427 288.491625 
L 364.61744 288.491625 
L 365.265453 288.491625 
L 365.913466 288.491625 
L 366.561479 288.491625 
L 367.209492 288.491625 
L 367.857505 288.491625 
L 368.505519 288.491625 
L 369.153532 288.491625 
L 369.801545 288.491625 
L 370.449558 288.491625 
L 371.097571 288.491625 
L 371.745584 288.491625 
L 372.393597 288.491625 
L 373.04161 288.491625 
L 373.689623 288.491625 
L 374.337636 288.491625 
L 374.985649 288.491625 
L 375.633662 288.491625 
L 376.281675 288.491625 
L 376.929688 288.491625 
L 377.577701 288.491625 
L 378.225714 288.491625 
L 378.873728 288.491625 
L 379.521741 288.491625 
L 380.169754 288.491625 
L 380.817767 288.491625 
L 381.46578 288.491625 
L 382.113793 288.491625 
L 382.761806 288.491625 
L 383.409819 288.491625 
L 384.057832 288.491625 
L 384.705845 288.491625 
L 385.353858 288.491625 
L 386.001871 288.491625 
L 386.649884 288.491625 
L 387.297897 288.491625 
L 387.94591 288.491625 
L 388.593924 288.491625 
L 389.241937 288.491625 
L 389.88995 288.491625 
L 390.537963 288.491625 
L 391.185976 288.491625 
L 391.833989 288.491625 
L 392.482002 288.491625 
L 393.130015 288.491625 
L 393.778028 288.491625 
L 394.426041 288.491625 
L 395.074054 288.491625 
L 395.722067 288.491625 
L 396.37008 288.491625 
L 397.018093 288.491625 
L 397.666106 288.491625 
L 398.314119 288.491625 
L 398.962133 288.491625 
L 399.610146 288.491625 
L 400.258159 288.491625 
L 400.906172 288.491625 
L 401.554185 288.491625 
L 402.202198 288.491625 
L 402.850211 288.491625 
L 403.498224 288.491625 
L 404.146237 288.491625 
L 404.79425 288.491625 
L 405.442263 288.491625 
L 406.090276 288.491625 
L 406.738289 288.491625 
L 407.386302 288.491625 
L 408.034315 288.491625 
L 408.682329 288.491625 
L 409.330342 288.491625 
L 409.978355 288.491625 
L 410.626368 288.491625 
L 411.274381 288.491625 
L 411.922394 288.491625 
L 412.570407 288.491625 
L 413.21842 288.491625 
L 413.866433 288.491625 
L 414.514446 288.491625 
L 415.162459 288.491625 
L 415.810472 288.491625 
L 416.458485 288.491625 
L 417.106498 288.491625 
L 417.754511 288.491625 
L 418.402524 288.491625 
L 419.050538 288.491625 
L 419.698551 288.491625 
L 420.346564 288.491625 
L 420.994577 288.491625 
L 421.64259 288.491625 
L 422.290603 288.491625 
L 422.938616 288.491625 
L 423.586629 288.491625 
L 424.234642 288.491625 
L 424.882655 288.491625 
L 425.530668 288.491625 
L 426.178681 288.491625 
L 426.826694 288.491625 
L 427.474707 288.491625 
L 428.12272 288.491625 
L 428.770734 288.491625 
L 429.418747 288.491625 
L 430.06676 288.491625 
L 430.714773 288.491625 
L 430.714773 288.491625 
L 430.714773 288.491625 
L 430.06676 288.491625 
L 429.418747 288.491625 
L 428.770734 288.491625 
L 428.12272 288.491625 
L 427.474707 288.491625 
L 426.826694 288.491625 
L 426.178681 288.491625 
L 425.530668 288.491625 
L 424.882655 288.491625 
L 424.234642 288.491625 
L 423.586629 288.491625 
L 422.938616 288.491625 
L 422.290603 288.491625 
L 421.64259 288.491625 
L 420.994577 288.491625 
L 420.346564 288.491625 
L 419.698551 288.491625 
L 419.050538 288.491625 
L 418.402524 288.491625 
L 417.754511 288.491625 
L 417.106498 288.491625 
L 416.458485 288.491625 
L 415.810472 288.491625 
L 415.162459 288.491625 
L 414.514446 288.491625 
L 413.866433 288.491625 
L 413.21842 288.491625 
L 412.570407 288.491625 
L 411.922394 288.491625 
L 411.274381 288.491625 
L 410.626368 288.491625 
L 409.978355 288.491625 
L 409.330342 288.491625 
L 408.682329 288.491625 
L 408.034315 288.491625 
L 407.386302 288.491625 
L 406.738289 288.491625 
L 406.090276 288.491625 
L 405.442263 288.491625 
L 404.79425 288.491625 
L 404.146237 288.491625 
L 403.498224 288.491625 
L 402.850211 288.491625 
L 402.202198 288.491625 
L 401.554185 288.491625 
L 400.906172 288.491625 
L 400.258159 288.491625 
L 399.610146 288.491625 
L 398.962133 288.491625 
L 398.314119 288.491625 
L 397.666106 288.491625 
L 397.018093 288.491625 
L 396.37008 288.491625 
L 395.722067 288.491625 
L 395.074054 288.491625 
L 394.426041 288.491625 
L 393.778028 288.491625 
L 393.130015 288.491625 
L 392.482002 288.491625 
L 391.833989 288.491625 
L 391.185976 288.491625 
L 390.537963 288.491625 
L 389.88995 288.491625 
L 389.241937 288.491625 
L 388.593924 288.491625 
L 387.94591 288.491625 
L 387.297897 288.491625 
L 386.649884 288.491625 
L 386.001871 288.491625 
L 385.353858 288.491625 
L 384.705845 288.491625 
L 384.057832 288.491625 
L 383.409819 288.491625 
L 382.761806 288.491625 
L 382.113793 288.491625 
L 381.46578 288.491625 
L 380.817767 288.491625 
L 380.169754 288.491625 
L 379.521741 288.491625 
L 378.873728 288.491625 
L 378.225714 288.491625 
L 377.577701 288.491625 
L 376.929688 288.491625 
L 376.281675 288.491625 
L 375.633662 288.491625 
L 374.985649 288.491625 
L 374.337636 288.491625 
L 373.689623 288.491625 
L 373.04161 288.491625 
L 372.393597 288.491625 
L 371.745584 288.491625 
L 371.097571 288.491625 
L 370.449558 288.491625 
L 369.801545 288.491625 
L 369.153532 288.491625 
L 368.505519 288.491625 
L 367.857505 288.491625 
L 367.209492 288.491625 
L 366.561479 288.491625 
L 365.913466 288.491625 
L 365.265453 288.491625 
L 364.61744 288.491625 
L 363.969427 288.491625 
L 363.321414 288.491625 
L 362.673401 288.491625 
L 362.025388 288.491625 
L 361.377375 288.491625 
L 360.729362 288.491625 
L 360.081349 288.491625 
L 359.433336 288.491625 
L 358.785323 288.491625 
L 358.137309 288.491625 
L 357.489296 288.491625 
L 356.841283 288.491625 
L 356.19327 288.491625 
L 355.545257 288.491625 
L 354.897244 288.491625 
L 354.249231 288.491625 
L 353.601218 288.491625 
L 352.953205 288.491625 
L 352.305192 288.491625 
L 351.657179 288.491625 
L 351.009166 288.491625 
L 350.361153 288.491625 
L 349.71314 288.491625 
L 349.065127 288.491625 
L 348.417114 288.491625 
L 347.7691 288.491625 
L 347.121087 288.491625 
L 346.473074 288.491625 
L 345.825061 288.491625 
L 345.177048 288.491625 
L 344.529035 288.491625 
L 343.881022 288.491625 
L 343.233009 288.491625 
L 342.584996 288.491625 
L 341.936983 288.491625 
L 341.28897 288.491625 
L 340.640957 288.491625 
L 339.992944 288.491625 
L 339.344931 288.491625 
L 338.696918 288.491625 
L 338.048904 288.491625 
L 337.400891 288.491625 
L 336.752878 288.491625 
L 336.104865 288.491625 
L 335.456852 288.491625 
L 334.808839 288.491625 
L 334.160826 288.491625 
L 333.512813 288.491625 
L 332.8648 288.491625 
L 332.216787 288.491625 
L 331.568774 288.491625 
L 330.920761 288.491625 
L 330.272748 288.491625 
L 329.624735 288.491625 
L 328.976722 288.491625 
L 328.328708 288.491625 
L 327.680695 288.491625 
L 327.032682 288.491625 
L 326.384669 288.491625 
L 325.736656 288.491625 
L 325.088643 288.491625 
L 324.44063 288.491625 
L 323.792617 288.491625 
L 323.144604 288.491625 
L 322.496591 288.491625 
L 321.848578 288.491625 
L 321.200565 288.491625 
L 320.552552 288.491625 
L 319.904539 288.491625 
L 319.256526 288.491625 
L 318.608513 288.491625 
L 317.960499 288.491625 
L 317.312486 288.491625 
L 316.664473 288.491625 
L 316.01646 288.491625 
L 315.368447 288.491625 
L 314.720434 288.491625 
L 314.072421 288.491625 
L 313.424408 288.491625 
L 312.776395 288.491625 
L 312.128382 288.491625 
L 311.480369 288.491625 
L 310.832356 288.491625 
L 310.184343 288.491625 
L 309.53633 288.491625 
L 308.888317 288.491625 
L 308.240303 288.491625 
L 307.59229 288.491625 
L 306.944277 288.491625 
L 306.296264 288.491625 
L 305.648251 288.491625 
L 305.000238 288.491625 
L 304.352225 288.491625 
L 303.704212 288.491625 
L 303.056199 288.491625 
L 302.408186 288.491625 
L 301.760173 288.491625 
L 301.11216 288.491625 
L 300.464147 288.491625 
L 299.816134 288.491625 
L 299.168121 288.491625 
L 298.520108 288.491625 
L 297.872094 288.491625 
L 297.224081 288.491625 
L 296.576068 288.491625 
L 295.928055 288.491625 
L 295.280042 288.491625 
L 294.632029 288.491625 
L 293.984016 288.491625 
L 293.336003 288.491625 
L 292.68799 288.491625 
L 292.039977 288.491625 
L 291.391964 288.491625 
L 290.743951 288.491625 
L 290.095938 288.491625 
L 289.447925 288.491625 
L 288.799912 288.491625 
L 288.151898 288.491625 
L 287.503885 288.491625 
L 286.855872 288.491625 
L 286.207859 288.491625 
L 285.559846 288.491625 
L 284.911833 288.491625 
L 284.26382 288.491625 
L 283.615807 288.491625 
L 282.967794 288.491625 
L 282.319781 288.491625 
L 281.671768 288.491625 
L 281.023755 288.491625 
L 280.375742 288.491625 
L 279.727729 288.491625 
L 279.079716 288.491625 
L 278.431703 288.491625 
L 277.783689 288.491625 
L 277.135676 288.491625 
L 276.487663 288.491625 
L 275.83965 288.491625 
L 275.191637 288.491625 
L 274.543624 288.491625 
L 273.895611 288.491625 
L 273.247598 288.491625 
L 272.599585 288.491625 
L 271.951572 288.491625 
L 271.303559 288.491625 
L 270.655546 288.491625 
L 270.007533 288.491625 
L 269.35952 288.491625 
L 268.711507 288.491625 
L 268.063493 288.491625 
L 267.41548 288.491625 
L 266.767467 288.491625 
L 266.119454 288.491625 
L 265.471441 288.491625 
L 264.823428 288.491625 
L 264.175415 288.491625 
L 263.527402 288.491625 
L 262.879389 288.491625 
L 262.231376 288.491625 
L 261.583363 288.491625 
L 260.93535 288.491625 
L 260.287337 288.491625 
L 259.639324 288.491625 
L 258.991311 288.491625 
L 258.343297 288.491625 
L 257.695284 288.491625 
L 257.047271 288.491625 
L 256.399258 288.491625 
L 255.751245 288.491625 
L 255.103232 288.491625 
L 254.455219 288.491625 
L 253.807206 288.491625 
L 253.159193 288.491625 
L 252.51118 288.491625 
L 251.863167 288.491625 
L 251.215154 288.491625 
L 250.567141 288.491625 
L 249.919128 288.491625 
L 249.271115 288.491625 
L 248.623102 288.491625 
L 247.975088 288.491625 
L 247.327075 288.491625 
L 246.679062 288.491625 
L 246.031049 288.491625 
L 245.383036 288.491625 
L 244.735023 288.491625 
L 244.08701 288.491625 
L 243.438997 288.491625 
L 242.790984 288.491625 
L 242.142971 288.491625 
L 241.494958 288.491625 
L 240.846945 288.491625 
L 240.198932 288.491625 
L 239.550919 288.491625 
L 238.902906 288.491625 
L 238.254892 288.491625 
L 237.606879 288.491625 
L 236.958866 288.491625 
L 236.310853 288.491625 
L 235.66284 288.491625 
L 235.014827 288.491625 
L 234.366814 288.491625 
L 233.718801 288.491625 
L 233.070788 288.491625 
L 232.422775 288.491625 
L 231.774762 288.491625 
L 231.126749 288.491625 
L 230.478736 288.491625 
L 229.830723 288.491625 
L 229.18271 288.491625 
L 228.534697 288.491625 
L 227.886683 288.491625 
L 227.23867 288.491625 
L 226.590657 288.491625 
L 225.942644 288.491625 
L 225.294631 288.491625 
L 224.646618 288.491625 
L 223.998605 288.491625 
L 223.350592 288.491625 
L 222.702579 288.491625 
L 222.054566 288.491625 
L 221.406553 288.491625 
L 220.75854 288.491625 
L 220.110527 288.491625 
L 219.462514 288.491625 
L 218.814501 288.491625 
L 218.166487 288.491625 
L 217.518474 288.491625 
L 216.870461 288.491625 
L 216.222448 288.491625 
L 215.574435 288.491625 
L 214.926422 288.491625 
L 214.278409 288.491625 
L 213.630396 288.491625 
L 212.982383 288.491625 
L 212.33437 284.597981 
L 211.686357 288.491625 
L 211.038344 288.491625 
L 210.390331 288.491625 
L 209.742318 288.491625 
L 209.094305 288.491625 
L 208.446292 288.491625 
L 207.798278 288.491625 
L 207.150265 288.491625 
L 206.502252 288.491625 
L 205.854239 288.491625 
L 205.206226 288.491625 
L 204.558213 288.491625 
L 203.9102 288.491625 
L 203.262187 288.491625 
L 202.614174 288.491625 
L 201.966161 288.491625 
L 201.318148 288.491625 
L 200.670135 288.491625 
L 200.022122 288.491625 
L 199.374109 288.491625 
L 198.726096 288.491625 
L 198.078082 288.491625 
L 197.430069 288.491625 
L 196.782056 288.491625 
L 196.134043 288.491625 
L 195.48603 288.491625 
L 194.838017 288.491625 
L 194.190004 288.491625 
L 193.541991 288.491625 
L 192.893978 288.491625 
L 192.245965 288.491625 
L 191.597952 288.491625 
L 190.949939 288.491625 
L 190.301926 288.491625 
L 189.653913 288.491625 
L 189.0059 288.491625 
L 188.357886 280.704338 
L 187.709873 280.704338 
L 187.06186 276.810694 
L 186.413847 284.597981 
L 185.765834 284.597981 
L 185.117821 288.491625 
L 184.469808 288.491625 
L 183.821795 288.491625 
L 183.173782 288.491625 
L 182.525769 288.491625 
L 181.877756 284.597981 
L 181.229743 284.597981 
L 180.58173 288.491625 
L 179.933717 280.704338 
L 179.285704 288.491625 
L 178.637691 288.491625 
L 177.989677 284.597981 
L 177.341664 288.491625 
L 176.693651 288.491625 
L 176.045638 284.597981 
L 175.397625 284.597981 
L 174.749612 284.597981 
L 174.101599 284.597981 
L 173.453586 288.491625 
L 172.805573 288.491625 
L 172.15756 276.810694 
L 171.509547 284.597981 
L 170.861534 288.491625 
L 170.213521 288.491625 
L 169.565508 284.597981 
L 168.917495 288.491625 
L 168.269481 288.491625 
L 167.621468 280.704338 
L 166.973455 280.704338 
L 166.325442 288.491625 
L 165.677429 288.491625 
L 165.029416 269.023407 
L 164.381403 253.448832 
L 163.73339 288.491625 
L 163.085377 288.491625 
L 162.437364 288.491625 
L 161.789351 284.597981 
L 161.141338 280.704338 
L 160.493325 269.023407 
L 159.845312 284.597981 
L 159.197299 284.597981 
L 158.549286 284.597981 
L 157.901272 257.342476 
L 157.253259 253.448832 
L 156.605246 253.448832 
L 155.957233 288.491625 
L 155.30922 288.491625 
L 154.661207 288.491625 
L 154.013194 288.491625 
L 153.365181 288.491625 
L 152.717168 284.597981 
L 152.069155 288.491625 
L 151.421142 288.491625 
L 150.773129 288.491625 
L 150.125116 288.491625 
L 149.477103 288.491625 
L 148.82909 282.985181 
L 148.181076 241.767901 
L 147.533063 276.810694 
L 146.88505 288.491625 
L 146.237037 288.491625 
L 145.589024 288.491625 
L 144.941011 288.491625 
L 144.292998 248.233748 
L 143.644985 206.725109 
L 142.996972 237.874258 
L 142.348959 241.767901 
L 141.700946 229.555657 
L 141.052933 245.661545 
L 140.40492 280.704338 
L 139.756907 276.810694 
L 139.108894 280.704338 
L 138.460881 272.91705 
L 137.812867 276.810694 
L 137.164854 261.23612 
L 136.516841 261.23612 
L 135.868828 276.810694 
L 135.220815 276.810694 
L 134.572802 257.342476 
L 133.924789 237.874258 
L 133.276776 272.91705 
L 132.628763 245.661545 
L 131.98075 276.810694 
L 131.332737 288.491625 
L 130.684724 288.491625 
L 130.036711 288.491625 
L 129.388698 253.448832 
L 128.740685 288.491625 
L 128.092671 288.491625 
L 127.444658 288.491625 
L 126.796645 288.491625 
L 126.148632 288.491625 
L 125.500619 288.491625 
L 124.852606 288.491625 
L 124.204593 288.491625 
L 123.55658 288.491625 
L 122.908567 288.491625 
L 122.260554 288.491625 
L 121.612541 288.491625 
L 120.964528 288.491625 
L 120.316515 288.491625 
L 119.668502 288.491625 
L 119.020489 288.491625 
L 118.372476 288.491625 
L 117.724462 288.491625 
L 117.076449 288.491625 
L 116.428436 284.597981 
L 115.780423 288.491625 
L 115.13241 284.597981 
L 114.484397 288.491625 
L 113.836384 288.491625 
L 113.188371 288.491625 
L 112.540358 288.491625 
L 111.892345 288.491625 
L 111.244332 284.597981 
L 110.596319 261.23612 
L 109.948306 284.597981 
L 109.300293 198.937821 
L 108.65228 288.491625 
L 108.004266 288.491625 
L 107.356253 198.937821 
L 106.70824 156.107741 
L 106.060227 106.74261 
z
" clip-path="url(#p57f8328204)" style="fill: #ff7f0e; fill-opacity: 0.3"/>
   </g>
   <g id="PolyCollection_3">
    <path d="M 106.060227 115.898318 
L 106.060227 170.780932 
L 106.70824 288.491625 
L 107.356253 288.491625 
L 108.004266 288.491625 
L 108.65228 288.491625 
L 109.300293 288.491625 
L 109.948306 288.491625 
L 110.596319 288.491625 
L 111.244332 288.491625 
L 111.892345 288.491625 
L 112.540358 288.491625 
L 113.188371 288.491625 
L 113.836384 288.491625 
L 114.484397 288.491625 
L 115.13241 288.491625 
L 115.780423 288.491625 
L 116.428436 288.491625 
L 117.076449 288.491625 
L 117.724462 288.491625 
L 118.372476 288.491625 
L 119.020489 288.491625 
L 119.668502 288.491625 
L 120.316515 288.491625 
L 120.964528 288.491625 
L 121.612541 288.491625 
L 122.260554 288.491625 
L 122.908567 288.491625 
L 123.55658 288.491625 
L 124.204593 288.491625 
L 124.852606 288.491625 
L 125.500619 288.491625 
L 126.148632 288.491625 
L 126.796645 288.491625 
L 127.444658 288.491625 
L 128.092671 288.491625 
L 128.740685 288.491625 
L 129.388698 288.491625 
L 130.036711 288.491625 
L 130.684724 288.491625 
L 131.332737 288.491625 
L 131.98075 288.491625 
L 132.628763 288.491625 
L 133.276776 288.491625 
L 133.924789 288.491625 
L 134.572802 288.491625 
L 135.220815 288.491625 
L 135.868828 288.491625 
L 136.516841 288.491625 
L 137.164854 288.491625 
L 137.812867 288.491625 
L 138.460881 288.491625 
L 139.108894 288.491625 
L 139.756907 288.491625 
L 140.40492 288.491625 
L 141.052933 288.491625 
L 141.700946 288.491625 
L 142.348959 288.491625 
L 142.996972 288.491625 
L 143.644985 288.491625 
L 144.292998 288.491625 
L 144.941011 288.491625 
L 145.589024 288.491625 
L 146.237037 288.491625 
L 146.88505 288.491625 
L 147.533063 288.491625 
L 148.181076 288.491625 
L 148.82909 288.491625 
L 149.477103 288.491625 
L 150.125116 288.491625 
L 150.773129 288.491625 
L 151.421142 288.491625 
L 152.069155 288.491625 
L 152.717168 288.491625 
L 153.365181 288.491625 
L 154.013194 288.491625 
L 154.661207 288.491625 
L 155.30922 288.491625 
L 155.957233 288.491625 
L 156.605246 288.491625 
L 157.253259 288.491625 
L 157.901272 288.491625 
L 158.549286 288.491625 
L 159.197299 288.491625 
L 159.845312 288.491625 
L 160.493325 288.491625 
L 161.141338 288.491625 
L 161.789351 288.491625 
L 162.437364 288.491625 
L 163.085377 288.491625 
L 163.73339 288.491625 
L 164.381403 288.491625 
L 165.029416 288.491625 
L 165.677429 288.491625 
L 166.325442 288.491625 
L 166.973455 288.491625 
L 167.621468 288.491625 
L 168.269481 288.491625 
L 168.917495 288.491625 
L 169.565508 288.491625 
L 170.213521 288.491625 
L 170.861534 288.491625 
L 171.509547 288.491625 
L 172.15756 288.491625 
L 172.805573 288.491625 
L 173.453586 288.491625 
L 174.101599 288.491625 
L 174.749612 288.491625 
L 175.397625 288.491625 
L 176.045638 288.491625 
L 176.693651 288.491625 
L 177.341664 288.491625 
L 177.989677 288.491625 
L 178.637691 288.491625 
L 179.285704 288.491625 
L 179.933717 288.491625 
L 180.58173 288.491625 
L 181.229743 288.491625 
L 181.877756 288.491625 
L 182.525769 288.491625 
L 183.173782 288.491625 
L 183.821795 288.491625 
L 184.469808 288.491625 
L 185.117821 288.491625 
L 185.765834 288.491625 
L 186.413847 288.491625 
L 187.06186 288.491625 
L 187.709873 288.491625 
L 188.357886 288.491625 
L 189.0059 288.491625 
L 189.653913 288.491625 
L 190.301926 288.491625 
L 190.949939 288.491625 
L 191.597952 288.491625 
L 192.245965 288.491625 
L 192.893978 280.365502 
L 193.541991 288.491625 
L 194.190004 288.491625 
L 194.838017 288.491625 
L 195.48603 288.491625 
L 196.134043 288.491625 
L 196.782056 288.491625 
L 197.430069 288.491625 
L 198.078082 288.491625 
L 198.726096 288.491625 
L 199.374109 288.491625 
L 200.022122 288.491625 
L 200.670135 288.491625 
L 201.318148 288.491625 
L 201.966161 288.491625 
L 202.614174 288.491625 
L 203.262187 288.491625 
L 203.9102 288.491625 
L 204.558213 288.491625 
L 205.206226 288.491625 
L 205.854239 288.491625 
L 206.502252 288.491625 
L 207.150265 288.491625 
L 207.798278 288.491625 
L 208.446292 288.491625 
L 209.094305 288.491625 
L 209.742318 288.491625 
L 210.390331 288.491625 
L 211.038344 288.491625 
L 211.686357 288.491625 
L 212.33437 288.491625 
L 212.982383 288.491625 
L 213.630396 288.491625 
L 214.278409 288.491625 
L 214.926422 288.491625 
L 215.574435 288.491625 
L 216.222448 288.491625 
L 216.870461 288.491625 
L 217.518474 288.491625 
L 218.166487 288.491625 
L 218.814501 288.491625 
L 219.462514 288.491625 
L 220.110527 288.491625 
L 220.75854 288.491625 
L 221.406553 288.491625 
L 222.054566 288.491625 
L 222.702579 288.491625 
L 223.350592 288.491625 
L 223.998605 280.639106 
L 224.646618 265.709225 
L 225.294631 270.840287 
L 225.942644 276.22802 
L 226.590657 288.260634 
L 227.23867 275.251754 
L 227.886683 273.162417 
L 228.534697 280.397748 
L 229.18271 265.95984 
L 229.830723 267.272607 
L 230.478736 282.631747 
L 231.126749 270.112717 
L 231.774762 270.136369 
L 232.422775 255.195916 
L 233.070788 268.814383 
L 233.718801 255.090088 
L 234.366814 239.703451 
L 235.014827 217.134329 
L 235.66284 242.013058 
L 236.310853 242.074464 
L 236.958866 210.168423 
L 237.606879 174.104867 
L 238.254892 131.97664 
L 238.902906 247.885072 
L 239.550919 221.462503 
L 240.198932 185.799881 
L 240.846945 200.447746 
L 241.494958 247.85208 
L 242.142971 240.12408 
L 242.790984 208.012704 
L 243.438997 195.567255 
L 244.08701 190.636439 
L 244.735023 220.767692 
L 245.383036 173.048702 
L 246.031049 185.447523 
L 246.679062 186.639392 
L 247.327075 229.226985 
L 247.975088 251.082345 
L 248.623102 192.402302 
L 249.271115 172.16803 
L 249.919128 158.426009 
L 250.567141 147.429183 
L 251.215154 146.714303 
L 251.863167 89.95513 
L 252.51118 147.364017 
L 253.159193 105.111521 
L 253.807206 136.577116 
L 254.455219 122.405468 
L 255.103232 86.058315 
L 255.751245 65.50857 
L 256.399258 94.134287 
L 257.047271 97.801932 
L 257.695284 75.330689 
L 258.343297 109.969997 
L 258.991311 71.543115 
L 259.639324 95.735115 
L 260.287337 70.34697 
L 260.93535 113.615407 
L 261.583363 76.6614 
L 262.231376 56.248425 
L 262.879389 67.803192 
L 263.527402 82.981935 
L 264.175415 131.150441 
L 264.823428 160.724034 
L 265.471441 199.042293 
L 266.119454 221.13356 
L 266.767467 235.989432 
L 267.41548 240.159637 
L 268.063493 193.87816 
L 268.711507 150.654783 
L 269.35952 160.88537 
L 270.007533 146.714303 
L 270.655546 136.81504 
L 271.303559 183.6092 
L 271.951572 183.68266 
L 272.599585 141.807364 
L 273.247598 201.65562 
L 273.895611 179.293544 
L 274.543624 176.53249 
L 275.191637 133.275129 
L 275.83965 134.027496 
L 276.487663 123.661836 
L 277.135676 156.772359 
L 277.783689 133.275129 
L 278.431703 117.89766 
L 279.079716 157.739428 
L 279.727729 133.120153 
L 280.375742 157.467129 
L 281.023755 146.113714 
L 281.671768 122.507162 
L 282.319781 177.13504 
L 282.967794 145.678095 
L 283.615807 109.35533 
L 284.26382 128.094209 
L 284.911833 118.317487 
L 285.559846 124.761364 
L 286.207859 112.055055 
L 286.855872 127.292164 
L 287.503885 133.174047 
L 288.151898 162.123717 
L 288.799912 193.314626 
L 289.447925 218.36653 
L 290.095938 219.125412 
L 290.743951 179.774517 
L 291.391964 226.505337 
L 292.039977 201.867688 
L 292.68799 181.993045 
L 293.336003 191.808451 
L 293.984016 188.582851 
L 294.632029 185.866085 
L 295.280042 210.377337 
L 295.928055 145.26144 
L 296.576068 111.693501 
L 297.224081 120.436236 
L 297.872094 120.372729 
L 298.520108 94.549225 
L 299.168121 85.007489 
L 299.816134 122.737896 
L 300.464147 107.142505 
L 301.11216 131.97664 
L 301.760173 143.015983 
L 302.408186 155.483438 
L 303.056199 146.49184 
L 303.704212 138.064738 
L 304.352225 145.393717 
L 305.000238 154.927955 
L 305.648251 212.432978 
L 306.296264 150.715643 
L 306.944277 146.393895 
L 307.59229 154.132512 
L 308.240303 148.623744 
L 308.888317 173.048702 
L 309.53633 135.520245 
L 310.184343 121.90275 
L 310.832356 169.584706 
L 311.480369 187.436679 
L 312.128382 196.019353 
L 312.776395 195.740687 
L 313.424408 197.061197 
L 314.072421 194.365684 
L 314.720434 200.946496 
L 315.368447 191.191194 
L 316.01646 202.970768 
L 316.664473 176.123081 
L 317.312486 218.000744 
L 317.960499 152.203625 
L 318.608513 130.74624 
L 319.256526 183.637826 
L 319.904539 196.508245 
L 320.552552 192.033018 
L 321.200565 204.741141 
L 321.848578 224.932917 
L 322.496591 187.686881 
L 323.144604 138.662237 
L 323.792617 175.201529 
L 324.44063 139.519006 
L 325.088643 93.784117 
L 325.736656 106.575285 
L 326.384669 52.078069 
L 327.032682 85.598222 
L 327.680695 77.011625 
L 328.328708 123.87053 
L 328.976722 166.930723 
L 329.624735 201.709818 
L 330.272748 247.676716 
L 330.920761 239.516248 
L 331.568774 232.609255 
L 332.216787 243.851058 
L 332.8648 247.619726 
L 333.512813 222.451651 
L 334.160826 217.929841 
L 334.808839 213.072943 
L 335.456852 168.406793 
L 336.104865 91.995192 
L 336.752878 112.830362 
L 337.400891 158.94333 
L 338.048904 162.839541 
L 338.696918 102.436084 
L 339.344931 117.06435 
L 339.992944 130.628684 
L 340.640957 143.249933 
L 341.28897 134.529229 
L 341.936983 145.816383 
L 342.584996 173.9324 
L 343.233009 152.202417 
L 343.881022 96.506302 
L 344.529035 160.742954 
L 345.177048 162.854237 
L 345.825061 134.907166 
L 346.473074 128.709028 
L 347.121087 121.473641 
L 347.7691 119.477685 
L 348.417114 113.05926 
L 349.065127 101.507429 
L 349.71314 174.396634 
L 350.361153 138.662237 
L 351.009166 176.114954 
L 351.657179 139.475917 
L 352.305192 146.312607 
L 352.953205 152.926733 
L 353.601218 170.504607 
L 354.249231 135.780432 
L 354.897244 152.204649 
L 355.545257 171.354024 
L 356.19327 101.618306 
L 356.841283 147.854383 
L 357.489296 106.345829 
L 358.137309 172.223255 
L 358.785323 111.704192 
L 359.433336 104.531427 
L 360.081349 91.404173 
L 360.729362 146.714303 
L 361.377375 132.641347 
L 362.025388 106.81406 
L 362.673401 186.431296 
L 363.321414 166.719988 
L 363.969427 117.770984 
L 364.61744 119.07424 
L 365.265453 153.645641 
L 365.913466 151.429631 
L 366.561479 169.172224 
L 367.209492 148.465112 
L 367.857505 104.470604 
L 368.505519 117.770984 
L 369.153532 179.293544 
L 369.801545 115.470514 
L 370.449558 136.550954 
L 371.097571 100.299974 
L 371.745584 90.51631 
L 372.393597 132.913983 
L 373.04161 140.263103 
L 373.689623 161.881588 
L 374.337636 147.576105 
L 374.985649 116.635241 
L 375.633662 150.52601 
L 376.281675 160.485406 
L 376.929688 156.871241 
L 377.577701 218.948952 
L 378.225714 144.138118 
L 378.873728 123.661836 
L 379.521741 134.674723 
L 380.169754 221.26256 
L 380.817767 160.317429 
L 381.46578 181.713766 
L 382.113793 115.104726 
L 382.761806 137.891625 
L 383.409819 131.162895 
L 384.057832 96.129618 
L 384.705845 136.840949 
L 385.353858 190.911849 
L 386.001871 228.387868 
L 386.649884 176.299623 
L 387.297897 235.773597 
L 387.94591 243.777637 
L 388.593924 209.982258 
L 389.241937 157.781465 
L 389.88995 76.377364 
L 390.537963 60.67017 
L 391.185976 87.453636 
L 391.833989 79.092792 
L 392.482002 69.818869 
L 393.130015 106.958441 
L 393.778028 64.149499 
L 394.426041 99.67853 
L 395.074054 93.70566 
L 395.722067 91.045935 
L 396.37008 77.011625 
L 397.018093 104.143647 
L 397.666106 74.768715 
L 398.314119 92.260359 
L 398.962133 91.61453 
L 399.610146 77.720774 
L 400.258159 111.704192 
L 400.906172 121.486095 
L 401.554185 94.261807 
L 402.202198 106.575285 
L 402.850211 154.340301 
L 403.498224 152.204649 
L 404.146237 111.72242 
L 404.79425 122.10335 
L 405.442263 118.578117 
L 406.090276 117.726284 
L 406.738289 147.364017 
L 407.386302 150.231106 
L 408.034315 150.480907 
L 408.682329 145.68761 
L 409.330342 209.939345 
L 409.978355 231.139303 
L 410.626368 230.83298 
L 411.274381 192.524649 
L 411.922394 165.316905 
L 412.570407 146.334234 
L 413.21842 138.81024 
L 413.866433 126.465229 
L 414.514446 155.802554 
L 415.162459 148.31227 
L 415.810472 181.344547 
L 416.458485 153.974617 
L 417.106498 130.942032 
L 417.754511 129.27745 
L 418.402524 151.962725 
L 419.050538 171.558388 
L 419.698551 152.966 
L 420.346564 199.046229 
L 420.994577 79.607115 
L 421.64259 100.585487 
L 422.290603 125.274636 
L 422.938616 120.381132 
L 423.586629 129.27745 
L 424.234642 108.943975 
L 424.882655 122.872397 
L 425.530668 105.423887 
L 426.178681 136.001295 
L 426.826694 141.25635 
L 427.474707 134.824114 
L 428.12272 91.526825 
L 428.770734 136.764179 
L 429.418747 132.414696 
L 430.06676 119.757501 
L 430.714773 148.088333 
L 430.714773 61.176517 
L 430.714773 61.176517 
L 430.06676 63.702549 
L 429.418747 60.722154 
L 428.770734 53.147071 
L 428.12272 66.128425 
L 427.474707 77.666336 
L 426.826694 80.9109 
L 426.178681 63.586755 
L 425.530668 61.908163 
L 424.882655 70.264453 
L 424.234642 55.162475 
L 423.586629 54.1826 
L 422.938616 72.755718 
L 422.290603 61.411014 
L 421.64259 57.069763 
L 420.994577 55.468935 
L 420.346564 48.925821 
L 419.698551 49.84765 
L 419.050538 47.383262 
L 418.402524 46.571625 
L 417.754511 54.1826 
L 417.106498 46.571625 
L 416.458485 55.290233 
L 415.810472 46.571625 
L 415.162459 46.571625 
L 414.514446 46.571625 
L 413.866433 50.543621 
L 413.21842 54.32661 
L 412.570407 56.479416 
L 411.922394 66.527145 
L 411.274381 71.575401 
L 410.626368 75.19987 
L 409.978355 65.216747 
L 409.330342 67.063105 
L 408.682329 63.57724 
L 408.034315 55.558343 
L 407.386302 49.356944 
L 406.738289 61.900833 
L 406.090276 49.605766 
L 405.442263 55.205133 
L 404.79425 54.9055 
L 404.146237 46.571625 
L 403.498224 46.571625 
L 402.850211 64.601349 
L 402.202198 51.079965 
L 401.554185 53.716643 
L 400.906172 49.071555 
L 400.258159 52.402258 
L 399.610146 46.571625 
L 398.962133 46.68712 
L 398.314119 52.492491 
L 397.666106 50.630535 
L 397.018093 56.737203 
L 396.37008 51.613225 
L 395.722067 53.706915 
L 395.074054 57.49839 
L 394.426041 54.75112 
L 393.778028 48.347351 
L 393.130015 46.571625 
L 392.482002 65.257181 
L 391.833989 59.208858 
L 391.185976 63.750414 
L 390.537963 48.60108 
L 389.88995 55.473086 
L 389.241937 51.483385 
L 388.593924 63.794592 
L 387.94591 46.571625 
L 387.297897 46.571625 
L 386.649884 68.446827 
L 386.001871 77.644982 
L 385.353858 69.962601 
L 384.705845 82.100701 
L 384.057832 55.074432 
L 383.409819 58.748355 
L 382.761806 61.696425 
L 382.113793 55.452924 
L 381.46578 72.709484 
L 380.817767 55.398621 
L 380.169754 62.19109 
L 379.521741 61.687727 
L 378.873728 59.798214 
L 378.225714 61.901132 
L 377.577701 83.858298 
L 376.929688 65.296009 
L 376.281675 64.907444 
L 375.633662 68.41564 
L 374.985649 53.922409 
L 374.337636 48.786345 
L 373.689623 46.571625 
L 373.04161 52.873747 
L 372.393597 53.771667 
L 371.745584 51.01094 
L 371.097571 63.806476 
L 370.449558 59.811496 
L 369.801545 58.312736 
L 369.153532 68.678506 
L 368.505519 62.463466 
L 367.857505 56.410246 
L 367.209492 57.574138 
L 366.561479 75.574226 
L 365.913466 51.384019 
L 365.265453 62.070409 
L 364.61744 48.25781 
L 363.969427 62.463466 
L 363.321414 46.571625 
L 362.673401 55.089554 
L 362.025388 60.51799 
L 361.377375 57.269903 
L 360.729362 59.324947 
L 360.081349 59.799877 
L 359.433336 53.123823 
L 358.785323 52.402258 
L 358.137309 46.571625 
L 357.489296 54.535021 
L 356.841283 51.733667 
L 356.19327 46.571625 
L 355.545257 46.571625 
L 354.897244 46.571625 
L 354.249231 47.679618 
L 353.601218 67.790643 
L 352.953205 66.014917 
L 352.305192 46.571625 
L 351.657179 50.435333 
L 351.009166 65.405896 
L 350.361153 46.571625 
L 349.71314 67.124216 
L 349.065127 49.696621 
L 348.417114 76.85199 
L 347.7691 63.982365 
L 347.121087 58.760809 
L 346.473074 61.202222 
L 345.825061 64.680884 
L 345.177048 65.764213 
L 344.529035 84.003496 
L 343.881022 54.697748 
L 343.233009 66.739233 
L 342.584996 70.81405 
L 341.936983 66.674067 
L 341.28897 58.607621 
L 340.640957 56.338117 
L 339.992944 62.508166 
L 339.344931 56.7189 
L 338.696918 58.444766 
L 338.048904 91.583709 
L 337.400891 50.32152 
L 336.752878 73.855288 
L 336.104865 72.111258 
L 335.456852 102.144457 
L 334.808839 76.831907 
L 334.160826 126.810209 
L 333.512813 99.709199 
L 332.8648 46.571625 
L 332.216787 97.663392 
L 331.568774 57.295595 
L 330.920761 72.967802 
L 330.272748 132.544934 
L 329.624735 75.292632 
L 328.976722 93.943727 
L 328.328708 78.94312 
L 327.680695 51.613225 
L 327.032682 52.703428 
L 326.384669 47.516381 
L 325.736656 51.079965 
L 325.088643 63.871133 
L 324.44063 46.571625 
L 323.792617 50.191321 
L 323.144604 46.571625 
L 322.496591 50.608369 
L 321.848578 87.551133 
L 321.200565 46.571625 
L 320.552552 65.615832 
L 319.904539 51.463805 
L 319.256526 64.334224 
L 318.608513 46.571625 
L 317.960499 50.610025 
L 317.312486 107.385706 
L 316.664473 62.172169 
L 316.01646 80.482882 
L 315.368447 79.360056 
L 314.720434 69.604754 
L 314.072421 150.374366 
L 313.424408 144.453253 
L 312.776395 152.224963 
L 312.128382 139.043897 
L 311.480369 83.114571 
L 310.832356 68.710544 
L 310.184343 61.5573 
L 309.53633 60.842205 
L 308.888317 46.571625 
L 308.240303 60.641106 
L 307.59229 55.132338 
L 306.944277 46.571625 
L 306.296264 68.226007 
L 305.648251 71.020672 
L 305.000238 46.571625 
L 304.352225 115.480733 
L 303.704212 55.072112 
L 303.056199 75.67541 
L 302.408186 60.232612 
L 301.760173 46.895267 
L 301.11216 61.16021 
L 300.464147 56.963945 
L 299.816134 51.045354 
L 299.168121 56.519761 
L 298.520108 46.571625 
L 297.872094 46.959321 
L 297.224081 56.572614 
L 296.576068 55.638549 
L 295.928055 60.77781 
L 295.280042 69.850713 
L 294.632029 46.571625 
L 293.984016 65.840399 
L 293.336003 69.065999 
L 292.68799 46.571625 
L 292.039977 62.232362 
L 291.391964 85.978713 
L 290.743951 46.571625 
L 290.095938 54.651438 
L 289.447925 74.76392 
L 288.799912 74.011024 
L 288.151898 98.750733 
L 287.503885 85.767603 
L 286.855872 62.619086 
L 286.207859 84.307395 
L 285.559846 103.857086 
L 284.911833 90.947363 
L 284.26382 68.268241 
L 283.615807 64.42792 
L 282.967794 73.263555 
L 282.319781 106.31861 
L 281.671768 83.532088 
L 281.023755 88.955936 
L 280.375742 84.053721 
L 279.727729 76.144697 
L 279.079716 90.232622 
L 278.431703 81.69039 
L 277.783689 59.861721 
L 277.135676 117.004491 
L 276.487663 59.798214 
L 275.83965 62.334954 
L 275.191637 59.861721 
L 274.543624 61.76276 
L 273.895611 68.678506 
L 273.247598 68.89563 
L 272.599585 77.134286 
L 271.951572 70.74059 
L 271.303559 80.49085 
L 270.655546 65.99861 
L 270.007533 59.324947 
L 269.35952 67.73308 
L 268.711507 71.512467 
L 268.063493 54.09389 
L 267.41548 46.571625 
L 266.767467 47.464218 
L 266.119454 49.41769 
L 265.471441 46.571625 
L 264.823428 80.796816 
L 264.175415 68.437609 
L 263.527402 46.571625 
L 262.879389 47.919258 
L 262.231376 56.248425 
L 261.583363 58.41465 
L 260.93535 73.070243 
L 260.287337 58.27788 
L 259.639324 71.596935 
L 258.991311 47.404935 
L 258.343297 57.362053 
L 257.695284 46.842961 
L 257.047271 50.176518 
L 256.399258 50.618563 
L 255.751245 53.43948 
L 255.103232 61.920135 
L 254.455219 46.571625 
L 253.807206 53.334134 
L 253.159193 55.769329 
L 252.51118 61.900833 
L 251.863167 58.02332 
L 251.215154 59.324947 
L 250.567141 68.286867 
L 249.919128 89.546041 
L 249.271115 69.35282 
L 248.623102 65.246548 
L 247.975088 61.401705 
L 247.327075 46.571625 
L 246.679062 46.571625 
L 246.031049 46.571625 
L 245.383036 46.571625 
L 244.735023 46.571625 
L 244.08701 46.571625 
L 243.438997 46.571625 
L 242.790984 78.666546 
L 242.142971 82.03677 
L 241.494958 109.79037 
L 240.846945 89.457104 
L 240.198932 71.848969 
L 239.550919 55.539947 
L 238.902906 48.470978 
L 238.254892 61.16021 
L 237.606879 67.415983 
L 236.958866 102.315627 
L 236.310853 80.086386 
L 235.66284 99.501392 
L 235.014827 92.124121 
L 234.366814 72.780599 
L 233.718801 115.454762 
L 233.070788 172.693667 
L 232.422775 141.153734 
L 231.774762 164.920481 
L 231.126749 181.072133 
L 230.478736 207.260303 
L 229.830723 164.558643 
L 229.18271 156.19461 
L 228.534697 193.366302 
L 227.886683 187.699233 
L 227.23867 198.512296 
L 226.590657 198.405816 
L 225.942644 210.43843 
L 225.294631 212.600563 
L 224.646618 240.310825 
L 223.998605 218.929744 
L 223.350592 169.99564 
L 222.702579 93.809443 
L 222.054566 87.202239 
L 221.406553 97.703087 
L 220.75854 93.809443 
L 220.110527 97.703087 
L 219.462514 105.490374 
L 218.814501 117.171305 
L 218.166487 109.384018 
L 217.518474 144.426811 
L 216.870461 152.214098 
L 216.222448 156.107741 
L 215.574435 148.320454 
L 214.926422 132.74588 
L 214.278409 191.150534 
L 213.630396 206.725109 
L 212.982383 241.767901 
L 212.33437 237.874258 
L 211.686357 261.23612 
L 211.038344 257.342476 
L 210.390331 280.704338 
L 209.742318 280.704338 
L 209.094305 269.023407 
L 208.446292 261.23612 
L 207.798278 253.448832 
L 207.150265 261.23612 
L 206.502252 191.150534 
L 205.854239 222.299683 
L 205.206226 183.363247 
L 204.558213 191.150534 
L 203.9102 230.08697 
L 203.262187 222.299683 
L 202.614174 288.491625 
L 201.966161 288.491625 
L 201.318148 226.193327 
L 200.670135 269.023407 
L 200.022122 288.491625 
L 199.374109 265.129763 
L 198.726096 241.767901 
L 198.078082 288.491625 
L 197.430069 284.597981 
L 196.782056 272.91705 
L 196.134043 284.597981 
L 195.48603 276.810694 
L 194.838017 257.342476 
L 194.190004 219.509684 
L 193.541991 249.555189 
L 192.893978 238.556948 
L 192.245965 280.704338 
L 191.597952 280.704338 
L 190.949939 288.491625 
L 190.301926 288.491625 
L 189.653913 288.491625 
L 189.0059 288.491625 
L 188.357886 288.491625 
L 187.709873 288.491625 
L 187.06186 288.491625 
L 186.413847 288.491625 
L 185.765834 288.491625 
L 185.117821 288.491625 
L 184.469808 288.491625 
L 183.821795 288.491625 
L 183.173782 288.491625 
L 182.525769 288.491625 
L 181.877756 288.491625 
L 181.229743 288.491625 
L 180.58173 288.491625 
L 179.933717 288.491625 
L 179.285704 288.491625 
L 178.637691 288.491625 
L 177.989677 288.491625 
L 177.341664 288.491625 
L 176.693651 288.491625 
L 176.045638 288.491625 
L 175.397625 288.491625 
L 174.749612 288.491625 
L 174.101599 288.491625 
L 173.453586 288.491625 
L 172.805573 288.491625 
L 172.15756 288.491625 
L 171.509547 288.491625 
L 170.861534 288.491625 
L 170.213521 288.491625 
L 169.565508 288.491625 
L 168.917495 288.491625 
L 168.269481 288.491625 
L 167.621468 288.491625 
L 166.973455 288.491625 
L 166.325442 288.491625 
L 165.677429 288.491625 
L 165.029416 288.491625 
L 164.381403 288.491625 
L 163.73339 288.491625 
L 163.085377 288.491625 
L 162.437364 288.491625 
L 161.789351 288.491625 
L 161.141338 288.491625 
L 160.493325 288.491625 
L 159.845312 288.491625 
L 159.197299 288.491625 
L 158.549286 288.491625 
L 157.901272 288.491625 
L 157.253259 288.491625 
L 156.605246 288.491625 
L 155.957233 288.491625 
L 155.30922 288.491625 
L 154.661207 288.491625 
L 154.013194 288.491625 
L 153.365181 288.491625 
L 152.717168 288.491625 
L 152.069155 288.491625 
L 151.421142 288.491625 
L 150.773129 288.491625 
L 150.125116 288.491625 
L 149.477103 288.491625 
L 148.82909 288.491625 
L 148.181076 288.491625 
L 147.533063 288.491625 
L 146.88505 288.491625 
L 146.237037 288.491625 
L 145.589024 288.491625 
L 144.941011 288.491625 
L 144.292998 288.491625 
L 143.644985 288.491625 
L 142.996972 288.491625 
L 142.348959 288.491625 
L 141.700946 288.491625 
L 141.052933 288.491625 
L 140.40492 288.491625 
L 139.756907 288.491625 
L 139.108894 288.491625 
L 138.460881 288.491625 
L 137.812867 288.491625 
L 137.164854 288.491625 
L 136.516841 288.491625 
L 135.868828 288.491625 
L 135.220815 288.491625 
L 134.572802 288.491625 
L 133.924789 288.491625 
L 133.276776 288.491625 
L 132.628763 288.491625 
L 131.98075 288.491625 
L 131.332737 288.491625 
L 130.684724 288.491625 
L 130.036711 288.491625 
L 129.388698 288.491625 
L 128.740685 288.491625 
L 128.092671 288.491625 
L 127.444658 288.491625 
L 126.796645 288.491625 
L 126.148632 288.491625 
L 125.500619 288.491625 
L 124.852606 288.491625 
L 124.204593 288.491625 
L 123.55658 288.491625 
L 122.908567 288.491625 
L 122.260554 288.491625 
L 121.612541 288.491625 
L 120.964528 288.491625 
L 120.316515 288.491625 
L 119.668502 288.491625 
L 119.020489 288.491625 
L 118.372476 288.491625 
L 117.724462 288.491625 
L 117.076449 288.491625 
L 116.428436 288.491625 
L 115.780423 288.491625 
L 115.13241 288.491625 
L 114.484397 288.491625 
L 113.836384 288.491625 
L 113.188371 288.491625 
L 112.540358 288.491625 
L 111.892345 288.491625 
L 111.244332 288.491625 
L 110.596319 288.491625 
L 109.948306 288.491625 
L 109.300293 288.491625 
L 108.65228 288.491625 
L 108.004266 288.491625 
L 107.356253 288.491625 
L 106.70824 288.491625 
L 106.060227 115.898318 
z
" clip-path="url(#p57f8328204)" style="fill: #2ca02c; fill-opacity: 0.3"/>
   </g>
   <g id="matplotlib.axis_1">
    <g id="xtick_1">
     <g id="line2d_1">
      <defs>
       <path id="m35eb1bb639" d="M 0 0 
L 0 3.5 
" style="stroke: #000000; stroke-width: 0.8"/>
      </defs>
      <g>
       <use xlink:href="#m35eb1bb639" x="106.060227" y="300.587625" style="stroke: #000000; stroke-width: 0.8"/>
      </g>
     </g>
     <g id="text_1">
      <!-- 0 -->
      <g transform="translate(97.152727 328.86325) scale(0.28 -0.28)">
       <defs>
        <path id="DejaVuSans-30" d="M 2034 4250 
Q 1547 4250 1301 3770 
Q 1056 3291 1056 2328 
Q 1056 1369 1301 889 
Q 1547 409 2034 409 
Q 2525 409 2770 889 
Q 3016 1369 3016 2328 
Q 3016 3291 2770 3770 
Q 2525 4250 2034 4250 
z
M 2034 4750 
Q 2819 4750 3233 4129 
Q 3647 3509 3647 2328 
Q 3647 1150 3233 529 
Q 2819 -91 2034 -91 
Q 1250 -91 836 529 
Q 422 1150 422 2328 
Q 422 3509 836 4129 
Q 1250 4750 2034 4750 
z
" transform="scale(0.015625)"/>
       </defs>
       <use xlink:href="#DejaVuSans-30"/>
      </g>
     </g>
    </g>
    <g id="xtick_2">
     <g id="line2d_2">
      <g>
       <use xlink:href="#m35eb1bb639" x="235.66284" y="300.587625" style="stroke: #000000; stroke-width: 0.8"/>
      </g>
     </g>
     <g id="text_2">
      <!-- 2000 -->
      <g transform="translate(200.03284 328.86325) scale(0.28 -0.28)">
       <defs>
        <path id="DejaVuSans-32" d="M 1228 531 
L 3431 531 
L 3431 0 
L 469 0 
L 469 531 
Q 828 903 1448 1529 
Q 2069 2156 2228 2338 
Q 2531 2678 2651 2914 
Q 2772 3150 2772 3378 
Q 2772 3750 2511 3984 
Q 2250 4219 1831 4219 
Q 1534 4219 1204 4116 
Q 875 4013 500 3803 
L 500 4441 
Q 881 4594 1212 4672 
Q 1544 4750 1819 4750 
Q 2544 4750 2975 4387 
Q 3406 4025 3406 3419 
Q 3406 3131 3298 2873 
Q 3191 2616 2906 2266 
Q 2828 2175 2409 1742 
Q 1991 1309 1228 531 
z
" transform="scale(0.015625)"/>
       </defs>
       <use xlink:href="#DejaVuSans-32"/>
       <use xlink:href="#DejaVuSans-30" x="63.623047"/>
       <use xlink:href="#DejaVuSans-30" x="127.246094"/>
       <use xlink:href="#DejaVuSans-30" x="190.869141"/>
      </g>
     </g>
    </g>
    <g id="xtick_3">
     <g id="line2d_3">
      <g>
       <use xlink:href="#m35eb1bb639" x="365.265453" y="300.587625" style="stroke: #000000; stroke-width: 0.8"/>
      </g>
     </g>
     <g id="text_3">
      <!-- 4000 -->
      <g transform="translate(329.635453 328.86325) scale(0.28 -0.28)">
       <defs>
        <path id="DejaVuSans-34" d="M 2419 4116 
L 825 1625 
L 2419 1625 
L 2419 4116 
z
M 2253 4666 
L 3047 4666 
L 3047 1625 
L 3713 1625 
L 3713 1100 
L 3047 1100 
L 3047 0 
L 2419 0 
L 2419 1100 
L 313 1100 
L 313 1709 
L 2253 4666 
z
" transform="scale(0.015625)"/>
       </defs>
       <use xlink:href="#DejaVuSans-34"/>
       <use xlink:href="#DejaVuSans-30" x="63.623047"/>
       <use xlink:href="#DejaVuSans-30" x="127.246094"/>
       <use xlink:href="#DejaVuSans-30" x="190.869141"/>
      </g>
     </g>
    </g>
    <g id="text_4">
     <!-- Sampled Trajectories -->
     <g transform="translate(121.925625 359.962) scale(0.28 -0.28)">
      <defs>
       <path id="DejaVuSans-53" d="M 3425 4513 
L 3425 3897 
Q 3066 4069 2747 4153 
Q 2428 4238 2131 4238 
Q 1616 4238 1336 4038 
Q 1056 3838 1056 3469 
Q 1056 3159 1242 3001 
Q 1428 2844 1947 2747 
L 2328 2669 
Q 3034 2534 3370 2195 
Q 3706 1856 3706 1288 
Q 3706 609 3251 259 
Q 2797 -91 1919 -91 
Q 1588 -91 1214 -16 
Q 841 59 441 206 
L 441 856 
Q 825 641 1194 531 
Q 1563 422 1919 422 
Q 2459 422 2753 634 
Q 3047 847 3047 1241 
Q 3047 1584 2836 1778 
Q 2625 1972 2144 2069 
L 1759 2144 
Q 1053 2284 737 2584 
Q 422 2884 422 3419 
Q 422 4038 858 4394 
Q 1294 4750 2059 4750 
Q 2388 4750 2728 4690 
Q 3069 4631 3425 4513 
z
" transform="scale(0.015625)"/>
       <path id="DejaVuSans-61" d="M 2194 1759 
Q 1497 1759 1228 1600 
Q 959 1441 959 1056 
Q 959 750 1161 570 
Q 1363 391 1709 391 
Q 2188 391 2477 730 
Q 2766 1069 2766 1631 
L 2766 1759 
L 2194 1759 
z
M 3341 1997 
L 3341 0 
L 2766 0 
L 2766 531 
Q 2569 213 2275 61 
Q 1981 -91 1556 -91 
Q 1019 -91 701 211 
Q 384 513 384 1019 
Q 384 1609 779 1909 
Q 1175 2209 1959 2209 
L 2766 2209 
L 2766 2266 
Q 2766 2663 2505 2880 
Q 2244 3097 1772 3097 
Q 1472 3097 1187 3025 
Q 903 2953 641 2809 
L 641 3341 
Q 956 3463 1253 3523 
Q 1550 3584 1831 3584 
Q 2591 3584 2966 3190 
Q 3341 2797 3341 1997 
z
" transform="scale(0.015625)"/>
       <path id="DejaVuSans-6d" d="M 3328 2828 
Q 3544 3216 3844 3400 
Q 4144 3584 4550 3584 
Q 5097 3584 5394 3201 
Q 5691 2819 5691 2113 
L 5691 0 
L 5113 0 
L 5113 2094 
Q 5113 2597 4934 2840 
Q 4756 3084 4391 3084 
Q 3944 3084 3684 2787 
Q 3425 2491 3425 1978 
L 3425 0 
L 2847 0 
L 2847 2094 
Q 2847 2600 2669 2842 
Q 2491 3084 2119 3084 
Q 1678 3084 1418 2786 
Q 1159 2488 1159 1978 
L 1159 0 
L 581 0 
L 581 3500 
L 1159 3500 
L 1159 2956 
Q 1356 3278 1631 3431 
Q 1906 3584 2284 3584 
Q 2666 3584 2933 3390 
Q 3200 3197 3328 2828 
z
" transform="scale(0.015625)"/>
       <path id="DejaVuSans-70" d="M 1159 525 
L 1159 -1331 
L 581 -1331 
L 581 3500 
L 1159 3500 
L 1159 2969 
Q 1341 3281 1617 3432 
Q 1894 3584 2278 3584 
Q 2916 3584 3314 3078 
Q 3713 2572 3713 1747 
Q 3713 922 3314 415 
Q 2916 -91 2278 -91 
Q 1894 -91 1617 61 
Q 1341 213 1159 525 
z
M 3116 1747 
Q 3116 2381 2855 2742 
Q 2594 3103 2138 3103 
Q 1681 3103 1420 2742 
Q 1159 2381 1159 1747 
Q 1159 1113 1420 752 
Q 1681 391 2138 391 
Q 2594 391 2855 752 
Q 3116 1113 3116 1747 
z
" transform="scale(0.015625)"/>
       <path id="DejaVuSans-6c" d="M 603 4863 
L 1178 4863 
L 1178 0 
L 603 0 
L 603 4863 
z
" transform="scale(0.015625)"/>
       <path id="DejaVuSans-65" d="M 3597 1894 
L 3597 1613 
L 953 1613 
Q 991 1019 1311 708 
Q 1631 397 2203 397 
Q 2534 397 2845 478 
Q 3156 559 3463 722 
L 3463 178 
Q 3153 47 2828 -22 
Q 2503 -91 2169 -91 
Q 1331 -91 842 396 
Q 353 884 353 1716 
Q 353 2575 817 3079 
Q 1281 3584 2069 3584 
Q 2775 3584 3186 3129 
Q 3597 2675 3597 1894 
z
M 3022 2063 
Q 3016 2534 2758 2815 
Q 2500 3097 2075 3097 
Q 1594 3097 1305 2825 
Q 1016 2553 972 2059 
L 3022 2063 
z
" transform="scale(0.015625)"/>
       <path id="DejaVuSans-64" d="M 2906 2969 
L 2906 4863 
L 3481 4863 
L 3481 0 
L 2906 0 
L 2906 525 
Q 2725 213 2448 61 
Q 2172 -91 1784 -91 
Q 1150 -91 751 415 
Q 353 922 353 1747 
Q 353 2572 751 3078 
Q 1150 3584 1784 3584 
Q 2172 3584 2448 3432 
Q 2725 3281 2906 2969 
z
M 947 1747 
Q 947 1113 1208 752 
Q 1469 391 1925 391 
Q 2381 391 2643 752 
Q 2906 1113 2906 1747 
Q 2906 2381 2643 2742 
Q 2381 3103 1925 3103 
Q 1469 3103 1208 2742 
Q 947 2381 947 1747 
z
" transform="scale(0.015625)"/>
       <path id="DejaVuSans-20" transform="scale(0.015625)"/>
       <path id="DejaVuSans-54" d="M -19 4666 
L 3928 4666 
L 3928 4134 
L 2272 4134 
L 2272 0 
L 1638 0 
L 1638 4134 
L -19 4134 
L -19 4666 
z
" transform="scale(0.015625)"/>
       <path id="DejaVuSans-72" d="M 2631 2963 
Q 2534 3019 2420 3045 
Q 2306 3072 2169 3072 
Q 1681 3072 1420 2755 
Q 1159 2438 1159 1844 
L 1159 0 
L 581 0 
L 581 3500 
L 1159 3500 
L 1159 2956 
Q 1341 3275 1631 3429 
Q 1922 3584 2338 3584 
Q 2397 3584 2469 3576 
Q 2541 3569 2628 3553 
L 2631 2963 
z
" transform="scale(0.015625)"/>
       <path id="DejaVuSans-6a" d="M 603 3500 
L 1178 3500 
L 1178 -63 
Q 1178 -731 923 -1031 
Q 669 -1331 103 -1331 
L -116 -1331 
L -116 -844 
L 38 -844 
Q 366 -844 484 -692 
Q 603 -541 603 -63 
L 603 3500 
z
M 603 4863 
L 1178 4863 
L 1178 4134 
L 603 4134 
L 603 4863 
z
" transform="scale(0.015625)"/>
       <path id="DejaVuSans-63" d="M 3122 3366 
L 3122 2828 
Q 2878 2963 2633 3030 
Q 2388 3097 2138 3097 
Q 1578 3097 1268 2742 
Q 959 2388 959 1747 
Q 959 1106 1268 751 
Q 1578 397 2138 397 
Q 2388 397 2633 464 
Q 2878 531 3122 666 
L 3122 134 
Q 2881 22 2623 -34 
Q 2366 -91 2075 -91 
Q 1284 -91 818 406 
Q 353 903 353 1747 
Q 353 2603 823 3093 
Q 1294 3584 2113 3584 
Q 2378 3584 2631 3529 
Q 2884 3475 3122 3366 
z
" transform="scale(0.015625)"/>
       <path id="DejaVuSans-74" d="M 1172 4494 
L 1172 3500 
L 2356 3500 
L 2356 3053 
L 1172 3053 
L 1172 1153 
Q 1172 725 1289 603 
Q 1406 481 1766 481 
L 2356 481 
L 2356 0 
L 1766 0 
Q 1100 0 847 248 
Q 594 497 594 1153 
L 594 3053 
L 172 3053 
L 172 3500 
L 594 3500 
L 594 4494 
L 1172 4494 
z
" transform="scale(0.015625)"/>
       <path id="DejaVuSans-6f" d="M 1959 3097 
Q 1497 3097 1228 2736 
Q 959 2375 959 1747 
Q 959 1119 1226 758 
Q 1494 397 1959 397 
Q 2419 397 2687 759 
Q 2956 1122 2956 1747 
Q 2956 2369 2687 2733 
Q 2419 3097 1959 3097 
z
M 1959 3584 
Q 2709 3584 3137 3096 
Q 3566 2609 3566 1747 
Q 3566 888 3137 398 
Q 2709 -91 1959 -91 
Q 1206 -91 779 398 
Q 353 888 353 1747 
Q 353 2609 779 3096 
Q 1206 3584 1959 3584 
z
" transform="scale(0.015625)"/>
       <path id="DejaVuSans-69" d="M 603 3500 
L 1178 3500 
L 1178 0 
L 603 0 
L 603 3500 
z
M 603 4863 
L 1178 4863 
L 1178 4134 
L 603 4134 
L 603 4863 
z
" transform="scale(0.015625)"/>
       <path id="DejaVuSans-73" d="M 2834 3397 
L 2834 2853 
Q 2591 2978 2328 3040 
Q 2066 3103 1784 3103 
Q 1356 3103 1142 2972 
Q 928 2841 928 2578 
Q 928 2378 1081 2264 
Q 1234 2150 1697 2047 
L 1894 2003 
Q 2506 1872 2764 1633 
Q 3022 1394 3022 966 
Q 3022 478 2636 193 
Q 2250 -91 1575 -91 
Q 1294 -91 989 -36 
Q 684 19 347 128 
L 347 722 
Q 666 556 975 473 
Q 1284 391 1588 391 
Q 1994 391 2212 530 
Q 2431 669 2431 922 
Q 2431 1156 2273 1281 
Q 2116 1406 1581 1522 
L 1381 1569 
Q 847 1681 609 1914 
Q 372 2147 372 2553 
Q 372 3047 722 3315 
Q 1072 3584 1716 3584 
Q 2034 3584 2315 3537 
Q 2597 3491 2834 3397 
z
" transform="scale(0.015625)"/>
      </defs>
      <use xlink:href="#DejaVuSans-53"/>
      <use xlink:href="#DejaVuSans-61" x="63.476562"/>
      <use xlink:href="#DejaVuSans-6d" x="124.755859"/>
      <use xlink:href="#DejaVuSans-70" x="222.167969"/>
      <use xlink:href="#DejaVuSans-6c" x="285.644531"/>
      <use xlink:href="#DejaVuSans-65" x="313.427734"/>
      <use xlink:href="#DejaVuSans-64" x="374.951172"/>
      <use xlink:href="#DejaVuSans-20" x="438.427734"/>
      <use xlink:href="#DejaVuSans-54" x="470.214844"/>
      <use xlink:href="#DejaVuSans-72" x="516.548828"/>
      <use xlink:href="#DejaVuSans-61" x="557.662109"/>
      <use xlink:href="#DejaVuSans-6a" x="618.941406"/>
      <use xlink:href="#DejaVuSans-65" x="646.724609"/>
      <use xlink:href="#DejaVuSans-63" x="708.248047"/>
      <use xlink:href="#DejaVuSans-74" x="763.228516"/>
      <use xlink:href="#DejaVuSans-6f" x="802.4375"/>
      <use xlink:href="#DejaVuSans-72" x="863.619141"/>
      <use xlink:href="#DejaVuSans-69" x="904.732422"/>
      <use xlink:href="#DejaVuSans-65" x="932.515625"/>
      <use xlink:href="#DejaVuSans-73" x="994.039062"/>
     </g>
    </g>
   </g>
   <g id="matplotlib.axis_2">
    <g id="ytick_1">
     <g id="line2d_4">
      <defs>
       <path id="mb837bdf4d6" d="M 0 0 
L -3.5 0 
" style="stroke: #000000; stroke-width: 0.8"/>
      </defs>
      <g>
       <use xlink:href="#mb837bdf4d6" x="89.8275" y="288.491625" style="stroke: #000000; stroke-width: 0.8"/>
      </g>
     </g>
     <g id="text_5">
      <!-- 0.0 -->
      <g transform="translate(38.29875 299.129437) scale(0.28 -0.28)">
       <defs>
        <path id="DejaVuSans-2e" d="M 684 794 
L 1344 794 
L 1344 0 
L 684 0 
L 684 794 
z
" transform="scale(0.015625)"/>
       </defs>
       <use xlink:href="#DejaVuSans-30"/>
       <use xlink:href="#DejaVuSans-2e" x="63.623047"/>
       <use xlink:href="#DejaVuSans-30" x="95.410156"/>
      </g>
     </g>
    </g>
    <g id="ytick_2">
     <g id="line2d_5">
      <g>
       <use xlink:href="#mb837bdf4d6" x="89.8275" y="167.531625" style="stroke: #000000; stroke-width: 0.8"/>
      </g>
     </g>
     <g id="text_6">
      <!-- 0.5 -->
      <g transform="translate(38.29875 178.169437) scale(0.28 -0.28)">
       <defs>
        <path id="DejaVuSans-35" d="M 691 4666 
L 3169 4666 
L 3169 4134 
L 1269 4134 
L 1269 2991 
Q 1406 3038 1543 3061 
Q 1681 3084 1819 3084 
Q 2600 3084 3056 2656 
Q 3513 2228 3513 1497 
Q 3513 744 3044 326 
Q 2575 -91 1722 -91 
Q 1428 -91 1123 -41 
Q 819 9 494 109 
L 494 744 
Q 775 591 1075 516 
Q 1375 441 1709 441 
Q 2250 441 2565 725 
Q 2881 1009 2881 1497 
Q 2881 1984 2565 2268 
Q 2250 2553 1709 2553 
Q 1456 2553 1204 2497 
Q 953 2441 691 2322 
L 691 4666 
z
" transform="scale(0.015625)"/>
       </defs>
       <use xlink:href="#DejaVuSans-30"/>
       <use xlink:href="#DejaVuSans-2e" x="63.623047"/>
       <use xlink:href="#DejaVuSans-35" x="95.410156"/>
      </g>
     </g>
    </g>
    <g id="ytick_3">
     <g id="line2d_6">
      <g>
       <use xlink:href="#mb837bdf4d6" x="89.8275" y="46.571625" style="stroke: #000000; stroke-width: 0.8"/>
      </g>
     </g>
     <g id="text_7">
      <!-- 1.0 -->
      <g transform="translate(38.29875 57.209437) scale(0.28 -0.28)">
       <defs>
        <path id="DejaVuSans-31" d="M 794 531 
L 1825 531 
L 1825 4091 
L 703 3866 
L 703 4441 
L 1819 4666 
L 2450 4666 
L 2450 531 
L 3481 531 
L 3481 0 
L 794 0 
L 794 531 
z
" transform="scale(0.015625)"/>
       </defs>
       <use xlink:href="#DejaVuSans-31"/>
       <use xlink:href="#DejaVuSans-2e" x="63.623047"/>
       <use xlink:href="#DejaVuSans-30" x="95.410156"/>
      </g>
     </g>
    </g>
    <g id="text_8">
     <!-- Success Rate -->
     <g transform="translate(28.475625 260.432562) rotate(-90) scale(0.28 -0.28)">
      <defs>
       <path id="DejaVuSans-75" d="M 544 1381 
L 544 3500 
L 1119 3500 
L 1119 1403 
Q 1119 906 1312 657 
Q 1506 409 1894 409 
Q 2359 409 2629 706 
Q 2900 1003 2900 1516 
L 2900 3500 
L 3475 3500 
L 3475 0 
L 2900 0 
L 2900 538 
Q 2691 219 2414 64 
Q 2138 -91 1772 -91 
Q 1169 -91 856 284 
Q 544 659 544 1381 
z
M 1991 3584 
L 1991 3584 
z
" transform="scale(0.015625)"/>
       <path id="DejaVuSans-52" d="M 2841 2188 
Q 3044 2119 3236 1894 
Q 3428 1669 3622 1275 
L 4263 0 
L 3584 0 
L 2988 1197 
Q 2756 1666 2539 1819 
Q 2322 1972 1947 1972 
L 1259 1972 
L 1259 0 
L 628 0 
L 628 4666 
L 2053 4666 
Q 2853 4666 3247 4331 
Q 3641 3997 3641 3322 
Q 3641 2881 3436 2590 
Q 3231 2300 2841 2188 
z
M 1259 4147 
L 1259 2491 
L 2053 2491 
Q 2509 2491 2742 2702 
Q 2975 2913 2975 3322 
Q 2975 3731 2742 3939 
Q 2509 4147 2053 4147 
L 1259 4147 
z
" transform="scale(0.015625)"/>
      </defs>
      <use xlink:href="#DejaVuSans-53"/>
      <use xlink:href="#DejaVuSans-75" x="63.476562"/>
      <use xlink:href="#DejaVuSans-63" x="126.855469"/>
      <use xlink:href="#DejaVuSans-63" x="181.835938"/>
      <use xlink:href="#DejaVuSans-65" x="236.816406"/>
      <use xlink:href="#DejaVuSans-73" x="298.339844"/>
      <use xlink:href="#DejaVuSans-73" x="350.439453"/>
      <use xlink:href="#DejaVuSans-20" x="402.539062"/>
      <use xlink:href="#DejaVuSans-52" x="434.326172"/>
      <use xlink:href="#DejaVuSans-61" x="501.558594"/>
      <use xlink:href="#DejaVuSans-74" x="562.837891"/>
      <use xlink:href="#DejaVuSans-65" x="602.046875"/>
     </g>
    </g>
   </g>
   <g id="line2d_7">
    <path d="M 106.060227 288.491625 
L 111.244332 288.491625 
L 116.428436 288.491625 
L 121.612541 246.155626 
L 126.796645 282.443625 
L 131.98075 197.771625 
L 137.164854 197.771625 
L 142.348959 88.907613 
L 147.533063 52.619619 
L 152.717168 52.619619 
L 157.901272 70.763631 
L 163.085377 52.619619 
L 168.269481 46.571625 
L 173.453586 82.859619 
L 178.637691 119.147613 
L 183.821795 46.571625 
L 189.0059 46.571625 
L 194.190004 46.571625 
L 199.374109 46.571625 
L 204.558213 46.571625 
L 209.742318 46.571625 
L 214.926422 46.571625 
L 220.110527 58.667613 
L 225.294631 46.571625 
L 230.478736 46.571625 
L 235.66284 46.571625 
L 240.846945 46.571625 
L 246.031049 46.571625 
L 251.215154 46.571625 
L 256.399258 52.619619 
L 261.583363 46.571625 
L 266.767467 52.619619 
L 271.951572 46.571625 
L 277.135676 46.571625 
L 282.319781 46.571625 
L 287.503885 46.571625 
L 292.68799 46.571625 
L 297.872094 46.571625 
L 303.056199 46.571625 
L 308.240303 46.571625 
L 313.424408 46.571625 
L 318.608513 46.571625 
L 323.792617 46.571625 
L 328.976722 46.571625 
L 334.160826 46.571625 
L 339.344931 46.571625 
L 344.529035 46.571625 
L 349.71314 46.571625 
L 354.897244 46.571625 
L 360.081349 46.571625 
L 365.265453 46.571625 
L 370.449558 46.571625 
L 375.633662 52.619619 
" clip-path="url(#p57f8328204)" style="fill: none; stroke: #1f77b4; stroke-width: 1.5; stroke-linecap: square"/>
   </g>
   <g id="line2d_8">
    <path d="M 106.060227 148.984425 
L 111.892345 288.491625 
L 117.724462 288.491625 
L 123.55658 288.491625 
L 129.388698 273.976425 
L 135.220815 283.653225 
L 141.052933 270.750825 
L 146.88505 288.491625 
L 152.717168 286.878825 
L 158.549286 286.878825 
L 164.381403 273.976425 
L 170.213521 288.491625 
L 176.045638 286.878825 
L 181.877756 286.878825 
L 187.709873 285.266025 
L 193.541991 288.491625 
L 199.374109 288.491625 
L 205.206226 288.491625 
L 211.038344 288.491625 
L 216.870461 288.491625 
L 222.702579 288.491625 
L 228.534697 288.491625 
L 234.366814 288.491625 
L 240.198932 288.491625 
L 246.031049 288.491625 
L 251.863167 288.491625 
L 257.695284 288.491625 
L 263.527402 288.491625 
L 269.35952 288.491625 
L 275.191637 288.491625 
L 281.023755 288.491625 
L 286.855872 288.491625 
L 292.68799 288.491625 
L 298.520108 288.491625 
L 304.352225 288.491625 
L 310.184343 288.491625 
L 316.01646 288.491625 
L 321.848578 288.491625 
L 327.680695 288.491625 
L 333.512813 288.491625 
L 339.344931 288.491625 
L 345.177048 288.491625 
L 351.009166 288.491625 
L 356.841283 288.491625 
L 362.673401 288.491625 
L 368.505519 288.491625 
L 374.337636 288.491625 
L 380.169754 288.491625 
L 386.001871 288.491625 
L 391.833989 288.491625 
L 397.666106 288.491625 
L 403.498224 288.491625 
L 409.330342 288.491625 
L 415.162459 288.491625 
L 420.994577 288.491625 
L 426.826694 288.491625 
" clip-path="url(#p57f8328204)" style="fill: none; stroke: #ff7f0e; stroke-width: 1.5; stroke-linecap: square"/>
   </g>
   <g id="line2d_9">
    <path d="M 106.060227 143.339625 
L 111.892345 288.491625 
L 117.724462 288.491625 
L 123.55658 288.491625 
L 129.388698 288.491625 
L 135.220815 288.491625 
L 141.052933 288.491625 
L 146.88505 288.491625 
L 152.717168 288.491625 
L 158.549286 288.491625 
L 164.381403 288.491625 
L 170.213521 288.491625 
L 176.045638 288.491625 
L 181.877756 288.491625 
L 187.709873 288.491625 
L 193.541991 272.363625 
L 199.374109 278.814825 
L 205.206226 244.946025 
L 211.038344 275.589225 
L 216.870461 232.043625 
L 222.702579 207.851625 
L 228.534697 236.882025 
L 234.366814 156.242025 
L 240.198932 128.824425 
L 246.031049 111.083625 
L 251.863167 73.989225 
L 257.695284 61.086825 
L 263.527402 64.312425 
L 269.35952 114.309225 
L 275.191637 96.568425 
L 281.023755 117.534825 
L 286.855872 94.955625 
L 292.68799 109.470825 
L 298.520108 69.150825 
L 304.352225 130.437225 
L 310.184343 91.730025 
L 316.01646 141.726825 
L 321.848578 156.242025 
L 327.680695 64.312425 
L 333.512813 161.080425 
L 339.344931 86.891625 
L 345.177048 114.309225 
L 351.009166 120.760425 
L 356.841283 99.794025 
L 362.673401 120.760425 
L 368.505519 90.117225 
L 374.337636 98.181225 
L 380.169754 141.726825 
L 386.001871 153.016425 
L 391.833989 69.150825 
L 397.666106 62.699625 
L 403.498224 91.730025 
L 409.330342 138.501225 
L 415.162459 90.117225 
L 420.994577 67.538025 
L 426.826694 111.083625 
" clip-path="url(#p57f8328204)" style="fill: none; stroke: #2ca02c; stroke-width: 1.5; stroke-linecap: square"/>
   </g>
   <g id="patch_3">
    <path d="M 89.8275 300.587625 
L 89.8275 34.475625 
" style="fill: none; stroke: #000000; stroke-width: 0.8; stroke-linejoin: miter; stroke-linecap: square"/>
   </g>
   <g id="patch_4">
    <path d="M 446.9475 300.587625 
L 446.9475 34.475625 
" style="fill: none; stroke: #000000; stroke-width: 0.8; stroke-linejoin: miter; stroke-linecap: square"/>
   </g>
   <g id="patch_5">
    <path d="M 89.8275 300.587625 
L 446.9475 300.587625 
" style="fill: none; stroke: #000000; stroke-width: 0.8; stroke-linejoin: miter; stroke-linecap: square"/>
   </g>
   <g id="patch_6">
    <path d="M 89.8275 34.475625 
L 446.9475 34.475625 
" style="fill: none; stroke: #000000; stroke-width: 0.8; stroke-linejoin: miter; stroke-linecap: square"/>
   </g>
   <g id="text_9">
    <!-- Window Open -->
    <g transform="translate(171.35 28.475625) scale(0.28 -0.28)">
     <defs>
      <path id="DejaVuSans-57" d="M 213 4666 
L 850 4666 
L 1831 722 
L 2809 4666 
L 3519 4666 
L 4500 722 
L 5478 4666 
L 6119 4666 
L 4947 0 
L 4153 0 
L 3169 4050 
L 2175 0 
L 1381 0 
L 213 4666 
z
" transform="scale(0.015625)"/>
      <path id="DejaVuSans-6e" d="M 3513 2113 
L 3513 0 
L 2938 0 
L 2938 2094 
Q 2938 2591 2744 2837 
Q 2550 3084 2163 3084 
Q 1697 3084 1428 2787 
Q 1159 2491 1159 1978 
L 1159 0 
L 581 0 
L 581 3500 
L 1159 3500 
L 1159 2956 
Q 1366 3272 1645 3428 
Q 1925 3584 2291 3584 
Q 2894 3584 3203 3211 
Q 3513 2838 3513 2113 
z
" transform="scale(0.015625)"/>
      <path id="DejaVuSans-77" d="M 269 3500 
L 844 3500 
L 1563 769 
L 2278 3500 
L 2956 3500 
L 3675 769 
L 4391 3500 
L 4966 3500 
L 4050 0 
L 3372 0 
L 2619 2869 
L 1863 0 
L 1184 0 
L 269 3500 
z
" transform="scale(0.015625)"/>
      <path id="DejaVuSans-4f" d="M 2522 4238 
Q 1834 4238 1429 3725 
Q 1025 3213 1025 2328 
Q 1025 1447 1429 934 
Q 1834 422 2522 422 
Q 3209 422 3611 934 
Q 4013 1447 4013 2328 
Q 4013 3213 3611 3725 
Q 3209 4238 2522 4238 
z
M 2522 4750 
Q 3503 4750 4090 4092 
Q 4678 3434 4678 2328 
Q 4678 1225 4090 567 
Q 3503 -91 2522 -91 
Q 1538 -91 948 565 
Q 359 1222 359 2328 
Q 359 3434 948 4092 
Q 1538 4750 2522 4750 
z
" transform="scale(0.015625)"/>
     </defs>
     <use xlink:href="#DejaVuSans-57"/>
     <use xlink:href="#DejaVuSans-69" x="96.626953"/>
     <use xlink:href="#DejaVuSans-6e" x="124.410156"/>
     <use xlink:href="#DejaVuSans-64" x="187.789062"/>
     <use xlink:href="#DejaVuSans-6f" x="251.265625"/>
     <use xlink:href="#DejaVuSans-77" x="312.447266"/>
     <use xlink:href="#DejaVuSans-20" x="394.234375"/>
     <use xlink:href="#DejaVuSans-4f" x="426.021484"/>
     <use xlink:href="#DejaVuSans-70" x="504.732422"/>
     <use xlink:href="#DejaVuSans-65" x="568.208984"/>
     <use xlink:href="#DejaVuSans-6e" x="629.732422"/>
    </g>
   </g>
   <g id="legend_1">
    <g id="patch_7">
     <path d="M 255.312188 291.587625 
L 434.3475 291.587625 
Q 437.9475 291.587625 437.9475 287.987625 
L 437.9475 210.52575 
Q 437.9475 206.92575 434.3475 206.92575 
L 255.312188 206.92575 
Q 251.712188 206.92575 251.712188 210.52575 
L 251.712188 287.987625 
Q 251.712188 291.587625 255.312188 291.587625 
z
" style="fill: #ffffff; opacity: 0.8; stroke: #cccccc; stroke-linejoin: miter"/>
    </g>
    <g id="line2d_10">
     <path d="M 258.912188 221.502937 
L 276.912188 221.502937 
L 294.912188 221.502937 
" style="fill: none; stroke: #1f77b4; stroke-width: 1.5; stroke-linecap: square"/>
    </g>
    <g id="text_10">
     <!-- COAVC (ours) -->
     <g transform="translate(309.312187 227.802937) scale(0.18 -0.18)">
      <defs>
       <path id="DejaVuSans-43" d="M 4122 4306 
L 4122 3641 
Q 3803 3938 3442 4084 
Q 3081 4231 2675 4231 
Q 1875 4231 1450 3742 
Q 1025 3253 1025 2328 
Q 1025 1406 1450 917 
Q 1875 428 2675 428 
Q 3081 428 3442 575 
Q 3803 722 4122 1019 
L 4122 359 
Q 3791 134 3420 21 
Q 3050 -91 2638 -91 
Q 1578 -91 968 557 
Q 359 1206 359 2328 
Q 359 3453 968 4101 
Q 1578 4750 2638 4750 
Q 3056 4750 3426 4639 
Q 3797 4528 4122 4306 
z
" transform="scale(0.015625)"/>
       <path id="DejaVuSans-41" d="M 2188 4044 
L 1331 1722 
L 3047 1722 
L 2188 4044 
z
M 1831 4666 
L 2547 4666 
L 4325 0 
L 3669 0 
L 3244 1197 
L 1141 1197 
L 716 0 
L 50 0 
L 1831 4666 
z
" transform="scale(0.015625)"/>
       <path id="DejaVuSans-56" d="M 1831 0 
L 50 4666 
L 709 4666 
L 2188 738 
L 3669 4666 
L 4325 4666 
L 2547 0 
L 1831 0 
z
" transform="scale(0.015625)"/>
       <path id="DejaVuSans-28" d="M 1984 4856 
Q 1566 4138 1362 3434 
Q 1159 2731 1159 2009 
Q 1159 1288 1364 580 
Q 1569 -128 1984 -844 
L 1484 -844 
Q 1016 -109 783 600 
Q 550 1309 550 2009 
Q 550 2706 781 3412 
Q 1013 4119 1484 4856 
L 1984 4856 
z
" transform="scale(0.015625)"/>
       <path id="DejaVuSans-29" d="M 513 4856 
L 1013 4856 
Q 1481 4119 1714 3412 
Q 1947 2706 1947 2009 
Q 1947 1309 1714 600 
Q 1481 -109 1013 -844 
L 513 -844 
Q 928 -128 1133 580 
Q 1338 1288 1338 2009 
Q 1338 2731 1133 3434 
Q 928 4138 513 4856 
z
" transform="scale(0.015625)"/>
      </defs>
      <use xlink:href="#DejaVuSans-43"/>
      <use xlink:href="#DejaVuSans-4f" x="69.824219"/>
      <use xlink:href="#DejaVuSans-41" x="146.785156"/>
      <use xlink:href="#DejaVuSans-56" x="208.818359"/>
      <use xlink:href="#DejaVuSans-43" x="277.226562"/>
      <use xlink:href="#DejaVuSans-20" x="347.050781"/>
      <use xlink:href="#DejaVuSans-28" x="378.837891"/>
      <use xlink:href="#DejaVuSans-6f" x="417.851562"/>
      <use xlink:href="#DejaVuSans-75" x="479.033203"/>
      <use xlink:href="#DejaVuSans-72" x="542.412109"/>
      <use xlink:href="#DejaVuSans-73" x="583.525391"/>
      <use xlink:href="#DejaVuSans-29" x="635.625"/>
     </g>
    </g>
    <g id="line2d_11">
     <path d="M 258.912188 247.923562 
L 276.912188 247.923562 
L 294.912188 247.923562 
" style="fill: none; stroke: #ff7f0e; stroke-width: 1.5; stroke-linecap: square"/>
    </g>
    <g id="text_11">
     <!-- PPO -->
     <g transform="translate(309.312187 254.223562) scale(0.18 -0.18)">
      <defs>
       <path id="DejaVuSans-50" d="M 1259 4147 
L 1259 2394 
L 2053 2394 
Q 2494 2394 2734 2622 
Q 2975 2850 2975 3272 
Q 2975 3691 2734 3919 
Q 2494 4147 2053 4147 
L 1259 4147 
z
M 628 4666 
L 2053 4666 
Q 2838 4666 3239 4311 
Q 3641 3956 3641 3272 
Q 3641 2581 3239 2228 
Q 2838 1875 2053 1875 
L 1259 1875 
L 1259 0 
L 628 0 
L 628 4666 
z
" transform="scale(0.015625)"/>
      </defs>
      <use xlink:href="#DejaVuSans-50"/>
      <use xlink:href="#DejaVuSans-50" x="60.302734"/>
      <use xlink:href="#DejaVuSans-4f" x="120.605469"/>
     </g>
    </g>
    <g id="line2d_12">
     <path d="M 258.912188 274.344187 
L 276.912188 274.344187 
L 294.912188 274.344187 
" style="fill: none; stroke: #2ca02c; stroke-width: 1.5; stroke-linecap: square"/>
    </g>
    <g id="text_12">
     <!-- TQC -->
     <g transform="translate(309.312187 280.644187) scale(0.18 -0.18)">
      <defs>
       <path id="DejaVuSans-51" d="M 2522 4238 
Q 1834 4238 1429 3725 
Q 1025 3213 1025 2328 
Q 1025 1447 1429 934 
Q 1834 422 2522 422 
Q 3209 422 3611 934 
Q 4013 1447 4013 2328 
Q 4013 3213 3611 3725 
Q 3209 4238 2522 4238 
z
M 3406 84 
L 4238 -825 
L 3475 -825 
L 2784 -78 
Q 2681 -84 2626 -87 
Q 2572 -91 2522 -91 
Q 1538 -91 948 567 
Q 359 1225 359 2328 
Q 359 3434 948 4092 
Q 1538 4750 2522 4750 
Q 3503 4750 4090 4092 
Q 4678 3434 4678 2328 
Q 4678 1516 4351 937 
Q 4025 359 3406 84 
z
" transform="scale(0.015625)"/>
      </defs>
      <use xlink:href="#DejaVuSans-54"/>
      <use xlink:href="#DejaVuSans-51" x="61.083984"/>
      <use xlink:href="#DejaVuSans-43" x="139.794922"/>
     </g>
    </g>
   </g>
  </g>
 </g>
 <defs>
  <clipPath id="p57f8328204">
   <rect x="89.8275" y="34.475625" width="357.12" height="266.112"/>
  </clipPath>
 </defs>
</svg>
