<?xml version="1.0" encoding="utf-8" standalone="no"?>
<!DOCTYPE svg PUBLIC "-//W3C//DTD SVG 1.1//EN"
  "http://www.w3.org/Graphics/SVG/1.1/DTD/svg11.dtd">
<svg xmlns:xlink="http://www.w3.org/1999/xlink" width="470.330371pt" height="372.985125pt" viewBox="0 0 470.330371 372.985125" xmlns="http://www.w3.org/2000/svg" version="1.1">
 <metadata>
  <rdf:RDF xmlns:dc="http://purl.org/dc/elements/1.1/" xmlns:cc="http://creativecommons.org/ns#" xmlns:rdf="http://www.w3.org/1999/02/22-rdf-syntax-ns#">
   <cc:Work>
    <dc:type rdf:resource="http://purl.org/dc/dcmitype/StillImage"/>
    <dc:date>2023-06-07T15:31:47.284834</dc:date>
    <dc:format>image/svg+xml</dc:format>
    <dc:creator>
     <cc:Agent>
      <dc:title>Matplotlib v3.6.1, https://matplotlib.org/</dc:title>
     </cc:Agent>
    </dc:creator>
   </cc:Work>
  </rdf:RDF>
 </metadata>
 <defs>
  <style type="text/css">*{stroke-linejoin: round; stroke-linecap: butt}</style>
 </defs>
 <g id="figure_1">
  <g id="patch_1">
   <path d="M 0 372.985125 
L 470.330371 372.985125 
L 470.330371 0 
L 0 0 
z
" style="fill: #ffffff"/>
  </g>
  <g id="axes_1">
   <g id="patch_2">
    <path d="M 89.8275 300.587625 
L 446.9475 300.587625 
L 446.9475 34.475625 
L 89.8275 34.475625 
z
" style="fill: #ffffff"/>
   </g>
   <g id="PolyCollection_1">
    <path d="M 106.060227 223.58038 
L 106.060227 264.698871 
L 109.274629 252.706311 
L 112.48903 253.336179 
L 115.703432 187.557071 
L 118.917833 85.508059 
L 122.132234 46.571625 
L 125.346636 104.976276 
L 128.561037 46.571625 
L 131.775439 85.508059 
L 134.98984 163.380927 
L 138.204242 56.305734 
L 141.418643 66.039828 
L 144.633045 224.649302 
L 147.847446 46.571625 
L 151.061847 226.487615 
L 154.276249 75.773951 
L 157.49065 68.543971 
L 160.705052 192.58326 
L 163.919453 90.516302 
L 167.133855 68.543971 
L 170.348256 46.571625 
L 173.562658 60.33773 
L 176.777059 68.543956 
L 179.99146 46.571625 
L 183.205862 87.869939 
L 186.420263 56.305734 
L 189.634665 56.305734 
L 192.849066 66.039828 
L 196.063468 68.543971 
L 199.277869 46.571625 
L 202.49227 46.571625 
L 205.706672 85.508059 
L 208.921073 46.571625 
L 212.135475 75.773951 
L 215.349876 66.039828 
L 218.564278 56.305734 
L 221.778679 56.305734 
L 224.993081 56.305734 
L 228.207482 56.305734 
L 231.421883 46.571625 
L 234.636285 75.773951 
L 237.850686 87.869939 
L 241.065088 46.571625 
L 244.279489 46.571625 
L 247.493891 46.571625 
L 250.708292 46.571625 
L 253.922694 66.039828 
L 257.137095 56.305734 
L 260.351496 56.305734 
L 263.565898 66.039828 
L 266.780299 56.305734 
L 269.994701 46.571625 
L 273.209102 75.773951 
L 276.423504 46.571625 
L 279.637905 56.305734 
L 282.852306 46.571625 
L 286.066708 46.571625 
L 289.281109 56.305734 
L 292.495511 85.508059 
L 295.709912 66.039828 
L 298.924314 46.571625 
L 302.138715 46.571625 
L 305.353117 46.571625 
L 308.567518 66.039828 
L 311.781919 46.571625 
L 314.996321 56.305734 
L 318.210722 46.571625 
L 321.425124 46.571625 
L 324.639525 46.571625 
L 327.853927 66.039828 
L 331.068328 46.571625 
L 334.28273 46.571625 
L 337.497131 56.305734 
L 340.711532 56.305734 
L 343.925934 46.571625 
L 347.140335 46.571625 
L 350.354737 66.039828 
L 353.569138 56.305734 
L 356.78354 56.305734 
L 359.997941 46.571625 
L 363.212342 46.571625 
L 366.426744 46.571625 
L 369.641145 46.571625 
L 372.855547 46.571625 
L 376.069948 56.305734 
L 379.28435 56.305734 
L 382.498751 66.039828 
L 385.713153 46.571625 
L 388.927554 46.571625 
L 392.141955 56.305734 
L 395.356357 46.571625 
L 398.570758 46.571625 
L 401.78516 46.571625 
L 404.999561 46.571625 
L 408.213963 46.571625 
L 411.428364 56.305734 
L 414.642766 56.305734 
L 417.857167 46.571625 
L 421.071568 46.571625 
L 424.28597 56.305734 
L 427.500371 75.773951 
L 427.500371 46.571625 
L 427.500371 46.571625 
L 424.28597 46.571625 
L 421.071568 46.571625 
L 417.857167 46.571625 
L 414.642766 46.571625 
L 411.428364 46.571625 
L 408.213963 46.571625 
L 404.999561 46.571625 
L 401.78516 46.571625 
L 398.570758 46.571625 
L 395.356357 46.571625 
L 392.141955 46.571625 
L 388.927554 46.571625 
L 385.713153 46.571625 
L 382.498751 46.571625 
L 379.28435 46.571625 
L 376.069948 46.571625 
L 372.855547 46.571625 
L 369.641145 46.571625 
L 366.426744 46.571625 
L 363.212342 46.571625 
L 359.997941 46.571625 
L 356.78354 46.571625 
L 353.569138 46.571625 
L 350.354737 46.571625 
L 347.140335 46.571625 
L 343.925934 46.571625 
L 340.711532 46.571625 
L 337.497131 46.571625 
L 334.28273 46.571625 
L 331.068328 46.571625 
L 327.853927 46.571625 
L 324.639525 46.571625 
L 321.425124 46.571625 
L 318.210722 46.571625 
L 314.996321 46.571625 
L 311.781919 46.571625 
L 308.567518 46.571625 
L 305.353117 46.571625 
L 302.138715 46.571625 
L 298.924314 46.571625 
L 295.709912 46.571625 
L 292.495511 46.571625 
L 289.281109 46.571625 
L 286.066708 46.571625 
L 282.852306 46.571625 
L 279.637905 46.571625 
L 276.423504 46.571625 
L 273.209102 46.571625 
L 269.994701 46.571625 
L 266.780299 46.571625 
L 263.565898 46.571625 
L 260.351496 46.571625 
L 257.137095 46.571625 
L 253.922694 46.571625 
L 250.708292 46.571625 
L 247.493891 46.571625 
L 244.279489 46.571625 
L 241.065088 46.571625 
L 237.850686 53.657294 
L 234.636285 46.571625 
L 231.421883 46.571625 
L 228.207482 46.571625 
L 224.993081 46.571625 
L 221.778679 46.571625 
L 218.564278 46.571625 
L 215.349876 46.571625 
L 212.135475 46.571625 
L 208.921073 46.571625 
L 205.706672 46.571625 
L 202.49227 46.571625 
L 199.277869 46.571625 
L 196.063468 48.791285 
L 192.849066 46.571625 
L 189.634665 46.571625 
L 186.420263 46.571625 
L 183.205862 53.657294 
L 179.99146 46.571625 
L 176.777059 48.79127 
L 173.562658 48.933505 
L 170.348256 46.571625 
L 167.133855 48.791285 
L 163.919453 51.01093 
L 160.705052 46.571625 
L 157.49065 48.791285 
L 154.276249 46.571625 
L 151.061847 46.571625 
L 147.847446 46.571625 
L 144.633045 46.571625 
L 141.418643 46.571625 
L 138.204242 46.571625 
L 134.98984 46.571625 
L 131.775439 46.571625 
L 128.561037 46.571625 
L 125.346636 46.571625 
L 122.132234 46.571625 
L 118.917833 46.571625 
L 115.703432 66.866169 
L 112.48903 65.599065 
L 109.274629 58.164933 
L 106.060227 223.58038 
z
" clip-path="url(#p1ce508049e)" style="fill: #1f77b4; fill-opacity: 0.3"/>
   </g>
   <g id="PolyCollection_2">
    <path d="M 106.060227 239.601676 
L 106.060227 276.095174 
L 109.274629 288.491625 
L 112.48903 288.491625 
L 115.703432 253.890587 
L 118.917833 245.917065 
L 122.132234 242.829546 
L 125.346636 288.491625 
L 128.561037 261.6934 
L 131.775439 283.591148 
L 134.98984 288.491625 
L 138.204242 288.491625 
L 141.418643 277.438184 
L 144.633045 277.340956 
L 147.847446 276.797851 
L 151.061847 275.527148 
L 154.276249 261.153046 
L 157.49065 281.291583 
L 160.705052 288.491625 
L 163.919453 288.491625 
L 167.133855 288.491625 
L 170.348256 286.55928 
L 173.562658 255.00236 
L 176.777059 288.491625 
L 179.99146 288.491625 
L 183.205862 288.491625 
L 186.420263 288.491625 
L 189.634665 288.491625 
L 192.849066 288.491625 
L 196.063468 288.491625 
L 199.277869 288.491625 
L 202.49227 288.491625 
L 205.706672 288.491625 
L 208.921073 288.491625 
L 212.135475 276.890716 
L 215.349876 284.444687 
L 218.564278 283.591148 
L 221.778679 288.491625 
L 224.993081 271.454823 
L 228.207482 266.616423 
L 231.421883 259.407445 
L 234.636285 254.591804 
L 237.850686 278.584032 
L 241.065088 246.469185 
L 244.279489 242.268363 
L 247.493891 244.578846 
L 250.708292 243.143319 
L 253.922694 249.131974 
L 257.137095 244.578846 
L 260.351496 245.457958 
L 263.565898 242.829546 
L 266.780299 246.053588 
L 269.994701 245.977589 
L 273.209102 288.491625 
L 276.423504 256.143044 
L 279.637905 288.491625 
L 282.852306 288.491625 
L 286.066708 288.491625 
L 289.281109 288.491625 
L 292.495511 241.253807 
L 295.709912 241.253807 
L 298.924314 241.253807 
L 302.138715 288.491625 
L 305.353117 243.428055 
L 308.567518 275.015294 
L 311.781919 252.766533 
L 314.996321 246.216164 
L 318.210722 243.428055 
L 321.425124 260.264347 
L 324.639525 246.216164 
L 327.853927 244.741222 
L 331.068328 274.091541 
L 334.28273 242.829546 
L 337.497131 245.524007 
L 340.711532 288.491625 
L 343.925934 288.491625 
L 347.140335 288.491625 
L 350.354737 288.491625 
L 353.569138 288.491625 
L 356.78354 288.491625 
L 359.997941 288.491625 
L 363.212342 288.491625 
L 366.426744 288.491625 
L 369.641145 280.892723 
L 372.855547 269.27227 
L 376.069948 276.797851 
L 379.28435 267.05657 
L 382.498751 260.262881 
L 385.713153 252.140718 
L 388.927554 288.491625 
L 392.141955 288.491625 
L 395.356357 274.177503 
L 398.570758 280.528229 
L 401.78516 288.491625 
L 404.999561 288.491625 
L 408.213963 283.591148 
L 411.428364 284.05231 
L 414.642766 288.491625 
L 417.857167 283.591148 
L 421.071568 278.61283 
L 424.28597 288.491625 
L 427.500371 288.491625 
L 430.714773 288.491625 
L 430.714773 93.809443 
L 430.714773 93.809443 
L 427.500371 93.319787 
L 424.28597 222.299683 
L 421.071568 175.79762 
L 417.857167 199.849702 
L 414.642766 210.618752 
L 411.428364 244.54694 
L 408.213963 199.849702 
L 404.999561 241.767901 
L 401.78516 237.874258 
L 398.570758 228.717421 
L 395.356357 196.360947 
L 392.141955 174.509132 
L 388.927554 151.716932 
L 385.713153 76.471332 
L 382.498751 123.184369 
L 379.28435 145.42108 
L 376.069948 109.874999 
L 372.855547 152.88218 
L 369.641145 157.389727 
L 366.426744 118.842248 
L 363.212342 112.255179 
L 359.997941 117.464115 
L 356.78354 104.471269 
L 353.569138 109.384018 
L 350.354737 131.713442 
L 347.140335 144.426811 
L 343.925934 120.572448 
L 340.711532 104.999604 
L 337.497131 46.571625 
L 334.28273 46.571625 
L 331.068328 115.806909 
L 327.853927 46.571625 
L 324.639525 46.571625 
L 321.425124 61.896503 
L 318.210722 46.571625 
L 314.996321 46.571625 
L 311.781919 50.040717 
L 308.567518 76.175956 
L 305.353117 46.571625 
L 302.138715 154.454127 
L 298.924314 46.571625 
L 295.709912 46.571625 
L 292.495511 46.571625 
L 289.281109 93.809443 
L 286.066708 92.794887 
L 282.852306 92.794887 
L 279.637905 93.319787 
L 276.423504 59.566606 
L 273.209102 101.596731 
L 269.994701 46.571625 
L 266.780299 46.571625 
L 263.565898 46.571625 
L 260.351496 46.571625 
L 257.137095 46.571625 
L 253.922694 50.449676 
L 250.708292 46.571625 
L 247.493891 46.571625 
L 244.279489 46.571625 
L 241.065088 46.571625 
L 237.850686 143.570418 
L 234.636285 86.922646 
L 231.421883 114.363005 
L 228.207482 158.763627 
L 224.993081 163.602027 
L 221.778679 233.444944 
L 218.564278 199.849702 
L 215.349876 240.928963 
L 212.135475 193.647734 
L 208.921073 253.448832 
L 205.706672 280.704338 
L 202.49227 280.704338 
L 199.277869 272.91705 
L 196.063468 128.852236 
L 192.849066 257.342476 
L 189.634665 101.106347 
L 186.420263 187.256891 
L 183.205862 288.491625 
L 179.99146 276.810694 
L 176.777059 101.596731 
L 173.562658 83.28649 
L 170.348256 148.49757 
L 167.133855 269.023407 
L 163.919453 232.773841 
L 160.705052 230.08697 
L 157.49065 202.149267 
L 154.276249 96.489404 
L 151.061847 191.785702 
L 147.847446 109.874999 
L 144.633045 89.978294 
L 141.418643 222.130666 
L 138.204242 124.958592 
L 134.98984 111.070406 
L 131.775439 199.849702 
L 128.561037 63.69305 
L 125.346636 128.852236 
L 122.132234 46.571625 
L 118.917833 60.115785 
L 115.703432 52.142263 
L 112.48903 93.809443 
L 109.274629 93.809443 
L 106.060227 239.601676 
z
" clip-path="url(#p1ce508049e)" style="fill: #ff7f0e; fill-opacity: 0.3"/>
   </g>
   <g id="PolyCollection_3">
    <path d="M 106.060227 288.491625 
L 106.060227 288.491625 
L 109.274629 288.491625 
L 112.48903 288.491625 
L 115.703432 288.491625 
L 118.917833 288.491625 
L 122.132234 288.491625 
L 125.346636 288.491625 
L 128.561037 288.491625 
L 131.775439 288.491625 
L 134.98984 288.491625 
L 138.204242 288.491625 
L 141.418643 288.491625 
L 144.633045 288.491625 
L 147.847446 288.491625 
L 151.061847 288.491625 
L 154.276249 288.491625 
L 157.49065 288.491625 
L 160.705052 288.491625 
L 163.919453 288.491625 
L 167.133855 288.491625 
L 170.348256 288.491625 
L 173.562658 288.491625 
L 176.777059 288.491625 
L 179.99146 288.491625 
L 183.205862 288.491625 
L 186.420263 288.491625 
L 189.634665 288.491625 
L 192.849066 288.491625 
L 196.063468 262.984981 
L 199.277869 249.798092 
L 202.49227 258.887294 
L 205.706672 241.253807 
L 208.921073 241.253807 
L 212.135475 242.268363 
L 215.349876 241.253807 
L 218.564278 241.253807 
L 221.778679 241.253807 
L 224.993081 241.253807 
L 228.207482 241.253807 
L 231.421883 241.253807 
L 234.636285 241.253807 
L 237.850686 241.253807 
L 241.065088 241.253807 
L 244.279489 241.253807 
L 247.493891 241.253807 
L 250.708292 241.253807 
L 253.922694 248.749607 
L 257.137095 242.268363 
L 260.351496 263.174743 
L 263.565898 275.015294 
L 266.780299 276.915472 
L 269.994701 257.561872 
L 273.209102 280.868871 
L 276.423504 280.868871 
L 279.637905 276.915472 
L 282.852306 269.625943 
L 286.066708 273.166747 
L 289.281109 278.866837 
L 292.495511 278.866837 
L 295.709912 213.745163 
L 298.924314 151.700003 
L 302.138715 210.104658 
L 305.353117 178.955509 
L 308.567518 213.998301 
L 311.781919 163.380934 
L 314.996321 194.530083 
L 318.210722 182.849152 
L 321.425124 155.593647 
L 324.639525 151.700003 
L 327.853927 221.785589 
L 331.068328 194.530083 
L 334.28273 223.992844 
L 337.497131 186.742796 
L 340.711532 246.807727 
L 343.925934 288.491625 
L 347.140335 288.491625 
L 350.354737 288.491625 
L 353.569138 288.491625 
L 356.78354 288.491625 
L 359.997941 288.491625 
L 363.212342 288.491625 
L 366.426744 288.491625 
L 369.641145 288.491625 
L 372.855547 288.491625 
L 376.069948 288.491625 
L 379.28435 288.491625 
L 382.498751 288.491625 
L 385.713153 288.491625 
L 388.927554 288.491625 
L 392.141955 288.453218 
L 395.356357 257.24524 
L 398.570758 258.912357 
L 401.78516 255.593865 
L 404.999561 250.114364 
L 408.213963 238.021849 
L 411.428364 239.740446 
L 414.642766 237.360163 
L 417.857167 241.253807 
L 421.071568 241.253807 
L 424.28597 262.10871 
L 427.500371 276.915472 
L 430.714773 263.174743 
L 430.714773 65.437307 
L 430.714773 65.437307 
L 427.500371 77.501378 
L 424.28597 105.21054 
L 421.071568 46.571625 
L 417.857167 46.571625 
L 414.642766 46.571625 
L 411.428364 46.571625 
L 408.213963 68.011001 
L 404.999561 52.692886 
L 401.78516 69.792585 
L 398.570758 79.376493 
L 395.356357 81.04361 
L 392.141955 85.317232 
L 388.927554 92.864687 
L 385.713153 92.233704 
L 382.498751 92.794887 
L 379.28435 92.794887 
L 376.069948 93.809443 
L 372.855547 93.319787 
L 369.641145 93.319787 
L 366.426744 93.319787 
L 363.212342 93.809443 
L 359.997941 92.233704 
L 356.78354 90.998317 
L 353.569138 92.233704 
L 350.354737 91.635195 
L 347.140335 92.233704 
L 343.925934 90.998317 
L 340.711532 68.901923 
L 337.497131 46.571625 
L 334.28273 46.571625 
L 331.068328 46.571625 
L 327.853927 46.571625 
L 324.639525 46.571625 
L 321.425124 46.571625 
L 318.210722 46.571625 
L 314.996321 46.571625 
L 311.781919 46.571625 
L 308.567518 46.571625 
L 305.353117 46.571625 
L 302.138715 46.571625 
L 298.924314 46.571625 
L 295.709912 69.708487 
L 292.495511 78.775613 
L 289.281109 78.775613 
L 286.066708 74.798903 
L 282.852306 71.888507 
L 279.637905 77.501378 
L 276.423504 79.999179 
L 273.209102 79.999179 
L 269.994701 58.147778 
L 266.780299 77.501378 
L 263.565898 76.175956 
L 260.351496 65.437307 
L 257.137095 46.571625 
L 253.922694 46.571625 
L 250.708292 46.571625 
L 247.493891 46.571625 
L 244.279489 46.571625 
L 241.065088 46.571625 
L 237.850686 46.571625 
L 234.636285 46.571625 
L 231.421883 46.571625 
L 228.207482 46.571625 
L 224.993081 46.571625 
L 221.778679 46.571625 
L 218.564278 46.571625 
L 215.349876 46.571625 
L 212.135475 46.571625 
L 208.921073 46.571625 
L 205.706672 46.571625 
L 202.49227 60.047956 
L 199.277869 59.460358 
L 196.063468 88.206269 
L 192.849066 191.697619 
L 189.634665 288.491625 
L 186.420263 288.491625 
L 183.205862 288.491625 
L 179.99146 233.980614 
L 176.777059 222.299683 
L 173.562658 265.129763 
L 170.348256 288.491625 
L 167.133855 226.193327 
L 163.919453 222.299683 
L 160.705052 288.491625 
L 157.49065 288.491625 
L 154.276249 288.491625 
L 151.061847 288.491625 
L 147.847446 284.597981 
L 144.633045 288.491625 
L 141.418643 284.597981 
L 138.204242 288.491625 
L 134.98984 288.491625 
L 131.775439 288.491625 
L 128.561037 288.491625 
L 125.346636 288.491625 
L 122.132234 167.788672 
L 118.917833 288.491625 
L 115.703432 288.491625 
L 112.48903 288.491625 
L 109.274629 288.491625 
L 106.060227 288.491625 
z
" clip-path="url(#p1ce508049e)" style="fill: #2ca02c; fill-opacity: 0.3"/>
   </g>
   <g id="matplotlib.axis_1">
    <g id="xtick_1">
     <g id="line2d_1">
      <defs>
       <path id="mbf945c60a0" d="M 0 0 
L 0 3.5 
" style="stroke: #000000; stroke-width: 0.8"/>
      </defs>
      <g>
       <use xlink:href="#mbf945c60a0" x="106.060227" y="300.587625" style="stroke: #000000; stroke-width: 0.8"/>
      </g>
     </g>
     <g id="text_1">
      <!-- 0 -->
      <g transform="translate(97.152727 328.86325) scale(0.28 -0.28)">
       <defs>
        <path id="DejaVuSans-30" d="M 2034 4250 
Q 1547 4250 1301 3770 
Q 1056 3291 1056 2328 
Q 1056 1369 1301 889 
Q 1547 409 2034 409 
Q 2525 409 2770 889 
Q 3016 1369 3016 2328 
Q 3016 3291 2770 3770 
Q 2525 4250 2034 4250 
z
M 2034 4750 
Q 2819 4750 3233 4129 
Q 3647 3509 3647 2328 
Q 3647 1150 3233 529 
Q 2819 -91 2034 -91 
Q 1250 -91 836 529 
Q 422 1150 422 2328 
Q 422 3509 836 4129 
Q 1250 4750 2034 4750 
z
" transform="scale(0.015625)"/>
       </defs>
       <use xlink:href="#DejaVuSans-30"/>
      </g>
     </g>
    </g>
    <g id="xtick_2">
     <g id="line2d_2">
      <g>
       <use xlink:href="#mbf945c60a0" x="266.780299" y="300.587625" style="stroke: #000000; stroke-width: 0.8"/>
      </g>
     </g>
     <g id="text_2">
      <!-- 500 -->
      <g transform="translate(240.057799 328.86325) scale(0.28 -0.28)">
       <defs>
        <path id="DejaVuSans-35" d="M 691 4666 
L 3169 4666 
L 3169 4134 
L 1269 4134 
L 1269 2991 
Q 1406 3038 1543 3061 
Q 1681 3084 1819 3084 
Q 2600 3084 3056 2656 
Q 3513 2228 3513 1497 
Q 3513 744 3044 326 
Q 2575 -91 1722 -91 
Q 1428 -91 1123 -41 
Q 819 9 494 109 
L 494 744 
Q 775 591 1075 516 
Q 1375 441 1709 441 
Q 2250 441 2565 725 
Q 2881 1009 2881 1497 
Q 2881 1984 2565 2268 
Q 2250 2553 1709 2553 
Q 1456 2553 1204 2497 
Q 953 2441 691 2322 
L 691 4666 
z
" transform="scale(0.015625)"/>
       </defs>
       <use xlink:href="#DejaVuSans-35"/>
       <use xlink:href="#DejaVuSans-30" x="63.623047"/>
       <use xlink:href="#DejaVuSans-30" x="127.246094"/>
      </g>
     </g>
    </g>
    <g id="xtick_3">
     <g id="line2d_3">
      <g>
       <use xlink:href="#mbf945c60a0" x="427.500371" y="300.587625" style="stroke: #000000; stroke-width: 0.8"/>
      </g>
     </g>
     <g id="text_3">
      <!-- 1000 -->
      <g transform="translate(391.870371 328.86325) scale(0.28 -0.28)">
       <defs>
        <path id="DejaVuSans-31" d="M 794 531 
L 1825 531 
L 1825 4091 
L 703 3866 
L 703 4441 
L 1819 4666 
L 2450 4666 
L 2450 531 
L 3481 531 
L 3481 0 
L 794 0 
L 794 531 
z
" transform="scale(0.015625)"/>
       </defs>
       <use xlink:href="#DejaVuSans-31"/>
       <use xlink:href="#DejaVuSans-30" x="63.623047"/>
       <use xlink:href="#DejaVuSans-30" x="127.246094"/>
       <use xlink:href="#DejaVuSans-30" x="190.869141"/>
      </g>
     </g>
    </g>
    <g id="text_4">
     <!-- Sampled Trajectories -->
     <g transform="translate(121.925625 359.962) scale(0.28 -0.28)">
      <defs>
       <path id="DejaVuSans-53" d="M 3425 4513 
L 3425 3897 
Q 3066 4069 2747 4153 
Q 2428 4238 2131 4238 
Q 1616 4238 1336 4038 
Q 1056 3838 1056 3469 
Q 1056 3159 1242 3001 
Q 1428 2844 1947 2747 
L 2328 2669 
Q 3034 2534 3370 2195 
Q 3706 1856 3706 1288 
Q 3706 609 3251 259 
Q 2797 -91 1919 -91 
Q 1588 -91 1214 -16 
Q 841 59 441 206 
L 441 856 
Q 825 641 1194 531 
Q 1563 422 1919 422 
Q 2459 422 2753 634 
Q 3047 847 3047 1241 
Q 3047 1584 2836 1778 
Q 2625 1972 2144 2069 
L 1759 2144 
Q 1053 2284 737 2584 
Q 422 2884 422 3419 
Q 422 4038 858 4394 
Q 1294 4750 2059 4750 
Q 2388 4750 2728 4690 
Q 3069 4631 3425 4513 
z
" transform="scale(0.015625)"/>
       <path id="DejaVuSans-61" d="M 2194 1759 
Q 1497 1759 1228 1600 
Q 959 1441 959 1056 
Q 959 750 1161 570 
Q 1363 391 1709 391 
Q 2188 391 2477 730 
Q 2766 1069 2766 1631 
L 2766 1759 
L 2194 1759 
z
M 3341 1997 
L 3341 0 
L 2766 0 
L 2766 531 
Q 2569 213 2275 61 
Q 1981 -91 1556 -91 
Q 1019 -91 701 211 
Q 384 513 384 1019 
Q 384 1609 779 1909 
Q 1175 2209 1959 2209 
L 2766 2209 
L 2766 2266 
Q 2766 2663 2505 2880 
Q 2244 3097 1772 3097 
Q 1472 3097 1187 3025 
Q 903 2953 641 2809 
L 641 3341 
Q 956 3463 1253 3523 
Q 1550 3584 1831 3584 
Q 2591 3584 2966 3190 
Q 3341 2797 3341 1997 
z
" transform="scale(0.015625)"/>
       <path id="DejaVuSans-6d" d="M 3328 2828 
Q 3544 3216 3844 3400 
Q 4144 3584 4550 3584 
Q 5097 3584 5394 3201 
Q 5691 2819 5691 2113 
L 5691 0 
L 5113 0 
L 5113 2094 
Q 5113 2597 4934 2840 
Q 4756 3084 4391 3084 
Q 3944 3084 3684 2787 
Q 3425 2491 3425 1978 
L 3425 0 
L 2847 0 
L 2847 2094 
Q 2847 2600 2669 2842 
Q 2491 3084 2119 3084 
Q 1678 3084 1418 2786 
Q 1159 2488 1159 1978 
L 1159 0 
L 581 0 
L 581 3500 
L 1159 3500 
L 1159 2956 
Q 1356 3278 1631 3431 
Q 1906 3584 2284 3584 
Q 2666 3584 2933 3390 
Q 3200 3197 3328 2828 
z
" transform="scale(0.015625)"/>
       <path id="DejaVuSans-70" d="M 1159 525 
L 1159 -1331 
L 581 -1331 
L 581 3500 
L 1159 3500 
L 1159 2969 
Q 1341 3281 1617 3432 
Q 1894 3584 2278 3584 
Q 2916 3584 3314 3078 
Q 3713 2572 3713 1747 
Q 3713 922 3314 415 
Q 2916 -91 2278 -91 
Q 1894 -91 1617 61 
Q 1341 213 1159 525 
z
M 3116 1747 
Q 3116 2381 2855 2742 
Q 2594 3103 2138 3103 
Q 1681 3103 1420 2742 
Q 1159 2381 1159 1747 
Q 1159 1113 1420 752 
Q 1681 391 2138 391 
Q 2594 391 2855 752 
Q 3116 1113 3116 1747 
z
" transform="scale(0.015625)"/>
       <path id="DejaVuSans-6c" d="M 603 4863 
L 1178 4863 
L 1178 0 
L 603 0 
L 603 4863 
z
" transform="scale(0.015625)"/>
       <path id="DejaVuSans-65" d="M 3597 1894 
L 3597 1613 
L 953 1613 
Q 991 1019 1311 708 
Q 1631 397 2203 397 
Q 2534 397 2845 478 
Q 3156 559 3463 722 
L 3463 178 
Q 3153 47 2828 -22 
Q 2503 -91 2169 -91 
Q 1331 -91 842 396 
Q 353 884 353 1716 
Q 353 2575 817 3079 
Q 1281 3584 2069 3584 
Q 2775 3584 3186 3129 
Q 3597 2675 3597 1894 
z
M 3022 2063 
Q 3016 2534 2758 2815 
Q 2500 3097 2075 3097 
Q 1594 3097 1305 2825 
Q 1016 2553 972 2059 
L 3022 2063 
z
" transform="scale(0.015625)"/>
       <path id="DejaVuSans-64" d="M 2906 2969 
L 2906 4863 
L 3481 4863 
L 3481 0 
L 2906 0 
L 2906 525 
Q 2725 213 2448 61 
Q 2172 -91 1784 -91 
Q 1150 -91 751 415 
Q 353 922 353 1747 
Q 353 2572 751 3078 
Q 1150 3584 1784 3584 
Q 2172 3584 2448 3432 
Q 2725 3281 2906 2969 
z
M 947 1747 
Q 947 1113 1208 752 
Q 1469 391 1925 391 
Q 2381 391 2643 752 
Q 2906 1113 2906 1747 
Q 2906 2381 2643 2742 
Q 2381 3103 1925 3103 
Q 1469 3103 1208 2742 
Q 947 2381 947 1747 
z
" transform="scale(0.015625)"/>
       <path id="DejaVuSans-20" transform="scale(0.015625)"/>
       <path id="DejaVuSans-54" d="M -19 4666 
L 3928 4666 
L 3928 4134 
L 2272 4134 
L 2272 0 
L 1638 0 
L 1638 4134 
L -19 4134 
L -19 4666 
z
" transform="scale(0.015625)"/>
       <path id="DejaVuSans-72" d="M 2631 2963 
Q 2534 3019 2420 3045 
Q 2306 3072 2169 3072 
Q 1681 3072 1420 2755 
Q 1159 2438 1159 1844 
L 1159 0 
L 581 0 
L 581 3500 
L 1159 3500 
L 1159 2956 
Q 1341 3275 1631 3429 
Q 1922 3584 2338 3584 
Q 2397 3584 2469 3576 
Q 2541 3569 2628 3553 
L 2631 2963 
z
" transform="scale(0.015625)"/>
       <path id="DejaVuSans-6a" d="M 603 3500 
L 1178 3500 
L 1178 -63 
Q 1178 -731 923 -1031 
Q 669 -1331 103 -1331 
L -116 -1331 
L -116 -844 
L 38 -844 
Q 366 -844 484 -692 
Q 603 -541 603 -63 
L 603 3500 
z
M 603 4863 
L 1178 4863 
L 1178 4134 
L 603 4134 
L 603 4863 
z
" transform="scale(0.015625)"/>
       <path id="DejaVuSans-63" d="M 3122 3366 
L 3122 2828 
Q 2878 2963 2633 3030 
Q 2388 3097 2138 3097 
Q 1578 3097 1268 2742 
Q 959 2388 959 1747 
Q 959 1106 1268 751 
Q 1578 397 2138 397 
Q 2388 397 2633 464 
Q 2878 531 3122 666 
L 3122 134 
Q 2881 22 2623 -34 
Q 2366 -91 2075 -91 
Q 1284 -91 818 406 
Q 353 903 353 1747 
Q 353 2603 823 3093 
Q 1294 3584 2113 3584 
Q 2378 3584 2631 3529 
Q 2884 3475 3122 3366 
z
" transform="scale(0.015625)"/>
       <path id="DejaVuSans-74" d="M 1172 4494 
L 1172 3500 
L 2356 3500 
L 2356 3053 
L 1172 3053 
L 1172 1153 
Q 1172 725 1289 603 
Q 1406 481 1766 481 
L 2356 481 
L 2356 0 
L 1766 0 
Q 1100 0 847 248 
Q 594 497 594 1153 
L 594 3053 
L 172 3053 
L 172 3500 
L 594 3500 
L 594 4494 
L 1172 4494 
z
" transform="scale(0.015625)"/>
       <path id="DejaVuSans-6f" d="M 1959 3097 
Q 1497 3097 1228 2736 
Q 959 2375 959 1747 
Q 959 1119 1226 758 
Q 1494 397 1959 397 
Q 2419 397 2687 759 
Q 2956 1122 2956 1747 
Q 2956 2369 2687 2733 
Q 2419 3097 1959 3097 
z
M 1959 3584 
Q 2709 3584 3137 3096 
Q 3566 2609 3566 1747 
Q 3566 888 3137 398 
Q 2709 -91 1959 -91 
Q 1206 -91 779 398 
Q 353 888 353 1747 
Q 353 2609 779 3096 
Q 1206 3584 1959 3584 
z
" transform="scale(0.015625)"/>
       <path id="DejaVuSans-69" d="M 603 3500 
L 1178 3500 
L 1178 0 
L 603 0 
L 603 3500 
z
M 603 4863 
L 1178 4863 
L 1178 4134 
L 603 4134 
L 603 4863 
z
" transform="scale(0.015625)"/>
       <path id="DejaVuSans-73" d="M 2834 3397 
L 2834 2853 
Q 2591 2978 2328 3040 
Q 2066 3103 1784 3103 
Q 1356 3103 1142 2972 
Q 928 2841 928 2578 
Q 928 2378 1081 2264 
Q 1234 2150 1697 2047 
L 1894 2003 
Q 2506 1872 2764 1633 
Q 3022 1394 3022 966 
Q 3022 478 2636 193 
Q 2250 -91 1575 -91 
Q 1294 -91 989 -36 
Q 684 19 347 128 
L 347 722 
Q 666 556 975 473 
Q 1284 391 1588 391 
Q 1994 391 2212 530 
Q 2431 669 2431 922 
Q 2431 1156 2273 1281 
Q 2116 1406 1581 1522 
L 1381 1569 
Q 847 1681 609 1914 
Q 372 2147 372 2553 
Q 372 3047 722 3315 
Q 1072 3584 1716 3584 
Q 2034 3584 2315 3537 
Q 2597 3491 2834 3397 
z
" transform="scale(0.015625)"/>
      </defs>
      <use xlink:href="#DejaVuSans-53"/>
      <use xlink:href="#DejaVuSans-61" x="63.476562"/>
      <use xlink:href="#DejaVuSans-6d" x="124.755859"/>
      <use xlink:href="#DejaVuSans-70" x="222.167969"/>
      <use xlink:href="#DejaVuSans-6c" x="285.644531"/>
      <use xlink:href="#DejaVuSans-65" x="313.427734"/>
      <use xlink:href="#DejaVuSans-64" x="374.951172"/>
      <use xlink:href="#DejaVuSans-20" x="438.427734"/>
      <use xlink:href="#DejaVuSans-54" x="470.214844"/>
      <use xlink:href="#DejaVuSans-72" x="516.548828"/>
      <use xlink:href="#DejaVuSans-61" x="557.662109"/>
      <use xlink:href="#DejaVuSans-6a" x="618.941406"/>
      <use xlink:href="#DejaVuSans-65" x="646.724609"/>
      <use xlink:href="#DejaVuSans-63" x="708.248047"/>
      <use xlink:href="#DejaVuSans-74" x="763.228516"/>
      <use xlink:href="#DejaVuSans-6f" x="802.4375"/>
      <use xlink:href="#DejaVuSans-72" x="863.619141"/>
      <use xlink:href="#DejaVuSans-69" x="904.732422"/>
      <use xlink:href="#DejaVuSans-65" x="932.515625"/>
      <use xlink:href="#DejaVuSans-73" x="994.039062"/>
     </g>
    </g>
   </g>
   <g id="matplotlib.axis_2">
    <g id="ytick_1">
     <g id="line2d_4">
      <defs>
       <path id="m4cace51eec" d="M 0 0 
L -3.5 0 
" style="stroke: #000000; stroke-width: 0.8"/>
      </defs>
      <g>
       <use xlink:href="#m4cace51eec" x="89.8275" y="288.491625" style="stroke: #000000; stroke-width: 0.8"/>
      </g>
     </g>
     <g id="text_5">
      <!-- 0.0 -->
      <g transform="translate(38.29875 299.129437) scale(0.28 -0.28)">
       <defs>
        <path id="DejaVuSans-2e" d="M 684 794 
L 1344 794 
L 1344 0 
L 684 0 
L 684 794 
z
" transform="scale(0.015625)"/>
       </defs>
       <use xlink:href="#DejaVuSans-30"/>
       <use xlink:href="#DejaVuSans-2e" x="63.623047"/>
       <use xlink:href="#DejaVuSans-30" x="95.410156"/>
      </g>
     </g>
    </g>
    <g id="ytick_2">
     <g id="line2d_5">
      <g>
       <use xlink:href="#m4cace51eec" x="89.8275" y="167.531625" style="stroke: #000000; stroke-width: 0.8"/>
      </g>
     </g>
     <g id="text_6">
      <!-- 0.5 -->
      <g transform="translate(38.29875 178.169437) scale(0.28 -0.28)">
       <use xlink:href="#DejaVuSans-30"/>
       <use xlink:href="#DejaVuSans-2e" x="63.623047"/>
       <use xlink:href="#DejaVuSans-35" x="95.410156"/>
      </g>
     </g>
    </g>
    <g id="ytick_3">
     <g id="line2d_6">
      <g>
       <use xlink:href="#m4cace51eec" x="89.8275" y="46.571625" style="stroke: #000000; stroke-width: 0.8"/>
      </g>
     </g>
     <g id="text_7">
      <!-- 1.0 -->
      <g transform="translate(38.29875 57.209437) scale(0.28 -0.28)">
       <use xlink:href="#DejaVuSans-31"/>
       <use xlink:href="#DejaVuSans-2e" x="63.623047"/>
       <use xlink:href="#DejaVuSans-30" x="95.410156"/>
      </g>
     </g>
    </g>
    <g id="text_8">
     <!-- Success Rate -->
     <g transform="translate(28.475625 260.432562) rotate(-90) scale(0.28 -0.28)">
      <defs>
       <path id="DejaVuSans-75" d="M 544 1381 
L 544 3500 
L 1119 3500 
L 1119 1403 
Q 1119 906 1312 657 
Q 1506 409 1894 409 
Q 2359 409 2629 706 
Q 2900 1003 2900 1516 
L 2900 3500 
L 3475 3500 
L 3475 0 
L 2900 0 
L 2900 538 
Q 2691 219 2414 64 
Q 2138 -91 1772 -91 
Q 1169 -91 856 284 
Q 544 659 544 1381 
z
M 1991 3584 
L 1991 3584 
z
" transform="scale(0.015625)"/>
       <path id="DejaVuSans-52" d="M 2841 2188 
Q 3044 2119 3236 1894 
Q 3428 1669 3622 1275 
L 4263 0 
L 3584 0 
L 2988 1197 
Q 2756 1666 2539 1819 
Q 2322 1972 1947 1972 
L 1259 1972 
L 1259 0 
L 628 0 
L 628 4666 
L 2053 4666 
Q 2853 4666 3247 4331 
Q 3641 3997 3641 3322 
Q 3641 2881 3436 2590 
Q 3231 2300 2841 2188 
z
M 1259 4147 
L 1259 2491 
L 2053 2491 
Q 2509 2491 2742 2702 
Q 2975 2913 2975 3322 
Q 2975 3731 2742 3939 
Q 2509 4147 2053 4147 
L 1259 4147 
z
" transform="scale(0.015625)"/>
      </defs>
      <use xlink:href="#DejaVuSans-53"/>
      <use xlink:href="#DejaVuSans-75" x="63.476562"/>
      <use xlink:href="#DejaVuSans-63" x="126.855469"/>
      <use xlink:href="#DejaVuSans-63" x="181.835938"/>
      <use xlink:href="#DejaVuSans-65" x="236.816406"/>
      <use xlink:href="#DejaVuSans-73" x="298.339844"/>
      <use xlink:href="#DejaVuSans-73" x="350.439453"/>
      <use xlink:href="#DejaVuSans-20" x="402.539062"/>
      <use xlink:href="#DejaVuSans-52" x="434.326172"/>
      <use xlink:href="#DejaVuSans-61" x="501.558594"/>
      <use xlink:href="#DejaVuSans-74" x="562.837891"/>
      <use xlink:href="#DejaVuSans-65" x="602.046875"/>
     </g>
    </g>
   </g>
   <g id="line2d_7">
    <path d="M 106.060227 244.139624 
L 112.48903 159.467618 
L 118.917833 62.699624 
L 125.346636 70.763616 
L 131.775439 62.699624 
L 138.204242 50.603621 
L 144.633045 127.21162 
L 151.061847 131.243616 
L 157.49065 58.667628 
L 163.919453 70.763616 
L 170.348256 46.571625 
L 176.777059 58.667613 
L 183.205862 70.763616 
L 189.634665 50.603621 
L 196.063468 58.667628 
L 202.49227 46.571625 
L 208.921073 46.571625 
L 215.349876 54.635617 
L 221.778679 50.603621 
L 228.207482 50.603621 
L 234.636285 58.667628 
L 241.065088 46.571625 
L 247.493891 46.571625 
L 253.922694 54.635617 
L 260.351496 50.603621 
L 266.780299 50.603621 
L 273.209102 58.667628 
L 279.637905 50.603621 
L 286.066708 46.571625 
L 292.495511 62.699624 
L 298.924314 46.571625 
L 305.353117 46.571625 
L 311.781919 46.571625 
L 318.210722 46.571625 
L 324.639525 46.571625 
L 331.068328 46.571625 
L 337.497131 50.603621 
L 343.925934 46.571625 
L 350.354737 54.635617 
L 356.78354 50.603621 
L 363.212342 46.571625 
L 369.641145 46.571625 
L 376.069948 50.603621 
L 382.498751 54.635617 
L 388.927554 46.571625 
L 395.356357 46.571625 
L 401.78516 46.571625 
L 408.213963 46.571625 
L 414.642766 50.603621 
L 421.071568 46.571625 
L 427.500371 58.667628 
" clip-path="url(#p1ce508049e)" style="fill: none; stroke: #1f77b4; stroke-width: 1.5; stroke-linecap: square"/>
   </g>
   <g id="line2d_8">
    <path d="M 106.060227 257.848425 
L 112.48903 207.851625 
L 118.917833 153.016425 
L 125.346636 222.366825 
L 131.775439 241.720425 
L 138.204242 220.754025 
L 144.633045 183.659625 
L 151.061847 233.656425 
L 157.49065 241.720425 
L 163.919453 262.686825 
L 170.348256 217.528425 
L 176.777059 211.077225 
L 183.205862 288.491625 
L 189.634665 209.464425 
L 196.063468 222.366825 
L 202.49227 285.266025 
L 208.921073 273.976425 
L 215.349876 262.686825 
L 221.778679 264.299625 
L 228.207482 212.690025 
L 234.636285 170.757225 
L 241.065088 144.952425 
L 247.493891 138.501225 
L 253.922694 149.790825 
L 260.351496 138.501225 
L 266.780299 143.339625 
L 273.209102 211.077225 
L 279.637905 206.238825 
L 286.066708 204.626025 
L 292.495511 127.211625 
L 298.924314 127.211625 
L 305.353117 133.662825 
L 311.781919 151.403625 
L 318.210722 133.662825 
L 324.639525 140.114025 
L 331.068328 194.949225 
L 337.497131 141.726825 
L 343.925934 217.528425 
L 350.354737 220.754025 
L 356.78354 209.464425 
L 363.212342 212.690025 
L 369.641145 219.141225 
L 376.069948 193.336425 
L 382.498751 191.723625 
L 388.927554 230.430825 
L 395.356357 235.269225 
L 401.78516 267.525225 
L 408.213963 241.720425 
L 414.642766 256.235625 
L 421.071568 227.205225 
L 427.500371 206.238825 
" clip-path="url(#p1ce508049e)" style="fill: none; stroke: #ff7f0e; stroke-width: 1.5; stroke-linecap: square"/>
   </g>
   <g id="line2d_9">
    <path d="M 106.060227 288.491625 
L 112.48903 288.491625 
L 118.917833 288.491625 
L 125.346636 288.491625 
L 131.775439 288.491625 
L 138.204242 288.491625 
L 144.633045 288.491625 
L 151.061847 288.491625 
L 157.49065 288.491625 
L 163.919453 261.074025 
L 170.348256 288.491625 
L 176.777059 261.074025 
L 183.205862 288.491625 
L 189.634665 288.491625 
L 196.063468 175.595625 
L 202.49227 159.467625 
L 208.921073 127.211625 
L 215.349876 127.211625 
L 221.778679 127.211625 
L 228.207482 127.211625 
L 234.636285 127.211625 
L 241.065088 127.211625 
L 247.493891 127.211625 
L 253.922694 144.952425 
L 260.351496 164.306025 
L 266.780299 177.208425 
L 273.209102 180.434025 
L 279.637905 177.208425 
L 286.066708 173.982825 
L 292.495511 178.821225 
L 298.924314 90.117225 
L 305.353117 101.406825 
L 311.781919 94.955625 
L 318.210722 103.019625 
L 324.639525 90.117225 
L 331.068328 107.858025 
L 337.497131 104.632425 
L 343.925934 199.787625 
L 350.354737 201.400425 
L 356.78354 199.787625 
L 363.212342 207.851625 
L 369.641145 206.238825 
L 376.069948 207.851625 
L 382.498751 204.626025 
L 388.927554 204.626025 
L 395.356357 169.144425 
L 401.78516 162.693225 
L 408.213963 153.016425 
L 414.642766 125.598825 
L 421.071568 127.211625 
L 427.500371 177.208425 
" clip-path="url(#p1ce508049e)" style="fill: none; stroke: #2ca02c; stroke-width: 1.5; stroke-linecap: square"/>
   </g>
   <g id="patch_3">
    <path d="M 89.8275 300.587625 
L 89.8275 34.475625 
" style="fill: none; stroke: #000000; stroke-width: 0.8; stroke-linejoin: miter; stroke-linecap: square"/>
   </g>
   <g id="patch_4">
    <path d="M 446.9475 300.587625 
L 446.9475 34.475625 
" style="fill: none; stroke: #000000; stroke-width: 0.8; stroke-linejoin: miter; stroke-linecap: square"/>
   </g>
   <g id="patch_5">
    <path d="M 89.8275 300.587625 
L 446.9475 300.587625 
" style="fill: none; stroke: #000000; stroke-width: 0.8; stroke-linejoin: miter; stroke-linecap: square"/>
   </g>
   <g id="patch_6">
    <path d="M 89.8275 34.475625 
L 446.9475 34.475625 
" style="fill: none; stroke: #000000; stroke-width: 0.8; stroke-linejoin: miter; stroke-linecap: square"/>
   </g>
   <g id="text_9">
    <!-- Drawer Close -->
    <g transform="translate(174.865313 28.475625) scale(0.28 -0.28)">
     <defs>
      <path id="DejaVuSans-44" d="M 1259 4147 
L 1259 519 
L 2022 519 
Q 2988 519 3436 956 
Q 3884 1394 3884 2338 
Q 3884 3275 3436 3711 
Q 2988 4147 2022 4147 
L 1259 4147 
z
M 628 4666 
L 1925 4666 
Q 3281 4666 3915 4102 
Q 4550 3538 4550 2338 
Q 4550 1131 3912 565 
Q 3275 0 1925 0 
L 628 0 
L 628 4666 
z
" transform="scale(0.015625)"/>
      <path id="DejaVuSans-77" d="M 269 3500 
L 844 3500 
L 1563 769 
L 2278 3500 
L 2956 3500 
L 3675 769 
L 4391 3500 
L 4966 3500 
L 4050 0 
L 3372 0 
L 2619 2869 
L 1863 0 
L 1184 0 
L 269 3500 
z
" transform="scale(0.015625)"/>
      <path id="DejaVuSans-43" d="M 4122 4306 
L 4122 3641 
Q 3803 3938 3442 4084 
Q 3081 4231 2675 4231 
Q 1875 4231 1450 3742 
Q 1025 3253 1025 2328 
Q 1025 1406 1450 917 
Q 1875 428 2675 428 
Q 3081 428 3442 575 
Q 3803 722 4122 1019 
L 4122 359 
Q 3791 134 3420 21 
Q 3050 -91 2638 -91 
Q 1578 -91 968 557 
Q 359 1206 359 2328 
Q 359 3453 968 4101 
Q 1578 4750 2638 4750 
Q 3056 4750 3426 4639 
Q 3797 4528 4122 4306 
z
" transform="scale(0.015625)"/>
     </defs>
     <use xlink:href="#DejaVuSans-44"/>
     <use xlink:href="#DejaVuSans-72" x="77.001953"/>
     <use xlink:href="#DejaVuSans-61" x="118.115234"/>
     <use xlink:href="#DejaVuSans-77" x="179.394531"/>
     <use xlink:href="#DejaVuSans-65" x="261.181641"/>
     <use xlink:href="#DejaVuSans-72" x="322.705078"/>
     <use xlink:href="#DejaVuSans-20" x="363.818359"/>
     <use xlink:href="#DejaVuSans-43" x="395.605469"/>
     <use xlink:href="#DejaVuSans-6c" x="465.429688"/>
     <use xlink:href="#DejaVuSans-6f" x="493.212891"/>
     <use xlink:href="#DejaVuSans-73" x="554.394531"/>
     <use xlink:href="#DejaVuSans-65" x="606.494141"/>
    </g>
   </g>
   <g id="legend_1">
    <g id="patch_7">
     <path d="M 255.312188 291.587625 
L 434.3475 291.587625 
Q 437.9475 291.587625 437.9475 287.987625 
L 437.9475 210.52575 
Q 437.9475 206.92575 434.3475 206.92575 
L 255.312188 206.92575 
Q 251.712188 206.92575 251.712188 210.52575 
L 251.712188 287.987625 
Q 251.712188 291.587625 255.312188 291.587625 
z
" style="fill: #ffffff; opacity: 0.8; stroke: #cccccc; stroke-linejoin: miter"/>
    </g>
    <g id="line2d_10">
     <path d="M 258.912188 221.502937 
L 276.912188 221.502937 
L 294.912188 221.502937 
" style="fill: none; stroke: #1f77b4; stroke-width: 1.5; stroke-linecap: square"/>
    </g>
    <g id="text_10">
     <!-- COAVC (ours) -->
     <g transform="translate(309.312187 227.802937) scale(0.18 -0.18)">
      <defs>
       <path id="DejaVuSans-4f" d="M 2522 4238 
Q 1834 4238 1429 3725 
Q 1025 3213 1025 2328 
Q 1025 1447 1429 934 
Q 1834 422 2522 422 
Q 3209 422 3611 934 
Q 4013 1447 4013 2328 
Q 4013 3213 3611 3725 
Q 3209 4238 2522 4238 
z
M 2522 4750 
Q 3503 4750 4090 4092 
Q 4678 3434 4678 2328 
Q 4678 1225 4090 567 
Q 3503 -91 2522 -91 
Q 1538 -91 948 565 
Q 359 1222 359 2328 
Q 359 3434 948 4092 
Q 1538 4750 2522 4750 
z
" transform="scale(0.015625)"/>
       <path id="DejaVuSans-41" d="M 2188 4044 
L 1331 1722 
L 3047 1722 
L 2188 4044 
z
M 1831 4666 
L 2547 4666 
L 4325 0 
L 3669 0 
L 3244 1197 
L 1141 1197 
L 716 0 
L 50 0 
L 1831 4666 
z
" transform="scale(0.015625)"/>
       <path id="DejaVuSans-56" d="M 1831 0 
L 50 4666 
L 709 4666 
L 2188 738 
L 3669 4666 
L 4325 4666 
L 2547 0 
L 1831 0 
z
" transform="scale(0.015625)"/>
       <path id="DejaVuSans-28" d="M 1984 4856 
Q 1566 4138 1362 3434 
Q 1159 2731 1159 2009 
Q 1159 1288 1364 580 
Q 1569 -128 1984 -844 
L 1484 -844 
Q 1016 -109 783 600 
Q 550 1309 550 2009 
Q 550 2706 781 3412 
Q 1013 4119 1484 4856 
L 1984 4856 
z
" transform="scale(0.015625)"/>
       <path id="DejaVuSans-29" d="M 513 4856 
L 1013 4856 
Q 1481 4119 1714 3412 
Q 1947 2706 1947 2009 
Q 1947 1309 1714 600 
Q 1481 -109 1013 -844 
L 513 -844 
Q 928 -128 1133 580 
Q 1338 1288 1338 2009 
Q 1338 2731 1133 3434 
Q 928 4138 513 4856 
z
" transform="scale(0.015625)"/>
      </defs>
      <use xlink:href="#DejaVuSans-43"/>
      <use xlink:href="#DejaVuSans-4f" x="69.824219"/>
      <use xlink:href="#DejaVuSans-41" x="146.785156"/>
      <use xlink:href="#DejaVuSans-56" x="208.818359"/>
      <use xlink:href="#DejaVuSans-43" x="277.226562"/>
      <use xlink:href="#DejaVuSans-20" x="347.050781"/>
      <use xlink:href="#DejaVuSans-28" x="378.837891"/>
      <use xlink:href="#DejaVuSans-6f" x="417.851562"/>
      <use xlink:href="#DejaVuSans-75" x="479.033203"/>
      <use xlink:href="#DejaVuSans-72" x="542.412109"/>
      <use xlink:href="#DejaVuSans-73" x="583.525391"/>
      <use xlink:href="#DejaVuSans-29" x="635.625"/>
     </g>
    </g>
    <g id="line2d_11">
     <path d="M 258.912188 247.923562 
L 276.912188 247.923562 
L 294.912188 247.923562 
" style="fill: none; stroke: #ff7f0e; stroke-width: 1.5; stroke-linecap: square"/>
    </g>
    <g id="text_11">
     <!-- PPO -->
     <g transform="translate(309.312187 254.223562) scale(0.18 -0.18)">
      <defs>
       <path id="DejaVuSans-50" d="M 1259 4147 
L 1259 2394 
L 2053 2394 
Q 2494 2394 2734 2622 
Q 2975 2850 2975 3272 
Q 2975 3691 2734 3919 
Q 2494 4147 2053 4147 
L 1259 4147 
z
M 628 4666 
L 2053 4666 
Q 2838 4666 3239 4311 
Q 3641 3956 3641 3272 
Q 3641 2581 3239 2228 
Q 2838 1875 2053 1875 
L 1259 1875 
L 1259 0 
L 628 0 
L 628 4666 
z
" transform="scale(0.015625)"/>
      </defs>
      <use xlink:href="#DejaVuSans-50"/>
      <use xlink:href="#DejaVuSans-50" x="60.302734"/>
      <use xlink:href="#DejaVuSans-4f" x="120.605469"/>
     </g>
    </g>
    <g id="line2d_12">
     <path d="M 258.912188 274.344187 
L 276.912188 274.344187 
L 294.912188 274.344187 
" style="fill: none; stroke: #2ca02c; stroke-width: 1.5; stroke-linecap: square"/>
    </g>
    <g id="text_12">
     <!-- TQC -->
     <g transform="translate(309.312187 280.644187) scale(0.18 -0.18)">
      <defs>
       <path id="DejaVuSans-51" d="M 2522 4238 
Q 1834 4238 1429 3725 
Q 1025 3213 1025 2328 
Q 1025 1447 1429 934 
Q 1834 422 2522 422 
Q 3209 422 3611 934 
Q 4013 1447 4013 2328 
Q 4013 3213 3611 3725 
Q 3209 4238 2522 4238 
z
M 3406 84 
L 4238 -825 
L 3475 -825 
L 2784 -78 
Q 2681 -84 2626 -87 
Q 2572 -91 2522 -91 
Q 1538 -91 948 567 
Q 359 1225 359 2328 
Q 359 3434 948 4092 
Q 1538 4750 2522 4750 
Q 3503 4750 4090 4092 
Q 4678 3434 4678 2328 
Q 4678 1516 4351 937 
Q 4025 359 3406 84 
z
" transform="scale(0.015625)"/>
      </defs>
      <use xlink:href="#DejaVuSans-54"/>
      <use xlink:href="#DejaVuSans-51" x="61.083984"/>
      <use xlink:href="#DejaVuSans-43" x="139.794922"/>
     </g>
    </g>
   </g>
  </g>
 </g>
 <defs>
  <clipPath id="p1ce508049e">
   <rect x="89.8275" y="34.475625" width="357.12" height="266.112"/>
  </clipPath>
 </defs>
</svg>
