<?xml version="1.0" encoding="utf-8" standalone="no"?>
<!DOCTYPE svg PUBLIC "-//W3C//DTD SVG 1.1//EN"
  "http://www.w3.org/Graphics/SVG/1.1/DTD/svg11.dtd">
<svg xmlns:xlink="http://www.w3.org/1999/xlink" width="454.1475pt" height="372.985125pt" viewBox="0 0 454.1475 372.985125" xmlns="http://www.w3.org/2000/svg" version="1.1">
 <metadata>
  <rdf:RDF xmlns:dc="http://purl.org/dc/elements/1.1/" xmlns:cc="http://creativecommons.org/ns#" xmlns:rdf="http://www.w3.org/1999/02/22-rdf-syntax-ns#">
   <cc:Work>
    <dc:type rdf:resource="http://purl.org/dc/dcmitype/StillImage"/>
    <dc:date>2023-06-07T15:31:52.789873</dc:date>
    <dc:format>image/svg+xml</dc:format>
    <dc:creator>
     <cc:Agent>
      <dc:title>Matplotlib v3.6.1, https://matplotlib.org/</dc:title>
     </cc:Agent>
    </dc:creator>
   </cc:Work>
  </rdf:RDF>
 </metadata>
 <defs>
  <style type="text/css">*{stroke-linejoin: round; stroke-linecap: butt}</style>
 </defs>
 <g id="figure_1">
  <g id="patch_1">
   <path d="M 0 372.985125 
L 454.1475 372.985125 
L 454.1475 0 
L 0 0 
z
" style="fill: #ffffff"/>
  </g>
  <g id="axes_1">
   <g id="patch_2">
    <path d="M 89.8275 300.587625 
L 446.9475 300.587625 
L 446.9475 34.475625 
L 89.8275 34.475625 
z
" style="fill: #ffffff"/>
   </g>
   <g id="PolyCollection_1">
    <path d="M 106.060227 288.491625 
L 106.060227 288.491625 
L 106.70824 288.491625 
L 107.356253 288.491625 
L 108.004266 288.491625 
L 108.65228 288.491625 
L 109.300293 288.491625 
L 109.948306 286.265158 
L 110.596319 288.491625 
L 111.244332 288.491625 
L 111.892345 288.491625 
L 112.540358 288.491625 
L 113.188371 288.491625 
L 113.836384 288.491625 
L 114.484397 288.491625 
L 115.13241 288.491625 
L 115.780423 288.491625 
L 116.428436 288.491625 
L 117.076449 288.491625 
L 117.724462 288.491625 
L 118.372476 286.265158 
L 119.020489 288.491625 
L 119.668502 285.523001 
L 120.316515 288.491625 
L 120.964528 288.491625 
L 121.612541 288.491625 
L 122.260554 288.491625 
L 122.908567 288.491625 
L 123.55658 287.749469 
L 124.204593 288.491625 
L 124.852606 288.491625 
L 125.500619 288.491625 
L 126.148632 287.749469 
L 126.796645 287.749469 
L 127.444658 287.007313 
L 128.092671 286.265158 
L 128.740685 284.038692 
L 129.388698 286.265158 
L 130.036711 274.575055 
L 130.684724 288.491625 
L 131.332737 283.7051 
L 131.98075 285.523001 
L 132.628763 284.038692 
L 133.276776 285.523001 
L 133.924789 283.296535 
L 134.572802 286.265158 
L 135.220815 284.780845 
L 135.868828 286.265158 
L 136.516841 284.038692 
L 137.164854 281.812223 
L 137.812867 264.559001 
L 138.460881 277.79073 
L 139.108894 285.523001 
L 139.756907 281.812223 
L 140.40492 282.554376 
L 141.052933 272.087339 
L 141.700946 281.070066 
L 142.348959 275.504674 
L 142.996972 274.575055 
L 143.644985 264.890361 
L 144.292998 242.551583 
L 144.941011 243.149715 
L 145.589024 257.661569 
L 146.237037 247.777401 
L 146.88505 261.897186 
L 147.533063 273.997807 
L 148.181076 239.823932 
L 148.82909 266.169701 
L 149.477103 238.350842 
L 150.125116 241.346955 
L 150.773129 259.727431 
L 151.421142 259.616025 
L 152.069155 250.37683 
L 152.717168 251.288418 
L 153.365181 239.280763 
L 154.013194 245.687224 
L 154.661207 205.276009 
L 155.30922 242.054585 
L 155.957233 276.617127 
L 156.605246 245.241855 
L 157.253259 259.616025 
L 157.901272 175.649753 
L 158.549286 168.267152 
L 159.197299 186.076382 
L 159.845312 198.209478 
L 160.493325 169.752923 
L 161.141338 266.169701 
L 161.789351 256.937617 
L 162.437364 183.111218 
L 163.085377 238.571382 
L 163.73339 187.155591 
L 164.381403 217.901446 
L 165.029416 190.145965 
L 165.677429 226.64616 
L 166.325442 175.649753 
L 166.973455 164.412371 
L 167.621468 138.441404 
L 168.269481 218.920217 
L 168.917495 213.977499 
L 169.565508 185.292727 
L 170.213521 162.606624 
L 170.861534 99.387577 
L 171.509547 163.9309 
L 172.15756 116.735245 
L 172.805573 171.853008 
L 173.453586 173.356404 
L 174.101599 121.627652 
L 174.749612 189.066062 
L 175.397625 172.363768 
L 176.045638 117.143804 
L 176.693651 128.013054 
L 177.341664 128.97776 
L 177.989677 137.066505 
L 178.637691 175.726744 
L 179.285704 109.494541 
L 179.933717 80.744473 
L 180.58173 105.010708 
L 181.229743 110.31257 
L 181.877756 128.241756 
L 182.525769 105.801111 
L 183.173782 126.263253 
L 183.821795 123.748232 
L 184.469808 93.668 
L 185.117821 127.757002 
L 185.765834 118.9617 
L 186.413847 82.876884 
L 187.06186 72.655742 
L 187.709873 152.666745 
L 188.357886 110.404111 
L 189.0059 126.620408 
L 189.653913 97.361445 
L 190.301926 90.090743 
L 190.949939 105.010708 
L 191.597952 113.433032 
L 192.245965 87.948381 
L 192.893978 75.815285 
L 193.541991 109.388666 
L 194.190004 99.387605 
L 194.838017 81.534876 
L 195.48603 90.090743 
L 196.134043 118.492856 
L 196.782056 127.117326 
L 197.430069 69.353528 
L 198.078082 136.330486 
L 198.726096 81.486624 
L 199.374109 95.658088 
L 200.022122 126.308294 
L 200.670135 93.619749 
L 201.318148 82.22879 
L 201.966161 80.002321 
L 202.614174 85.22832 
L 203.262187 65.309163 
L 203.9102 102.223839 
L 204.558213 113.84159 
L 205.206226 132.705513 
L 205.854239 72.655742 
L 206.502252 121.521777 
L 207.150265 103.52639 
L 207.798278 119.293066 
L 208.446292 72.655742 
L 209.094305 86.046349 
L 209.742318 94.695508 
L 210.390331 57.962584 
L 211.038344 92.578458 
L 211.686357 100.081506 
L 212.33437 81.486653 
L 212.982383 87.3489 
L 213.630396 117.34731 
L 214.278409 63.682189 
L 214.926422 53.176052 
L 215.574435 70.743773 
L 216.222448 77.957618 
L 216.870461 67.869225 
L 217.518474 72.655742 
L 218.166487 92.578458 
L 218.814501 70.09568 
L 219.462514 117.34731 
L 220.110527 86.046349 
L 220.75854 81.486653 
L 221.406553 69.353528 
L 222.054566 82.876884 
L 222.702579 63.682174 
L 223.350592 87.94841 
L 223.998605 70.743788 
L 224.646618 75.815285 
L 225.294631 106.828604 
L 225.942644 70.743788 
L 226.590657 80.002321 
L 227.23867 90.090743 
L 227.886683 102.223839 
L 228.534697 82.562383 
L 229.18271 57.220418 
L 229.830723 86.046349 
L 230.478736 63.682174 
L 231.126749 68.611362 
L 231.774762 88.534063 
L 232.422775 117.34731 
L 233.070788 75.815285 
L 233.718801 92.525997 
L 234.366814 75.815285 
L 235.014827 74.788153 
L 235.66284 65.309163 
L 235.66284 58.704735 
L 235.66284 58.704735 
L 235.014827 57.314476 
L 234.366814 64.376075 
L 233.718801 55.754093 
L 233.070788 64.376075 
L 232.422775 63.287761 
L 231.774762 59.746027 
L 231.126749 55.402507 
L 230.478736 52.242964 
L 229.830723 62.233741 
L 229.18271 50.61599 
L 228.534697 49.540246 
L 227.886683 78.411232 
L 227.23867 66.278136 
L 226.590657 60.189039 
L 225.942644 53.270111 
L 225.294631 73.806467 
L 224.646618 64.376075 
L 223.998605 53.270111 
L 223.350592 76.5092 
L 222.702579 52.242964 
L 222.054566 65.403207 
L 221.406553 62.749101 
L 220.75854 74.882226 
L 220.110527 62.233741 
L 219.462514 63.287761 
L 218.814501 70.09568 
L 218.166487 63.790421 
L 217.518474 59.446887 
L 216.870461 48.055943 
L 216.222448 54.145011 
L 215.574435 53.270096 
L 214.926422 46.571625 
L 214.278409 52.242979 
L 213.630396 63.287761 
L 212.982383 60.93119 
L 212.33437 74.882226 
L 211.686357 88.642296 
L 211.038344 63.790421 
L 210.390331 57.962584 
L 209.742318 61.673371 
L 209.094305 62.233741 
L 208.446292 59.446887 
L 207.798278 69.430736 
L 207.150265 77.108681 
L 206.502252 75.290784 
L 205.854239 59.446887 
L 205.206226 80.28451 
L 204.558213 107.237163 
L 203.9102 78.411232 
L 203.262187 58.704735 
L 202.614174 54.963039 
L 201.966161 60.189039 
L 201.318148 82.228761 
L 200.670135 87.015322 
L 200.022122 86.681729 
L 199.374109 60.710733 
L 198.726096 74.882197 
L 198.078082 84.748267 
L 197.430069 62.749101 
L 196.782056 85.872697 
L 196.134043 78.319705 
L 195.48603 66.278136 
L 194.838017 58.656484 
L 194.190004 65.070004 
L 193.541991 63.157674 
L 192.893978 64.376075 
L 192.245965 76.509171 
L 191.597952 67.202039 
L 190.949939 91.801853 
L 190.301926 66.278136 
L 189.653913 67.096164 
L 189.0059 70.192153 
L 188.357886 70.23096 
L 187.709873 76.500767 
L 187.06186 59.446887 
L 186.413847 65.403207 
L 185.765834 85.939563 
L 185.117821 69.05556 
L 184.469808 70.789609 
L 183.821795 97.330522 
L 183.173782 78.638038 
L 182.525769 82.922691 
L 181.877756 76.659536 
L 181.229743 86.499962 
L 180.58173 91.801853 
L 179.933717 67.535618 
L 179.285704 79.22926 
L 178.637691 118.150672 
L 177.989677 108.278469 
L 177.341664 100.189724 
L 176.693651 93.065699 
L 176.045638 103.934949 
L 175.397625 105.336158 
L 174.749612 112.900084 
L 174.101599 91.362371 
L 173.453586 120.520984 
L 172.805573 154.379331 
L 172.15756 63.899826 
L 171.509547 89.502805 
L 170.861534 65.069975 
L 170.213521 98.915811 
L 169.565508 124.762143 
L 168.917495 120.3436 
L 168.269481 139.66708 
L 167.621468 98.814839 
L 166.973455 129.465045 
L 166.325442 134.405124 
L 165.677429 140.029905 
L 165.029416 136.086395 
L 164.381403 181.129556 
L 163.73339 163.342991 
L 163.085377 192.814571 
L 162.437364 159.298611 
L 161.789351 174.448347 
L 161.141338 213.748689 
L 160.493325 99.858243 
L 159.845312 111.845399 
L 159.197299 99.712303 
L 158.549286 93.255291 
L 157.901272 134.405124 
L 157.253259 163.681183 
L 156.605246 129.522944 
L 155.957233 170.946302 
L 155.30922 148.887675 
L 154.661207 120.956329 
L 154.013194 169.521257 
L 153.365181 135.484036 
L 152.717168 163.920052 
L 152.069155 156.742917 
L 151.421142 163.681183 
L 150.773129 212.102225 
L 150.125116 149.595316 
L 149.477103 168.768894 
L 148.82909 213.748689 
L 148.181076 199.650766 
L 147.533063 197.831836 
L 146.88505 177.577516 
L 146.237037 167.43108 
L 145.589024 206.079336 
L 144.941011 180.147493 
L 144.292998 172.656891 
L 143.644985 215.028026 
L 142.996972 245.787028 
L 142.348959 212.502452 
L 141.700946 215.025798 
L 141.052933 248.274739 
L 140.40492 229.718963 
L 139.756907 222.372377 
L 139.108894 259.105294 
L 138.460881 234.48261 
L 137.812867 231.536863 
L 137.164854 222.372377 
L 136.516841 244.412129 
L 135.868828 266.451877 
L 135.220815 251.758712 
L 134.572802 266.451877 
L 133.924789 237.065546 
L 133.276776 259.105294 
L 132.628763 244.412129 
L 131.98075 259.105294 
L 131.332737 277.100672 
L 130.684724 288.491625 
L 130.036711 245.787028 
L 129.388698 266.451877 
L 128.740685 244.412129 
L 128.092671 266.451877 
L 127.444658 273.79846 
L 126.796645 281.145042 
L 126.148632 281.145042 
L 125.500619 288.491625 
L 124.852606 288.491625 
L 124.204593 288.491625 
L 123.55658 281.145042 
L 122.908567 288.491625 
L 122.260554 288.491625 
L 121.612541 288.491625 
L 120.964528 288.491625 
L 120.316515 288.491625 
L 119.668502 259.105294 
L 119.020489 288.491625 
L 118.372476 266.451877 
L 117.724462 288.491625 
L 117.076449 288.491625 
L 116.428436 288.491625 
L 115.780423 288.491625 
L 115.13241 288.491625 
L 114.484397 288.491625 
L 113.836384 288.491625 
L 113.188371 288.491625 
L 112.540358 288.491625 
L 111.892345 288.491625 
L 111.244332 288.491625 
L 110.596319 288.491625 
L 109.948306 266.451877 
L 109.300293 288.491625 
L 108.65228 288.491625 
L 108.004266 288.491625 
L 107.356253 288.491625 
L 106.70824 288.491625 
L 106.060227 288.491625 
z
" clip-path="url(#p1da49c00bd)" style="fill: #1f77b4; fill-opacity: 0.3"/>
   </g>
   <g id="PolyCollection_2">
    <path d="M 106.060227 288.491625 
L 106.060227 288.491625 
L 106.70824 288.491625 
L 107.356253 288.491625 
L 108.004266 288.491625 
L 108.65228 288.491625 
L 109.365094 288.491625 
L 110.013107 288.491625 
L 110.66112 288.491625 
L 111.309133 288.491625 
L 112.021947 288.491625 
L 112.669961 288.491625 
L 113.317974 288.491625 
L 113.965987 288.491625 
L 114.678801 288.491625 
L 115.326814 288.491625 
L 115.974827 288.491625 
L 116.62284 288.491625 
L 117.335655 288.491625 
L 117.983668 288.491625 
L 118.631681 288.491625 
L 119.279694 288.491625 
L 119.992508 288.491625 
L 120.640521 288.491625 
L 121.288534 288.491625 
L 121.936547 288.491625 
L 122.649362 288.491625 
L 123.297375 288.491625 
L 123.945388 288.491625 
L 124.593401 288.491625 
L 125.241414 288.491625 
L 125.954228 288.491625 
L 126.602241 288.491625 
L 127.250254 288.491625 
L 127.898268 288.491625 
L 128.611082 288.491625 
L 129.259095 288.491625 
L 129.907108 288.491625 
L 130.555121 288.491625 
L 131.267935 288.491625 
L 131.915949 288.491625 
L 132.563962 288.491625 
L 133.211975 288.491625 
L 133.924789 288.491625 
L 134.572802 288.491625 
L 135.220815 288.491625 
L 135.868828 288.491625 
L 136.581643 285.523001 
L 137.229656 288.491625 
L 137.877669 288.491625 
L 138.525682 288.491625 
L 139.238496 288.491625 
L 139.886509 288.491625 
L 140.534522 288.491625 
L 141.182535 288.491625 
L 141.830548 288.491625 
L 142.543363 288.491625 
L 143.191376 288.491625 
L 143.839389 288.491625 
L 144.487402 288.491625 
L 145.200216 288.491625 
L 145.848229 288.491625 
L 146.496243 288.491625 
L 147.144256 288.491625 
L 147.85707 288.491625 
L 148.505083 288.491625 
L 149.153096 288.491625 
L 149.801109 288.491625 
L 150.513924 288.491625 
L 151.161937 288.491625 
L 151.80995 288.491625 
L 152.457963 288.491625 
L 153.170777 288.491625 
L 153.81879 288.491625 
L 154.466803 288.491625 
L 155.114816 288.491625 
L 155.827631 288.491625 
L 156.475644 288.491625 
L 157.123657 288.491625 
L 157.77167 288.491625 
L 158.419683 288.491625 
L 159.132497 288.491625 
L 159.78051 288.491625 
L 160.428523 288.491625 
L 161.076536 288.491625 
L 161.789351 288.491625 
L 162.437364 288.491625 
L 163.085377 288.491625 
L 163.73339 288.491625 
L 164.446204 288.491625 
L 165.094217 288.491625 
L 165.742231 288.491625 
L 166.390244 288.491625 
L 167.103058 288.491625 
L 167.751071 288.491625 
L 168.399084 288.491625 
L 169.047097 288.491625 
L 169.759912 288.491625 
L 170.407925 288.491625 
L 171.055938 288.491625 
L 171.703951 288.491625 
L 172.416765 288.491625 
L 173.064778 288.491625 
L 173.712791 288.491625 
L 174.360804 288.491625 
L 175.008817 288.491625 
L 175.721632 288.491625 
L 176.369645 288.491625 
L 177.017658 288.491625 
L 177.665671 288.491625 
L 178.378485 288.491625 
L 179.026498 288.491625 
L 179.674511 288.491625 
L 180.322524 288.491625 
L 181.035339 288.491625 
L 181.683352 288.491625 
L 182.331365 288.491625 
L 182.979378 288.491625 
L 183.692192 288.491625 
L 184.340205 288.491625 
L 184.988219 288.491625 
L 185.636232 288.491625 
L 186.349046 288.491625 
L 186.997059 288.491625 
L 187.645072 287.007313 
L 188.293085 287.007313 
L 189.0059 288.491625 
L 189.653913 288.491625 
L 190.301926 288.491625 
L 190.949939 288.491625 
L 191.597952 288.491625 
L 192.310766 288.491625 
L 192.958779 288.491625 
L 193.606792 288.491625 
L 194.254805 288.491625 
L 194.96762 288.491625 
L 195.615633 287.007313 
L 196.263646 288.491625 
L 196.911659 285.523001 
L 197.624473 284.038692 
L 198.272486 287.007313 
L 198.920499 288.491625 
L 199.568513 287.007313 
L 200.281327 287.007313 
L 200.92934 288.491625 
L 201.577353 285.523001 
L 202.225366 284.038692 
L 202.93818 285.523001 
L 203.586194 288.491625 
L 204.234207 282.554378 
L 204.88222 282.554378 
L 205.595034 284.038692 
L 206.243047 285.523001 
L 206.89106 284.038692 
L 207.539073 288.491625 
L 208.187086 288.491625 
L 208.899901 288.491625 
L 209.547914 288.491625 
L 210.195927 288.491625 
L 210.84394 288.491625 
L 211.556754 288.491625 
L 212.204767 288.491625 
L 212.85278 288.491625 
L 213.500793 288.491625 
L 214.213608 288.491625 
L 214.861621 288.491625 
L 215.509634 288.491625 
L 216.157647 288.491625 
L 216.870461 288.491625 
L 217.518474 288.491625 
L 218.166487 287.007313 
L 218.814501 288.491625 
L 219.527315 284.038692 
L 220.175328 288.491625 
L 220.823341 287.007313 
L 221.471354 287.007313 
L 222.184168 288.491625 
L 222.832182 288.491625 
L 223.480195 288.491625 
L 224.128208 288.491625 
L 224.776221 288.491625 
L 225.489035 288.491625 
L 226.137048 288.491625 
L 226.785061 288.491625 
L 227.433074 288.491625 
L 228.145889 288.491625 
L 228.793902 288.491625 
L 229.441915 288.491625 
L 230.089928 288.491625 
L 230.802742 288.491625 
L 231.450755 288.491625 
L 232.098768 288.491625 
L 232.746781 288.491625 
L 233.459596 288.491625 
L 234.107609 288.491625 
L 234.755622 288.491625 
L 235.403635 288.491625 
L 236.116449 288.491625 
L 236.764462 288.491625 
L 237.412476 288.491625 
L 238.060489 288.491625 
L 238.773303 288.491625 
L 239.421316 288.491625 
L 240.069329 288.491625 
L 240.717342 288.491625 
L 241.365355 285.523001 
L 242.07817 287.007313 
L 242.726183 287.007313 
L 243.374196 288.491625 
L 244.022209 288.491625 
L 244.735023 288.491625 
L 245.383036 284.038692 
L 246.031049 287.007313 
L 246.679062 285.523001 
L 247.391877 287.007313 
L 248.03989 287.007313 
L 248.687903 284.038692 
L 249.335916 287.007313 
L 250.04873 288.491625 
L 250.696743 287.007313 
L 251.344756 288.491625 
L 251.992769 288.491625 
L 252.705584 285.523001 
L 253.353597 288.491625 
L 254.00161 288.491625 
L 254.649623 287.007313 
L 255.362437 288.491625 
L 256.01045 288.491625 
L 256.658464 288.491625 
L 257.306477 288.491625 
L 257.95449 287.007313 
L 258.667304 288.491625 
L 259.315317 285.523001 
L 259.96333 288.491625 
L 260.611343 288.491625 
L 261.324158 288.491625 
L 261.972171 285.523001 
L 262.620184 288.491625 
L 263.268197 287.007313 
L 263.981011 287.007313 
L 264.629024 288.491625 
L 265.277037 288.491625 
L 265.92505 288.491625 
L 266.637865 288.491625 
L 267.285878 288.491625 
L 267.933891 285.523001 
L 268.581904 288.491625 
L 269.294718 287.007313 
L 269.942731 285.523001 
L 270.590744 287.007313 
L 271.238757 288.491625 
L 271.951572 288.491625 
L 272.599585 288.491625 
L 273.247598 288.491625 
L 273.895611 288.491625 
L 274.543624 287.007313 
L 275.256438 288.491625 
L 275.904452 288.491625 
L 276.552465 288.491625 
L 277.200478 288.491625 
L 277.913292 287.007313 
L 278.561305 288.491625 
L 279.209318 288.491625 
L 279.857331 285.523001 
L 280.570146 285.523001 
L 281.218159 288.491625 
L 281.866172 287.007313 
L 282.514185 288.491625 
L 283.226999 288.491625 
L 283.875012 288.491625 
L 284.523025 288.491625 
L 285.171038 288.491625 
L 285.883853 287.007313 
L 286.531866 287.007313 
L 287.179879 284.038692 
L 287.827892 288.491625 
L 288.540706 288.491625 
L 289.188719 288.491625 
L 289.836732 288.491625 
L 290.484746 288.491625 
L 291.132759 288.491625 
L 291.845573 288.491625 
L 292.493586 288.491625 
L 293.141599 288.491625 
L 293.789612 285.523001 
L 294.502427 288.491625 
L 295.15044 288.491625 
L 295.798453 288.491625 
L 296.446466 288.491625 
L 297.15928 288.491625 
L 297.807293 288.491625 
L 298.455306 287.007313 
L 299.103319 287.007313 
L 299.816134 287.007313 
L 300.464147 288.491625 
L 301.11216 287.007313 
L 301.760173 288.491625 
L 302.472987 288.491625 
L 303.121 288.491625 
L 303.769013 288.491625 
L 304.417026 288.491625 
L 305.129841 288.491625 
L 305.777854 287.007313 
L 306.425867 288.491625 
L 307.07388 288.491625 
L 307.721893 288.491625 
L 308.434707 288.491625 
L 309.08272 288.491625 
L 309.730734 288.491625 
L 310.378747 288.491625 
L 311.091561 288.491625 
L 311.739574 288.491625 
L 312.387587 288.491625 
L 313.0356 287.007313 
L 313.748415 288.491625 
L 314.396428 287.007313 
L 315.044441 288.491625 
L 315.692454 285.523001 
L 316.405268 287.007313 
L 317.053281 287.007313 
L 317.701294 285.523001 
L 318.349307 285.523001 
L 319.062122 282.554378 
L 319.710135 288.491625 
L 320.358148 288.491625 
L 321.006161 285.523001 
L 321.718975 288.491625 
L 322.366988 288.491625 
L 323.015001 287.007313 
L 323.663014 288.491625 
L 324.311027 288.491625 
L 325.023842 288.491625 
L 325.671855 287.007313 
L 326.319868 287.007313 
L 326.967881 288.491625 
L 327.680695 288.491625 
L 328.328708 288.491625 
L 328.976722 288.491625 
L 329.624735 287.007313 
L 330.337549 288.491625 
L 330.985562 288.491625 
L 331.633575 288.491625 
L 332.281588 288.491625 
L 332.994403 288.491625 
L 333.642416 288.491625 
L 334.290429 288.491625 
L 334.938442 288.491625 
L 335.651256 288.491625 
L 336.299269 288.491625 
L 336.947282 288.491625 
L 337.595295 288.491625 
L 338.30811 288.491625 
L 338.956123 287.007313 
L 339.604136 288.491625 
L 340.252149 288.491625 
L 340.900162 288.491625 
L 341.612976 288.491625 
L 342.260989 285.523001 
L 342.909002 287.007313 
L 343.557016 284.038692 
L 344.26983 282.554378 
L 344.917843 288.491625 
L 345.565856 288.491625 
L 346.213869 287.007313 
L 346.926683 285.523001 
L 347.574697 287.007313 
L 348.22271 288.491625 
L 348.870723 287.007313 
L 349.583537 288.491625 
L 350.23155 287.007313 
L 350.879563 288.491625 
L 351.527576 288.491625 
L 352.240391 288.491625 
L 352.888404 288.491625 
L 353.536417 287.007313 
L 354.18443 288.491625 
L 354.897244 288.491625 
L 355.545257 288.491625 
L 356.19327 287.007313 
L 356.841283 288.491625 
L 357.489296 288.491625 
L 358.202111 287.007313 
L 358.850124 287.007313 
L 359.498137 288.491625 
L 360.14615 288.491625 
L 360.858964 288.491625 
L 361.506977 288.491625 
L 362.15499 288.491625 
L 362.803004 288.491625 
L 363.515818 288.491625 
L 364.163831 288.491625 
L 364.811844 287.007313 
L 365.459857 288.491625 
L 366.172671 284.038692 
L 366.820685 288.491625 
L 367.468698 285.523001 
L 368.116711 287.007313 
L 368.829525 288.491625 
L 369.477538 288.491625 
L 370.125551 288.491625 
L 370.773564 288.491625 
L 371.486379 288.491625 
L 372.134392 287.007313 
L 372.782405 287.007313 
L 373.430418 287.007313 
L 374.078431 288.491625 
L 374.791245 288.491625 
L 375.439258 285.523001 
L 376.087271 288.491625 
L 376.735284 288.491625 
L 377.448099 288.491625 
L 378.096112 288.491625 
L 378.744125 287.007313 
L 379.392138 288.491625 
L 380.104952 288.491625 
L 380.752965 288.491625 
L 381.400978 285.523001 
L 382.048992 288.491625 
L 382.761806 287.007313 
L 383.409819 287.007313 
L 384.057832 288.491625 
L 384.705845 288.491625 
L 385.418659 288.491625 
L 386.066673 288.491625 
L 386.714686 288.491625 
L 387.362699 288.491625 
L 388.075513 288.491625 
L 388.723526 288.491625 
L 389.371539 288.491625 
L 390.019552 287.007313 
L 390.667565 288.491625 
L 391.38038 288.491625 
L 392.028393 288.491625 
L 392.676406 288.491625 
L 393.324419 288.491625 
L 394.037233 288.491625 
L 394.685246 288.491625 
L 395.333259 288.491625 
L 395.981272 288.491625 
L 396.694087 288.491625 
L 397.3421 288.491625 
L 397.990113 288.491625 
L 398.638126 288.491625 
L 399.35094 288.491625 
L 399.998953 288.491625 
L 400.646967 288.491625 
L 401.29498 288.491625 
L 402.007794 288.491625 
L 402.655807 288.491625 
L 403.30382 288.491625 
L 403.951833 288.491625 
L 404.664648 288.491625 
L 405.312661 288.491625 
L 405.960674 288.491625 
L 406.608687 288.491625 
L 407.2567 287.007313 
L 407.969514 288.491625 
L 408.617527 288.491625 
L 409.26554 288.491625 
L 409.913553 288.491625 
L 410.626368 288.491625 
L 411.274381 288.491625 
L 411.922394 288.491625 
L 412.570407 288.491625 
L 413.283221 288.491625 
L 413.931234 288.491625 
L 414.579247 288.491625 
L 415.22726 288.491625 
L 415.940075 288.491625 
L 416.588088 288.491625 
L 417.236101 288.491625 
L 417.884114 288.491625 
L 418.596928 288.491625 
L 419.244941 288.491625 
L 419.892955 288.491625 
L 420.540968 288.491625 
L 421.253782 288.491625 
L 421.901795 288.491625 
L 422.549808 288.491625 
L 423.197821 288.491625 
L 423.845834 288.491625 
L 424.558649 288.491625 
L 425.206662 288.491625 
L 425.854675 288.491625 
L 426.502688 288.491625 
L 427.215502 288.491625 
L 427.863515 287.007313 
L 428.511528 285.523001 
L 429.159541 287.007313 
L 429.872356 288.491625 
L 430.520369 288.491625 
L 430.520369 288.491625 
L 430.520369 288.491625 
L 429.872356 288.491625 
L 429.159541 273.79846 
L 428.511528 259.105294 
L 427.863515 273.79846 
L 427.215502 288.491625 
L 426.502688 288.491625 
L 425.854675 288.491625 
L 425.206662 288.491625 
L 424.558649 288.491625 
L 423.845834 288.491625 
L 423.197821 288.491625 
L 422.549808 288.491625 
L 421.901795 288.491625 
L 421.253782 288.491625 
L 420.540968 288.491625 
L 419.892955 288.491625 
L 419.244941 288.491625 
L 418.596928 288.491625 
L 417.884114 288.491625 
L 417.236101 288.491625 
L 416.588088 288.491625 
L 415.940075 288.491625 
L 415.22726 288.491625 
L 414.579247 288.491625 
L 413.931234 288.491625 
L 413.283221 288.491625 
L 412.570407 288.491625 
L 411.922394 288.491625 
L 411.274381 288.491625 
L 410.626368 288.491625 
L 409.913553 288.491625 
L 409.26554 288.491625 
L 408.617527 288.491625 
L 407.969514 288.491625 
L 407.2567 273.79846 
L 406.608687 288.491625 
L 405.960674 288.491625 
L 405.312661 288.491625 
L 404.664648 288.491625 
L 403.951833 288.491625 
L 403.30382 288.491625 
L 402.655807 288.491625 
L 402.007794 288.491625 
L 401.29498 288.491625 
L 400.646967 288.491625 
L 399.998953 288.491625 
L 399.35094 288.491625 
L 398.638126 288.491625 
L 397.990113 288.491625 
L 397.3421 288.491625 
L 396.694087 288.491625 
L 395.981272 288.491625 
L 395.333259 288.491625 
L 394.685246 288.491625 
L 394.037233 288.491625 
L 393.324419 288.491625 
L 392.676406 288.491625 
L 392.028393 288.491625 
L 391.38038 288.491625 
L 390.667565 288.491625 
L 390.019552 273.79846 
L 389.371539 288.491625 
L 388.723526 288.491625 
L 388.075513 288.491625 
L 387.362699 288.491625 
L 386.714686 288.491625 
L 386.066673 288.491625 
L 385.418659 288.491625 
L 384.705845 288.491625 
L 384.057832 288.491625 
L 383.409819 273.79846 
L 382.761806 273.79846 
L 382.048992 288.491625 
L 381.400978 259.105294 
L 380.752965 288.491625 
L 380.104952 288.491625 
L 379.392138 288.491625 
L 378.744125 273.79846 
L 378.096112 288.491625 
L 377.448099 288.491625 
L 376.735284 288.491625 
L 376.087271 288.491625 
L 375.439258 259.105294 
L 374.791245 288.491625 
L 374.078431 288.491625 
L 373.430418 273.79846 
L 372.782405 273.79846 
L 372.134392 273.79846 
L 371.486379 288.491625 
L 370.773564 288.491625 
L 370.125551 288.491625 
L 369.477538 288.491625 
L 368.829525 288.491625 
L 368.116711 273.79846 
L 367.468698 259.105294 
L 366.820685 288.491625 
L 366.172671 244.412129 
L 365.459857 288.491625 
L 364.811844 273.79846 
L 364.163831 288.491625 
L 363.515818 288.491625 
L 362.803004 288.491625 
L 362.15499 288.491625 
L 361.506977 288.491625 
L 360.858964 288.491625 
L 360.14615 288.491625 
L 359.498137 288.491625 
L 358.850124 273.79846 
L 358.202111 273.79846 
L 357.489296 288.491625 
L 356.841283 288.491625 
L 356.19327 273.79846 
L 355.545257 288.491625 
L 354.897244 288.491625 
L 354.18443 288.491625 
L 353.536417 273.79846 
L 352.888404 288.491625 
L 352.240391 288.491625 
L 351.527576 288.491625 
L 350.879563 288.491625 
L 350.23155 273.79846 
L 349.583537 288.491625 
L 348.870723 273.79846 
L 348.22271 288.491625 
L 347.574697 273.79846 
L 346.926683 259.105294 
L 346.213869 273.79846 
L 345.565856 288.491625 
L 344.917843 288.491625 
L 344.26983 229.718963 
L 343.557016 244.412129 
L 342.909002 273.79846 
L 342.260989 259.105294 
L 341.612976 288.491625 
L 340.900162 288.491625 
L 340.252149 288.491625 
L 339.604136 288.491625 
L 338.956123 273.79846 
L 338.30811 288.491625 
L 337.595295 288.491625 
L 336.947282 288.491625 
L 336.299269 288.491625 
L 335.651256 288.491625 
L 334.938442 288.491625 
L 334.290429 288.491625 
L 333.642416 288.491625 
L 332.994403 288.491625 
L 332.281588 288.491625 
L 331.633575 288.491625 
L 330.985562 288.491625 
L 330.337549 288.491625 
L 329.624735 273.79846 
L 328.976722 288.491625 
L 328.328708 288.491625 
L 327.680695 288.491625 
L 326.967881 288.491625 
L 326.319868 273.79846 
L 325.671855 273.79846 
L 325.023842 288.491625 
L 324.311027 288.491625 
L 323.663014 288.491625 
L 323.015001 273.79846 
L 322.366988 288.491625 
L 321.718975 288.491625 
L 321.006161 259.105294 
L 320.358148 288.491625 
L 319.710135 288.491625 
L 319.062122 229.718963 
L 318.349307 259.105294 
L 317.701294 259.105294 
L 317.053281 273.79846 
L 316.405268 273.79846 
L 315.692454 259.105294 
L 315.044441 288.491625 
L 314.396428 273.79846 
L 313.748415 288.491625 
L 313.0356 273.79846 
L 312.387587 288.491625 
L 311.739574 288.491625 
L 311.091561 288.491625 
L 310.378747 288.491625 
L 309.730734 288.491625 
L 309.08272 288.491625 
L 308.434707 288.491625 
L 307.721893 288.491625 
L 307.07388 288.491625 
L 306.425867 288.491625 
L 305.777854 273.79846 
L 305.129841 288.491625 
L 304.417026 288.491625 
L 303.769013 288.491625 
L 303.121 288.491625 
L 302.472987 288.491625 
L 301.760173 288.491625 
L 301.11216 273.79846 
L 300.464147 288.491625 
L 299.816134 273.79846 
L 299.103319 273.79846 
L 298.455306 273.79846 
L 297.807293 288.491625 
L 297.15928 288.491625 
L 296.446466 288.491625 
L 295.798453 288.491625 
L 295.15044 288.491625 
L 294.502427 288.491625 
L 293.789612 259.105294 
L 293.141599 288.491625 
L 292.493586 288.491625 
L 291.845573 288.491625 
L 291.132759 288.491625 
L 290.484746 288.491625 
L 289.836732 288.491625 
L 289.188719 288.491625 
L 288.540706 288.491625 
L 287.827892 288.491625 
L 287.179879 244.412129 
L 286.531866 273.79846 
L 285.883853 273.79846 
L 285.171038 288.491625 
L 284.523025 288.491625 
L 283.875012 288.491625 
L 283.226999 288.491625 
L 282.514185 288.491625 
L 281.866172 273.79846 
L 281.218159 288.491625 
L 280.570146 259.105294 
L 279.857331 259.105294 
L 279.209318 288.491625 
L 278.561305 288.491625 
L 277.913292 273.79846 
L 277.200478 288.491625 
L 276.552465 288.491625 
L 275.904452 288.491625 
L 275.256438 288.491625 
L 274.543624 273.79846 
L 273.895611 288.491625 
L 273.247598 288.491625 
L 272.599585 288.491625 
L 271.951572 288.491625 
L 271.238757 288.491625 
L 270.590744 273.79846 
L 269.942731 259.105294 
L 269.294718 273.79846 
L 268.581904 288.491625 
L 267.933891 259.105294 
L 267.285878 288.491625 
L 266.637865 288.491625 
L 265.92505 288.491625 
L 265.277037 288.491625 
L 264.629024 288.491625 
L 263.981011 273.79846 
L 263.268197 273.79846 
L 262.620184 288.491625 
L 261.972171 259.105294 
L 261.324158 288.491625 
L 260.611343 288.491625 
L 259.96333 288.491625 
L 259.315317 259.105294 
L 258.667304 288.491625 
L 257.95449 273.79846 
L 257.306477 288.491625 
L 256.658464 288.491625 
L 256.01045 288.491625 
L 255.362437 288.491625 
L 254.649623 273.79846 
L 254.00161 288.491625 
L 253.353597 288.491625 
L 252.705584 259.105294 
L 251.992769 288.491625 
L 251.344756 288.491625 
L 250.696743 273.79846 
L 250.04873 288.491625 
L 249.335916 273.79846 
L 248.687903 244.412129 
L 248.03989 273.79846 
L 247.391877 273.79846 
L 246.679062 259.105294 
L 246.031049 273.79846 
L 245.383036 244.412129 
L 244.735023 288.491625 
L 244.022209 288.491625 
L 243.374196 288.491625 
L 242.726183 273.79846 
L 242.07817 273.79846 
L 241.365355 259.105294 
L 240.717342 288.491625 
L 240.069329 288.491625 
L 239.421316 288.491625 
L 238.773303 288.491625 
L 238.060489 288.491625 
L 237.412476 288.491625 
L 236.764462 288.491625 
L 236.116449 288.491625 
L 235.403635 288.491625 
L 234.755622 288.491625 
L 234.107609 288.491625 
L 233.459596 288.491625 
L 232.746781 288.491625 
L 232.098768 288.491625 
L 231.450755 288.491625 
L 230.802742 288.491625 
L 230.089928 288.491625 
L 229.441915 288.491625 
L 228.793902 288.491625 
L 228.145889 288.491625 
L 227.433074 288.491625 
L 226.785061 288.491625 
L 226.137048 288.491625 
L 225.489035 288.491625 
L 224.776221 288.491625 
L 224.128208 288.491625 
L 223.480195 288.491625 
L 222.832182 288.491625 
L 222.184168 288.491625 
L 221.471354 273.79846 
L 220.823341 273.79846 
L 220.175328 288.491625 
L 219.527315 244.412129 
L 218.814501 288.491625 
L 218.166487 273.79846 
L 217.518474 288.491625 
L 216.870461 288.491625 
L 216.157647 288.491625 
L 215.509634 288.491625 
L 214.861621 288.491625 
L 214.213608 288.491625 
L 213.500793 288.491625 
L 212.85278 288.491625 
L 212.204767 288.491625 
L 211.556754 288.491625 
L 210.84394 288.491625 
L 210.195927 288.491625 
L 209.547914 288.491625 
L 208.899901 288.491625 
L 208.187086 288.491625 
L 207.539073 288.491625 
L 206.89106 244.412129 
L 206.243047 259.105294 
L 205.595034 244.412129 
L 204.88222 229.718963 
L 204.234207 229.718963 
L 203.586194 288.491625 
L 202.93818 259.105294 
L 202.225366 244.412129 
L 201.577353 259.105294 
L 200.92934 288.491625 
L 200.281327 273.79846 
L 199.568513 273.79846 
L 198.920499 288.491625 
L 198.272486 273.79846 
L 197.624473 244.412129 
L 196.911659 259.105294 
L 196.263646 288.491625 
L 195.615633 273.79846 
L 194.96762 288.491625 
L 194.254805 288.491625 
L 193.606792 288.491625 
L 192.958779 288.491625 
L 192.310766 288.491625 
L 191.597952 288.491625 
L 190.949939 288.491625 
L 190.301926 288.491625 
L 189.653913 288.491625 
L 189.0059 288.491625 
L 188.293085 273.79846 
L 187.645072 273.79846 
L 186.997059 288.491625 
L 186.349046 288.491625 
L 185.636232 288.491625 
L 184.988219 288.491625 
L 184.340205 288.491625 
L 183.692192 288.491625 
L 182.979378 288.491625 
L 182.331365 288.491625 
L 181.683352 288.491625 
L 181.035339 288.491625 
L 180.322524 288.491625 
L 179.674511 288.491625 
L 179.026498 288.491625 
L 178.378485 288.491625 
L 177.665671 288.491625 
L 177.017658 288.491625 
L 176.369645 288.491625 
L 175.721632 288.491625 
L 175.008817 288.491625 
L 174.360804 288.491625 
L 173.712791 288.491625 
L 173.064778 288.491625 
L 172.416765 288.491625 
L 171.703951 288.491625 
L 171.055938 288.491625 
L 170.407925 288.491625 
L 169.759912 288.491625 
L 169.047097 288.491625 
L 168.399084 288.491625 
L 167.751071 288.491625 
L 167.103058 288.491625 
L 166.390244 288.491625 
L 165.742231 288.491625 
L 165.094217 288.491625 
L 164.446204 288.491625 
L 163.73339 288.491625 
L 163.085377 288.491625 
L 162.437364 288.491625 
L 161.789351 288.491625 
L 161.076536 288.491625 
L 160.428523 288.491625 
L 159.78051 288.491625 
L 159.132497 288.491625 
L 158.419683 288.491625 
L 157.77167 288.491625 
L 157.123657 288.491625 
L 156.475644 288.491625 
L 155.827631 288.491625 
L 155.114816 288.491625 
L 154.466803 288.491625 
L 153.81879 288.491625 
L 153.170777 288.491625 
L 152.457963 288.491625 
L 151.80995 288.491625 
L 151.161937 288.491625 
L 150.513924 288.491625 
L 149.801109 288.491625 
L 149.153096 288.491625 
L 148.505083 288.491625 
L 147.85707 288.491625 
L 147.144256 288.491625 
L 146.496243 288.491625 
L 145.848229 288.491625 
L 145.200216 288.491625 
L 144.487402 288.491625 
L 143.839389 288.491625 
L 143.191376 288.491625 
L 142.543363 288.491625 
L 141.830548 288.491625 
L 141.182535 288.491625 
L 140.534522 288.491625 
L 139.886509 288.491625 
L 139.238496 288.491625 
L 138.525682 288.491625 
L 137.877669 288.491625 
L 137.229656 288.491625 
L 136.581643 259.105294 
L 135.868828 288.491625 
L 135.220815 288.491625 
L 134.572802 288.491625 
L 133.924789 288.491625 
L 133.211975 288.491625 
L 132.563962 288.491625 
L 131.915949 288.491625 
L 131.267935 288.491625 
L 130.555121 288.491625 
L 129.907108 288.491625 
L 129.259095 288.491625 
L 128.611082 288.491625 
L 127.898268 288.491625 
L 127.250254 288.491625 
L 126.602241 288.491625 
L 125.954228 288.491625 
L 125.241414 288.491625 
L 124.593401 288.491625 
L 123.945388 288.491625 
L 123.297375 288.491625 
L 122.649362 288.491625 
L 121.936547 288.491625 
L 121.288534 288.491625 
L 120.640521 288.491625 
L 119.992508 288.491625 
L 119.279694 288.491625 
L 118.631681 288.491625 
L 117.983668 288.491625 
L 117.335655 288.491625 
L 116.62284 288.491625 
L 115.974827 288.491625 
L 115.326814 288.491625 
L 114.678801 288.491625 
L 113.965987 288.491625 
L 113.317974 288.491625 
L 112.669961 288.491625 
L 112.021947 288.491625 
L 111.309133 288.491625 
L 110.66112 288.491625 
L 110.013107 288.491625 
L 109.365094 288.491625 
L 108.65228 288.491625 
L 108.004266 288.491625 
L 107.356253 288.491625 
L 106.70824 288.491625 
L 106.060227 288.491625 
z
" clip-path="url(#p1da49c00bd)" style="fill: #ff7f0e; fill-opacity: 0.3"/>
   </g>
   <g id="PolyCollection_3">
    <path d="M 106.060227 288.491625 
L 106.060227 288.491625 
L 106.70824 288.491625 
L 107.356253 288.491625 
L 108.004266 288.491625 
L 108.65228 288.491625 
L 109.300293 288.491625 
L 109.948306 288.491625 
L 110.596319 288.491625 
L 111.244332 288.491625 
L 111.892345 288.491625 
L 112.540358 288.491625 
L 113.188371 288.491625 
L 113.836384 288.491625 
L 114.484397 288.491625 
L 115.13241 288.491625 
L 115.780423 288.491625 
L 116.428436 288.491625 
L 117.076449 288.491625 
L 117.724462 288.491625 
L 118.372476 288.491625 
L 119.020489 288.491625 
L 119.668502 288.491625 
L 120.316515 288.491625 
L 120.964528 288.491625 
L 121.612541 288.491625 
L 122.260554 288.491625 
L 122.908567 288.491625 
L 123.55658 288.491625 
L 124.204593 288.491625 
L 124.852606 288.491625 
L 125.500619 287.007314 
L 126.148632 287.007314 
L 126.796645 288.491625 
L 127.444658 288.491625 
L 128.092671 288.491625 
L 128.740685 285.523003 
L 129.388698 288.491625 
L 130.036711 288.491625 
L 130.684724 287.007314 
L 131.332737 288.491625 
L 131.98075 284.038692 
L 132.628763 287.007314 
L 133.276776 288.491625 
L 133.924789 288.491625 
L 134.572802 287.007314 
L 135.220815 287.007314 
L 135.868828 285.523003 
L 136.516841 288.491625 
L 137.164854 288.491625 
L 137.812867 278.918575 
L 138.460881 288.491625 
L 139.108894 288.491625 
L 139.756907 285.523003 
L 140.40492 287.007314 
L 141.052933 288.491625 
L 141.700946 287.007314 
L 142.348959 287.007314 
L 142.996972 288.491625 
L 143.644985 287.007314 
L 144.292998 285.523003 
L 144.941011 288.491625 
L 145.589024 288.491625 
L 146.237037 284.038692 
L 146.88505 288.491625 
L 147.533063 288.491625 
L 148.181076 288.491625 
L 148.82909 288.491625 
L 149.477103 288.491625 
L 150.125116 285.523003 
L 150.773129 282.55438 
L 151.421142 278.918575 
L 152.069155 282.55438 
L 152.717168 285.523003 
L 153.365181 273.610343 
L 154.013194 282.55438 
L 154.661207 287.007314 
L 155.30922 288.491625 
L 155.957233 285.523003 
L 156.605246 287.007314 
L 157.253259 285.523003 
L 157.901272 287.007314 
L 158.549286 270.224482 
L 159.197299 288.491625 
L 159.845312 288.491625 
L 160.493325 284.038692 
L 161.141338 269.345526 
L 161.789351 287.007314 
L 162.437364 281.070069 
L 163.085377 287.007314 
L 163.73339 288.491625 
L 164.381403 278.918575 
L 165.029416 287.007314 
L 165.677429 287.007314 
L 166.325442 287.007314 
L 166.973455 287.007314 
L 167.621468 285.523003 
L 168.269481 269.345526 
L 168.917495 269.345526 
L 169.565508 285.523003 
L 170.213521 287.007314 
L 170.861534 287.007314 
L 171.509547 287.007314 
L 172.15756 282.55438 
L 172.805573 285.523003 
L 173.453586 287.007314 
L 174.101599 287.007314 
L 174.749612 285.523003 
L 175.397625 287.007314 
L 176.045638 284.038692 
L 176.693651 285.523003 
L 177.341664 285.523003 
L 177.989677 284.038692 
L 178.637691 284.038692 
L 179.285704 282.55438 
L 179.933717 288.491625 
L 180.58173 284.038692 
L 181.229743 287.007314 
L 181.877756 287.007314 
L 182.525769 287.007314 
L 183.173782 278.918575 
L 183.821795 268.642351 
L 184.469808 287.007314 
L 185.117821 285.523003 
L 185.765834 284.038692 
L 186.413847 284.038692 
L 187.06186 282.55438 
L 187.709873 279.585758 
L 188.357886 267.089843 
L 189.0059 287.007314 
L 189.653913 284.038692 
L 190.301926 271.860534 
L 190.949939 284.038692 
L 191.597952 284.038692 
L 192.245965 284.038692 
L 192.893978 281.070069 
L 193.541991 281.070069 
L 194.190004 245.958267 
L 194.838017 285.523003 
L 195.48603 279.585758 
L 196.134043 273.610343 
L 196.782056 282.55438 
L 197.430069 287.007314 
L 198.078082 273.610343 
L 198.726096 275.664613 
L 199.374109 282.55438 
L 200.022122 284.038692 
L 200.670135 287.007314 
L 201.318148 278.918575 
L 201.966161 287.007314 
L 202.614174 282.55438 
L 203.262187 288.491625 
L 203.9102 287.007314 
L 204.558213 275.664613 
L 205.206226 264.22541 
L 205.854239 262.837602 
L 206.502252 269.345526 
L 207.150265 252.569749 
L 207.798278 273.610343 
L 208.446292 236.990572 
L 209.094305 285.523003 
L 209.742318 288.491625 
L 210.390331 239.959195 
L 211.038344 285.523003 
L 211.686357 239.959195 
L 212.33437 284.038692 
L 212.982383 284.038692 
L 213.630396 282.55438 
L 214.278409 285.523003 
L 214.926422 273.610343 
L 215.574435 288.491625 
L 216.222448 278.918575 
L 216.870461 287.007314 
L 217.518474 259.772476 
L 218.166487 282.55438 
L 218.814501 284.038692 
L 219.462514 284.038692 
L 220.110527 278.918575 
L 220.75854 285.523003 
L 221.406553 287.007314 
L 222.054566 270.224482 
L 222.702579 278.918575 
L 223.350592 278.918575 
L 223.998605 282.55438 
L 224.646618 273.610343 
L 225.294631 279.585758 
L 225.942644 285.523003 
L 226.590657 267.089843 
L 227.23867 281.070069 
L 227.886683 282.55438 
L 228.534697 268.642351 
L 229.18271 285.523003 
L 229.830723 271.860534 
L 230.478736 279.585758 
L 231.126749 281.070069 
L 231.774762 288.491625 
L 232.422775 275.664613 
L 233.070788 285.523003 
L 233.718801 284.038692 
L 234.366814 275.664613 
L 235.014827 284.038692 
L 235.66284 275.664613 
L 236.310853 285.523003 
L 236.958866 275.664613 
L 237.606879 284.038692 
L 238.254892 259.772476 
L 238.902906 268.642351 
L 239.550919 254.65236 
L 240.198932 270.224482 
L 240.846945 279.585758 
L 241.494958 271.860534 
L 242.142971 287.007314 
L 242.790984 271.860534 
L 243.438997 269.345526 
L 244.08701 287.007314 
L 244.735023 281.070069 
L 245.383036 271.860534 
L 246.031049 284.038692 
L 246.679062 259.772476 
L 247.327075 268.642351 
L 247.975088 282.55438 
L 248.623102 281.070069 
L 249.271115 282.55438 
L 249.919128 268.642351 
L 250.567141 262.837602 
L 251.215154 255.683057 
L 251.863167 285.523003 
L 252.51118 278.918575 
L 253.159193 268.642351 
L 253.807206 251.398398 
L 254.455219 281.070069 
L 255.103232 282.55438 
L 255.751245 267.089843 
L 256.399258 279.585758 
L 257.047271 284.038692 
L 257.695284 279.585758 
L 258.343297 278.101447 
L 258.991311 249.344128 
L 259.639324 278.101447 
L 260.287337 284.038692 
L 260.93535 279.585758 
L 261.583363 268.642351 
L 262.231376 256.937614 
L 262.879389 287.007314 
L 263.527402 271.860534 
L 264.175415 285.523003 
L 264.823428 262.837602 
L 265.471441 262.837602 
L 266.119454 265.521605 
L 266.767467 275.664613 
L 267.41548 287.007314 
L 268.063493 288.491625 
L 268.711507 271.860534 
L 269.35952 285.523003 
L 270.007533 275.664613 
L 270.655546 278.918575 
L 271.303559 288.491625 
L 271.951572 269.345526 
L 272.599585 271.860534 
L 273.247598 287.007314 
L 273.895611 281.070069 
L 274.543624 275.664613 
L 275.191637 270.224482 
L 275.83965 285.523003 
L 276.487663 285.523003 
L 277.135676 287.007314 
L 277.783689 273.610343 
L 278.431703 273.610343 
L 279.079716 265.521605 
L 279.727729 285.523003 
L 280.375742 278.918575 
L 281.023755 275.664613 
L 281.671768 275.664613 
L 282.319781 275.664613 
L 282.967794 287.007314 
L 283.615807 269.345526 
L 284.26382 275.664613 
L 284.911833 269.345526 
L 285.559846 269.345526 
L 286.207859 275.664613 
L 286.855872 273.610343 
L 287.503885 288.491625 
L 288.151898 250.199427 
L 288.799912 259.772476 
L 289.447925 265.521605 
L 290.095938 258.729062 
L 290.743951 273.610343 
L 291.391964 282.55438 
L 292.039977 278.918575 
L 292.68799 270.224482 
L 293.336003 284.038692 
L 293.984016 273.610343 
L 294.632029 265.521605 
L 295.280042 265.521605 
L 295.928055 287.007314 
L 296.576068 255.683057 
L 297.224081 258.729062 
L 297.872094 281.070069 
L 298.520108 284.038692 
L 299.168121 273.610343 
L 299.816134 269.345526 
L 300.464147 285.523003 
L 301.11216 282.55438 
L 301.760173 273.610343 
L 302.408186 281.070069 
L 303.056199 275.664613 
L 303.704212 269.345526 
L 304.352225 278.918575 
L 305.000238 278.918575 
L 305.648251 287.007314 
L 306.296264 275.664613 
L 306.944277 265.521605 
L 307.59229 265.521605 
L 308.240303 284.038692 
L 308.888317 287.007314 
L 309.53633 275.664613 
L 310.184343 269.345526 
L 310.832356 278.918575 
L 311.480369 273.610343 
L 312.128382 281.070069 
L 312.776395 278.918575 
L 313.424408 269.345526 
L 314.072421 287.007314 
L 314.720434 287.007314 
L 315.368447 255.683057 
L 316.01646 270.224482 
L 316.664473 261.256788 
L 317.312486 260.658487 
L 317.960499 278.101447 
L 318.608513 275.664613 
L 319.256526 270.224482 
L 319.904539 268.642351 
L 320.552552 265.521605 
L 321.200565 279.585758 
L 321.848578 271.860534 
L 322.496591 262.837602 
L 323.144604 273.610343 
L 323.792617 265.521605 
L 324.44063 282.55438 
L 325.088643 287.007314 
L 325.736656 265.521605 
L 326.384669 284.038692 
L 327.032682 275.664613 
L 327.680695 273.610343 
L 328.328708 284.038692 
L 328.976722 259.772476 
L 329.624735 265.521605 
L 330.272748 271.860534 
L 330.920761 276.617136 
L 331.568774 285.523003 
L 332.216787 282.55438 
L 332.8648 273.610343 
L 333.512813 271.860534 
L 334.160826 268.642351 
L 334.808839 268.642351 
L 335.456852 284.038692 
L 336.104865 265.521605 
L 336.752878 278.918575 
L 337.400891 216.989175 
L 338.048904 262.741099 
L 338.696918 284.038692 
L 339.344931 287.007314 
L 339.992944 287.007314 
L 340.640957 269.345526 
L 341.28897 284.038692 
L 341.936983 278.918575 
L 342.584996 275.664613 
L 343.233009 282.55438 
L 343.881022 288.491625 
L 344.529035 288.491625 
L 345.177048 287.007314 
L 345.825061 265.521605 
L 346.473074 287.007314 
L 347.121087 288.491625 
L 347.7691 275.664613 
L 348.417114 278.918575 
L 349.065127 287.007314 
L 349.71314 288.491625 
L 350.361153 279.585758 
L 351.009166 285.523003 
L 351.657179 278.918575 
L 352.305192 282.55438 
L 352.953205 287.007314 
L 353.601218 278.918575 
L 354.249231 287.007314 
L 354.897244 288.491625 
L 355.545257 288.491625 
L 356.19327 284.038692 
L 356.841283 269.345526 
L 357.489296 284.038692 
L 358.137309 265.521605 
L 358.785323 284.038692 
L 359.433336 288.491625 
L 360.081349 265.521605 
L 360.729362 287.007314 
L 361.377375 249.344128 
L 362.025388 284.038692 
L 362.673401 264.22541 
L 363.321414 269.345526 
L 363.969427 273.610343 
L 364.61744 273.610343 
L 365.265453 282.55438 
L 365.913466 241.25539 
L 366.561479 241.25539 
L 367.209492 287.007314 
L 367.857505 275.664613 
L 368.505519 273.610343 
L 369.153532 285.523003 
L 369.801545 285.523003 
L 370.449558 270.224482 
L 371.097571 259.772476 
L 371.745584 279.585758 
L 372.393597 270.224482 
L 373.04161 278.918575 
L 373.689623 285.523003 
L 374.337636 252.569749 
L 374.985649 271.860534 
L 375.633662 287.007314 
L 376.281675 238.571387 
L 376.929688 273.610343 
L 377.577701 234.02195 
L 378.225714 275.664613 
L 378.873728 231.416842 
L 379.521741 284.038692 
L 380.169754 273.610343 
L 380.817767 225.077913 
L 381.46578 239.959195 
L 382.113793 262.741099 
L 382.761806 278.918575 
L 383.409819 259.772476 
L 384.057832 273.610343 
L 384.705845 262.837602 
L 385.353858 265.521605 
L 386.001871 267.089843 
L 386.649884 265.521605 
L 387.297897 287.007314 
L 387.94591 249.344128 
L 388.593924 287.007314 
L 389.241937 285.523003 
L 389.88995 249.344128 
L 390.537963 261.256788 
L 391.185976 238.474884 
L 391.833989 273.610343 
L 392.482002 265.521605 
L 393.130015 269.345526 
L 393.778028 259.772476 
L 394.426041 262.741099 
L 395.074054 265.521605 
L 395.722067 238.474884 
L 396.37008 285.523003 
L 397.018093 278.918575 
L 397.666106 238.474884 
L 398.314119 189.942453 
L 398.962133 262.837602 
L 399.610146 281.070069 
L 400.258159 268.642351 
L 400.906172 287.007314 
L 401.554185 265.521605 
L 402.202198 282.55438 
L 402.850211 265.521605 
L 403.498224 265.521605 
L 404.146237 269.345526 
L 404.79425 288.491625 
L 405.442263 212.724357 
L 406.090276 271.860534 
L 406.738289 262.837602 
L 407.386302 259.772476 
L 408.034315 236.990572 
L 408.682329 255.683057 
L 409.330342 273.610343 
L 409.978355 259.772476 
L 410.626368 251.398398 
L 411.274381 251.398398 
L 411.922394 269.345526 
L 412.570407 275.664613 
L 413.21842 262.837602 
L 413.866433 271.860534 
L 414.514446 238.474884 
L 415.162459 185.930416 
L 415.810472 202.865968 
L 416.458485 251.398398 
L 417.106498 262.741099 
L 417.754511 241.25539 
L 418.402524 262.741099 
L 419.050538 244.376136 
L 419.698551 227.132183 
L 420.346564 247.594319 
L 420.994577 241.25539 
L 421.64259 232.671399 
L 422.290603 275.664613 
L 422.938616 249.344128 
L 423.586629 247.594319 
L 424.234642 238.474884 
L 424.882655 275.664613 
L 425.530668 258.288165 
L 426.178681 211.240046 
L 426.826694 284.038692 
L 427.474707 244.376136 
L 428.12272 234.462847 
L 428.770734 236.990572 
L 429.418747 251.398398 
L 430.06676 236.287397 
L 430.714773 275.664613 
L 430.714773 252.786206 
L 430.714773 252.786206 
L 430.06676 162.743608 
L 429.418747 228.519991 
L 428.770734 210.572863 
L 428.12272 164.568159 
L 427.474707 170.832347 
L 426.826694 244.412128 
L 426.178681 171.613483 
L 425.530668 205.452747 
L 424.882655 252.786206 
L 424.234642 225.266029 
L 423.586629 199.969117 
L 422.938616 214.396784 
L 422.290603 252.786206 
L 421.64259 150.182129 
L 420.994577 206.308046 
L 420.346564 199.969117 
L 419.698551 204.253776 
L 419.050538 170.832347 
L 418.402524 249.532244 
L 417.754511 206.308046 
L 417.106498 249.532244 
L 416.458485 228.519991 
L 415.810472 179.987561 
L 415.162459 116.035728 
L 414.514446 225.266029 
L 413.866433 224.235332 
L 413.21842 217.080788 
L 412.570407 252.786206 
L 411.922394 242.927817 
L 411.274381 228.519991 
L 410.626368 228.519991 
L 409.978355 220.145913 
L 409.330342 238.662999 
L 408.682329 208.057855 
L 408.034315 210.572863 
L 407.386302 220.145913 
L 406.738289 217.080788 
L 406.090276 224.235332 
L 405.442263 186.306648 
L 404.79425 288.491625 
L 404.146237 242.927817 
L 403.498224 230.574261 
L 402.850211 230.574261 
L 402.202198 229.718963 
L 401.554185 230.574261 
L 400.906172 273.798459 
L 400.258159 195.098562 
L 399.610146 215.025797 
L 398.962133 217.080788 
L 398.314119 176.733599 
L 397.666106 225.266029 
L 397.018093 265.709721 
L 396.37008 259.105294 
L 395.722067 225.266029 
L 395.074054 230.574261 
L 394.426041 249.532244 
L 393.778028 220.145913 
L 393.130015 242.927817 
L 392.482002 230.574261 
L 391.833989 238.662999 
L 391.185976 225.266029 
L 390.537963 234.839079 
L 389.88995 214.396784 
L 389.241937 259.105294 
L 388.593924 273.798459 
L 387.94591 214.396784 
L 387.297897 273.798459 
L 386.649884 230.574261 
L 386.001871 180.473592 
L 385.353858 230.574261 
L 384.705845 217.080788 
L 384.057832 238.662999 
L 383.409819 220.145913 
L 382.761806 265.709721 
L 382.113793 249.532244 
L 381.46578 239.959195 
L 380.817767 190.130569 
L 380.169754 238.662999 
L 379.521741 244.412128 
L 378.873728 183.79164 
L 378.225714 252.786206 
L 377.577701 181.186532 
L 376.929688 238.662999 
L 376.281675 192.814572 
L 375.633662 273.798459 
L 374.985649 224.235332 
L 374.337636 194.993687 
L 373.689623 259.105294 
L 373.04161 265.709721 
L 372.393597 209.693907 
L 371.745584 200.332631 
L 371.097571 220.145913 
L 370.449558 209.693907 
L 369.801545 259.105294 
L 369.153532 259.105294 
L 368.505519 238.662999 
L 367.857505 252.786206 
L 367.209492 273.798459 
L 366.561479 206.308046 
L 365.913466 206.308046 
L 365.265453 229.718963 
L 364.61744 238.662999 
L 363.969427 238.662999 
L 363.321414 242.927817 
L 362.673401 264.22541 
L 362.025388 244.412128 
L 361.377375 214.396784 
L 360.729362 273.798459 
L 360.081349 230.574261 
L 359.433336 288.491625 
L 358.785323 244.412128 
L 358.137309 230.574261 
L 357.489296 244.412128 
L 356.841283 242.927817 
L 356.19327 244.412128 
L 355.545257 288.491625 
L 354.897244 288.491625 
L 354.249231 273.798459 
L 353.601218 265.709721 
L 352.953205 273.798459 
L 352.305192 229.718963 
L 351.657179 265.709721 
L 351.009166 259.105294 
L 350.361153 200.332631 
L 349.71314 288.491625 
L 349.065127 273.798459 
L 348.417114 265.709721 
L 347.7691 252.786206 
L 347.121087 288.491625 
L 346.473074 273.798459 
L 345.825061 230.574261 
L 345.177048 273.798459 
L 344.529035 288.491625 
L 343.881022 288.491625 
L 343.233009 229.718963 
L 342.584996 252.786206 
L 341.936983 265.709721 
L 341.28897 244.412128 
L 340.640957 242.927817 
L 339.992944 273.798459 
L 339.344931 273.798459 
L 338.696918 244.412128 
L 338.048904 249.532244 
L 337.400891 182.041831 
L 336.752878 265.709721 
L 336.104865 230.574261 
L 335.456852 244.412128 
L 334.808839 195.098562 
L 334.160826 195.098562 
L 333.512813 224.235332 
L 332.8648 238.662999 
L 332.216787 229.718963 
L 331.568774 259.105294 
L 330.920761 170.9463 
L 330.272748 224.235332 
L 329.624735 230.574261 
L 328.976722 220.145913 
L 328.328708 244.412128 
L 327.680695 238.662999 
L 327.032682 252.786206 
L 326.384669 244.412128 
L 325.736656 230.574261 
L 325.088643 273.798459 
L 324.44063 229.718963 
L 323.792617 230.574261 
L 323.144604 238.662999 
L 322.496591 217.080788 
L 321.848578 224.235332 
L 321.200565 200.332631 
L 320.552552 230.574261 
L 319.904539 195.098562 
L 319.256526 209.693907 
L 318.608513 252.786206 
L 317.960499 185.639466 
L 317.312486 203.082425 
L 316.664473 234.839079 
L 316.01646 209.693907 
L 315.368447 208.057855 
L 314.720434 273.798459 
L 314.072421 273.798459 
L 313.424408 242.927817 
L 312.776395 265.709721 
L 312.128382 215.025797 
L 311.480369 238.662999 
L 310.832356 265.709721 
L 310.184343 242.927817 
L 309.53633 252.786206 
L 308.888317 273.798459 
L 308.240303 244.412128 
L 307.59229 230.574261 
L 306.944277 230.574261 
L 306.296264 252.786206 
L 305.648251 273.798459 
L 305.000238 265.709721 
L 304.352225 265.709721 
L 303.704212 242.927817 
L 303.056199 252.786206 
L 302.408186 215.025797 
L 301.760173 238.662999 
L 301.11216 229.718963 
L 300.464147 259.105294 
L 299.816134 242.927817 
L 299.168121 238.662999 
L 298.520108 244.412128 
L 297.872094 215.025797 
L 297.224081 188.834374 
L 296.576068 208.057855 
L 295.928055 273.798459 
L 295.280042 230.574261 
L 294.632029 230.574261 
L 293.984016 238.662999 
L 293.336003 244.412128 
L 292.68799 209.693907 
L 292.039977 265.709721 
L 291.391964 229.718963 
L 290.743951 238.662999 
L 290.095938 188.834374 
L 289.447925 230.574261 
L 288.799912 220.145913 
L 288.151898 197.364009 
L 287.503885 288.491625 
L 286.855872 238.662999 
L 286.207859 252.786206 
L 285.559846 242.927817 
L 284.911833 242.927817 
L 284.26382 252.786206 
L 283.615807 242.927817 
L 282.967794 273.798459 
L 282.319781 252.786206 
L 281.671768 252.786206 
L 281.023755 252.786206 
L 280.375742 265.709721 
L 279.727729 259.105294 
L 279.079716 230.574261 
L 278.431703 238.662999 
L 277.783689 238.662999 
L 277.135676 273.798459 
L 276.487663 259.105294 
L 275.83965 259.105294 
L 275.191637 209.693907 
L 274.543624 252.786206 
L 273.895611 215.025797 
L 273.247598 273.798459 
L 272.599585 224.235332 
L 271.951572 242.927817 
L 271.303559 288.491625 
L 270.655546 265.709721 
L 270.007533 252.786206 
L 269.35952 259.105294 
L 268.711507 224.235332 
L 268.063493 288.491625 
L 267.41548 273.798459 
L 266.767467 252.786206 
L 266.119454 230.574261 
L 265.471441 217.080788 
L 264.823428 217.080788 
L 264.175415 259.105294 
L 263.527402 224.235332 
L 262.879389 273.798459 
L 262.231376 174.448345 
L 261.583363 195.098562 
L 260.93535 200.332631 
L 260.287337 244.412128 
L 259.639324 185.639466 
L 258.991311 214.396784 
L 258.343297 185.639466 
L 257.695284 200.332631 
L 257.047271 244.412128 
L 256.399258 200.332631 
L 255.751245 180.473592 
L 255.103232 229.718963 
L 254.455219 215.025797 
L 253.807206 228.519991 
L 253.159193 195.098562 
L 252.51118 265.709721 
L 251.863167 259.105294 
L 251.215154 208.057855 
L 250.567141 217.080788 
L 249.919128 195.098562 
L 249.271115 229.718963 
L 248.623102 215.025797 
L 247.975088 229.718963 
L 247.327075 195.098562 
L 246.679062 220.145913 
L 246.031049 244.412128 
L 245.383036 224.235332 
L 244.735023 215.025797 
L 244.08701 273.798459 
L 243.438997 242.927817 
L 242.790984 224.235332 
L 242.142971 273.798459 
L 241.494958 224.235332 
L 240.846945 200.332631 
L 240.198932 209.693907 
L 239.550919 241.443506 
L 238.902906 195.098562 
L 238.254892 220.145913 
L 237.606879 244.412128 
L 236.958866 252.786206 
L 236.310853 259.105294 
L 235.66284 252.786206 
L 235.014827 244.412128 
L 234.366814 252.786206 
L 233.718801 244.412128 
L 233.070788 259.105294 
L 232.422775 252.786206 
L 231.774762 288.491625 
L 231.126749 215.025797 
L 230.478736 200.332631 
L 229.830723 224.235332 
L 229.18271 259.105294 
L 228.534697 195.098562 
L 227.886683 229.718963 
L 227.23867 215.025797 
L 226.590657 180.473592 
L 225.942644 259.105294 
L 225.294631 200.332631 
L 224.646618 238.662999 
L 223.998605 229.718963 
L 223.350592 265.709721 
L 222.702579 265.709721 
L 222.054566 209.693907 
L 221.406553 273.798459 
L 220.75854 259.105294 
L 220.110527 265.709721 
L 219.462514 244.412128 
L 218.814501 244.412128 
L 218.166487 229.718963 
L 217.518474 220.145913 
L 216.870461 273.798459 
L 216.222448 265.709721 
L 215.574435 288.491625 
L 214.926422 238.662999 
L 214.278409 259.105294 
L 213.630396 229.718963 
L 212.982383 244.412128 
L 212.33437 244.412128 
L 211.686357 239.959195 
L 211.038344 259.105294 
L 210.390331 239.959195 
L 209.742318 288.491625 
L 209.094305 259.105294 
L 208.446292 210.572863 
L 207.798278 238.662999 
L 207.150265 194.993687 
L 206.502252 242.927817 
L 205.854239 217.080788 
L 205.206226 264.22541 
L 204.558213 252.786206 
L 203.9102 273.798459 
L 203.262187 288.491625 
L 202.614174 229.718963 
L 201.966161 273.798459 
L 201.318148 265.709721 
L 200.670135 273.798459 
L 200.022122 244.412128 
L 199.374109 229.718963 
L 198.726096 252.786206 
L 198.078082 238.662999 
L 197.430069 273.798459 
L 196.782056 229.718963 
L 196.134043 238.662999 
L 195.48603 200.332631 
L 194.838017 259.105294 
L 194.190004 185.427692 
L 193.541991 215.025797 
L 192.893978 215.025797 
L 192.245965 244.412128 
L 191.597952 244.412128 
L 190.949939 244.412128 
L 190.301926 224.235332 
L 189.653913 244.412128 
L 189.0059 273.798459 
L 188.357886 180.473592 
L 187.709873 200.332631 
L 187.06186 229.718963 
L 186.413847 244.412128 
L 185.765834 244.412128 
L 185.117821 259.105294 
L 184.469808 273.798459 
L 183.821795 195.098562 
L 183.173782 265.709721 
L 182.525769 273.798459 
L 181.877756 273.798459 
L 181.229743 273.798459 
L 180.58173 244.412128 
L 179.933717 288.491625 
L 179.285704 229.718963 
L 178.637691 244.412128 
L 177.989677 244.412128 
L 177.341664 259.105294 
L 176.693651 259.105294 
L 176.045638 244.412128 
L 175.397625 273.798459 
L 174.749612 259.105294 
L 174.101599 273.798459 
L 173.453586 273.798459 
L 172.805573 259.105294 
L 172.15756 229.718963 
L 171.509547 273.798459 
L 170.861534 273.798459 
L 170.213521 273.798459 
L 169.565508 259.105294 
L 168.917495 242.927817 
L 168.269481 242.927817 
L 167.621468 259.105294 
L 166.973455 273.798459 
L 166.325442 273.798459 
L 165.677429 273.798459 
L 165.029416 273.798459 
L 164.381403 265.709721 
L 163.73339 288.491625 
L 163.085377 273.798459 
L 162.437364 215.025797 
L 161.789351 273.798459 
L 161.141338 242.927817 
L 160.493325 244.412128 
L 159.845312 288.491625 
L 159.197299 288.491625 
L 158.549286 209.693907 
L 157.901272 273.798459 
L 157.253259 259.105294 
L 156.605246 273.798459 
L 155.957233 259.105294 
L 155.30922 288.491625 
L 154.661207 273.798459 
L 154.013194 229.718963 
L 153.365181 238.662999 
L 152.717168 259.105294 
L 152.069155 229.718963 
L 151.421142 265.709721 
L 150.773129 229.718963 
L 150.125116 259.105294 
L 149.477103 288.491625 
L 148.82909 288.491625 
L 148.181076 288.491625 
L 147.533063 288.491625 
L 146.88505 288.491625 
L 146.237037 244.412128 
L 145.589024 288.491625 
L 144.941011 288.491625 
L 144.292998 259.105294 
L 143.644985 273.798459 
L 142.996972 288.491625 
L 142.348959 273.798459 
L 141.700946 273.798459 
L 141.052933 288.491625 
L 140.40492 273.798459 
L 139.756907 259.105294 
L 139.108894 288.491625 
L 138.460881 288.491625 
L 137.812867 265.709721 
L 137.164854 288.491625 
L 136.516841 288.491625 
L 135.868828 259.105294 
L 135.220815 273.798459 
L 134.572802 273.798459 
L 133.924789 288.491625 
L 133.276776 288.491625 
L 132.628763 273.798459 
L 131.98075 244.412128 
L 131.332737 288.491625 
L 130.684724 273.798459 
L 130.036711 288.491625 
L 129.388698 288.491625 
L 128.740685 259.105294 
L 128.092671 288.491625 
L 127.444658 288.491625 
L 126.796645 288.491625 
L 126.148632 273.798459 
L 125.500619 273.798459 
L 124.852606 288.491625 
L 124.204593 288.491625 
L 123.55658 288.491625 
L 122.908567 288.491625 
L 122.260554 288.491625 
L 121.612541 288.491625 
L 120.964528 288.491625 
L 120.316515 288.491625 
L 119.668502 288.491625 
L 119.020489 288.491625 
L 118.372476 288.491625 
L 117.724462 288.491625 
L 117.076449 288.491625 
L 116.428436 288.491625 
L 115.780423 288.491625 
L 115.13241 288.491625 
L 114.484397 288.491625 
L 113.836384 288.491625 
L 113.188371 288.491625 
L 112.540358 288.491625 
L 111.892345 288.491625 
L 111.244332 288.491625 
L 110.596319 288.491625 
L 109.948306 288.491625 
L 109.300293 288.491625 
L 108.65228 288.491625 
L 108.004266 288.491625 
L 107.356253 288.491625 
L 106.70824 288.491625 
L 106.060227 288.491625 
z
" clip-path="url(#p1da49c00bd)" style="fill: #2ca02c; fill-opacity: 0.3"/>
   </g>
   <g id="matplotlib.axis_1">
    <g id="xtick_1">
     <g id="line2d_1">
      <defs>
       <path id="m5322d1e790" d="M 0 0 
L 0 3.5 
" style="stroke: #000000; stroke-width: 0.8"/>
      </defs>
      <g>
       <use xlink:href="#m5322d1e790" x="106.060227" y="300.587625" style="stroke: #000000; stroke-width: 0.8"/>
      </g>
     </g>
     <g id="text_1">
      <!-- 0 -->
      <g transform="translate(97.152727 328.86325) scale(0.28 -0.28)">
       <defs>
        <path id="DejaVuSans-30" d="M 2034 4250 
Q 1547 4250 1301 3770 
Q 1056 3291 1056 2328 
Q 1056 1369 1301 889 
Q 1547 409 2034 409 
Q 2525 409 2770 889 
Q 3016 1369 3016 2328 
Q 3016 3291 2770 3770 
Q 2525 4250 2034 4250 
z
M 2034 4750 
Q 2819 4750 3233 4129 
Q 3647 3509 3647 2328 
Q 3647 1150 3233 529 
Q 2819 -91 2034 -91 
Q 1250 -91 836 529 
Q 422 1150 422 2328 
Q 422 3509 836 4129 
Q 1250 4750 2034 4750 
z
" transform="scale(0.015625)"/>
       </defs>
       <use xlink:href="#DejaVuSans-30"/>
      </g>
     </g>
    </g>
    <g id="xtick_2">
     <g id="line2d_2">
      <g>
       <use xlink:href="#m5322d1e790" x="235.66284" y="300.587625" style="stroke: #000000; stroke-width: 0.8"/>
      </g>
     </g>
     <g id="text_2">
      <!-- 2000 -->
      <g transform="translate(200.03284 328.86325) scale(0.28 -0.28)">
       <defs>
        <path id="DejaVuSans-32" d="M 1228 531 
L 3431 531 
L 3431 0 
L 469 0 
L 469 531 
Q 828 903 1448 1529 
Q 2069 2156 2228 2338 
Q 2531 2678 2651 2914 
Q 2772 3150 2772 3378 
Q 2772 3750 2511 3984 
Q 2250 4219 1831 4219 
Q 1534 4219 1204 4116 
Q 875 4013 500 3803 
L 500 4441 
Q 881 4594 1212 4672 
Q 1544 4750 1819 4750 
Q 2544 4750 2975 4387 
Q 3406 4025 3406 3419 
Q 3406 3131 3298 2873 
Q 3191 2616 2906 2266 
Q 2828 2175 2409 1742 
Q 1991 1309 1228 531 
z
" transform="scale(0.015625)"/>
       </defs>
       <use xlink:href="#DejaVuSans-32"/>
       <use xlink:href="#DejaVuSans-30" x="63.623047"/>
       <use xlink:href="#DejaVuSans-30" x="127.246094"/>
       <use xlink:href="#DejaVuSans-30" x="190.869141"/>
      </g>
     </g>
    </g>
    <g id="xtick_3">
     <g id="line2d_3">
      <g>
       <use xlink:href="#m5322d1e790" x="365.265453" y="300.587625" style="stroke: #000000; stroke-width: 0.8"/>
      </g>
     </g>
     <g id="text_3">
      <!-- 4000 -->
      <g transform="translate(329.635453 328.86325) scale(0.28 -0.28)">
       <defs>
        <path id="DejaVuSans-34" d="M 2419 4116 
L 825 1625 
L 2419 1625 
L 2419 4116 
z
M 2253 4666 
L 3047 4666 
L 3047 1625 
L 3713 1625 
L 3713 1100 
L 3047 1100 
L 3047 0 
L 2419 0 
L 2419 1100 
L 313 1100 
L 313 1709 
L 2253 4666 
z
" transform="scale(0.015625)"/>
       </defs>
       <use xlink:href="#DejaVuSans-34"/>
       <use xlink:href="#DejaVuSans-30" x="63.623047"/>
       <use xlink:href="#DejaVuSans-30" x="127.246094"/>
       <use xlink:href="#DejaVuSans-30" x="190.869141"/>
      </g>
     </g>
    </g>
    <g id="text_4">
     <!-- Sampled Trajectories -->
     <g transform="translate(121.925625 359.962) scale(0.28 -0.28)">
      <defs>
       <path id="DejaVuSans-53" d="M 3425 4513 
L 3425 3897 
Q 3066 4069 2747 4153 
Q 2428 4238 2131 4238 
Q 1616 4238 1336 4038 
Q 1056 3838 1056 3469 
Q 1056 3159 1242 3001 
Q 1428 2844 1947 2747 
L 2328 2669 
Q 3034 2534 3370 2195 
Q 3706 1856 3706 1288 
Q 3706 609 3251 259 
Q 2797 -91 1919 -91 
Q 1588 -91 1214 -16 
Q 841 59 441 206 
L 441 856 
Q 825 641 1194 531 
Q 1563 422 1919 422 
Q 2459 422 2753 634 
Q 3047 847 3047 1241 
Q 3047 1584 2836 1778 
Q 2625 1972 2144 2069 
L 1759 2144 
Q 1053 2284 737 2584 
Q 422 2884 422 3419 
Q 422 4038 858 4394 
Q 1294 4750 2059 4750 
Q 2388 4750 2728 4690 
Q 3069 4631 3425 4513 
z
" transform="scale(0.015625)"/>
       <path id="DejaVuSans-61" d="M 2194 1759 
Q 1497 1759 1228 1600 
Q 959 1441 959 1056 
Q 959 750 1161 570 
Q 1363 391 1709 391 
Q 2188 391 2477 730 
Q 2766 1069 2766 1631 
L 2766 1759 
L 2194 1759 
z
M 3341 1997 
L 3341 0 
L 2766 0 
L 2766 531 
Q 2569 213 2275 61 
Q 1981 -91 1556 -91 
Q 1019 -91 701 211 
Q 384 513 384 1019 
Q 384 1609 779 1909 
Q 1175 2209 1959 2209 
L 2766 2209 
L 2766 2266 
Q 2766 2663 2505 2880 
Q 2244 3097 1772 3097 
Q 1472 3097 1187 3025 
Q 903 2953 641 2809 
L 641 3341 
Q 956 3463 1253 3523 
Q 1550 3584 1831 3584 
Q 2591 3584 2966 3190 
Q 3341 2797 3341 1997 
z
" transform="scale(0.015625)"/>
       <path id="DejaVuSans-6d" d="M 3328 2828 
Q 3544 3216 3844 3400 
Q 4144 3584 4550 3584 
Q 5097 3584 5394 3201 
Q 5691 2819 5691 2113 
L 5691 0 
L 5113 0 
L 5113 2094 
Q 5113 2597 4934 2840 
Q 4756 3084 4391 3084 
Q 3944 3084 3684 2787 
Q 3425 2491 3425 1978 
L 3425 0 
L 2847 0 
L 2847 2094 
Q 2847 2600 2669 2842 
Q 2491 3084 2119 3084 
Q 1678 3084 1418 2786 
Q 1159 2488 1159 1978 
L 1159 0 
L 581 0 
L 581 3500 
L 1159 3500 
L 1159 2956 
Q 1356 3278 1631 3431 
Q 1906 3584 2284 3584 
Q 2666 3584 2933 3390 
Q 3200 3197 3328 2828 
z
" transform="scale(0.015625)"/>
       <path id="DejaVuSans-70" d="M 1159 525 
L 1159 -1331 
L 581 -1331 
L 581 3500 
L 1159 3500 
L 1159 2969 
Q 1341 3281 1617 3432 
Q 1894 3584 2278 3584 
Q 2916 3584 3314 3078 
Q 3713 2572 3713 1747 
Q 3713 922 3314 415 
Q 2916 -91 2278 -91 
Q 1894 -91 1617 61 
Q 1341 213 1159 525 
z
M 3116 1747 
Q 3116 2381 2855 2742 
Q 2594 3103 2138 3103 
Q 1681 3103 1420 2742 
Q 1159 2381 1159 1747 
Q 1159 1113 1420 752 
Q 1681 391 2138 391 
Q 2594 391 2855 752 
Q 3116 1113 3116 1747 
z
" transform="scale(0.015625)"/>
       <path id="DejaVuSans-6c" d="M 603 4863 
L 1178 4863 
L 1178 0 
L 603 0 
L 603 4863 
z
" transform="scale(0.015625)"/>
       <path id="DejaVuSans-65" d="M 3597 1894 
L 3597 1613 
L 953 1613 
Q 991 1019 1311 708 
Q 1631 397 2203 397 
Q 2534 397 2845 478 
Q 3156 559 3463 722 
L 3463 178 
Q 3153 47 2828 -22 
Q 2503 -91 2169 -91 
Q 1331 -91 842 396 
Q 353 884 353 1716 
Q 353 2575 817 3079 
Q 1281 3584 2069 3584 
Q 2775 3584 3186 3129 
Q 3597 2675 3597 1894 
z
M 3022 2063 
Q 3016 2534 2758 2815 
Q 2500 3097 2075 3097 
Q 1594 3097 1305 2825 
Q 1016 2553 972 2059 
L 3022 2063 
z
" transform="scale(0.015625)"/>
       <path id="DejaVuSans-64" d="M 2906 2969 
L 2906 4863 
L 3481 4863 
L 3481 0 
L 2906 0 
L 2906 525 
Q 2725 213 2448 61 
Q 2172 -91 1784 -91 
Q 1150 -91 751 415 
Q 353 922 353 1747 
Q 353 2572 751 3078 
Q 1150 3584 1784 3584 
Q 2172 3584 2448 3432 
Q 2725 3281 2906 2969 
z
M 947 1747 
Q 947 1113 1208 752 
Q 1469 391 1925 391 
Q 2381 391 2643 752 
Q 2906 1113 2906 1747 
Q 2906 2381 2643 2742 
Q 2381 3103 1925 3103 
Q 1469 3103 1208 2742 
Q 947 2381 947 1747 
z
" transform="scale(0.015625)"/>
       <path id="DejaVuSans-20" transform="scale(0.015625)"/>
       <path id="DejaVuSans-54" d="M -19 4666 
L 3928 4666 
L 3928 4134 
L 2272 4134 
L 2272 0 
L 1638 0 
L 1638 4134 
L -19 4134 
L -19 4666 
z
" transform="scale(0.015625)"/>
       <path id="DejaVuSans-72" d="M 2631 2963 
Q 2534 3019 2420 3045 
Q 2306 3072 2169 3072 
Q 1681 3072 1420 2755 
Q 1159 2438 1159 1844 
L 1159 0 
L 581 0 
L 581 3500 
L 1159 3500 
L 1159 2956 
Q 1341 3275 1631 3429 
Q 1922 3584 2338 3584 
Q 2397 3584 2469 3576 
Q 2541 3569 2628 3553 
L 2631 2963 
z
" transform="scale(0.015625)"/>
       <path id="DejaVuSans-6a" d="M 603 3500 
L 1178 3500 
L 1178 -63 
Q 1178 -731 923 -1031 
Q 669 -1331 103 -1331 
L -116 -1331 
L -116 -844 
L 38 -844 
Q 366 -844 484 -692 
Q 603 -541 603 -63 
L 603 3500 
z
M 603 4863 
L 1178 4863 
L 1178 4134 
L 603 4134 
L 603 4863 
z
" transform="scale(0.015625)"/>
       <path id="DejaVuSans-63" d="M 3122 3366 
L 3122 2828 
Q 2878 2963 2633 3030 
Q 2388 3097 2138 3097 
Q 1578 3097 1268 2742 
Q 959 2388 959 1747 
Q 959 1106 1268 751 
Q 1578 397 2138 397 
Q 2388 397 2633 464 
Q 2878 531 3122 666 
L 3122 134 
Q 2881 22 2623 -34 
Q 2366 -91 2075 -91 
Q 1284 -91 818 406 
Q 353 903 353 1747 
Q 353 2603 823 3093 
Q 1294 3584 2113 3584 
Q 2378 3584 2631 3529 
Q 2884 3475 3122 3366 
z
" transform="scale(0.015625)"/>
       <path id="DejaVuSans-74" d="M 1172 4494 
L 1172 3500 
L 2356 3500 
L 2356 3053 
L 1172 3053 
L 1172 1153 
Q 1172 725 1289 603 
Q 1406 481 1766 481 
L 2356 481 
L 2356 0 
L 1766 0 
Q 1100 0 847 248 
Q 594 497 594 1153 
L 594 3053 
L 172 3053 
L 172 3500 
L 594 3500 
L 594 4494 
L 1172 4494 
z
" transform="scale(0.015625)"/>
       <path id="DejaVuSans-6f" d="M 1959 3097 
Q 1497 3097 1228 2736 
Q 959 2375 959 1747 
Q 959 1119 1226 758 
Q 1494 397 1959 397 
Q 2419 397 2687 759 
Q 2956 1122 2956 1747 
Q 2956 2369 2687 2733 
Q 2419 3097 1959 3097 
z
M 1959 3584 
Q 2709 3584 3137 3096 
Q 3566 2609 3566 1747 
Q 3566 888 3137 398 
Q 2709 -91 1959 -91 
Q 1206 -91 779 398 
Q 353 888 353 1747 
Q 353 2609 779 3096 
Q 1206 3584 1959 3584 
z
" transform="scale(0.015625)"/>
       <path id="DejaVuSans-69" d="M 603 3500 
L 1178 3500 
L 1178 0 
L 603 0 
L 603 3500 
z
M 603 4863 
L 1178 4863 
L 1178 4134 
L 603 4134 
L 603 4863 
z
" transform="scale(0.015625)"/>
       <path id="DejaVuSans-73" d="M 2834 3397 
L 2834 2853 
Q 2591 2978 2328 3040 
Q 2066 3103 1784 3103 
Q 1356 3103 1142 2972 
Q 928 2841 928 2578 
Q 928 2378 1081 2264 
Q 1234 2150 1697 2047 
L 1894 2003 
Q 2506 1872 2764 1633 
Q 3022 1394 3022 966 
Q 3022 478 2636 193 
Q 2250 -91 1575 -91 
Q 1294 -91 989 -36 
Q 684 19 347 128 
L 347 722 
Q 666 556 975 473 
Q 1284 391 1588 391 
Q 1994 391 2212 530 
Q 2431 669 2431 922 
Q 2431 1156 2273 1281 
Q 2116 1406 1581 1522 
L 1381 1569 
Q 847 1681 609 1914 
Q 372 2147 372 2553 
Q 372 3047 722 3315 
Q 1072 3584 1716 3584 
Q 2034 3584 2315 3537 
Q 2597 3491 2834 3397 
z
" transform="scale(0.015625)"/>
      </defs>
      <use xlink:href="#DejaVuSans-53"/>
      <use xlink:href="#DejaVuSans-61" x="63.476562"/>
      <use xlink:href="#DejaVuSans-6d" x="124.755859"/>
      <use xlink:href="#DejaVuSans-70" x="222.167969"/>
      <use xlink:href="#DejaVuSans-6c" x="285.644531"/>
      <use xlink:href="#DejaVuSans-65" x="313.427734"/>
      <use xlink:href="#DejaVuSans-64" x="374.951172"/>
      <use xlink:href="#DejaVuSans-20" x="438.427734"/>
      <use xlink:href="#DejaVuSans-54" x="470.214844"/>
      <use xlink:href="#DejaVuSans-72" x="516.548828"/>
      <use xlink:href="#DejaVuSans-61" x="557.662109"/>
      <use xlink:href="#DejaVuSans-6a" x="618.941406"/>
      <use xlink:href="#DejaVuSans-65" x="646.724609"/>
      <use xlink:href="#DejaVuSans-63" x="708.248047"/>
      <use xlink:href="#DejaVuSans-74" x="763.228516"/>
      <use xlink:href="#DejaVuSans-6f" x="802.4375"/>
      <use xlink:href="#DejaVuSans-72" x="863.619141"/>
      <use xlink:href="#DejaVuSans-69" x="904.732422"/>
      <use xlink:href="#DejaVuSans-65" x="932.515625"/>
      <use xlink:href="#DejaVuSans-73" x="994.039062"/>
     </g>
    </g>
   </g>
   <g id="matplotlib.axis_2">
    <g id="ytick_1">
     <g id="line2d_4">
      <defs>
       <path id="mf559fb5c84" d="M 0 0 
L -3.5 0 
" style="stroke: #000000; stroke-width: 0.8"/>
      </defs>
      <g>
       <use xlink:href="#mf559fb5c84" x="89.8275" y="288.491625" style="stroke: #000000; stroke-width: 0.8"/>
      </g>
     </g>
     <g id="text_5">
      <!-- 0.0 -->
      <g transform="translate(38.29875 299.129437) scale(0.28 -0.28)">
       <defs>
        <path id="DejaVuSans-2e" d="M 684 794 
L 1344 794 
L 1344 0 
L 684 0 
L 684 794 
z
" transform="scale(0.015625)"/>
       </defs>
       <use xlink:href="#DejaVuSans-30"/>
       <use xlink:href="#DejaVuSans-2e" x="63.623047"/>
       <use xlink:href="#DejaVuSans-30" x="95.410156"/>
      </g>
     </g>
    </g>
    <g id="ytick_2">
     <g id="line2d_5">
      <g>
       <use xlink:href="#mf559fb5c84" x="89.8275" y="167.160549" style="stroke: #000000; stroke-width: 0.8"/>
      </g>
     </g>
     <g id="text_6">
      <!-- 0.5 -->
      <g transform="translate(38.29875 177.798362) scale(0.28 -0.28)">
       <defs>
        <path id="DejaVuSans-35" d="M 691 4666 
L 3169 4666 
L 3169 4134 
L 1269 4134 
L 1269 2991 
Q 1406 3038 1543 3061 
Q 1681 3084 1819 3084 
Q 2600 3084 3056 2656 
Q 3513 2228 3513 1497 
Q 3513 744 3044 326 
Q 2575 -91 1722 -91 
Q 1428 -91 1123 -41 
Q 819 9 494 109 
L 494 744 
Q 775 591 1075 516 
Q 1375 441 1709 441 
Q 2250 441 2565 725 
Q 2881 1009 2881 1497 
Q 2881 1984 2565 2268 
Q 2250 2553 1709 2553 
Q 1456 2553 1204 2497 
Q 953 2441 691 2322 
L 691 4666 
z
" transform="scale(0.015625)"/>
       </defs>
       <use xlink:href="#DejaVuSans-30"/>
       <use xlink:href="#DejaVuSans-2e" x="63.623047"/>
       <use xlink:href="#DejaVuSans-35" x="95.410156"/>
      </g>
     </g>
    </g>
    <g id="ytick_3">
     <g id="line2d_6">
      <g>
       <use xlink:href="#mf559fb5c84" x="89.8275" y="45.829473" style="stroke: #000000; stroke-width: 0.8"/>
      </g>
     </g>
     <g id="text_7">
      <!-- 1.0 -->
      <g transform="translate(38.29875 56.467286) scale(0.28 -0.28)">
       <defs>
        <path id="DejaVuSans-31" d="M 794 531 
L 1825 531 
L 1825 4091 
L 703 3866 
L 703 4441 
L 1819 4666 
L 2450 4666 
L 2450 531 
L 3481 531 
L 3481 0 
L 794 0 
L 794 531 
z
" transform="scale(0.015625)"/>
       </defs>
       <use xlink:href="#DejaVuSans-31"/>
       <use xlink:href="#DejaVuSans-2e" x="63.623047"/>
       <use xlink:href="#DejaVuSans-30" x="95.410156"/>
      </g>
     </g>
    </g>
    <g id="text_8">
     <!-- Success Rate -->
     <g transform="translate(28.475625 260.432562) rotate(-90) scale(0.28 -0.28)">
      <defs>
       <path id="DejaVuSans-75" d="M 544 1381 
L 544 3500 
L 1119 3500 
L 1119 1403 
Q 1119 906 1312 657 
Q 1506 409 1894 409 
Q 2359 409 2629 706 
Q 2900 1003 2900 1516 
L 2900 3500 
L 3475 3500 
L 3475 0 
L 2900 0 
L 2900 538 
Q 2691 219 2414 64 
Q 2138 -91 1772 -91 
Q 1169 -91 856 284 
Q 544 659 544 1381 
z
M 1991 3584 
L 1991 3584 
z
" transform="scale(0.015625)"/>
       <path id="DejaVuSans-52" d="M 2841 2188 
Q 3044 2119 3236 1894 
Q 3428 1669 3622 1275 
L 4263 0 
L 3584 0 
L 2988 1197 
Q 2756 1666 2539 1819 
Q 2322 1972 1947 1972 
L 1259 1972 
L 1259 0 
L 628 0 
L 628 4666 
L 2053 4666 
Q 2853 4666 3247 4331 
Q 3641 3997 3641 3322 
Q 3641 2881 3436 2590 
Q 3231 2300 2841 2188 
z
M 1259 4147 
L 1259 2491 
L 2053 2491 
Q 2509 2491 2742 2702 
Q 2975 2913 2975 3322 
Q 2975 3731 2742 3939 
Q 2509 4147 2053 4147 
L 1259 4147 
z
" transform="scale(0.015625)"/>
      </defs>
      <use xlink:href="#DejaVuSans-53"/>
      <use xlink:href="#DejaVuSans-75" x="63.476562"/>
      <use xlink:href="#DejaVuSans-63" x="126.855469"/>
      <use xlink:href="#DejaVuSans-63" x="181.835938"/>
      <use xlink:href="#DejaVuSans-65" x="236.816406"/>
      <use xlink:href="#DejaVuSans-73" x="298.339844"/>
      <use xlink:href="#DejaVuSans-73" x="350.439453"/>
      <use xlink:href="#DejaVuSans-20" x="402.539062"/>
      <use xlink:href="#DejaVuSans-52" x="434.326172"/>
      <use xlink:href="#DejaVuSans-61" x="501.558594"/>
      <use xlink:href="#DejaVuSans-74" x="562.837891"/>
      <use xlink:href="#DejaVuSans-65" x="602.046875"/>
     </g>
    </g>
   </g>
   <g id="line2d_7">
    <path d="M 106.060227 288.491625 
L 108.65228 288.491625 
L 111.244332 288.491625 
L 113.836384 288.491625 
L 116.428436 288.491625 
L 119.020489 288.491625 
L 121.612541 288.491625 
L 124.204593 288.491625 
L 126.796645 284.447256 
L 129.388698 276.358517 
L 131.98075 272.314147 
L 134.572802 276.358517 
L 137.164854 252.092301 
L 139.756907 252.092301 
L 142.348959 244.003563 
L 144.941011 211.648604 
L 147.533063 235.914821 
L 150.125116 195.471135 
L 152.717168 207.604239 
L 155.30922 195.471128 
L 157.901272 155.027439 
L 160.493325 134.805583 
L 163.085377 215.692977 
L 165.677429 183.338032 
L 168.269481 179.293652 
L 170.861534 82.228776 
L 173.453586 146.938694 
L 176.045638 110.539377 
L 178.637691 146.938708 
L 181.229743 98.406266 
L 183.821795 110.539377 
L 186.413847 74.140045 
L 189.0059 98.406281 
L 191.597952 90.317535 
L 194.190004 82.228805 
L 196.782056 106.495011 
L 199.374109 78.184411 
L 201.966161 70.09568 
L 204.558213 110.539377 
L 207.150265 90.317535 
L 209.742318 78.184439 
L 212.33437 78.184439 
L 214.926422 49.873839 
L 217.518474 66.051315 
L 220.110527 74.140045 
L 222.702579 57.962569 
L 225.294631 90.317535 
L 227.886683 90.317535 
L 230.478736 57.962569 
L 233.070788 70.09568 
L 235.66284 62.006949 
" clip-path="url(#p1da49c00bd)" style="fill: none; stroke: #1f77b4; stroke-width: 1.5; stroke-linecap: square"/>
   </g>
   <g id="line2d_8">
    <path d="M 106.060227 288.491625 
L 112.021947 288.491625 
L 117.983668 288.491625 
L 123.945388 288.491625 
L 129.907108 288.491625 
L 135.868828 288.491625 
L 141.830548 288.491625 
L 147.85707 288.491625 
L 153.81879 288.491625 
L 159.78051 288.491625 
L 165.742231 288.491625 
L 171.703951 288.491625 
L 177.665671 288.491625 
L 183.692192 288.491625 
L 189.653913 288.491625 
L 195.615633 280.402886 
L 201.577353 272.314147 
L 207.539073 288.491625 
L 213.500793 288.491625 
L 219.527315 264.225409 
L 225.489035 288.491625 
L 231.450755 288.491625 
L 237.412476 288.491625 
L 243.374196 288.491625 
L 249.335916 280.402886 
L 255.362437 288.491625 
L 261.324158 288.491625 
L 267.285878 288.491625 
L 273.247598 288.491625 
L 279.209318 288.491625 
L 285.171038 288.491625 
L 291.132759 288.491625 
L 297.15928 288.491625 
L 303.121 288.491625 
L 309.08272 288.491625 
L 315.044441 288.491625 
L 321.006161 272.314147 
L 326.967881 288.491625 
L 332.994403 288.491625 
L 338.956123 280.402886 
L 344.917843 288.491625 
L 350.879563 288.491625 
L 356.841283 288.491625 
L 362.803004 288.491625 
L 368.829525 288.491625 
L 374.791245 288.491625 
L 380.752965 288.491625 
L 386.714686 288.491625 
L 392.676406 288.491625 
L 398.638126 288.491625 
L 404.664648 288.491625 
L 410.626368 288.491625 
L 416.588088 288.491625 
L 422.549808 288.491625 
L 428.511528 272.314147 
" clip-path="url(#p1da49c00bd)" style="fill: none; stroke: #ff7f0e; stroke-width: 1.5; stroke-linecap: square"/>
   </g>
   <g id="line2d_9">
    <path d="M 106.060227 288.491625 
L 111.892345 288.491625 
L 117.724462 288.491625 
L 123.55658 288.491625 
L 129.388698 288.491625 
L 135.220815 280.402887 
L 141.052933 288.491625 
L 146.88505 288.491625 
L 152.717168 272.314148 
L 158.549286 239.959195 
L 164.381403 272.314148 
L 170.213521 280.402887 
L 176.045638 264.22541 
L 181.877756 280.402887 
L 187.709873 239.959195 
L 193.541991 248.047933 
L 199.374109 256.136671 
L 205.206226 264.22541 
L 211.038344 272.314148 
L 216.870461 280.402887 
L 222.702579 272.314148 
L 228.534697 231.870456 
L 234.366814 264.22541 
L 240.198932 239.959195 
L 246.031049 264.22541 
L 251.863167 272.314148 
L 257.695284 239.959195 
L 263.527402 248.047933 
L 269.35952 272.314148 
L 275.191637 239.959195 
L 281.023755 264.22541 
L 286.855872 256.136671 
L 292.68799 239.959195 
L 298.520108 264.22541 
L 304.352225 272.314148 
L 310.184343 256.136671 
L 316.01646 239.959195 
L 321.848578 248.047933 
L 327.680695 256.136671 
L 333.512813 248.047933 
L 339.344931 280.402887 
L 345.177048 280.402887 
L 351.009166 272.314148 
L 356.841283 256.136671 
L 362.673401 264.22541 
L 368.505519 256.136671 
L 374.337636 223.781718 
L 380.169754 256.136671 
L 386.001871 223.781718 
L 391.833989 256.136671 
L 397.666106 231.870456 
L 403.498224 248.047933 
L 409.330342 256.136671 
L 415.162459 150.983072 
L 420.994577 223.781718 
L 426.826694 264.22541 
" clip-path="url(#p1da49c00bd)" style="fill: none; stroke: #2ca02c; stroke-width: 1.5; stroke-linecap: square"/>
   </g>
   <g id="patch_3">
    <path d="M 89.8275 300.587625 
L 89.8275 34.475625 
" style="fill: none; stroke: #000000; stroke-width: 0.8; stroke-linejoin: miter; stroke-linecap: square"/>
   </g>
   <g id="patch_4">
    <path d="M 446.9475 300.587625 
L 446.9475 34.475625 
" style="fill: none; stroke: #000000; stroke-width: 0.8; stroke-linejoin: miter; stroke-linecap: square"/>
   </g>
   <g id="patch_5">
    <path d="M 89.8275 300.587625 
L 446.9475 300.587625 
" style="fill: none; stroke: #000000; stroke-width: 0.8; stroke-linejoin: miter; stroke-linecap: square"/>
   </g>
   <g id="patch_6">
    <path d="M 89.8275 34.475625 
L 446.9475 34.475625 
" style="fill: none; stroke: #000000; stroke-width: 0.8; stroke-linejoin: miter; stroke-linecap: square"/>
   </g>
   <g id="text_9">
    <!-- Reach -->
    <g transform="translate(225.525625 28.475625) scale(0.28 -0.28)">
     <defs>
      <path id="DejaVuSans-68" d="M 3513 2113 
L 3513 0 
L 2938 0 
L 2938 2094 
Q 2938 2591 2744 2837 
Q 2550 3084 2163 3084 
Q 1697 3084 1428 2787 
Q 1159 2491 1159 1978 
L 1159 0 
L 581 0 
L 581 4863 
L 1159 4863 
L 1159 2956 
Q 1366 3272 1645 3428 
Q 1925 3584 2291 3584 
Q 2894 3584 3203 3211 
Q 3513 2838 3513 2113 
z
" transform="scale(0.015625)"/>
     </defs>
     <use xlink:href="#DejaVuSans-52"/>
     <use xlink:href="#DejaVuSans-65" x="64.982422"/>
     <use xlink:href="#DejaVuSans-61" x="126.505859"/>
     <use xlink:href="#DejaVuSans-63" x="187.785156"/>
     <use xlink:href="#DejaVuSans-68" x="242.765625"/>
    </g>
   </g>
   <g id="legend_1">
    <g id="patch_7">
     <path d="M 255.312188 128.1375 
L 434.3475 128.1375 
Q 437.9475 128.1375 437.9475 124.5375 
L 437.9475 47.075625 
Q 437.9475 43.475625 434.3475 43.475625 
L 255.312188 43.475625 
Q 251.712188 43.475625 251.712188 47.075625 
L 251.712188 124.5375 
Q 251.712188 128.1375 255.312188 128.1375 
z
" style="fill: #ffffff; opacity: 0.8; stroke: #cccccc; stroke-linejoin: miter"/>
    </g>
    <g id="line2d_10">
     <path d="M 258.912188 58.052812 
L 276.912188 58.052812 
L 294.912188 58.052812 
" style="fill: none; stroke: #1f77b4; stroke-width: 1.5; stroke-linecap: square"/>
    </g>
    <g id="text_10">
     <!-- COAVC (ours) -->
     <g transform="translate(309.312187 64.352812) scale(0.18 -0.18)">
      <defs>
       <path id="DejaVuSans-43" d="M 4122 4306 
L 4122 3641 
Q 3803 3938 3442 4084 
Q 3081 4231 2675 4231 
Q 1875 4231 1450 3742 
Q 1025 3253 1025 2328 
Q 1025 1406 1450 917 
Q 1875 428 2675 428 
Q 3081 428 3442 575 
Q 3803 722 4122 1019 
L 4122 359 
Q 3791 134 3420 21 
Q 3050 -91 2638 -91 
Q 1578 -91 968 557 
Q 359 1206 359 2328 
Q 359 3453 968 4101 
Q 1578 4750 2638 4750 
Q 3056 4750 3426 4639 
Q 3797 4528 4122 4306 
z
" transform="scale(0.015625)"/>
       <path id="DejaVuSans-4f" d="M 2522 4238 
Q 1834 4238 1429 3725 
Q 1025 3213 1025 2328 
Q 1025 1447 1429 934 
Q 1834 422 2522 422 
Q 3209 422 3611 934 
Q 4013 1447 4013 2328 
Q 4013 3213 3611 3725 
Q 3209 4238 2522 4238 
z
M 2522 4750 
Q 3503 4750 4090 4092 
Q 4678 3434 4678 2328 
Q 4678 1225 4090 567 
Q 3503 -91 2522 -91 
Q 1538 -91 948 565 
Q 359 1222 359 2328 
Q 359 3434 948 4092 
Q 1538 4750 2522 4750 
z
" transform="scale(0.015625)"/>
       <path id="DejaVuSans-41" d="M 2188 4044 
L 1331 1722 
L 3047 1722 
L 2188 4044 
z
M 1831 4666 
L 2547 4666 
L 4325 0 
L 3669 0 
L 3244 1197 
L 1141 1197 
L 716 0 
L 50 0 
L 1831 4666 
z
" transform="scale(0.015625)"/>
       <path id="DejaVuSans-56" d="M 1831 0 
L 50 4666 
L 709 4666 
L 2188 738 
L 3669 4666 
L 4325 4666 
L 2547 0 
L 1831 0 
z
" transform="scale(0.015625)"/>
       <path id="DejaVuSans-28" d="M 1984 4856 
Q 1566 4138 1362 3434 
Q 1159 2731 1159 2009 
Q 1159 1288 1364 580 
Q 1569 -128 1984 -844 
L 1484 -844 
Q 1016 -109 783 600 
Q 550 1309 550 2009 
Q 550 2706 781 3412 
Q 1013 4119 1484 4856 
L 1984 4856 
z
" transform="scale(0.015625)"/>
       <path id="DejaVuSans-29" d="M 513 4856 
L 1013 4856 
Q 1481 4119 1714 3412 
Q 1947 2706 1947 2009 
Q 1947 1309 1714 600 
Q 1481 -109 1013 -844 
L 513 -844 
Q 928 -128 1133 580 
Q 1338 1288 1338 2009 
Q 1338 2731 1133 3434 
Q 928 4138 513 4856 
z
" transform="scale(0.015625)"/>
      </defs>
      <use xlink:href="#DejaVuSans-43"/>
      <use xlink:href="#DejaVuSans-4f" x="69.824219"/>
      <use xlink:href="#DejaVuSans-41" x="146.785156"/>
      <use xlink:href="#DejaVuSans-56" x="208.818359"/>
      <use xlink:href="#DejaVuSans-43" x="277.226562"/>
      <use xlink:href="#DejaVuSans-20" x="347.050781"/>
      <use xlink:href="#DejaVuSans-28" x="378.837891"/>
      <use xlink:href="#DejaVuSans-6f" x="417.851562"/>
      <use xlink:href="#DejaVuSans-75" x="479.033203"/>
      <use xlink:href="#DejaVuSans-72" x="542.412109"/>
      <use xlink:href="#DejaVuSans-73" x="583.525391"/>
      <use xlink:href="#DejaVuSans-29" x="635.625"/>
     </g>
    </g>
    <g id="line2d_11">
     <path d="M 258.912188 84.473437 
L 276.912188 84.473437 
L 294.912188 84.473437 
" style="fill: none; stroke: #ff7f0e; stroke-width: 1.5; stroke-linecap: square"/>
    </g>
    <g id="text_11">
     <!-- PPO -->
     <g transform="translate(309.312187 90.773437) scale(0.18 -0.18)">
      <defs>
       <path id="DejaVuSans-50" d="M 1259 4147 
L 1259 2394 
L 2053 2394 
Q 2494 2394 2734 2622 
Q 2975 2850 2975 3272 
Q 2975 3691 2734 3919 
Q 2494 4147 2053 4147 
L 1259 4147 
z
M 628 4666 
L 2053 4666 
Q 2838 4666 3239 4311 
Q 3641 3956 3641 3272 
Q 3641 2581 3239 2228 
Q 2838 1875 2053 1875 
L 1259 1875 
L 1259 0 
L 628 0 
L 628 4666 
z
" transform="scale(0.015625)"/>
      </defs>
      <use xlink:href="#DejaVuSans-50"/>
      <use xlink:href="#DejaVuSans-50" x="60.302734"/>
      <use xlink:href="#DejaVuSans-4f" x="120.605469"/>
     </g>
    </g>
    <g id="line2d_12">
     <path d="M 258.912188 110.894062 
L 276.912188 110.894062 
L 294.912188 110.894062 
" style="fill: none; stroke: #2ca02c; stroke-width: 1.5; stroke-linecap: square"/>
    </g>
    <g id="text_12">
     <!-- TQC -->
     <g transform="translate(309.312187 117.194062) scale(0.18 -0.18)">
      <defs>
       <path id="DejaVuSans-51" d="M 2522 4238 
Q 1834 4238 1429 3725 
Q 1025 3213 1025 2328 
Q 1025 1447 1429 934 
Q 1834 422 2522 422 
Q 3209 422 3611 934 
Q 4013 1447 4013 2328 
Q 4013 3213 3611 3725 
Q 3209 4238 2522 4238 
z
M 3406 84 
L 4238 -825 
L 3475 -825 
L 2784 -78 
Q 2681 -84 2626 -87 
Q 2572 -91 2522 -91 
Q 1538 -91 948 567 
Q 359 1225 359 2328 
Q 359 3434 948 4092 
Q 1538 4750 2522 4750 
Q 3503 4750 4090 4092 
Q 4678 3434 4678 2328 
Q 4678 1516 4351 937 
Q 4025 359 3406 84 
z
" transform="scale(0.015625)"/>
      </defs>
      <use xlink:href="#DejaVuSans-54"/>
      <use xlink:href="#DejaVuSans-51" x="61.083984"/>
      <use xlink:href="#DejaVuSans-43" x="139.794922"/>
     </g>
    </g>
   </g>
  </g>
 </g>
 <defs>
  <clipPath id="p1da49c00bd">
   <rect x="89.8275" y="34.475625" width="357.12" height="266.112"/>
  </clipPath>
 </defs>
</svg>
