<?xml version="1.0" encoding="utf-8" standalone="no"?>
<!DOCTYPE svg PUBLIC "-//W3C//DTD SVG 1.1//EN"
  "http://www.w3.org/Graphics/SVG/1.1/DTD/svg11.dtd">
<svg xmlns:xlink="http://www.w3.org/1999/xlink" width="454.1475pt" height="372.985125pt" viewBox="0 0 454.1475 372.985125" xmlns="http://www.w3.org/2000/svg" version="1.1">
 <metadata>
  <rdf:RDF xmlns:dc="http://purl.org/dc/elements/1.1/" xmlns:cc="http://creativecommons.org/ns#" xmlns:rdf="http://www.w3.org/1999/02/22-rdf-syntax-ns#">
   <cc:Work>
    <dc:type rdf:resource="http://purl.org/dc/dcmitype/StillImage"/>
    <dc:date>2023-06-07T15:32:00.271177</dc:date>
    <dc:format>image/svg+xml</dc:format>
    <dc:creator>
     <cc:Agent>
      <dc:title>Matplotlib v3.6.1, https://matplotlib.org/</dc:title>
     </cc:Agent>
    </dc:creator>
   </cc:Work>
  </rdf:RDF>
 </metadata>
 <defs>
  <style type="text/css">*{stroke-linejoin: round; stroke-linecap: butt}</style>
 </defs>
 <g id="figure_1">
  <g id="patch_1">
   <path d="M 0 372.985125 
L 454.1475 372.985125 
L 454.1475 0 
L 0 0 
z
" style="fill: #ffffff"/>
  </g>
  <g id="axes_1">
   <g id="patch_2">
    <path d="M 89.8275 300.587625 
L 446.9475 300.587625 
L 446.9475 34.475625 
L 89.8275 34.475625 
z
" style="fill: #ffffff"/>
   </g>
   <g id="PolyCollection_1">
    <path d="M 106.060227 288.491625 
L 106.060227 288.491625 
L 106.70824 288.491625 
L 107.356253 288.491625 
L 108.004266 288.491625 
L 108.65228 288.491625 
L 109.300293 288.491625 
L 109.948306 288.491625 
L 110.596319 288.491625 
L 111.244332 288.491625 
L 111.892345 288.491625 
L 112.540358 288.491625 
L 113.188371 288.491625 
L 113.836384 288.491625 
L 114.484397 288.491625 
L 115.13241 288.491625 
L 115.780423 288.491625 
L 116.428436 288.491625 
L 117.076449 288.491625 
L 117.724462 244.064924 
L 118.372476 245.831809 
L 119.020489 241.253802 
L 119.668502 250.167863 
L 120.316515 252.766527 
L 120.964528 241.253802 
L 121.612541 242.544345 
L 122.260554 242.544345 
L 122.908567 242.544345 
L 123.55658 241.253802 
L 124.204593 244.064924 
L 124.852606 244.064924 
L 125.500619 242.544345 
L 126.148632 241.253802 
L 126.796645 252.020171 
L 127.444658 261.819045 
L 128.092671 288.491625 
L 128.740685 285.022547 
L 129.388698 288.491625 
L 130.036711 46.571625 
L 130.684724 282.587524 
L 131.332737 119.546862 
L 131.98075 95.242168 
L 132.628763 124.444507 
L 133.276776 175.476937 
L 133.924789 56.305734 
L 134.572802 203.636159 
L 135.220815 221.564195 
L 135.868828 124.444507 
L 136.516841 224.649302 
L 137.164854 85.508059 
L 137.812867 95.242168 
L 138.460881 66.039828 
L 139.108894 166.853271 
L 139.756907 66.039828 
L 140.40492 202.317376 
L 141.052933 46.571625 
L 141.700946 56.305734 
L 142.348959 163.380927 
L 142.996972 46.571625 
L 143.644985 68.543956 
L 144.292998 46.571625 
L 144.941011 46.571625 
L 145.589024 68.401722 
L 146.237037 137.597406 
L 146.88505 226.694492 
L 147.533063 256.76432 
L 148.181076 85.508059 
L 148.82909 46.571625 
L 149.477103 134.178616 
L 150.125116 114.708308 
L 150.773129 77.785969 
L 151.421142 122.671623 
L 152.069155 164.747555 
L 152.717168 60.33773 
L 153.365181 60.33773 
L 154.013194 56.305734 
L 154.661207 56.305734 
L 155.30922 46.571625 
L 155.957233 75.773951 
L 156.605246 164.747555 
L 157.253259 46.571625 
L 157.901272 56.305734 
L 158.549286 56.305734 
L 159.197299 46.571625 
L 159.845312 46.571625 
L 160.493325 46.571625 
L 161.141338 46.571625 
L 161.789351 46.571625 
L 162.437364 46.571625 
L 163.085377 95.242168 
L 163.73339 46.571625 
L 164.381403 46.571625 
L 165.029416 46.571625 
L 165.677429 46.571625 
L 166.325442 46.571625 
L 166.973455 114.71037 
L 167.621468 46.571625 
L 168.269481 46.571625 
L 168.917495 46.571625 
L 169.565508 46.571625 
L 170.213521 46.571625 
L 170.861534 46.571625 
L 171.509547 60.33773 
L 172.15756 46.571625 
L 172.805573 56.305734 
L 173.453586 56.305734 
L 174.101599 46.571625 
L 174.749612 46.571625 
L 175.397625 46.571625 
L 176.045638 46.571625 
L 176.693651 46.571625 
L 177.341664 46.571625 
L 177.989677 56.305734 
L 178.637691 46.571625 
L 179.285704 46.571625 
L 179.933717 46.571625 
L 180.58173 56.305734 
L 181.229743 46.571625 
L 181.877756 46.571625 
L 182.525769 66.039828 
L 183.173782 60.33773 
L 183.821795 56.305734 
L 184.469808 46.571625 
L 185.117821 46.571625 
L 185.765834 46.571625 
L 186.413847 163.380927 
L 187.06186 56.305734 
L 187.709873 68.543971 
L 188.357886 265.497365 
L 189.0059 273.162116 
L 189.653913 278.384374 
L 190.301926 46.571625 
L 190.949939 87.290864 
L 191.597952 56.305734 
L 192.245965 125.909606 
L 192.893978 90.516302 
L 193.541991 216.827299 
L 194.190004 143.91271 
L 194.838017 60.33773 
L 195.48603 85.508059 
L 196.134043 46.571625 
L 196.782056 46.571625 
L 197.430069 46.571625 
L 198.078082 68.543956 
L 198.726096 46.571625 
L 199.374109 46.571625 
L 200.022122 46.571625 
L 200.670135 46.571625 
L 201.318148 46.571625 
L 201.966161 46.571625 
L 202.614174 56.305734 
L 203.262187 46.571625 
L 203.9102 46.571625 
L 204.558213 46.571625 
L 205.206226 56.305734 
L 205.854239 46.571625 
L 206.502252 46.571625 
L 207.150265 46.571625 
L 207.798278 56.305734 
L 208.446292 46.571625 
L 209.094305 46.571625 
L 209.742318 46.571625 
L 210.390331 46.571625 
L 211.038344 46.571625 
L 211.686357 46.571625 
L 212.33437 46.571625 
L 212.982383 56.305734 
L 213.630396 46.571625 
L 214.278409 46.571625 
L 214.926422 46.571625 
L 215.574435 46.571625 
L 216.222448 46.571625 
L 216.870461 46.571625 
L 217.518474 46.571625 
L 218.166487 46.571625 
L 218.814501 46.571625 
L 219.462514 46.571625 
L 220.110527 46.571625 
L 220.75854 46.571625 
L 221.406553 56.305734 
L 222.054566 46.571625 
L 222.702579 46.571625 
L 223.350592 46.571625 
L 223.998605 46.571625 
L 224.646618 46.571625 
L 225.294631 46.571625 
L 225.942644 46.571625 
L 226.590657 46.571625 
L 227.23867 66.039828 
L 227.886683 46.571625 
L 228.534697 46.571625 
L 229.18271 46.571625 
L 229.830723 46.571625 
L 230.478736 56.305734 
L 231.126749 46.571625 
L 231.774762 46.571625 
L 232.422775 56.305734 
L 233.070788 46.571625 
L 233.718801 46.571625 
L 234.366814 46.571625 
L 235.014827 46.571625 
L 235.66284 46.571625 
L 236.310853 46.571625 
L 236.958866 46.571625 
L 237.606879 46.571625 
L 238.254892 56.305734 
L 238.902906 46.571625 
L 239.550919 56.305734 
L 240.198932 56.305734 
L 240.846945 56.305734 
L 241.494958 46.571625 
L 242.142971 46.571625 
L 242.790984 56.305734 
L 243.438997 56.305734 
L 244.08701 60.33773 
L 244.735023 46.571625 
L 245.383036 46.571625 
L 246.031049 56.305734 
L 246.679062 46.571625 
L 247.327075 46.571625 
L 247.975088 46.571625 
L 248.623102 56.305734 
L 249.271115 46.571625 
L 249.919128 46.571625 
L 250.567141 56.305734 
L 251.215154 46.571625 
L 251.863167 46.571625 
L 252.51118 56.305734 
L 253.159193 46.571625 
L 253.807206 46.571625 
L 254.455219 46.571625 
L 255.103232 46.571625 
L 255.751245 66.039828 
L 256.399258 46.571625 
L 257.047271 56.305734 
L 257.695284 56.305734 
L 258.343297 46.571625 
L 258.991311 46.571625 
L 259.639324 46.571625 
L 260.287337 46.571625 
L 260.93535 56.305734 
L 261.583363 46.571625 
L 262.231376 46.571625 
L 262.879389 46.571625 
L 263.527402 46.571625 
L 264.175415 46.571625 
L 264.823428 46.571625 
L 265.471441 46.571625 
L 265.471441 46.571625 
L 265.471441 46.571625 
L 264.823428 46.571625 
L 264.175415 46.571625 
L 263.527402 46.571625 
L 262.879389 46.571625 
L 262.231376 46.571625 
L 261.583363 46.571625 
L 260.93535 46.571625 
L 260.287337 46.571625 
L 259.639324 46.571625 
L 258.991311 46.571625 
L 258.343297 46.571625 
L 257.695284 46.571625 
L 257.047271 46.571625 
L 256.399258 46.571625 
L 255.751245 46.571625 
L 255.103232 46.571625 
L 254.455219 46.571625 
L 253.807206 46.571625 
L 253.159193 46.571625 
L 252.51118 46.571625 
L 251.863167 46.571625 
L 251.215154 46.571625 
L 250.567141 46.571625 
L 249.919128 46.571625 
L 249.271115 46.571625 
L 248.623102 46.571625 
L 247.975088 46.571625 
L 247.327075 46.571625 
L 246.679062 46.571625 
L 246.031049 46.571625 
L 245.383036 46.571625 
L 244.735023 46.571625 
L 244.08701 48.933505 
L 243.438997 46.571625 
L 242.790984 46.571625 
L 242.142971 46.571625 
L 241.494958 46.571625 
L 240.846945 46.571625 
L 240.198932 46.571625 
L 239.550919 46.571625 
L 238.902906 46.571625 
L 238.254892 46.571625 
L 237.606879 46.571625 
L 236.958866 46.571625 
L 236.310853 46.571625 
L 235.66284 46.571625 
L 235.014827 46.571625 
L 234.366814 46.571625 
L 233.718801 46.571625 
L 233.070788 46.571625 
L 232.422775 46.571625 
L 231.774762 46.571625 
L 231.126749 46.571625 
L 230.478736 46.571625 
L 229.830723 46.571625 
L 229.18271 46.571625 
L 228.534697 46.571625 
L 227.886683 46.571625 
L 227.23867 46.571625 
L 226.590657 46.571625 
L 225.942644 46.571625 
L 225.294631 46.571625 
L 224.646618 46.571625 
L 223.998605 46.571625 
L 223.350592 46.571625 
L 222.702579 46.571625 
L 222.054566 46.571625 
L 221.406553 46.571625 
L 220.75854 46.571625 
L 220.110527 46.571625 
L 219.462514 46.571625 
L 218.814501 46.571625 
L 218.166487 46.571625 
L 217.518474 46.571625 
L 216.870461 46.571625 
L 216.222448 46.571625 
L 215.574435 46.571625 
L 214.926422 46.571625 
L 214.278409 46.571625 
L 213.630396 46.571625 
L 212.982383 46.571625 
L 212.33437 46.571625 
L 211.686357 46.571625 
L 211.038344 46.571625 
L 210.390331 46.571625 
L 209.742318 46.571625 
L 209.094305 46.571625 
L 208.446292 46.571625 
L 207.798278 46.571625 
L 207.150265 46.571625 
L 206.502252 46.571625 
L 205.854239 46.571625 
L 205.206226 46.571625 
L 204.558213 46.571625 
L 203.9102 46.571625 
L 203.262187 46.571625 
L 202.614174 46.571625 
L 201.966161 46.571625 
L 201.318148 46.571625 
L 200.670135 46.571625 
L 200.022122 46.571625 
L 199.374109 46.571625 
L 198.726096 46.571625 
L 198.078082 48.79127 
L 197.430069 46.571625 
L 196.782056 46.571625 
L 196.134043 46.571625 
L 195.48603 46.571625 
L 194.838017 48.933505 
L 194.190004 46.571625 
L 193.541991 46.571625 
L 192.893978 51.01093 
L 192.245965 46.571625 
L 191.597952 46.571625 
L 190.949939 46.571625 
L 190.301926 46.571625 
L 189.653913 129.254886 
L 189.0059 190.925126 
L 188.357886 142.141888 
L 187.709873 48.791285 
L 187.06186 46.571625 
L 186.413847 46.571625 
L 185.765834 46.571625 
L 185.117821 46.571625 
L 184.469808 46.571625 
L 183.821795 46.571625 
L 183.173782 48.933505 
L 182.525769 46.571625 
L 181.877756 46.571625 
L 181.229743 46.571625 
L 180.58173 46.571625 
L 179.933717 46.571625 
L 179.285704 46.571625 
L 178.637691 46.571625 
L 177.989677 46.571625 
L 177.341664 46.571625 
L 176.693651 46.571625 
L 176.045638 46.571625 
L 175.397625 46.571625 
L 174.749612 46.571625 
L 174.101599 46.571625 
L 173.453586 46.571625 
L 172.805573 46.571625 
L 172.15756 46.571625 
L 171.509547 48.933505 
L 170.861534 46.571625 
L 170.213521 46.571625 
L 169.565508 46.571625 
L 168.917495 46.571625 
L 168.269481 46.571625 
L 167.621468 46.571625 
L 166.973455 46.571625 
L 166.325442 46.571625 
L 165.677429 46.571625 
L 165.029416 46.571625 
L 164.381403 46.571625 
L 163.73339 46.571625 
L 163.085377 46.571625 
L 162.437364 46.571625 
L 161.789351 46.571625 
L 161.141338 46.571625 
L 160.493325 46.571625 
L 159.845312 46.571625 
L 159.197299 46.571625 
L 158.549286 46.571625 
L 157.901272 46.571625 
L 157.253259 46.571625 
L 156.605246 46.571625 
L 155.957233 46.571625 
L 155.30922 46.571625 
L 154.661207 46.571625 
L 154.013194 46.571625 
L 153.365181 48.933505 
L 152.717168 48.933505 
L 152.069155 46.571625 
L 151.421142 59.175629 
L 150.773129 47.61325 
L 150.125116 75.202936 
L 149.477103 46.571625 
L 148.82909 46.571625 
L 148.181076 46.571625 
L 147.533063 102.490921 
L 146.88505 92.240751 
L 146.237037 46.571625 
L 145.589024 56.997526 
L 144.941011 46.571625 
L 144.292998 46.571625 
L 143.644985 48.79127 
L 142.996972 46.571625 
L 142.348959 46.571625 
L 141.700946 46.571625 
L 141.052933 46.571625 
L 140.40492 46.571625 
L 139.756907 46.571625 
L 139.108894 95.633961 
L 138.460881 46.571625 
L 137.812867 46.571625 
L 137.164854 46.571625 
L 136.516841 46.571625 
L 135.868828 46.571625 
L 135.220815 48.987059 
L 134.572802 46.571625 
L 133.924789 46.571625 
L 133.276776 46.571625 
L 132.628763 46.571625 
L 131.98075 46.571625 
L 131.332737 78.428374 
L 130.684724 84.731739 
L 130.036711 46.571625 
L 129.388698 106.440063 
L 128.740685 82.296709 
L 128.092671 150.874933 
L 127.444658 113.564217 
L 126.796645 74.979087 
L 126.148632 46.571625 
L 125.500619 46.571625 
L 124.852606 46.571625 
L 124.204593 46.571625 
L 123.55658 46.571625 
L 122.908567 46.571625 
L 122.260554 46.571625 
L 121.612541 46.571625 
L 120.964528 46.571625 
L 120.316515 50.040725 
L 119.668502 46.571625 
L 119.020489 46.571625 
L 118.372476 46.571625 
L 117.724462 46.571625 
L 117.076449 87.202241 
L 116.428436 90.998305 
L 115.780423 200.884641 
L 115.13241 210.618757 
L 114.484397 191.15054 
L 113.836384 210.618757 
L 113.188371 168.54762 
L 112.540358 93.809455 
L 111.892345 220.352865 
L 111.244332 288.491625 
L 110.596319 288.491625 
L 109.948306 168.54762 
L 109.300293 288.491625 
L 108.65228 288.491625 
L 108.004266 200.884641 
L 107.356253 288.491625 
L 106.70824 288.491625 
L 106.060227 288.491625 
z
" clip-path="url(#pdeced7d8e2)" style="fill: #1f77b4; fill-opacity: 0.3"/>
   </g>
   <g id="PolyCollection_2">
    <path d="M 106.060227 288.491625 
L 106.060227 288.491625 
L 106.70824 288.491625 
L 107.356253 288.491625 
L 108.004266 288.491625 
L 108.65228 288.491625 
L 109.365094 288.491625 
L 110.013107 288.491625 
L 110.66112 288.491625 
L 111.309133 288.491625 
L 112.021947 288.491625 
L 112.669961 288.491625 
L 113.317974 288.491625 
L 113.965987 288.491625 
L 114.678801 288.491625 
L 115.326814 288.491625 
L 115.974827 288.491625 
L 116.62284 288.491625 
L 117.335655 288.491625 
L 117.983668 288.491625 
L 118.631681 288.491625 
L 119.279694 288.491625 
L 119.992508 288.491625 
L 120.640521 288.491625 
L 121.288534 288.491625 
L 121.936547 288.491625 
L 122.649362 288.491625 
L 123.297375 288.491625 
L 123.945388 288.491625 
L 124.593401 288.491625 
L 125.241414 288.491625 
L 125.954228 288.491625 
L 126.602241 288.491625 
L 127.250254 288.491625 
L 127.898268 288.491625 
L 128.611082 288.491625 
L 129.259095 288.491625 
L 129.907108 288.491625 
L 130.555121 288.491625 
L 131.267935 288.491625 
L 131.915949 288.491625 
L 132.563962 288.491625 
L 133.211975 288.491625 
L 133.924789 288.491625 
L 134.572802 288.491625 
L 135.220815 288.491625 
L 135.868828 288.491625 
L 136.581643 288.491625 
L 137.229656 288.491625 
L 137.877669 288.491625 
L 138.525682 288.491625 
L 139.238496 288.491625 
L 139.886509 288.491625 
L 140.534522 288.491625 
L 141.182535 288.491625 
L 141.830548 288.491625 
L 142.543363 288.491625 
L 143.191376 288.491625 
L 143.839389 288.491625 
L 144.487402 288.491625 
L 145.200216 288.491625 
L 145.848229 288.491625 
L 146.496243 288.491625 
L 147.144256 288.491625 
L 147.85707 288.491625 
L 148.505083 288.491625 
L 149.153096 288.491625 
L 149.801109 288.491625 
L 150.513924 288.491625 
L 151.161937 288.491625 
L 151.80995 288.491625 
L 152.457963 288.491625 
L 153.170777 288.491625 
L 153.81879 288.491625 
L 154.466803 288.491625 
L 155.114816 288.491625 
L 155.827631 288.491625 
L 156.475644 288.491625 
L 157.123657 288.491625 
L 157.77167 288.491625 
L 158.419683 288.491625 
L 159.132497 288.491625 
L 159.78051 288.491625 
L 160.428523 288.491625 
L 161.076536 288.491625 
L 161.789351 288.491625 
L 162.437364 288.491625 
L 163.085377 288.491625 
L 163.73339 288.491625 
L 164.446204 288.491625 
L 165.094217 288.491625 
L 165.742231 288.491625 
L 166.390244 288.491625 
L 167.103058 288.491625 
L 167.751071 288.491625 
L 168.399084 288.491625 
L 169.047097 288.491625 
L 169.759912 288.491625 
L 170.407925 288.491625 
L 171.055938 288.491625 
L 171.703951 288.491625 
L 172.416765 288.491625 
L 173.064778 288.491625 
L 173.712791 288.491625 
L 174.360804 288.491625 
L 175.008817 288.491625 
L 175.721632 288.491625 
L 176.369645 288.491625 
L 177.017658 288.491625 
L 177.665671 288.491625 
L 178.378485 288.491625 
L 179.026498 288.491625 
L 179.674511 288.491625 
L 180.322524 288.491625 
L 181.035339 288.491625 
L 181.683352 288.491625 
L 182.331365 288.491625 
L 182.979378 288.491625 
L 183.692192 288.491625 
L 184.340205 288.491625 
L 184.988219 288.491625 
L 185.636232 288.491625 
L 186.349046 288.491625 
L 186.997059 288.491625 
L 187.645072 288.491625 
L 188.293085 288.491625 
L 189.0059 288.491625 
L 189.653913 288.491625 
L 190.301926 288.491625 
L 190.949939 288.491625 
L 191.597952 288.491625 
L 192.310766 288.491625 
L 192.958779 288.491625 
L 193.606792 288.491625 
L 194.254805 288.491625 
L 194.96762 288.491625 
L 195.615633 288.491625 
L 196.263646 288.491625 
L 196.911659 288.491625 
L 197.624473 288.491625 
L 198.272486 288.491625 
L 198.920499 288.491625 
L 199.568513 288.491625 
L 200.281327 288.491625 
L 200.92934 288.491625 
L 201.577353 288.491625 
L 202.225366 288.491625 
L 202.93818 288.491625 
L 203.586194 288.491625 
L 204.234207 288.491625 
L 204.88222 288.491625 
L 205.595034 288.491625 
L 206.243047 288.491625 
L 206.89106 288.491625 
L 207.539073 288.491625 
L 208.187086 288.491625 
L 208.899901 288.491625 
L 209.547914 288.491625 
L 210.195927 288.491625 
L 210.84394 288.491625 
L 211.556754 288.491625 
L 212.204767 288.491625 
L 212.85278 288.491625 
L 213.500793 288.491625 
L 214.213608 288.491625 
L 214.861621 288.491625 
L 215.509634 288.491625 
L 216.157647 288.491625 
L 216.870461 288.491625 
L 217.518474 288.491625 
L 218.166487 288.491625 
L 218.814501 288.491625 
L 219.527315 288.491625 
L 220.175328 288.491625 
L 220.823341 288.491625 
L 221.471354 288.491625 
L 222.184168 288.491625 
L 222.832182 288.491625 
L 223.480195 288.491625 
L 224.128208 288.491625 
L 224.776221 288.491625 
L 225.489035 288.491625 
L 226.137048 288.491625 
L 226.785061 288.491625 
L 227.433074 288.491625 
L 228.145889 288.491625 
L 228.793902 288.491625 
L 229.441915 288.491625 
L 230.089928 288.491625 
L 230.802742 288.491625 
L 231.450755 288.491625 
L 232.098768 288.491625 
L 232.746781 288.491625 
L 233.459596 288.491625 
L 234.107609 288.491625 
L 234.755622 288.491625 
L 235.403635 288.491625 
L 236.116449 288.491625 
L 236.764462 288.491625 
L 237.412476 288.491625 
L 238.060489 288.491625 
L 238.773303 288.491625 
L 239.421316 288.491625 
L 240.069329 288.491625 
L 240.717342 288.491625 
L 241.365355 288.491625 
L 242.07817 288.491625 
L 242.726183 288.491625 
L 243.374196 288.491625 
L 244.022209 288.491625 
L 244.735023 288.491625 
L 245.383036 288.491625 
L 246.031049 288.491625 
L 246.679062 288.491625 
L 247.391877 288.491625 
L 248.03989 288.491625 
L 248.687903 288.491625 
L 249.335916 288.491625 
L 250.04873 288.491625 
L 250.696743 288.491625 
L 251.344756 288.491625 
L 251.992769 288.491625 
L 252.705584 288.491625 
L 253.353597 288.491625 
L 254.00161 288.491625 
L 254.649623 288.491625 
L 255.362437 288.491625 
L 256.01045 288.491625 
L 256.658464 288.491625 
L 257.306477 288.491625 
L 257.95449 288.491625 
L 258.667304 288.491625 
L 259.315317 288.491625 
L 259.96333 288.491625 
L 260.611343 288.491625 
L 261.324158 288.491625 
L 261.972171 288.491625 
L 262.620184 288.491625 
L 263.268197 288.491625 
L 263.981011 288.491625 
L 264.629024 288.491625 
L 265.277037 288.491625 
L 265.92505 288.491625 
L 266.637865 288.491625 
L 267.285878 288.491625 
L 267.933891 288.491625 
L 268.581904 288.491625 
L 269.294718 288.491625 
L 269.942731 288.491625 
L 270.590744 288.491625 
L 271.238757 288.491625 
L 271.951572 288.491625 
L 272.599585 288.491625 
L 273.247598 288.491625 
L 273.895611 288.491625 
L 274.543624 288.491625 
L 275.256438 288.491625 
L 275.904452 288.491625 
L 276.552465 288.491625 
L 277.200478 288.491625 
L 277.913292 288.491625 
L 278.561305 288.491625 
L 279.209318 288.491625 
L 279.857331 288.491625 
L 280.570146 288.491625 
L 281.218159 288.491625 
L 281.866172 288.491625 
L 282.514185 288.491625 
L 283.226999 288.491625 
L 283.875012 288.491625 
L 284.523025 288.491625 
L 285.171038 288.491625 
L 285.883853 288.491625 
L 286.531866 288.491625 
L 287.179879 288.491625 
L 287.827892 288.491625 
L 288.540706 288.491625 
L 289.188719 288.491625 
L 289.836732 288.491625 
L 290.484746 288.491625 
L 291.132759 288.491625 
L 291.845573 288.491625 
L 292.493586 288.491625 
L 293.141599 288.491625 
L 293.789612 288.491625 
L 294.502427 288.491625 
L 295.15044 288.491625 
L 295.798453 288.491625 
L 296.446466 288.491625 
L 297.15928 288.491625 
L 297.807293 288.491625 
L 298.455306 288.491625 
L 299.103319 288.491625 
L 299.816134 288.491625 
L 300.464147 288.491625 
L 301.11216 288.491625 
L 301.760173 288.491625 
L 302.472987 288.491625 
L 303.121 288.491625 
L 303.769013 288.491625 
L 304.417026 288.491625 
L 305.129841 288.491625 
L 305.777854 288.491625 
L 306.425867 288.491625 
L 307.07388 288.491625 
L 307.721893 288.491625 
L 308.434707 288.491625 
L 309.08272 288.491625 
L 309.730734 288.491625 
L 310.378747 288.491625 
L 311.091561 288.491625 
L 311.739574 288.491625 
L 312.387587 288.491625 
L 313.0356 288.491625 
L 313.748415 288.491625 
L 314.396428 288.491625 
L 315.044441 288.491625 
L 315.692454 288.491625 
L 316.405268 288.491625 
L 317.053281 288.491625 
L 317.701294 288.491625 
L 318.349307 288.491625 
L 319.062122 288.491625 
L 319.710135 288.491625 
L 320.358148 288.491625 
L 321.006161 288.491625 
L 321.718975 288.491625 
L 322.366988 288.491625 
L 323.015001 288.491625 
L 323.663014 288.491625 
L 324.311027 288.491625 
L 325.023842 288.491625 
L 325.671855 288.491625 
L 326.319868 288.491625 
L 326.967881 288.491625 
L 327.680695 288.491625 
L 328.328708 288.491625 
L 328.976722 288.491625 
L 329.624735 288.491625 
L 330.337549 288.491625 
L 330.985562 288.491625 
L 331.633575 288.491625 
L 332.281588 288.491625 
L 332.994403 288.491625 
L 333.642416 288.491625 
L 334.290429 288.491625 
L 334.938442 288.491625 
L 335.651256 288.491625 
L 336.299269 288.491625 
L 336.947282 288.491625 
L 337.595295 288.491625 
L 338.30811 288.491625 
L 338.956123 288.491625 
L 339.604136 288.491625 
L 340.252149 288.491625 
L 340.900162 288.491625 
L 341.612976 288.491625 
L 342.260989 288.491625 
L 342.909002 288.491625 
L 343.557016 288.491625 
L 344.26983 288.491625 
L 344.917843 288.491625 
L 345.565856 288.491625 
L 346.213869 288.491625 
L 346.926683 288.491625 
L 347.574697 288.491625 
L 348.22271 288.491625 
L 348.870723 288.491625 
L 349.583537 288.491625 
L 350.23155 288.491625 
L 350.879563 288.491625 
L 351.527576 288.491625 
L 352.240391 288.491625 
L 352.888404 288.491625 
L 353.536417 288.491625 
L 354.18443 288.491625 
L 354.897244 288.491625 
L 355.545257 288.491625 
L 356.19327 288.491625 
L 356.841283 288.491625 
L 357.489296 288.491625 
L 358.202111 288.491625 
L 358.850124 288.491625 
L 359.498137 288.491625 
L 360.14615 288.491625 
L 360.858964 288.491625 
L 361.506977 288.491625 
L 362.15499 288.491625 
L 362.803004 288.491625 
L 363.515818 288.491625 
L 364.163831 288.491625 
L 364.811844 288.491625 
L 365.459857 288.491625 
L 366.172671 288.491625 
L 366.820685 288.491625 
L 367.468698 288.491625 
L 368.116711 288.491625 
L 368.829525 288.491625 
L 369.477538 288.491625 
L 370.125551 288.491625 
L 370.773564 288.491625 
L 371.486379 288.491625 
L 372.134392 288.491625 
L 372.782405 288.491625 
L 373.430418 288.491625 
L 374.078431 288.491625 
L 374.791245 288.491625 
L 375.439258 288.491625 
L 376.087271 288.491625 
L 376.735284 288.491625 
L 377.448099 288.491625 
L 378.096112 288.491625 
L 378.744125 288.491625 
L 379.392138 288.491625 
L 380.104952 288.491625 
L 380.752965 288.491625 
L 381.400978 288.491625 
L 382.048992 288.491625 
L 382.761806 288.491625 
L 383.409819 288.491625 
L 384.057832 288.491625 
L 384.705845 288.491625 
L 385.418659 288.491625 
L 386.066673 288.491625 
L 386.714686 288.491625 
L 387.362699 288.491625 
L 388.075513 288.491625 
L 388.723526 288.491625 
L 389.371539 288.491625 
L 390.019552 288.491625 
L 390.667565 288.491625 
L 391.38038 288.491625 
L 392.028393 288.491625 
L 392.676406 288.491625 
L 393.324419 288.491625 
L 394.037233 288.491625 
L 394.685246 288.491625 
L 395.333259 288.491625 
L 395.981272 288.491625 
L 396.694087 288.491625 
L 397.3421 288.491625 
L 397.990113 288.491625 
L 398.638126 288.491625 
L 399.35094 288.491625 
L 399.998953 288.491625 
L 400.646967 288.491625 
L 401.29498 288.491625 
L 402.007794 288.491625 
L 402.655807 288.491625 
L 403.30382 288.491625 
L 403.951833 288.491625 
L 404.664648 288.491625 
L 405.312661 288.491625 
L 405.960674 288.491625 
L 406.608687 288.491625 
L 407.2567 288.491625 
L 407.969514 288.491625 
L 408.617527 288.491625 
L 409.26554 288.491625 
L 409.913553 288.491625 
L 410.626368 288.491625 
L 411.274381 288.491625 
L 411.922394 288.491625 
L 412.570407 288.491625 
L 413.283221 288.491625 
L 413.931234 288.491625 
L 414.579247 288.491625 
L 415.22726 288.491625 
L 415.940075 288.491625 
L 416.588088 288.491625 
L 417.236101 288.491625 
L 417.884114 288.491625 
L 418.596928 288.491625 
L 419.244941 288.491625 
L 419.892955 288.491625 
L 420.540968 288.491625 
L 421.253782 288.491625 
L 421.901795 288.491625 
L 422.549808 288.491625 
L 423.197821 288.491625 
L 423.845834 288.491625 
L 424.558649 288.491625 
L 425.206662 288.491625 
L 425.854675 288.491625 
L 426.502688 288.491625 
L 427.215502 288.491625 
L 427.863515 288.491625 
L 428.511528 288.491625 
L 429.159541 288.491625 
L 429.872356 288.491625 
L 430.520369 288.491625 
L 430.520369 288.491625 
L 430.520369 288.491625 
L 429.872356 288.491625 
L 429.159541 288.491625 
L 428.511528 288.491625 
L 427.863515 288.491625 
L 427.215502 288.491625 
L 426.502688 288.491625 
L 425.854675 288.491625 
L 425.206662 288.491625 
L 424.558649 288.491625 
L 423.845834 288.491625 
L 423.197821 288.491625 
L 422.549808 288.491625 
L 421.901795 288.491625 
L 421.253782 288.491625 
L 420.540968 288.491625 
L 419.892955 288.491625 
L 419.244941 288.491625 
L 418.596928 288.491625 
L 417.884114 288.491625 
L 417.236101 288.491625 
L 416.588088 288.491625 
L 415.940075 288.491625 
L 415.22726 288.491625 
L 414.579247 288.491625 
L 413.931234 288.491625 
L 413.283221 288.491625 
L 412.570407 288.491625 
L 411.922394 288.491625 
L 411.274381 288.491625 
L 410.626368 288.491625 
L 409.913553 288.491625 
L 409.26554 288.491625 
L 408.617527 288.491625 
L 407.969514 288.491625 
L 407.2567 288.491625 
L 406.608687 288.491625 
L 405.960674 288.491625 
L 405.312661 288.491625 
L 404.664648 288.491625 
L 403.951833 288.491625 
L 403.30382 288.491625 
L 402.655807 288.491625 
L 402.007794 288.491625 
L 401.29498 288.491625 
L 400.646967 288.491625 
L 399.998953 288.491625 
L 399.35094 288.491625 
L 398.638126 288.491625 
L 397.990113 288.491625 
L 397.3421 288.491625 
L 396.694087 288.491625 
L 395.981272 288.491625 
L 395.333259 288.491625 
L 394.685246 288.491625 
L 394.037233 288.491625 
L 393.324419 288.491625 
L 392.676406 288.491625 
L 392.028393 288.491625 
L 391.38038 288.491625 
L 390.667565 288.491625 
L 390.019552 288.491625 
L 389.371539 288.491625 
L 388.723526 288.491625 
L 388.075513 288.491625 
L 387.362699 288.491625 
L 386.714686 288.491625 
L 386.066673 288.491625 
L 385.418659 288.491625 
L 384.705845 288.491625 
L 384.057832 288.491625 
L 383.409819 288.491625 
L 382.761806 288.491625 
L 382.048992 288.491625 
L 381.400978 288.491625 
L 380.752965 288.491625 
L 380.104952 288.491625 
L 379.392138 288.491625 
L 378.744125 288.491625 
L 378.096112 288.491625 
L 377.448099 288.491625 
L 376.735284 288.491625 
L 376.087271 288.491625 
L 375.439258 288.491625 
L 374.791245 288.491625 
L 374.078431 288.491625 
L 373.430418 288.491625 
L 372.782405 288.491625 
L 372.134392 288.491625 
L 371.486379 288.491625 
L 370.773564 288.491625 
L 370.125551 288.491625 
L 369.477538 288.491625 
L 368.829525 288.491625 
L 368.116711 288.491625 
L 367.468698 288.491625 
L 366.820685 288.491625 
L 366.172671 288.491625 
L 365.459857 288.491625 
L 364.811844 288.491625 
L 364.163831 288.491625 
L 363.515818 288.491625 
L 362.803004 288.491625 
L 362.15499 288.491625 
L 361.506977 288.491625 
L 360.858964 288.491625 
L 360.14615 288.491625 
L 359.498137 288.491625 
L 358.850124 288.491625 
L 358.202111 288.491625 
L 357.489296 288.491625 
L 356.841283 288.491625 
L 356.19327 288.491625 
L 355.545257 288.491625 
L 354.897244 288.491625 
L 354.18443 288.491625 
L 353.536417 288.491625 
L 352.888404 288.491625 
L 352.240391 288.491625 
L 351.527576 288.491625 
L 350.879563 288.491625 
L 350.23155 288.491625 
L 349.583537 288.491625 
L 348.870723 288.491625 
L 348.22271 288.491625 
L 347.574697 288.491625 
L 346.926683 288.491625 
L 346.213869 288.491625 
L 345.565856 288.491625 
L 344.917843 288.491625 
L 344.26983 288.491625 
L 343.557016 288.491625 
L 342.909002 288.491625 
L 342.260989 288.491625 
L 341.612976 288.491625 
L 340.900162 288.491625 
L 340.252149 288.491625 
L 339.604136 288.491625 
L 338.956123 288.491625 
L 338.30811 288.491625 
L 337.595295 288.491625 
L 336.947282 288.491625 
L 336.299269 288.491625 
L 335.651256 288.491625 
L 334.938442 288.491625 
L 334.290429 288.491625 
L 333.642416 288.491625 
L 332.994403 288.491625 
L 332.281588 288.491625 
L 331.633575 288.491625 
L 330.985562 288.491625 
L 330.337549 288.491625 
L 329.624735 288.491625 
L 328.976722 288.491625 
L 328.328708 288.491625 
L 327.680695 288.491625 
L 326.967881 288.491625 
L 326.319868 288.491625 
L 325.671855 288.491625 
L 325.023842 288.491625 
L 324.311027 288.491625 
L 323.663014 288.491625 
L 323.015001 288.491625 
L 322.366988 288.491625 
L 321.718975 288.491625 
L 321.006161 288.491625 
L 320.358148 288.491625 
L 319.710135 288.491625 
L 319.062122 288.491625 
L 318.349307 288.491625 
L 317.701294 288.491625 
L 317.053281 288.491625 
L 316.405268 288.491625 
L 315.692454 288.491625 
L 315.044441 288.491625 
L 314.396428 288.491625 
L 313.748415 288.491625 
L 313.0356 288.491625 
L 312.387587 288.491625 
L 311.739574 288.491625 
L 311.091561 288.491625 
L 310.378747 288.491625 
L 309.730734 288.491625 
L 309.08272 288.491625 
L 308.434707 288.491625 
L 307.721893 288.491625 
L 307.07388 288.491625 
L 306.425867 288.491625 
L 305.777854 288.491625 
L 305.129841 288.491625 
L 304.417026 288.491625 
L 303.769013 288.491625 
L 303.121 288.491625 
L 302.472987 288.491625 
L 301.760173 288.491625 
L 301.11216 288.491625 
L 300.464147 288.491625 
L 299.816134 288.491625 
L 299.103319 288.491625 
L 298.455306 288.491625 
L 297.807293 288.491625 
L 297.15928 288.491625 
L 296.446466 288.491625 
L 295.798453 288.491625 
L 295.15044 288.491625 
L 294.502427 288.491625 
L 293.789612 288.491625 
L 293.141599 288.491625 
L 292.493586 288.491625 
L 291.845573 288.491625 
L 291.132759 288.491625 
L 290.484746 288.491625 
L 289.836732 288.491625 
L 289.188719 288.491625 
L 288.540706 288.491625 
L 287.827892 288.491625 
L 287.179879 288.491625 
L 286.531866 288.491625 
L 285.883853 288.491625 
L 285.171038 288.491625 
L 284.523025 288.491625 
L 283.875012 288.491625 
L 283.226999 288.491625 
L 282.514185 288.491625 
L 281.866172 288.491625 
L 281.218159 288.491625 
L 280.570146 288.491625 
L 279.857331 288.491625 
L 279.209318 288.491625 
L 278.561305 288.491625 
L 277.913292 288.491625 
L 277.200478 288.491625 
L 276.552465 288.491625 
L 275.904452 288.491625 
L 275.256438 288.491625 
L 274.543624 288.491625 
L 273.895611 288.491625 
L 273.247598 288.491625 
L 272.599585 288.491625 
L 271.951572 288.491625 
L 271.238757 288.491625 
L 270.590744 288.491625 
L 269.942731 288.491625 
L 269.294718 288.491625 
L 268.581904 288.491625 
L 267.933891 288.491625 
L 267.285878 288.491625 
L 266.637865 288.491625 
L 265.92505 288.491625 
L 265.277037 288.491625 
L 264.629024 288.491625 
L 263.981011 288.491625 
L 263.268197 288.491625 
L 262.620184 288.491625 
L 261.972171 288.491625 
L 261.324158 288.491625 
L 260.611343 288.491625 
L 259.96333 288.491625 
L 259.315317 288.491625 
L 258.667304 288.491625 
L 257.95449 288.491625 
L 257.306477 288.491625 
L 256.658464 288.491625 
L 256.01045 288.491625 
L 255.362437 288.491625 
L 254.649623 288.491625 
L 254.00161 288.491625 
L 253.353597 288.491625 
L 252.705584 288.491625 
L 251.992769 288.491625 
L 251.344756 288.491625 
L 250.696743 288.491625 
L 250.04873 288.491625 
L 249.335916 288.491625 
L 248.687903 288.491625 
L 248.03989 288.491625 
L 247.391877 288.491625 
L 246.679062 288.491625 
L 246.031049 288.491625 
L 245.383036 288.491625 
L 244.735023 288.491625 
L 244.022209 288.491625 
L 243.374196 288.491625 
L 242.726183 288.491625 
L 242.07817 288.491625 
L 241.365355 288.491625 
L 240.717342 288.491625 
L 240.069329 288.491625 
L 239.421316 288.491625 
L 238.773303 288.491625 
L 238.060489 288.491625 
L 237.412476 288.491625 
L 236.764462 288.491625 
L 236.116449 288.491625 
L 235.403635 288.491625 
L 234.755622 288.491625 
L 234.107609 288.491625 
L 233.459596 288.491625 
L 232.746781 288.491625 
L 232.098768 288.491625 
L 231.450755 288.491625 
L 230.802742 288.491625 
L 230.089928 288.491625 
L 229.441915 288.491625 
L 228.793902 288.491625 
L 228.145889 288.491625 
L 227.433074 288.491625 
L 226.785061 288.491625 
L 226.137048 288.491625 
L 225.489035 288.491625 
L 224.776221 288.491625 
L 224.128208 288.491625 
L 223.480195 288.491625 
L 222.832182 288.491625 
L 222.184168 288.491625 
L 221.471354 288.491625 
L 220.823341 288.491625 
L 220.175328 288.491625 
L 219.527315 288.491625 
L 218.814501 288.491625 
L 218.166487 288.491625 
L 217.518474 288.491625 
L 216.870461 288.491625 
L 216.157647 288.491625 
L 215.509634 288.491625 
L 214.861621 288.491625 
L 214.213608 288.491625 
L 213.500793 288.491625 
L 212.85278 288.491625 
L 212.204767 288.491625 
L 211.556754 288.491625 
L 210.84394 288.491625 
L 210.195927 288.491625 
L 209.547914 288.491625 
L 208.899901 288.491625 
L 208.187086 288.491625 
L 207.539073 288.491625 
L 206.89106 288.491625 
L 206.243047 288.491625 
L 205.595034 288.491625 
L 204.88222 288.491625 
L 204.234207 288.491625 
L 203.586194 288.491625 
L 202.93818 288.491625 
L 202.225366 288.491625 
L 201.577353 288.491625 
L 200.92934 288.491625 
L 200.281327 288.491625 
L 199.568513 288.491625 
L 198.920499 288.491625 
L 198.272486 288.491625 
L 197.624473 288.491625 
L 196.911659 288.491625 
L 196.263646 288.491625 
L 195.615633 288.491625 
L 194.96762 288.491625 
L 194.254805 288.491625 
L 193.606792 288.491625 
L 192.958779 288.491625 
L 192.310766 288.491625 
L 191.597952 288.491625 
L 190.949939 288.491625 
L 190.301926 288.491625 
L 189.653913 288.491625 
L 189.0059 288.491625 
L 188.293085 288.491625 
L 187.645072 288.491625 
L 186.997059 288.491625 
L 186.349046 288.491625 
L 185.636232 288.491625 
L 184.988219 288.491625 
L 184.340205 288.491625 
L 183.692192 288.491625 
L 182.979378 288.491625 
L 182.331365 288.491625 
L 181.683352 288.491625 
L 181.035339 288.491625 
L 180.322524 288.491625 
L 179.674511 288.491625 
L 179.026498 288.491625 
L 178.378485 288.491625 
L 177.665671 288.491625 
L 177.017658 288.491625 
L 176.369645 288.491625 
L 175.721632 288.491625 
L 175.008817 288.491625 
L 174.360804 288.491625 
L 173.712791 288.491625 
L 173.064778 288.491625 
L 172.416765 288.491625 
L 171.703951 288.491625 
L 171.055938 288.491625 
L 170.407925 288.491625 
L 169.759912 288.491625 
L 169.047097 288.491625 
L 168.399084 288.491625 
L 167.751071 288.491625 
L 167.103058 288.491625 
L 166.390244 288.491625 
L 165.742231 288.491625 
L 165.094217 288.491625 
L 164.446204 288.491625 
L 163.73339 288.491625 
L 163.085377 288.491625 
L 162.437364 288.491625 
L 161.789351 288.491625 
L 161.076536 288.491625 
L 160.428523 288.491625 
L 159.78051 288.491625 
L 159.132497 288.491625 
L 158.419683 288.491625 
L 157.77167 288.491625 
L 157.123657 288.491625 
L 156.475644 288.491625 
L 155.827631 288.491625 
L 155.114816 288.491625 
L 154.466803 288.491625 
L 153.81879 288.491625 
L 153.170777 288.491625 
L 152.457963 288.491625 
L 151.80995 288.491625 
L 151.161937 288.491625 
L 150.513924 288.491625 
L 149.801109 288.491625 
L 149.153096 288.491625 
L 148.505083 288.491625 
L 147.85707 288.491625 
L 147.144256 288.491625 
L 146.496243 288.491625 
L 145.848229 288.491625 
L 145.200216 288.491625 
L 144.487402 288.491625 
L 143.839389 288.491625 
L 143.191376 288.491625 
L 142.543363 288.491625 
L 141.830548 288.491625 
L 141.182535 288.491625 
L 140.534522 288.491625 
L 139.886509 288.491625 
L 139.238496 288.491625 
L 138.525682 288.491625 
L 137.877669 288.491625 
L 137.229656 288.491625 
L 136.581643 288.491625 
L 135.868828 288.491625 
L 135.220815 288.491625 
L 134.572802 288.491625 
L 133.924789 288.491625 
L 133.211975 288.491625 
L 132.563962 288.491625 
L 131.915949 288.491625 
L 131.267935 288.491625 
L 130.555121 288.491625 
L 129.907108 288.491625 
L 129.259095 288.491625 
L 128.611082 288.491625 
L 127.898268 288.491625 
L 127.250254 288.491625 
L 126.602241 288.491625 
L 125.954228 288.491625 
L 125.241414 288.491625 
L 124.593401 288.491625 
L 123.945388 288.491625 
L 123.297375 288.491625 
L 122.649362 288.491625 
L 121.936547 288.491625 
L 121.288534 288.491625 
L 120.640521 288.491625 
L 119.992508 288.491625 
L 119.279694 288.491625 
L 118.631681 288.491625 
L 117.983668 288.491625 
L 117.335655 288.491625 
L 116.62284 288.491625 
L 115.974827 288.491625 
L 115.326814 288.491625 
L 114.678801 288.491625 
L 113.965987 288.491625 
L 113.317974 288.491625 
L 112.669961 288.491625 
L 112.021947 288.491625 
L 111.309133 288.491625 
L 110.66112 288.491625 
L 110.013107 288.491625 
L 109.365094 288.491625 
L 108.65228 288.491625 
L 108.004266 288.491625 
L 107.356253 288.491625 
L 106.70824 288.491625 
L 106.060227 288.491625 
z
" clip-path="url(#pdeced7d8e2)" style="fill: #ff7f0e; fill-opacity: 0.3"/>
   </g>
   <g id="PolyCollection_3">
    <path d="M 106.060227 288.491625 
L 106.060227 288.491625 
L 106.70824 288.491625 
L 107.356253 288.491625 
L 108.004266 288.491625 
L 108.65228 288.491625 
L 109.300293 288.491625 
L 109.948306 288.491625 
L 110.596319 288.491625 
L 111.244332 288.491625 
L 111.892345 288.491625 
L 112.540358 288.491625 
L 113.188371 288.491625 
L 113.836384 288.491625 
L 114.484397 288.491625 
L 115.13241 288.491625 
L 115.780423 288.491625 
L 116.428436 288.491625 
L 117.076449 288.491625 
L 117.724462 288.491625 
L 118.372476 288.491625 
L 119.020489 288.491625 
L 119.668502 288.491625 
L 120.316515 288.491625 
L 120.964528 288.491625 
L 121.612541 288.491625 
L 122.260554 288.491625 
L 122.908567 288.491625 
L 123.55658 288.491625 
L 124.204593 288.491625 
L 124.852606 288.491625 
L 125.500619 288.491625 
L 126.148632 288.491625 
L 126.796645 288.491625 
L 127.444658 288.491625 
L 128.092671 288.491625 
L 128.740685 288.491625 
L 129.388698 288.491625 
L 130.036711 288.491625 
L 130.684724 288.491625 
L 131.332737 288.491625 
L 131.98075 288.491625 
L 132.628763 288.491625 
L 133.276776 288.491625 
L 133.924789 288.491625 
L 134.572802 288.491625 
L 135.220815 288.491625 
L 135.868828 288.491625 
L 136.516841 288.491625 
L 137.164854 288.491625 
L 137.812867 288.491625 
L 138.460881 288.491625 
L 139.108894 288.491625 
L 139.756907 288.491625 
L 140.40492 288.491625 
L 141.052933 288.491625 
L 141.700946 288.491625 
L 142.348959 288.491625 
L 142.996972 288.491625 
L 143.644985 288.491625 
L 144.292998 288.491625 
L 144.941011 288.491625 
L 145.589024 288.491625 
L 146.237037 288.491625 
L 146.88505 288.491625 
L 147.533063 288.491625 
L 148.181076 288.491625 
L 148.82909 288.491625 
L 149.477103 288.491625 
L 150.125116 288.491625 
L 150.773129 288.491625 
L 151.421142 288.491625 
L 152.069155 288.491625 
L 152.717168 288.491625 
L 153.365181 288.491625 
L 154.013194 288.491625 
L 154.661207 288.491625 
L 155.30922 288.491625 
L 155.957233 288.491625 
L 156.605246 288.491625 
L 157.253259 288.491625 
L 157.901272 288.491625 
L 158.549286 288.491625 
L 159.197299 288.491625 
L 159.845312 288.491625 
L 160.493325 288.491625 
L 161.141338 288.491625 
L 161.789351 288.491625 
L 162.437364 288.491625 
L 163.085377 288.491625 
L 163.73339 288.491625 
L 164.381403 288.491625 
L 165.029416 288.491625 
L 165.677429 288.491625 
L 166.325442 288.491625 
L 166.973455 288.491625 
L 167.621468 288.491625 
L 168.269481 288.491625 
L 168.917495 288.491625 
L 169.565508 288.491625 
L 170.213521 288.491625 
L 170.861534 288.491625 
L 171.509547 288.491625 
L 172.15756 288.491625 
L 172.805573 288.491625 
L 173.453586 288.491625 
L 174.101599 288.491625 
L 174.749612 288.491625 
L 175.397625 288.491625 
L 176.045638 288.491625 
L 176.693651 288.491625 
L 177.341664 288.491625 
L 177.989677 288.491625 
L 178.637691 288.491625 
L 179.285704 288.491625 
L 179.933717 288.491625 
L 180.58173 288.491625 
L 181.229743 288.491625 
L 181.877756 288.491625 
L 182.525769 288.491625 
L 183.173782 288.491625 
L 183.821795 288.491625 
L 184.469808 288.491625 
L 185.117821 288.491625 
L 185.765834 288.491625 
L 186.413847 288.491625 
L 187.06186 288.491625 
L 187.709873 288.491625 
L 188.357886 288.491625 
L 189.0059 288.491625 
L 189.653913 288.491625 
L 190.301926 288.491625 
L 190.949939 288.491625 
L 191.597952 288.491625 
L 192.245965 288.491625 
L 192.893978 288.491625 
L 193.541991 288.491625 
L 194.190004 288.491625 
L 194.838017 288.491625 
L 195.48603 288.491625 
L 196.134043 288.491625 
L 196.782056 288.491625 
L 197.430069 288.491625 
L 198.078082 288.491625 
L 198.726096 288.491625 
L 199.374109 288.491625 
L 200.022122 288.491625 
L 200.670135 288.491625 
L 201.318148 288.491625 
L 201.966161 288.491625 
L 202.614174 288.491625 
L 203.262187 288.491625 
L 203.9102 288.491625 
L 204.558213 288.491625 
L 205.206226 288.491625 
L 205.854239 288.491625 
L 206.502252 288.491625 
L 207.150265 288.491625 
L 207.798278 288.491625 
L 208.446292 288.491625 
L 209.094305 288.491625 
L 209.742318 288.491625 
L 210.390331 288.491625 
L 211.038344 288.491625 
L 211.686357 288.491625 
L 212.33437 288.491625 
L 212.982383 288.491625 
L 213.630396 288.491625 
L 214.278409 288.491625 
L 214.926422 288.491625 
L 215.574435 288.491625 
L 216.222448 288.491625 
L 216.870461 288.491625 
L 217.518474 288.491625 
L 218.166487 288.491625 
L 218.814501 288.491625 
L 219.462514 288.491625 
L 220.110527 288.491625 
L 220.75854 288.491625 
L 221.406553 288.491625 
L 222.054566 288.491625 
L 222.702579 288.491625 
L 223.350592 288.491625 
L 223.998605 288.491625 
L 224.646618 288.491625 
L 225.294631 288.491625 
L 225.942644 288.491625 
L 226.590657 288.491625 
L 227.23867 288.491625 
L 227.886683 288.491625 
L 228.534697 288.491625 
L 229.18271 288.491625 
L 229.830723 288.491625 
L 230.478736 288.491625 
L 231.126749 288.491625 
L 231.774762 288.491625 
L 232.422775 288.491625 
L 233.070788 288.491625 
L 233.718801 288.491625 
L 234.366814 288.491625 
L 235.014827 288.491625 
L 235.66284 288.491625 
L 236.310853 288.491625 
L 236.958866 288.491625 
L 237.606879 288.491625 
L 238.254892 288.491625 
L 238.902906 288.491625 
L 239.550919 288.491625 
L 240.198932 288.491625 
L 240.846945 288.491625 
L 241.494958 288.491625 
L 242.142971 288.491625 
L 242.790984 288.491625 
L 243.438997 288.491625 
L 244.08701 288.491625 
L 244.735023 288.491625 
L 245.383036 288.491625 
L 246.031049 288.491625 
L 246.679062 288.491625 
L 247.327075 288.491625 
L 247.975088 288.491625 
L 248.623102 288.491625 
L 249.271115 288.491625 
L 249.919128 288.491625 
L 250.567141 288.491625 
L 251.215154 288.491625 
L 251.863167 288.491625 
L 252.51118 288.491625 
L 253.159193 288.491625 
L 253.807206 288.491625 
L 254.455219 288.491625 
L 255.103232 288.491625 
L 255.751245 288.491625 
L 256.399258 288.491625 
L 257.047271 288.491625 
L 257.695284 288.491625 
L 258.343297 288.491625 
L 258.991311 288.491625 
L 259.639324 288.491625 
L 260.287337 288.491625 
L 260.93535 288.491625 
L 261.583363 288.491625 
L 262.231376 288.491625 
L 262.879389 288.491625 
L 263.527402 288.491625 
L 264.175415 288.491625 
L 264.823428 288.491625 
L 265.471441 288.491625 
L 266.119454 288.491625 
L 266.767467 288.491625 
L 267.41548 288.491625 
L 268.063493 288.491625 
L 268.711507 288.491625 
L 269.35952 288.491625 
L 270.007533 288.491625 
L 270.655546 288.491625 
L 271.303559 288.491625 
L 271.951572 288.491625 
L 272.599585 288.491625 
L 273.247598 288.491625 
L 273.895611 288.491625 
L 274.543624 288.491625 
L 275.191637 288.491625 
L 275.83965 288.491625 
L 276.487663 288.491625 
L 277.135676 288.491625 
L 277.783689 288.491625 
L 278.431703 288.491625 
L 279.079716 288.491625 
L 279.727729 288.491625 
L 280.375742 288.491625 
L 281.023755 288.491625 
L 281.671768 288.491625 
L 282.319781 288.491625 
L 282.967794 288.491625 
L 283.615807 288.491625 
L 284.26382 288.491625 
L 284.911833 288.491625 
L 285.559846 288.491625 
L 286.207859 288.491625 
L 286.855872 288.491625 
L 287.503885 288.491625 
L 288.151898 288.491625 
L 288.799912 288.491625 
L 289.447925 288.491625 
L 290.095938 288.491625 
L 290.743951 288.491625 
L 291.391964 288.491625 
L 292.039977 288.491625 
L 292.68799 288.491625 
L 293.336003 288.491625 
L 293.984016 288.491625 
L 294.632029 288.491625 
L 295.280042 288.491625 
L 295.928055 288.491625 
L 296.576068 288.491625 
L 297.224081 288.491625 
L 297.872094 288.491625 
L 298.520108 288.491625 
L 299.168121 288.491625 
L 299.816134 288.491625 
L 300.464147 288.491625 
L 301.11216 288.491625 
L 301.760173 288.491625 
L 302.408186 288.491625 
L 303.056199 288.491625 
L 303.704212 288.491625 
L 304.352225 288.491625 
L 305.000238 288.491625 
L 305.648251 288.491625 
L 306.296264 288.491625 
L 306.944277 288.491625 
L 307.59229 288.491625 
L 308.240303 282.832449 
L 308.888317 288.491625 
L 309.53633 288.491625 
L 310.184343 288.491625 
L 310.832356 288.491625 
L 311.480369 288.491625 
L 312.128382 288.491625 
L 312.776395 288.491625 
L 313.424408 288.491625 
L 314.072421 288.491625 
L 314.720434 288.491625 
L 315.368447 288.491625 
L 316.01646 288.491625 
L 316.664473 288.491625 
L 317.312486 288.491625 
L 317.960499 288.491625 
L 318.608513 288.491625 
L 319.256526 288.491625 
L 319.904539 288.491625 
L 320.552552 288.069476 
L 321.200565 288.491625 
L 321.848578 288.491625 
L 322.496591 288.491625 
L 323.144604 288.491625 
L 323.792617 288.491625 
L 324.44063 288.491625 
L 325.088643 288.491625 
L 325.736656 288.491625 
L 326.384669 288.491625 
L 327.032682 288.491625 
L 327.680695 288.491625 
L 328.328708 288.491625 
L 328.976722 288.491625 
L 329.624735 288.405188 
L 330.272748 288.491625 
L 330.920761 288.491625 
L 331.568774 288.491625 
L 332.216787 288.491625 
L 332.8648 288.491625 
L 333.512813 288.491625 
L 334.160826 288.491625 
L 334.808839 288.491625 
L 335.456852 288.491625 
L 336.104865 288.491625 
L 336.752878 288.491625 
L 337.400891 288.491625 
L 338.048904 288.491625 
L 338.696918 288.491625 
L 339.344931 288.491625 
L 339.992944 288.491625 
L 340.640957 288.491625 
L 341.28897 288.491625 
L 341.936983 288.491625 
L 342.584996 288.491625 
L 343.233009 288.491625 
L 343.881022 288.491625 
L 344.529035 288.491625 
L 345.177048 288.491625 
L 345.825061 287.095526 
L 346.473074 288.491625 
L 347.121087 288.491625 
L 347.7691 288.491625 
L 348.417114 288.491625 
L 349.065127 288.491625 
L 349.71314 288.491625 
L 350.361153 288.491625 
L 351.009166 284.416058 
L 351.657179 288.491625 
L 352.305192 288.491625 
L 352.953205 288.491625 
L 353.601218 288.491625 
L 354.249231 288.491625 
L 354.897244 288.491625 
L 355.545257 288.491625 
L 356.19327 288.491625 
L 356.841283 288.491625 
L 357.489296 288.491625 
L 358.137309 288.491625 
L 358.785323 288.491625 
L 359.433336 283.09255 
L 360.081349 288.491625 
L 360.729362 279.373796 
L 361.377375 278.364512 
L 362.025388 284.751268 
L 362.673401 283.778282 
L 363.321414 286.68279 
L 363.969427 281.943722 
L 364.61744 288.491625 
L 365.265453 288.491625 
L 365.913466 288.491625 
L 366.561479 283.757703 
L 367.209492 288.491625 
L 367.857505 288.491625 
L 368.505519 288.491625 
L 369.153532 288.491625 
L 369.801545 288.491625 
L 370.449558 284.883441 
L 371.097571 278.347846 
L 371.745584 288.491625 
L 372.393597 288.491625 
L 373.04161 285.830202 
L 373.689623 288.491625 
L 374.337636 288.491625 
L 374.985649 288.491625 
L 375.633662 288.491625 
L 376.281675 288.491625 
L 376.929688 287.049691 
L 377.577701 271.799606 
L 378.225714 288.491625 
L 378.873728 288.491625 
L 379.521741 288.491625 
L 380.169754 288.491625 
L 380.817767 288.491625 
L 381.46578 279.23657 
L 382.113793 288.491625 
L 382.761806 288.491625 
L 383.409819 288.491625 
L 384.057832 288.491625 
L 384.705845 288.491625 
L 385.353858 288.491625 
L 386.001871 288.491625 
L 386.649884 275.238931 
L 387.297897 288.491625 
L 387.94591 288.491625 
L 388.593924 288.491625 
L 389.241937 288.491625 
L 389.88995 288.491625 
L 390.537963 288.491625 
L 391.185976 288.491625 
L 391.833989 285.801191 
L 392.482002 288.491625 
L 393.130015 288.491625 
L 393.778028 282.067757 
L 394.426041 279.796785 
L 395.074054 288.491625 
L 395.722067 288.491625 
L 396.37008 288.491625 
L 397.018093 288.491625 
L 397.666106 288.491625 
L 398.314119 288.491625 
L 398.962133 288.491625 
L 399.610146 288.491625 
L 400.258159 288.491625 
L 400.906172 288.491625 
L 401.554185 288.491625 
L 402.202198 288.491625 
L 402.850211 288.491625 
L 403.498224 283.718869 
L 404.146237 288.491625 
L 404.79425 288.491625 
L 405.442263 288.491625 
L 406.090276 288.491625 
L 406.738289 285.745665 
L 407.386302 288.491625 
L 408.034315 288.491625 
L 408.682329 288.491625 
L 409.330342 288.491625 
L 409.978355 285.032895 
L 410.626368 288.491625 
L 411.274381 288.491625 
L 411.922394 288.491625 
L 412.570407 285.360944 
L 413.21842 285.801191 
L 413.866433 288.491625 
L 414.514446 288.491625 
L 415.162459 288.491625 
L 415.810472 288.491625 
L 416.458485 288.491625 
L 417.106498 288.491625 
L 417.754511 288.491625 
L 418.402524 288.491625 
L 419.050538 286.342452 
L 419.698551 288.491625 
L 420.346564 288.491625 
L 420.994577 288.491625 
L 421.64259 288.491625 
L 422.290603 288.491625 
L 422.938616 288.491625 
L 423.586629 278.372726 
L 424.234642 288.491625 
L 424.882655 288.491625 
L 425.530668 288.491625 
L 426.178681 288.491625 
L 426.826694 288.491625 
L 427.474707 288.491625 
L 428.12272 288.491625 
L 428.770734 288.491625 
L 429.418747 288.491625 
L 430.06676 288.491625 
L 430.714773 288.491625 
L 430.714773 88.611023 
L 430.714773 88.611023 
L 430.06676 89.800917 
L 429.418747 77.610757 
L 428.770734 74.753191 
L 428.12272 106.104845 
L 427.474707 96.89891 
L 426.826694 117.73125 
L 426.178681 104.122657 
L 425.530668 86.601244 
L 424.882655 72.464895 
L 424.234642 87.904665 
L 423.586629 73.624924 
L 422.938616 64.982574 
L 422.290603 80.26776 
L 421.64259 80.094896 
L 420.994577 84.354633 
L 420.346564 119.551725 
L 419.698551 81.095929 
L 419.050538 80.170398 
L 418.402524 98.326675 
L 417.754511 113.42222 
L 417.106498 105.057541 
L 416.458485 101.011379 
L 415.810472 180.718878 
L 415.162459 92.713598 
L 414.514446 87.904665 
L 413.866433 60.215137 
L 413.21842 89.178859 
L 412.570407 76.313506 
L 411.922394 81.797814 
L 411.274381 68.34773 
L 410.626368 87.904665 
L 409.978355 82.689555 
L 409.330342 78.996858 
L 408.682329 89.550459 
L 408.034315 88.017027 
L 407.386302 87.03777 
L 406.738289 86.815185 
L 406.090276 73.159437 
L 405.442263 87.181463 
L 404.79425 131.355702 
L 404.146237 93.676406 
L 403.498224 71.907581 
L 402.850211 74.753191 
L 402.202198 103.001529 
L 401.554185 95.660024 
L 400.906172 98.53085 
L 400.258159 113.27378 
L 399.610146 73.938085 
L 398.962133 89.550459 
L 398.314119 90.787863 
L 397.666106 88.611023 
L 397.018093 93.135727 
L 396.37008 107.658414 
L 395.722067 96.651028 
L 395.074054 71.123104 
L 394.426041 109.698465 
L 393.778028 91.702693 
L 393.130015 125.341435 
L 392.482002 65.081685 
L 391.833989 89.178859 
L 391.185976 70.674428 
L 390.537963 81.79445 
L 389.88995 90.277662 
L 389.241937 93.157822 
L 388.593924 81.095929 
L 387.94591 99.168174 
L 387.297897 98.843971 
L 386.649884 81.597119 
L 386.001871 47.772108 
L 385.353858 51.262003 
L 384.705845 76.7369 
L 384.057832 84.811086 
L 383.409819 83.115142 
L 382.761806 62.637942 
L 382.113793 63.81528 
L 381.46578 77.59948 
L 380.817767 89.688103 
L 380.169754 79.816509 
L 379.521741 86.273142 
L 378.873728 83.911269 
L 378.225714 104.591112 
L 377.577701 81.407644 
L 376.929688 79.463159 
L 376.281675 103.400701 
L 375.633662 85.7503 
L 374.985649 71.123104 
L 374.337636 93.264765 
L 373.689623 85.7503 
L 373.04161 92.778648 
L 372.393597 115.333223 
L 371.745584 83.640103 
L 371.097571 57.925004 
L 370.449558 71.952609 
L 369.801545 83.39588 
L 369.153532 102.686554 
L 368.505519 117.076343 
L 367.857505 95.660024 
L 367.209492 72.735252 
L 366.561479 87.593547 
L 365.913466 83.061422 
L 365.265453 70.468345 
L 364.61744 88.896629 
L 363.969427 76.101928 
L 363.321414 89.50686 
L 362.673401 73.057768 
L 362.025388 68.455982 
L 361.377375 62.746738 
L 360.729362 79.881454 
L 360.081349 89.172346 
L 359.433336 59.2283 
L 358.785323 76.340755 
L 358.137309 61.693234 
L 357.489296 91.113983 
L 356.841283 89.23377 
L 356.19327 112.489225 
L 355.545257 93.296712 
L 354.897244 117.055185 
L 354.249231 86.416135 
L 353.601218 89.23377 
L 352.953205 87.711318 
L 352.305192 93.523443 
L 351.657179 68.877802 
L 351.009166 73.629592 
L 350.361153 79.70074 
L 349.71314 84.01943 
L 349.065127 67.557348 
L 348.417114 70.093686 
L 347.7691 84.58996 
L 347.121087 63.285132 
L 346.473074 65.863128 
L 345.825061 63.692524 
L 345.177048 84.187471 
L 344.529035 101.306487 
L 343.881022 86.212608 
L 343.233009 89.550459 
L 342.584996 82.355087 
L 341.936983 59.4843 
L 341.28897 92.837429 
L 340.640957 125.101975 
L 339.992944 104.923786 
L 339.344931 66.387134 
L 338.696918 87.399616 
L 338.048904 82.214396 
L 337.400891 64.852276 
L 336.752878 66.852505 
L 336.104865 66.32915 
L 335.456852 98.202219 
L 334.808839 93.383802 
L 334.160826 121.109511 
L 333.512813 110.151718 
L 332.8648 74.300207 
L 332.216787 77.176505 
L 331.568774 88.333613 
L 330.920761 92.019341 
L 330.272748 82.355087 
L 329.624735 85.365262 
L 328.976722 82.972444 
L 328.328708 78.213987 
L 327.680695 62.637942 
L 327.032682 71.390146 
L 326.384669 75.725728 
L 325.736656 87.755641 
L 325.088643 78.718176 
L 324.44063 79.071057 
L 323.792617 86.449527 
L 323.144604 93.676406 
L 322.496591 135.404589 
L 321.848578 109.648407 
L 321.200565 98.259889 
L 320.552552 73.604974 
L 319.904539 106.866023 
L 319.256526 82.186676 
L 318.608513 92.713598 
L 317.960499 77.785131 
L 317.312486 91.113379 
L 316.664473 95.396134 
L 316.01646 74.300207 
L 315.368447 72.195211 
L 314.720434 81.466702 
L 314.072421 79.706104 
L 313.424408 95.060214 
L 312.776395 82.214396 
L 312.128382 90.277662 
L 311.480369 60.855435 
L 310.832356 68.877802 
L 310.184343 86.463377 
L 309.53633 66.124824 
L 308.888317 61.693234 
L 308.240303 51.021201 
L 307.59229 53.493014 
L 306.944277 72.673827 
L 306.296264 82.94606 
L 305.648251 60.598885 
L 305.000238 77.691844 
L 304.352225 75.182562 
L 303.704212 82.94606 
L 303.056199 67.557348 
L 302.408186 110.979285 
L 301.760173 85.374004 
L 301.11216 67.642173 
L 300.464147 105.057541 
L 299.816134 74.506725 
L 299.168121 71.390146 
L 298.520108 96.89891 
L 297.872094 113.107379 
L 297.224081 96.609735 
L 296.576068 96.651028 
L 295.928055 101.63211 
L 295.280042 122.829208 
L 294.632029 122.540099 
L 293.984016 123.004486 
L 293.336003 114.063478 
L 292.68799 111.893927 
L 292.039977 94.801857 
L 291.391964 85.7503 
L 290.743951 78.517217 
L 290.095938 86.463377 
L 289.447925 106.965263 
L 288.799912 73.938085 
L 288.151898 79.622846 
L 287.503885 75.835412 
L 286.855872 104.891971 
L 286.207859 81.091634 
L 285.559846 95.876073 
L 284.911833 101.670427 
L 284.26382 108.478285 
L 283.615807 92.937045 
L 282.967794 88.654284 
L 282.319781 96.927252 
L 281.671768 87.365389 
L 281.023755 88.654284 
L 280.375742 101.21264 
L 279.727729 103.188858 
L 279.079716 135.978408 
L 278.431703 95.961517 
L 277.783689 104.37956 
L 277.135676 113.558864 
L 276.487663 116.905598 
L 275.83965 95.615879 
L 275.191637 96.927252 
L 274.543624 106.114721 
L 273.895611 83.390036 
L 273.247598 82.029818 
L 272.599585 86.058158 
L 271.951572 83.390036 
L 271.303559 116.833014 
L 270.655546 100.462057 
L 270.007533 96.52197 
L 269.35952 87.365389 
L 268.711507 129.175242 
L 268.063493 95.961517 
L 267.41548 102.812781 
L 266.767467 115.765536 
L 266.119454 116.385558 
L 265.471441 115.405261 
L 264.823428 119.147625 
L 264.175415 129.743256 
L 263.527402 124.068001 
L 262.879389 107.821989 
L 262.231376 146.196726 
L 261.583363 99.492053 
L 260.93535 132.787109 
L 260.287337 101.977131 
L 259.639324 135.255881 
L 258.991311 107.644047 
L 258.343297 120.207107 
L 257.695284 101.348793 
L 257.047271 121.442845 
L 256.399258 88.784131 
L 255.751245 115.270539 
L 255.103232 133.05246 
L 254.455219 119.852024 
L 253.807206 116.905598 
L 253.159193 88.654284 
L 252.51118 95.079328 
L 251.863167 118.948784 
L 251.215154 109.78812 
L 250.567141 91.570326 
L 249.919128 97.198287 
L 249.271115 100.873123 
L 248.623102 88.654284 
L 247.975088 102.115946 
L 247.327075 91.570326 
L 246.679062 118.015029 
L 246.031049 83.390036 
L 245.383036 107.408007 
L 244.735023 113.545105 
L 244.08701 116.451909 
L 243.438997 110.87255 
L 242.790984 99.492053 
L 242.142971 105.267118 
L 241.494958 118.537225 
L 240.846945 110.950398 
L 240.198932 135.244436 
L 239.550919 130.826507 
L 238.902906 134.11135 
L 238.254892 122.74763 
L 237.606879 112.096665 
L 236.958866 121.09091 
L 236.310853 109.145681 
L 235.66284 94.285686 
L 235.014827 139.183223 
L 234.366814 121.297135 
L 233.718801 130.832007 
L 233.070788 149.574614 
L 232.422775 103.748455 
L 231.774762 95.983936 
L 231.126749 115.793438 
L 230.478736 119.136214 
L 229.830723 103.188858 
L 229.18271 104.590723 
L 228.534697 80.652609 
L 227.886683 103.468282 
L 227.23867 100.744742 
L 226.590657 116.385558 
L 225.942644 142.169194 
L 225.294631 153.595443 
L 224.646618 132.461398 
L 223.998605 121.442845 
L 223.350592 127.267026 
L 222.702579 147.775838 
L 222.054566 132.766317 
L 221.406553 80.652609 
L 220.75854 102.355016 
L 220.110527 103.748455 
L 219.462514 102.355016 
L 218.814501 103.468282 
L 218.166487 139.935273 
L 217.518474 136.388976 
L 216.870461 131.275462 
L 216.222448 161.492652 
L 215.574435 176.397762 
L 214.926422 147.837193 
L 214.278409 162.497925 
L 213.630396 128.011361 
L 212.982383 129.423177 
L 212.33437 127.267026 
L 211.686357 139.509463 
L 211.038344 108.107457 
L 210.390331 122.602701 
L 209.742318 139.509463 
L 209.094305 151.774514 
L 208.446292 160.164572 
L 207.798278 151.509804 
L 207.150265 98.899684 
L 206.502252 154.82345 
L 205.854239 137.262024 
L 205.206226 89.679449 
L 204.558213 112.012545 
L 203.9102 156.829112 
L 203.262187 150.578618 
L 202.614174 100.873123 
L 201.966161 138.970054 
L 201.318148 182.186549 
L 200.670135 169.787983 
L 200.022122 195.947146 
L 199.374109 152.59061 
L 198.726096 200.661775 
L 198.078082 129.218347 
L 197.430069 120.207107 
L 196.782056 111.30891 
L 196.134043 124.128665 
L 195.48603 91.570326 
L 194.838017 107.408007 
L 194.190004 95.615879 
L 193.541991 167.281808 
L 192.893978 123.445216 
L 192.245965 135.792889 
L 191.597952 126.989366 
L 190.949939 159.508594 
L 190.301926 158.935953 
L 189.653913 131.448068 
L 189.0059 102.355016 
L 188.357886 124.577169 
L 187.709873 99.867466 
L 187.06186 92.937045 
L 186.413847 127.508157 
L 185.765834 100.744742 
L 185.117821 145.557463 
L 184.469808 140.616422 
L 183.821795 182.192152 
L 183.173782 127.267026 
L 182.525769 185.245084 
L 181.877756 121.753391 
L 181.229743 98.265509 
L 180.58173 134.286527 
L 179.933717 134.597194 
L 179.285704 142.720619 
L 178.637691 227.393287 
L 177.989677 172.759947 
L 177.341664 128.463814 
L 176.693651 144.907582 
L 176.045638 144.389771 
L 175.397625 119.493301 
L 174.749612 184.839317 
L 174.101599 198.248381 
L 173.453586 155.670664 
L 172.805573 145.796372 
L 172.15756 158.653472 
L 171.509547 225.12072 
L 170.861534 215.889338 
L 170.213521 230.08697 
L 169.565508 218.029499 
L 168.917495 210.633723 
L 168.269481 208.240898 
L 167.621468 162.223205 
L 166.973455 247.808776 
L 166.325442 204.667547 
L 165.677429 198.0425 
L 165.029416 157.977628 
L 164.381403 190.71206 
L 163.73339 207.515671 
L 163.085377 260.250631 
L 162.437364 192.944857 
L 161.789351 249.043191 
L 161.141338 254.988468 
L 160.493325 175.966514 
L 159.845312 183.016999 
L 159.197299 164.333357 
L 158.549286 234.33568 
L 157.901272 178.713287 
L 157.253259 189.350965 
L 156.605246 255.417369 
L 155.957233 189.268857 
L 155.30922 265.986603 
L 154.661207 222.343113 
L 154.013194 200.293609 
L 153.365181 189.268857 
L 152.717168 189.268857 
L 152.069155 188.87518 
L 151.421142 188.87518 
L 150.773129 264.581286 
L 150.125116 211.318361 
L 149.477103 200.293609 
L 148.82909 266.442121 
L 148.181076 211.318361 
L 147.533063 200.293609 
L 146.88505 178.244105 
L 146.237037 178.244105 
L 145.589024 177.85218 
L 144.941011 233.367865 
L 144.292998 266.442121 
L 143.644985 244.392617 
L 142.996972 288.491625 
L 142.348959 211.318361 
L 141.700946 200.293609 
L 141.052933 244.392617 
L 140.40492 288.491625 
L 139.756907 222.343113 
L 139.108894 288.491625 
L 138.460881 233.367865 
L 137.812867 244.392617 
L 137.164854 178.244105 
L 136.516841 222.343113 
L 135.868828 222.343113 
L 135.220815 288.491625 
L 134.572802 277.466873 
L 133.924789 178.244105 
L 133.276776 211.318361 
L 132.628763 255.417369 
L 131.98075 243.976965 
L 131.332737 255.417369 
L 130.684724 277.466873 
L 130.036711 288.491625 
L 129.388698 178.244105 
L 128.740685 288.491625 
L 128.092671 200.293609 
L 127.444658 200.293609 
L 126.796645 178.244105 
L 126.148632 222.343113 
L 125.500619 244.392617 
L 124.852606 288.491625 
L 124.204593 255.417369 
L 123.55658 271.968182 
L 122.908567 288.491625 
L 122.260554 288.491625 
L 121.612541 277.466873 
L 120.964528 288.491625 
L 120.316515 255.417369 
L 119.668502 288.491625 
L 119.020489 288.491625 
L 118.372476 288.491625 
L 117.724462 288.491625 
L 117.076449 288.491625 
L 116.428436 288.491625 
L 115.780423 288.491625 
L 115.13241 288.491625 
L 114.484397 288.491625 
L 113.836384 288.491625 
L 113.188371 288.491625 
L 112.540358 288.491625 
L 111.892345 288.491625 
L 111.244332 288.491625 
L 110.596319 288.491625 
L 109.948306 288.491625 
L 109.300293 288.491625 
L 108.65228 288.491625 
L 108.004266 288.491625 
L 107.356253 288.491625 
L 106.70824 288.491625 
L 106.060227 288.491625 
z
" clip-path="url(#pdeced7d8e2)" style="fill: #2ca02c; fill-opacity: 0.3"/>
   </g>
   <g id="matplotlib.axis_1">
    <g id="xtick_1">
     <g id="line2d_1">
      <defs>
       <path id="m05ab8e9a7e" d="M 0 0 
L 0 3.5 
" style="stroke: #000000; stroke-width: 0.8"/>
      </defs>
      <g>
       <use xlink:href="#m05ab8e9a7e" x="106.060227" y="300.587625" style="stroke: #000000; stroke-width: 0.8"/>
      </g>
     </g>
     <g id="text_1">
      <!-- 0 -->
      <g transform="translate(97.152727 328.86325) scale(0.28 -0.28)">
       <defs>
        <path id="DejaVuSans-30" d="M 2034 4250 
Q 1547 4250 1301 3770 
Q 1056 3291 1056 2328 
Q 1056 1369 1301 889 
Q 1547 409 2034 409 
Q 2525 409 2770 889 
Q 3016 1369 3016 2328 
Q 3016 3291 2770 3770 
Q 2525 4250 2034 4250 
z
M 2034 4750 
Q 2819 4750 3233 4129 
Q 3647 3509 3647 2328 
Q 3647 1150 3233 529 
Q 2819 -91 2034 -91 
Q 1250 -91 836 529 
Q 422 1150 422 2328 
Q 422 3509 836 4129 
Q 1250 4750 2034 4750 
z
" transform="scale(0.015625)"/>
       </defs>
       <use xlink:href="#DejaVuSans-30"/>
      </g>
     </g>
    </g>
    <g id="xtick_2">
     <g id="line2d_2">
      <g>
       <use xlink:href="#m05ab8e9a7e" x="235.66284" y="300.587625" style="stroke: #000000; stroke-width: 0.8"/>
      </g>
     </g>
     <g id="text_2">
      <!-- 2000 -->
      <g transform="translate(200.03284 328.86325) scale(0.28 -0.28)">
       <defs>
        <path id="DejaVuSans-32" d="M 1228 531 
L 3431 531 
L 3431 0 
L 469 0 
L 469 531 
Q 828 903 1448 1529 
Q 2069 2156 2228 2338 
Q 2531 2678 2651 2914 
Q 2772 3150 2772 3378 
Q 2772 3750 2511 3984 
Q 2250 4219 1831 4219 
Q 1534 4219 1204 4116 
Q 875 4013 500 3803 
L 500 4441 
Q 881 4594 1212 4672 
Q 1544 4750 1819 4750 
Q 2544 4750 2975 4387 
Q 3406 4025 3406 3419 
Q 3406 3131 3298 2873 
Q 3191 2616 2906 2266 
Q 2828 2175 2409 1742 
Q 1991 1309 1228 531 
z
" transform="scale(0.015625)"/>
       </defs>
       <use xlink:href="#DejaVuSans-32"/>
       <use xlink:href="#DejaVuSans-30" x="63.623047"/>
       <use xlink:href="#DejaVuSans-30" x="127.246094"/>
       <use xlink:href="#DejaVuSans-30" x="190.869141"/>
      </g>
     </g>
    </g>
    <g id="xtick_3">
     <g id="line2d_3">
      <g>
       <use xlink:href="#m05ab8e9a7e" x="365.265453" y="300.587625" style="stroke: #000000; stroke-width: 0.8"/>
      </g>
     </g>
     <g id="text_3">
      <!-- 4000 -->
      <g transform="translate(329.635453 328.86325) scale(0.28 -0.28)">
       <defs>
        <path id="DejaVuSans-34" d="M 2419 4116 
L 825 1625 
L 2419 1625 
L 2419 4116 
z
M 2253 4666 
L 3047 4666 
L 3047 1625 
L 3713 1625 
L 3713 1100 
L 3047 1100 
L 3047 0 
L 2419 0 
L 2419 1100 
L 313 1100 
L 313 1709 
L 2253 4666 
z
" transform="scale(0.015625)"/>
       </defs>
       <use xlink:href="#DejaVuSans-34"/>
       <use xlink:href="#DejaVuSans-30" x="63.623047"/>
       <use xlink:href="#DejaVuSans-30" x="127.246094"/>
       <use xlink:href="#DejaVuSans-30" x="190.869141"/>
      </g>
     </g>
    </g>
    <g id="text_4">
     <!-- Sampled Trajectories -->
     <g transform="translate(121.925625 359.962) scale(0.28 -0.28)">
      <defs>
       <path id="DejaVuSans-53" d="M 3425 4513 
L 3425 3897 
Q 3066 4069 2747 4153 
Q 2428 4238 2131 4238 
Q 1616 4238 1336 4038 
Q 1056 3838 1056 3469 
Q 1056 3159 1242 3001 
Q 1428 2844 1947 2747 
L 2328 2669 
Q 3034 2534 3370 2195 
Q 3706 1856 3706 1288 
Q 3706 609 3251 259 
Q 2797 -91 1919 -91 
Q 1588 -91 1214 -16 
Q 841 59 441 206 
L 441 856 
Q 825 641 1194 531 
Q 1563 422 1919 422 
Q 2459 422 2753 634 
Q 3047 847 3047 1241 
Q 3047 1584 2836 1778 
Q 2625 1972 2144 2069 
L 1759 2144 
Q 1053 2284 737 2584 
Q 422 2884 422 3419 
Q 422 4038 858 4394 
Q 1294 4750 2059 4750 
Q 2388 4750 2728 4690 
Q 3069 4631 3425 4513 
z
" transform="scale(0.015625)"/>
       <path id="DejaVuSans-61" d="M 2194 1759 
Q 1497 1759 1228 1600 
Q 959 1441 959 1056 
Q 959 750 1161 570 
Q 1363 391 1709 391 
Q 2188 391 2477 730 
Q 2766 1069 2766 1631 
L 2766 1759 
L 2194 1759 
z
M 3341 1997 
L 3341 0 
L 2766 0 
L 2766 531 
Q 2569 213 2275 61 
Q 1981 -91 1556 -91 
Q 1019 -91 701 211 
Q 384 513 384 1019 
Q 384 1609 779 1909 
Q 1175 2209 1959 2209 
L 2766 2209 
L 2766 2266 
Q 2766 2663 2505 2880 
Q 2244 3097 1772 3097 
Q 1472 3097 1187 3025 
Q 903 2953 641 2809 
L 641 3341 
Q 956 3463 1253 3523 
Q 1550 3584 1831 3584 
Q 2591 3584 2966 3190 
Q 3341 2797 3341 1997 
z
" transform="scale(0.015625)"/>
       <path id="DejaVuSans-6d" d="M 3328 2828 
Q 3544 3216 3844 3400 
Q 4144 3584 4550 3584 
Q 5097 3584 5394 3201 
Q 5691 2819 5691 2113 
L 5691 0 
L 5113 0 
L 5113 2094 
Q 5113 2597 4934 2840 
Q 4756 3084 4391 3084 
Q 3944 3084 3684 2787 
Q 3425 2491 3425 1978 
L 3425 0 
L 2847 0 
L 2847 2094 
Q 2847 2600 2669 2842 
Q 2491 3084 2119 3084 
Q 1678 3084 1418 2786 
Q 1159 2488 1159 1978 
L 1159 0 
L 581 0 
L 581 3500 
L 1159 3500 
L 1159 2956 
Q 1356 3278 1631 3431 
Q 1906 3584 2284 3584 
Q 2666 3584 2933 3390 
Q 3200 3197 3328 2828 
z
" transform="scale(0.015625)"/>
       <path id="DejaVuSans-70" d="M 1159 525 
L 1159 -1331 
L 581 -1331 
L 581 3500 
L 1159 3500 
L 1159 2969 
Q 1341 3281 1617 3432 
Q 1894 3584 2278 3584 
Q 2916 3584 3314 3078 
Q 3713 2572 3713 1747 
Q 3713 922 3314 415 
Q 2916 -91 2278 -91 
Q 1894 -91 1617 61 
Q 1341 213 1159 525 
z
M 3116 1747 
Q 3116 2381 2855 2742 
Q 2594 3103 2138 3103 
Q 1681 3103 1420 2742 
Q 1159 2381 1159 1747 
Q 1159 1113 1420 752 
Q 1681 391 2138 391 
Q 2594 391 2855 752 
Q 3116 1113 3116 1747 
z
" transform="scale(0.015625)"/>
       <path id="DejaVuSans-6c" d="M 603 4863 
L 1178 4863 
L 1178 0 
L 603 0 
L 603 4863 
z
" transform="scale(0.015625)"/>
       <path id="DejaVuSans-65" d="M 3597 1894 
L 3597 1613 
L 953 1613 
Q 991 1019 1311 708 
Q 1631 397 2203 397 
Q 2534 397 2845 478 
Q 3156 559 3463 722 
L 3463 178 
Q 3153 47 2828 -22 
Q 2503 -91 2169 -91 
Q 1331 -91 842 396 
Q 353 884 353 1716 
Q 353 2575 817 3079 
Q 1281 3584 2069 3584 
Q 2775 3584 3186 3129 
Q 3597 2675 3597 1894 
z
M 3022 2063 
Q 3016 2534 2758 2815 
Q 2500 3097 2075 3097 
Q 1594 3097 1305 2825 
Q 1016 2553 972 2059 
L 3022 2063 
z
" transform="scale(0.015625)"/>
       <path id="DejaVuSans-64" d="M 2906 2969 
L 2906 4863 
L 3481 4863 
L 3481 0 
L 2906 0 
L 2906 525 
Q 2725 213 2448 61 
Q 2172 -91 1784 -91 
Q 1150 -91 751 415 
Q 353 922 353 1747 
Q 353 2572 751 3078 
Q 1150 3584 1784 3584 
Q 2172 3584 2448 3432 
Q 2725 3281 2906 2969 
z
M 947 1747 
Q 947 1113 1208 752 
Q 1469 391 1925 391 
Q 2381 391 2643 752 
Q 2906 1113 2906 1747 
Q 2906 2381 2643 2742 
Q 2381 3103 1925 3103 
Q 1469 3103 1208 2742 
Q 947 2381 947 1747 
z
" transform="scale(0.015625)"/>
       <path id="DejaVuSans-20" transform="scale(0.015625)"/>
       <path id="DejaVuSans-54" d="M -19 4666 
L 3928 4666 
L 3928 4134 
L 2272 4134 
L 2272 0 
L 1638 0 
L 1638 4134 
L -19 4134 
L -19 4666 
z
" transform="scale(0.015625)"/>
       <path id="DejaVuSans-72" d="M 2631 2963 
Q 2534 3019 2420 3045 
Q 2306 3072 2169 3072 
Q 1681 3072 1420 2755 
Q 1159 2438 1159 1844 
L 1159 0 
L 581 0 
L 581 3500 
L 1159 3500 
L 1159 2956 
Q 1341 3275 1631 3429 
Q 1922 3584 2338 3584 
Q 2397 3584 2469 3576 
Q 2541 3569 2628 3553 
L 2631 2963 
z
" transform="scale(0.015625)"/>
       <path id="DejaVuSans-6a" d="M 603 3500 
L 1178 3500 
L 1178 -63 
Q 1178 -731 923 -1031 
Q 669 -1331 103 -1331 
L -116 -1331 
L -116 -844 
L 38 -844 
Q 366 -844 484 -692 
Q 603 -541 603 -63 
L 603 3500 
z
M 603 4863 
L 1178 4863 
L 1178 4134 
L 603 4134 
L 603 4863 
z
" transform="scale(0.015625)"/>
       <path id="DejaVuSans-63" d="M 3122 3366 
L 3122 2828 
Q 2878 2963 2633 3030 
Q 2388 3097 2138 3097 
Q 1578 3097 1268 2742 
Q 959 2388 959 1747 
Q 959 1106 1268 751 
Q 1578 397 2138 397 
Q 2388 397 2633 464 
Q 2878 531 3122 666 
L 3122 134 
Q 2881 22 2623 -34 
Q 2366 -91 2075 -91 
Q 1284 -91 818 406 
Q 353 903 353 1747 
Q 353 2603 823 3093 
Q 1294 3584 2113 3584 
Q 2378 3584 2631 3529 
Q 2884 3475 3122 3366 
z
" transform="scale(0.015625)"/>
       <path id="DejaVuSans-74" d="M 1172 4494 
L 1172 3500 
L 2356 3500 
L 2356 3053 
L 1172 3053 
L 1172 1153 
Q 1172 725 1289 603 
Q 1406 481 1766 481 
L 2356 481 
L 2356 0 
L 1766 0 
Q 1100 0 847 248 
Q 594 497 594 1153 
L 594 3053 
L 172 3053 
L 172 3500 
L 594 3500 
L 594 4494 
L 1172 4494 
z
" transform="scale(0.015625)"/>
       <path id="DejaVuSans-6f" d="M 1959 3097 
Q 1497 3097 1228 2736 
Q 959 2375 959 1747 
Q 959 1119 1226 758 
Q 1494 397 1959 397 
Q 2419 397 2687 759 
Q 2956 1122 2956 1747 
Q 2956 2369 2687 2733 
Q 2419 3097 1959 3097 
z
M 1959 3584 
Q 2709 3584 3137 3096 
Q 3566 2609 3566 1747 
Q 3566 888 3137 398 
Q 2709 -91 1959 -91 
Q 1206 -91 779 398 
Q 353 888 353 1747 
Q 353 2609 779 3096 
Q 1206 3584 1959 3584 
z
" transform="scale(0.015625)"/>
       <path id="DejaVuSans-69" d="M 603 3500 
L 1178 3500 
L 1178 0 
L 603 0 
L 603 3500 
z
M 603 4863 
L 1178 4863 
L 1178 4134 
L 603 4134 
L 603 4863 
z
" transform="scale(0.015625)"/>
       <path id="DejaVuSans-73" d="M 2834 3397 
L 2834 2853 
Q 2591 2978 2328 3040 
Q 2066 3103 1784 3103 
Q 1356 3103 1142 2972 
Q 928 2841 928 2578 
Q 928 2378 1081 2264 
Q 1234 2150 1697 2047 
L 1894 2003 
Q 2506 1872 2764 1633 
Q 3022 1394 3022 966 
Q 3022 478 2636 193 
Q 2250 -91 1575 -91 
Q 1294 -91 989 -36 
Q 684 19 347 128 
L 347 722 
Q 666 556 975 473 
Q 1284 391 1588 391 
Q 1994 391 2212 530 
Q 2431 669 2431 922 
Q 2431 1156 2273 1281 
Q 2116 1406 1581 1522 
L 1381 1569 
Q 847 1681 609 1914 
Q 372 2147 372 2553 
Q 372 3047 722 3315 
Q 1072 3584 1716 3584 
Q 2034 3584 2315 3537 
Q 2597 3491 2834 3397 
z
" transform="scale(0.015625)"/>
      </defs>
      <use xlink:href="#DejaVuSans-53"/>
      <use xlink:href="#DejaVuSans-61" x="63.476562"/>
      <use xlink:href="#DejaVuSans-6d" x="124.755859"/>
      <use xlink:href="#DejaVuSans-70" x="222.167969"/>
      <use xlink:href="#DejaVuSans-6c" x="285.644531"/>
      <use xlink:href="#DejaVuSans-65" x="313.427734"/>
      <use xlink:href="#DejaVuSans-64" x="374.951172"/>
      <use xlink:href="#DejaVuSans-20" x="438.427734"/>
      <use xlink:href="#DejaVuSans-54" x="470.214844"/>
      <use xlink:href="#DejaVuSans-72" x="516.548828"/>
      <use xlink:href="#DejaVuSans-61" x="557.662109"/>
      <use xlink:href="#DejaVuSans-6a" x="618.941406"/>
      <use xlink:href="#DejaVuSans-65" x="646.724609"/>
      <use xlink:href="#DejaVuSans-63" x="708.248047"/>
      <use xlink:href="#DejaVuSans-74" x="763.228516"/>
      <use xlink:href="#DejaVuSans-6f" x="802.4375"/>
      <use xlink:href="#DejaVuSans-72" x="863.619141"/>
      <use xlink:href="#DejaVuSans-69" x="904.732422"/>
      <use xlink:href="#DejaVuSans-65" x="932.515625"/>
      <use xlink:href="#DejaVuSans-73" x="994.039062"/>
     </g>
    </g>
   </g>
   <g id="matplotlib.axis_2">
    <g id="ytick_1">
     <g id="line2d_4">
      <defs>
       <path id="me09e131a56" d="M 0 0 
L -3.5 0 
" style="stroke: #000000; stroke-width: 0.8"/>
      </defs>
      <g>
       <use xlink:href="#me09e131a56" x="89.8275" y="288.491625" style="stroke: #000000; stroke-width: 0.8"/>
      </g>
     </g>
     <g id="text_5">
      <!-- 0.0 -->
      <g transform="translate(38.29875 299.129437) scale(0.28 -0.28)">
       <defs>
        <path id="DejaVuSans-2e" d="M 684 794 
L 1344 794 
L 1344 0 
L 684 0 
L 684 794 
z
" transform="scale(0.015625)"/>
       </defs>
       <use xlink:href="#DejaVuSans-30"/>
       <use xlink:href="#DejaVuSans-2e" x="63.623047"/>
       <use xlink:href="#DejaVuSans-30" x="95.410156"/>
      </g>
     </g>
    </g>
    <g id="ytick_2">
     <g id="line2d_5">
      <g>
       <use xlink:href="#me09e131a56" x="89.8275" y="167.531625" style="stroke: #000000; stroke-width: 0.8"/>
      </g>
     </g>
     <g id="text_6">
      <!-- 0.5 -->
      <g transform="translate(38.29875 178.169437) scale(0.28 -0.28)">
       <defs>
        <path id="DejaVuSans-35" d="M 691 4666 
L 3169 4666 
L 3169 4134 
L 1269 4134 
L 1269 2991 
Q 1406 3038 1543 3061 
Q 1681 3084 1819 3084 
Q 2600 3084 3056 2656 
Q 3513 2228 3513 1497 
Q 3513 744 3044 326 
Q 2575 -91 1722 -91 
Q 1428 -91 1123 -41 
Q 819 9 494 109 
L 494 744 
Q 775 591 1075 516 
Q 1375 441 1709 441 
Q 2250 441 2565 725 
Q 2881 1009 2881 1497 
Q 2881 1984 2565 2268 
Q 2250 2553 1709 2553 
Q 1456 2553 1204 2497 
Q 953 2441 691 2322 
L 691 4666 
z
" transform="scale(0.015625)"/>
       </defs>
       <use xlink:href="#DejaVuSans-30"/>
       <use xlink:href="#DejaVuSans-2e" x="63.623047"/>
       <use xlink:href="#DejaVuSans-35" x="95.410156"/>
      </g>
     </g>
    </g>
    <g id="ytick_3">
     <g id="line2d_6">
      <g>
       <use xlink:href="#me09e131a56" x="89.8275" y="46.571625" style="stroke: #000000; stroke-width: 0.8"/>
      </g>
     </g>
     <g id="text_7">
      <!-- 1.0 -->
      <g transform="translate(38.29875 57.209437) scale(0.28 -0.28)">
       <defs>
        <path id="DejaVuSans-31" d="M 794 531 
L 1825 531 
L 1825 4091 
L 703 3866 
L 703 4441 
L 1819 4666 
L 2450 4666 
L 2450 531 
L 3481 531 
L 3481 0 
L 794 0 
L 794 531 
z
" transform="scale(0.015625)"/>
       </defs>
       <use xlink:href="#DejaVuSans-31"/>
       <use xlink:href="#DejaVuSans-2e" x="63.623047"/>
       <use xlink:href="#DejaVuSans-30" x="95.410156"/>
      </g>
     </g>
    </g>
    <g id="text_8">
     <!-- Success Rate -->
     <g transform="translate(28.475625 260.432562) rotate(-90) scale(0.28 -0.28)">
      <defs>
       <path id="DejaVuSans-75" d="M 544 1381 
L 544 3500 
L 1119 3500 
L 1119 1403 
Q 1119 906 1312 657 
Q 1506 409 1894 409 
Q 2359 409 2629 706 
Q 2900 1003 2900 1516 
L 2900 3500 
L 3475 3500 
L 3475 0 
L 2900 0 
L 2900 538 
Q 2691 219 2414 64 
Q 2138 -91 1772 -91 
Q 1169 -91 856 284 
Q 544 659 544 1381 
z
M 1991 3584 
L 1991 3584 
z
" transform="scale(0.015625)"/>
       <path id="DejaVuSans-52" d="M 2841 2188 
Q 3044 2119 3236 1894 
Q 3428 1669 3622 1275 
L 4263 0 
L 3584 0 
L 2988 1197 
Q 2756 1666 2539 1819 
Q 2322 1972 1947 1972 
L 1259 1972 
L 1259 0 
L 628 0 
L 628 4666 
L 2053 4666 
Q 2853 4666 3247 4331 
Q 3641 3997 3641 3322 
Q 3641 2881 3436 2590 
Q 3231 2300 2841 2188 
z
M 1259 4147 
L 1259 2491 
L 2053 2491 
Q 2509 2491 2742 2702 
Q 2975 2913 2975 3322 
Q 2975 3731 2742 3939 
Q 2509 4147 2053 4147 
L 1259 4147 
z
" transform="scale(0.015625)"/>
      </defs>
      <use xlink:href="#DejaVuSans-53"/>
      <use xlink:href="#DejaVuSans-75" x="63.476562"/>
      <use xlink:href="#DejaVuSans-63" x="126.855469"/>
      <use xlink:href="#DejaVuSans-63" x="181.835938"/>
      <use xlink:href="#DejaVuSans-65" x="236.816406"/>
      <use xlink:href="#DejaVuSans-73" x="298.339844"/>
      <use xlink:href="#DejaVuSans-73" x="350.439453"/>
      <use xlink:href="#DejaVuSans-20" x="402.539062"/>
      <use xlink:href="#DejaVuSans-52" x="434.326172"/>
      <use xlink:href="#DejaVuSans-61" x="501.558594"/>
      <use xlink:href="#DejaVuSans-74" x="562.837891"/>
      <use xlink:href="#DejaVuSans-65" x="602.046875"/>
     </g>
    </g>
   </g>
   <g id="line2d_7">
    <path d="M 106.060227 288.491625 
L 109.300293 288.491625 
L 112.540358 207.851623 
L 115.780423 252.203624 
L 119.020489 127.21162 
L 122.260554 131.243616 
L 125.500619 131.243616 
L 128.740685 183.659631 
L 131.98075 66.73162 
L 135.220815 135.275627 
L 138.460881 54.635617 
L 141.700946 50.603621 
L 144.941011 46.571625 
L 148.181076 62.699624 
L 151.421142 90.923626 
L 154.661207 50.603621 
L 157.901272 50.603621 
L 161.141338 46.571625 
L 164.381403 46.571625 
L 167.621468 46.571625 
L 170.861534 46.571625 
L 174.101599 46.571625 
L 177.341664 46.571625 
L 180.58173 50.603621 
L 183.821795 50.603621 
L 187.06186 50.603621 
L 190.301926 46.571625 
L 193.541991 127.21162 
L 196.782056 46.571625 
L 200.022122 46.571625 
L 203.262187 46.571625 
L 206.502252 46.571625 
L 209.742318 46.571625 
L 212.982383 50.603621 
L 216.222448 46.571625 
L 219.462514 46.571625 
L 222.702579 46.571625 
L 225.942644 46.571625 
L 229.18271 46.571625 
L 232.422775 50.603621 
L 235.66284 46.571625 
L 238.902906 46.571625 
L 242.142971 46.571625 
L 245.383036 46.571625 
L 248.623102 50.603621 
L 251.863167 46.571625 
L 255.103232 46.571625 
L 258.343297 46.571625 
L 261.583363 46.571625 
L 264.823428 46.571625 
" clip-path="url(#pdeced7d8e2)" style="fill: none; stroke: #1f77b4; stroke-width: 1.5; stroke-linecap: square"/>
   </g>
   <g id="line2d_8">
    <path d="M 106.060227 288.491625 
L 112.021947 288.491625 
L 117.983668 288.491625 
L 123.945388 288.491625 
L 129.907108 288.491625 
L 135.868828 288.491625 
L 141.830548 288.491625 
L 147.85707 288.491625 
L 153.81879 288.491625 
L 159.78051 288.491625 
L 165.742231 288.491625 
L 171.703951 288.491625 
L 177.665671 288.491625 
L 183.692192 288.491625 
L 189.653913 288.491625 
L 195.615633 288.491625 
L 201.577353 288.491625 
L 207.539073 288.491625 
L 213.500793 288.491625 
L 219.527315 288.491625 
L 225.489035 288.491625 
L 231.450755 288.491625 
L 237.412476 288.491625 
L 243.374196 288.491625 
L 249.335916 288.491625 
L 255.362437 288.491625 
L 261.324158 288.491625 
L 267.285878 288.491625 
L 273.247598 288.491625 
L 279.209318 288.491625 
L 285.171038 288.491625 
L 291.132759 288.491625 
L 297.15928 288.491625 
L 303.121 288.491625 
L 309.08272 288.491625 
L 315.044441 288.491625 
L 321.006161 288.491625 
L 326.967881 288.491625 
L 332.994403 288.491625 
L 338.956123 288.491625 
L 344.917843 288.491625 
L 350.879563 288.491625 
L 356.841283 288.491625 
L 362.803004 288.491625 
L 368.829525 288.491625 
L 374.791245 288.491625 
L 380.752965 288.491625 
L 386.714686 288.491625 
L 392.676406 288.491625 
L 398.638126 288.491625 
L 404.664648 288.491625 
L 410.626368 288.491625 
L 416.588088 288.491625 
L 422.549808 288.491625 
L 428.511528 288.491625 
" clip-path="url(#pdeced7d8e2)" style="fill: none; stroke: #ff7f0e; stroke-width: 1.5; stroke-linecap: square"/>
   </g>
   <g id="line2d_9">
    <path d="M 106.060227 288.491625 
L 111.892345 288.491625 
L 117.724462 288.491625 
L 123.55658 282.443625 
L 129.388698 258.251625 
L 135.220815 288.491625 
L 141.052933 276.395625 
L 146.88505 258.251625 
L 152.717168 261.275625 
L 158.549286 267.323625 
L 164.381403 253.413225 
L 170.213521 264.299625 
L 176.045638 231.640425 
L 181.877756 217.730025 
L 187.709873 204.424425 
L 193.541991 237.688425 
L 199.374109 235.269225 
L 205.206226 200.190825 
L 211.038344 210.472425 
L 216.870461 223.173225 
L 222.702579 228.011625 
L 228.534697 197.771625 
L 234.366814 217.730025 
L 240.198932 222.568425 
L 246.031049 198.981225 
L 251.863167 214.706025 
L 257.695284 205.029225 
L 263.527402 217.730025 
L 269.35952 200.795625 
L 275.191637 205.029225 
L 281.023755 201.400425 
L 286.855872 202.005225 
L 292.68799 205.634025 
L 298.520108 194.747625 
L 304.352225 182.651625 
L 310.184343 188.699625 
L 316.01646 181.442025 
L 321.848578 200.190825 
L 327.680695 175.998825 
L 333.512813 208.658025 
L 339.344931 177.813225 
L 345.177048 189.304425 
L 351.009166 179.022825 
L 356.841283 198.981225 
L 362.673401 178.418025 
L 368.505519 210.472425 
L 374.337636 195.352425 
L 380.169754 185.070825 
L 386.001871 168.136425 
L 391.833989 187.490025 
L 397.666106 191.118825 
L 403.498224 177.813225 
L 409.330342 183.861225 
L 415.162459 191.723625 
L 420.994577 189.304425 
L 426.826694 208.053225 
" clip-path="url(#pdeced7d8e2)" style="fill: none; stroke: #2ca02c; stroke-width: 1.5; stroke-linecap: square"/>
   </g>
   <g id="patch_3">
    <path d="M 89.8275 300.587625 
L 89.8275 34.475625 
" style="fill: none; stroke: #000000; stroke-width: 0.8; stroke-linejoin: miter; stroke-linecap: square"/>
   </g>
   <g id="patch_4">
    <path d="M 446.9475 300.587625 
L 446.9475 34.475625 
" style="fill: none; stroke: #000000; stroke-width: 0.8; stroke-linejoin: miter; stroke-linecap: square"/>
   </g>
   <g id="patch_5">
    <path d="M 89.8275 300.587625 
L 446.9475 300.587625 
" style="fill: none; stroke: #000000; stroke-width: 0.8; stroke-linejoin: miter; stroke-linecap: square"/>
   </g>
   <g id="patch_6">
    <path d="M 89.8275 34.475625 
L 446.9475 34.475625 
" style="fill: none; stroke: #000000; stroke-width: 0.8; stroke-linejoin: miter; stroke-linecap: square"/>
   </g>
   <g id="text_9">
    <!-- Window Open -->
    <g transform="translate(171.35 28.475625) scale(0.28 -0.28)">
     <defs>
      <path id="DejaVuSans-57" d="M 213 4666 
L 850 4666 
L 1831 722 
L 2809 4666 
L 3519 4666 
L 4500 722 
L 5478 4666 
L 6119 4666 
L 4947 0 
L 4153 0 
L 3169 4050 
L 2175 0 
L 1381 0 
L 213 4666 
z
" transform="scale(0.015625)"/>
      <path id="DejaVuSans-6e" d="M 3513 2113 
L 3513 0 
L 2938 0 
L 2938 2094 
Q 2938 2591 2744 2837 
Q 2550 3084 2163 3084 
Q 1697 3084 1428 2787 
Q 1159 2491 1159 1978 
L 1159 0 
L 581 0 
L 581 3500 
L 1159 3500 
L 1159 2956 
Q 1366 3272 1645 3428 
Q 1925 3584 2291 3584 
Q 2894 3584 3203 3211 
Q 3513 2838 3513 2113 
z
" transform="scale(0.015625)"/>
      <path id="DejaVuSans-77" d="M 269 3500 
L 844 3500 
L 1563 769 
L 2278 3500 
L 2956 3500 
L 3675 769 
L 4391 3500 
L 4966 3500 
L 4050 0 
L 3372 0 
L 2619 2869 
L 1863 0 
L 1184 0 
L 269 3500 
z
" transform="scale(0.015625)"/>
      <path id="DejaVuSans-4f" d="M 2522 4238 
Q 1834 4238 1429 3725 
Q 1025 3213 1025 2328 
Q 1025 1447 1429 934 
Q 1834 422 2522 422 
Q 3209 422 3611 934 
Q 4013 1447 4013 2328 
Q 4013 3213 3611 3725 
Q 3209 4238 2522 4238 
z
M 2522 4750 
Q 3503 4750 4090 4092 
Q 4678 3434 4678 2328 
Q 4678 1225 4090 567 
Q 3503 -91 2522 -91 
Q 1538 -91 948 565 
Q 359 1222 359 2328 
Q 359 3434 948 4092 
Q 1538 4750 2522 4750 
z
" transform="scale(0.015625)"/>
     </defs>
     <use xlink:href="#DejaVuSans-57"/>
     <use xlink:href="#DejaVuSans-69" x="96.626953"/>
     <use xlink:href="#DejaVuSans-6e" x="124.410156"/>
     <use xlink:href="#DejaVuSans-64" x="187.789062"/>
     <use xlink:href="#DejaVuSans-6f" x="251.265625"/>
     <use xlink:href="#DejaVuSans-77" x="312.447266"/>
     <use xlink:href="#DejaVuSans-20" x="394.234375"/>
     <use xlink:href="#DejaVuSans-4f" x="426.021484"/>
     <use xlink:href="#DejaVuSans-70" x="504.732422"/>
     <use xlink:href="#DejaVuSans-65" x="568.208984"/>
     <use xlink:href="#DejaVuSans-6e" x="629.732422"/>
    </g>
   </g>
   <g id="legend_1">
    <g id="patch_7">
     <path d="M 255.312188 128.1375 
L 434.3475 128.1375 
Q 437.9475 128.1375 437.9475 124.5375 
L 437.9475 47.075625 
Q 437.9475 43.475625 434.3475 43.475625 
L 255.312188 43.475625 
Q 251.712188 43.475625 251.712188 47.075625 
L 251.712188 124.5375 
Q 251.712188 128.1375 255.312188 128.1375 
z
" style="fill: #ffffff; opacity: 0.8; stroke: #cccccc; stroke-linejoin: miter"/>
    </g>
    <g id="line2d_10">
     <path d="M 258.912188 58.052812 
L 276.912188 58.052812 
L 294.912188 58.052812 
" style="fill: none; stroke: #1f77b4; stroke-width: 1.5; stroke-linecap: square"/>
    </g>
    <g id="text_10">
     <!-- COAVC (ours) -->
     <g transform="translate(309.312187 64.352812) scale(0.18 -0.18)">
      <defs>
       <path id="DejaVuSans-43" d="M 4122 4306 
L 4122 3641 
Q 3803 3938 3442 4084 
Q 3081 4231 2675 4231 
Q 1875 4231 1450 3742 
Q 1025 3253 1025 2328 
Q 1025 1406 1450 917 
Q 1875 428 2675 428 
Q 3081 428 3442 575 
Q 3803 722 4122 1019 
L 4122 359 
Q 3791 134 3420 21 
Q 3050 -91 2638 -91 
Q 1578 -91 968 557 
Q 359 1206 359 2328 
Q 359 3453 968 4101 
Q 1578 4750 2638 4750 
Q 3056 4750 3426 4639 
Q 3797 4528 4122 4306 
z
" transform="scale(0.015625)"/>
       <path id="DejaVuSans-41" d="M 2188 4044 
L 1331 1722 
L 3047 1722 
L 2188 4044 
z
M 1831 4666 
L 2547 4666 
L 4325 0 
L 3669 0 
L 3244 1197 
L 1141 1197 
L 716 0 
L 50 0 
L 1831 4666 
z
" transform="scale(0.015625)"/>
       <path id="DejaVuSans-56" d="M 1831 0 
L 50 4666 
L 709 4666 
L 2188 738 
L 3669 4666 
L 4325 4666 
L 2547 0 
L 1831 0 
z
" transform="scale(0.015625)"/>
       <path id="DejaVuSans-28" d="M 1984 4856 
Q 1566 4138 1362 3434 
Q 1159 2731 1159 2009 
Q 1159 1288 1364 580 
Q 1569 -128 1984 -844 
L 1484 -844 
Q 1016 -109 783 600 
Q 550 1309 550 2009 
Q 550 2706 781 3412 
Q 1013 4119 1484 4856 
L 1984 4856 
z
" transform="scale(0.015625)"/>
       <path id="DejaVuSans-29" d="M 513 4856 
L 1013 4856 
Q 1481 4119 1714 3412 
Q 1947 2706 1947 2009 
Q 1947 1309 1714 600 
Q 1481 -109 1013 -844 
L 513 -844 
Q 928 -128 1133 580 
Q 1338 1288 1338 2009 
Q 1338 2731 1133 3434 
Q 928 4138 513 4856 
z
" transform="scale(0.015625)"/>
      </defs>
      <use xlink:href="#DejaVuSans-43"/>
      <use xlink:href="#DejaVuSans-4f" x="69.824219"/>
      <use xlink:href="#DejaVuSans-41" x="146.785156"/>
      <use xlink:href="#DejaVuSans-56" x="208.818359"/>
      <use xlink:href="#DejaVuSans-43" x="277.226562"/>
      <use xlink:href="#DejaVuSans-20" x="347.050781"/>
      <use xlink:href="#DejaVuSans-28" x="378.837891"/>
      <use xlink:href="#DejaVuSans-6f" x="417.851562"/>
      <use xlink:href="#DejaVuSans-75" x="479.033203"/>
      <use xlink:href="#DejaVuSans-72" x="542.412109"/>
      <use xlink:href="#DejaVuSans-73" x="583.525391"/>
      <use xlink:href="#DejaVuSans-29" x="635.625"/>
     </g>
    </g>
    <g id="line2d_11">
     <path d="M 258.912188 84.473437 
L 276.912188 84.473437 
L 294.912188 84.473437 
" style="fill: none; stroke: #ff7f0e; stroke-width: 1.5; stroke-linecap: square"/>
    </g>
    <g id="text_11">
     <!-- PPO -->
     <g transform="translate(309.312187 90.773437) scale(0.18 -0.18)">
      <defs>
       <path id="DejaVuSans-50" d="M 1259 4147 
L 1259 2394 
L 2053 2394 
Q 2494 2394 2734 2622 
Q 2975 2850 2975 3272 
Q 2975 3691 2734 3919 
Q 2494 4147 2053 4147 
L 1259 4147 
z
M 628 4666 
L 2053 4666 
Q 2838 4666 3239 4311 
Q 3641 3956 3641 3272 
Q 3641 2581 3239 2228 
Q 2838 1875 2053 1875 
L 1259 1875 
L 1259 0 
L 628 0 
L 628 4666 
z
" transform="scale(0.015625)"/>
      </defs>
      <use xlink:href="#DejaVuSans-50"/>
      <use xlink:href="#DejaVuSans-50" x="60.302734"/>
      <use xlink:href="#DejaVuSans-4f" x="120.605469"/>
     </g>
    </g>
    <g id="line2d_12">
     <path d="M 258.912188 110.894062 
L 276.912188 110.894062 
L 294.912188 110.894062 
" style="fill: none; stroke: #2ca02c; stroke-width: 1.5; stroke-linecap: square"/>
    </g>
    <g id="text_12">
     <!-- TQC -->
     <g transform="translate(309.312187 117.194062) scale(0.18 -0.18)">
      <defs>
       <path id="DejaVuSans-51" d="M 2522 4238 
Q 1834 4238 1429 3725 
Q 1025 3213 1025 2328 
Q 1025 1447 1429 934 
Q 1834 422 2522 422 
Q 3209 422 3611 934 
Q 4013 1447 4013 2328 
Q 4013 3213 3611 3725 
Q 3209 4238 2522 4238 
z
M 3406 84 
L 4238 -825 
L 3475 -825 
L 2784 -78 
Q 2681 -84 2626 -87 
Q 2572 -91 2522 -91 
Q 1538 -91 948 567 
Q 359 1225 359 2328 
Q 359 3434 948 4092 
Q 1538 4750 2522 4750 
Q 3503 4750 4090 4092 
Q 4678 3434 4678 2328 
Q 4678 1516 4351 937 
Q 4025 359 3406 84 
z
" transform="scale(0.015625)"/>
      </defs>
      <use xlink:href="#DejaVuSans-54"/>
      <use xlink:href="#DejaVuSans-51" x="61.083984"/>
      <use xlink:href="#DejaVuSans-43" x="139.794922"/>
     </g>
    </g>
   </g>
  </g>
 </g>
 <defs>
  <clipPath id="pdeced7d8e2">
   <rect x="89.8275" y="34.475625" width="357.12" height="266.112"/>
  </clipPath>
 </defs>
</svg>
